<?xml version="1.0" encoding="utf-8" standalone="no"?>
<!DOCTYPE svg PUBLIC "-//W3C//DTD SVG 1.1//EN"
  "http://www.w3.org/Graphics/SVG/1.1/DTD/svg11.dtd">
<!-- Created with matplotlib (http://matplotlib.org/) -->
<svg height="720pt" version="1.1" viewBox="0 0 720 720" width="720pt" xmlns="http://www.w3.org/2000/svg" xmlns:xlink="http://www.w3.org/1999/xlink">
 <defs>
  <style type="text/css">
*{stroke-linecap:butt;stroke-linejoin:round;}
  </style>
 </defs>
 <g id="figure_1">
  <g id="patch_1">
   <path d="M 0 720 
L 720 720 
L 720 0 
L 0 0 
z
" style="fill:#ffffff;"/>
  </g>
  <g id="axes_1">
   <g id="patch_2">
    <path d="M 90 581.4 
L 536.4 581.4 
L 536.4 135 
L 90 135 
z
" style="fill:#ffffff;"/>
   </g>
   <g id="QuadMesh_1">
    <path clip-path="url(#pab74a1434d)" d="M 90 135 
L 134.64 135 
L 134.64 179.64 
L 90 179.64 
L 90 135 
" style="fill:none;stroke:#ffffff;stroke-width:0.5;"/>
    <path clip-path="url(#pab74a1434d)" d="M 134.64 135 
L 179.28 135 
L 179.28 179.64 
L 134.64 179.64 
L 134.64 135 
" style="fill:none;stroke:#ffffff;stroke-width:0.5;"/>
    <path clip-path="url(#pab74a1434d)" d="M 179.28 135 
L 223.92 135 
L 223.92 179.64 
L 179.28 179.64 
L 179.28 135 
" style="fill:none;stroke:#ffffff;stroke-width:0.5;"/>
    <path clip-path="url(#pab74a1434d)" d="M 223.92 135 
L 268.56 135 
L 268.56 179.64 
L 223.92 179.64 
L 223.92 135 
" style="fill:none;stroke:#ffffff;stroke-width:0.5;"/>
    <path clip-path="url(#pab74a1434d)" d="M 268.56 135 
L 313.2 135 
L 313.2 179.64 
L 268.56 179.64 
L 268.56 135 
" style="fill:none;stroke:#ffffff;stroke-width:0.5;"/>
    <path clip-path="url(#pab74a1434d)" d="M 313.2 135 
L 357.84 135 
L 357.84 179.64 
L 313.2 179.64 
L 313.2 135 
" style="fill:none;stroke:#ffffff;stroke-width:0.5;"/>
    <path clip-path="url(#pab74a1434d)" d="M 357.84 135 
L 402.48 135 
L 402.48 179.64 
L 357.84 179.64 
L 357.84 135 
" style="fill:none;stroke:#ffffff;stroke-width:0.5;"/>
    <path clip-path="url(#pab74a1434d)" d="M 402.48 135 
L 447.12 135 
L 447.12 179.64 
L 402.48 179.64 
L 402.48 135 
" style="fill:none;stroke:#ffffff;stroke-width:0.5;"/>
    <path clip-path="url(#pab74a1434d)" d="M 447.12 135 
L 491.76 135 
L 491.76 179.64 
L 447.12 179.64 
L 447.12 135 
" style="fill:none;stroke:#ffffff;stroke-width:0.5;"/>
    <path clip-path="url(#pab74a1434d)" d="M 491.76 135 
L 536.4 135 
L 536.4 179.64 
L 491.76 179.64 
L 491.76 135 
" style="fill:none;stroke:#ffffff;stroke-width:0.5;"/>
    <path clip-path="url(#pab74a1434d)" d="M 90 179.64 
L 134.64 179.64 
L 134.64 224.28 
L 90 224.28 
L 90 179.64 
" style="fill:#c3e0d4;stroke:#ffffff;stroke-width:0.5;"/>
    <path clip-path="url(#pab74a1434d)" d="M 134.64 179.64 
L 179.28 179.64 
L 179.28 224.28 
L 134.64 224.28 
L 134.64 179.64 
" style="fill:none;stroke:#ffffff;stroke-width:0.5;"/>
    <path clip-path="url(#pab74a1434d)" d="M 179.28 179.64 
L 223.92 179.64 
L 223.92 224.28 
L 179.28 224.28 
L 179.28 179.64 
" style="fill:none;stroke:#ffffff;stroke-width:0.5;"/>
    <path clip-path="url(#pab74a1434d)" d="M 223.92 179.64 
L 268.56 179.64 
L 268.56 224.28 
L 223.92 224.28 
L 223.92 179.64 
" style="fill:none;stroke:#ffffff;stroke-width:0.5;"/>
    <path clip-path="url(#pab74a1434d)" d="M 268.56 179.64 
L 313.2 179.64 
L 313.2 224.28 
L 268.56 224.28 
L 268.56 179.64 
" style="fill:none;stroke:#ffffff;stroke-width:0.5;"/>
    <path clip-path="url(#pab74a1434d)" d="M 313.2 179.64 
L 357.84 179.64 
L 357.84 224.28 
L 313.2 224.28 
L 313.2 179.64 
" style="fill:none;stroke:#ffffff;stroke-width:0.5;"/>
    <path clip-path="url(#pab74a1434d)" d="M 357.84 179.64 
L 402.48 179.64 
L 402.48 224.28 
L 357.84 224.28 
L 357.84 179.64 
" style="fill:none;stroke:#ffffff;stroke-width:0.5;"/>
    <path clip-path="url(#pab74a1434d)" d="M 402.48 179.64 
L 447.12 179.64 
L 447.12 224.28 
L 402.48 224.28 
L 402.48 179.64 
" style="fill:none;stroke:#ffffff;stroke-width:0.5;"/>
    <path clip-path="url(#pab74a1434d)" d="M 447.12 179.64 
L 491.76 179.64 
L 491.76 224.28 
L 447.12 224.28 
L 447.12 179.64 
" style="fill:none;stroke:#ffffff;stroke-width:0.5;"/>
    <path clip-path="url(#pab74a1434d)" d="M 491.76 179.64 
L 536.4 179.64 
L 536.4 224.28 
L 491.76 224.28 
L 491.76 179.64 
" style="fill:none;stroke:#ffffff;stroke-width:0.5;"/>
    <path clip-path="url(#pab74a1434d)" d="M 90 224.28 
L 134.64 224.28 
L 134.64 268.92 
L 90 268.92 
L 90 224.28 
" style="fill:#c3e0d4;stroke:#ffffff;stroke-width:0.5;"/>
    <path clip-path="url(#pab74a1434d)" d="M 134.64 224.28 
L 179.28 224.28 
L 179.28 268.92 
L 134.64 268.92 
L 134.64 224.28 
" style="fill:#9fccb9;stroke:#ffffff;stroke-width:0.5;"/>
    <path clip-path="url(#pab74a1434d)" d="M 179.28 224.28 
L 223.92 224.28 
L 223.92 268.92 
L 179.28 268.92 
L 179.28 224.28 
" style="fill:none;stroke:#ffffff;stroke-width:0.5;"/>
    <path clip-path="url(#pab74a1434d)" d="M 223.92 224.28 
L 268.56 224.28 
L 268.56 268.92 
L 223.92 268.92 
L 223.92 224.28 
" style="fill:none;stroke:#ffffff;stroke-width:0.5;"/>
    <path clip-path="url(#pab74a1434d)" d="M 268.56 224.28 
L 313.2 224.28 
L 313.2 268.92 
L 268.56 268.92 
L 268.56 224.28 
" style="fill:none;stroke:#ffffff;stroke-width:0.5;"/>
    <path clip-path="url(#pab74a1434d)" d="M 313.2 224.28 
L 357.84 224.28 
L 357.84 268.92 
L 313.2 268.92 
L 313.2 224.28 
" style="fill:none;stroke:#ffffff;stroke-width:0.5;"/>
    <path clip-path="url(#pab74a1434d)" d="M 357.84 224.28 
L 402.48 224.28 
L 402.48 268.92 
L 357.84 268.92 
L 357.84 224.28 
" style="fill:none;stroke:#ffffff;stroke-width:0.5;"/>
    <path clip-path="url(#pab74a1434d)" d="M 402.48 224.28 
L 447.12 224.28 
L 447.12 268.92 
L 402.48 268.92 
L 402.48 224.28 
" style="fill:none;stroke:#ffffff;stroke-width:0.5;"/>
    <path clip-path="url(#pab74a1434d)" d="M 447.12 224.28 
L 491.76 224.28 
L 491.76 268.92 
L 447.12 268.92 
L 447.12 224.28 
" style="fill:none;stroke:#ffffff;stroke-width:0.5;"/>
    <path clip-path="url(#pab74a1434d)" d="M 491.76 224.28 
L 536.4 224.28 
L 536.4 268.92 
L 491.76 268.92 
L 491.76 224.28 
" style="fill:none;stroke:#ffffff;stroke-width:0.5;"/>
    <path clip-path="url(#pab74a1434d)" d="M 90 268.92 
L 134.64 268.92 
L 134.64 313.56 
L 90 313.56 
L 90 268.92 
" style="fill:#c3e0d4;stroke:#ffffff;stroke-width:0.5;"/>
    <path clip-path="url(#pab74a1434d)" d="M 134.64 268.92 
L 179.28 268.92 
L 179.28 313.56 
L 134.64 313.56 
L 134.64 268.92 
" style="fill:#c3e0d4;stroke:#ffffff;stroke-width:0.5;"/>
    <path clip-path="url(#pab74a1434d)" d="M 179.28 268.92 
L 223.92 268.92 
L 223.92 313.56 
L 179.28 313.56 
L 179.28 268.92 
" style="fill:#c3e0d4;stroke:#ffffff;stroke-width:0.5;"/>
    <path clip-path="url(#pab74a1434d)" d="M 223.92 268.92 
L 268.56 268.92 
L 268.56 313.56 
L 223.92 313.56 
L 223.92 268.92 
" style="fill:none;stroke:#ffffff;stroke-width:0.5;"/>
    <path clip-path="url(#pab74a1434d)" d="M 268.56 268.92 
L 313.2 268.92 
L 313.2 313.56 
L 268.56 313.56 
L 268.56 268.92 
" style="fill:none;stroke:#ffffff;stroke-width:0.5;"/>
    <path clip-path="url(#pab74a1434d)" d="M 313.2 268.92 
L 357.84 268.92 
L 357.84 313.56 
L 313.2 313.56 
L 313.2 268.92 
" style="fill:none;stroke:#ffffff;stroke-width:0.5;"/>
    <path clip-path="url(#pab74a1434d)" d="M 357.84 268.92 
L 402.48 268.92 
L 402.48 313.56 
L 357.84 313.56 
L 357.84 268.92 
" style="fill:none;stroke:#ffffff;stroke-width:0.5;"/>
    <path clip-path="url(#pab74a1434d)" d="M 402.48 268.92 
L 447.12 268.92 
L 447.12 313.56 
L 402.48 313.56 
L 402.48 268.92 
" style="fill:none;stroke:#ffffff;stroke-width:0.5;"/>
    <path clip-path="url(#pab74a1434d)" d="M 447.12 268.92 
L 491.76 268.92 
L 491.76 313.56 
L 447.12 313.56 
L 447.12 268.92 
" style="fill:none;stroke:#ffffff;stroke-width:0.5;"/>
    <path clip-path="url(#pab74a1434d)" d="M 491.76 268.92 
L 536.4 268.92 
L 536.4 313.56 
L 491.76 313.56 
L 491.76 268.92 
" style="fill:none;stroke:#ffffff;stroke-width:0.5;"/>
    <path clip-path="url(#pab74a1434d)" d="M 90 313.56 
L 134.64 313.56 
L 134.64 358.2 
L 90 358.2 
L 90 313.56 
" style="fill:#c3e0d4;stroke:#ffffff;stroke-width:0.5;"/>
    <path clip-path="url(#pab74a1434d)" d="M 134.64 313.56 
L 179.28 313.56 
L 179.28 358.2 
L 134.64 358.2 
L 134.64 313.56 
" style="fill:#c3e0d4;stroke:#ffffff;stroke-width:0.5;"/>
    <path clip-path="url(#pab74a1434d)" d="M 179.28 313.56 
L 223.92 313.56 
L 223.92 358.2 
L 179.28 358.2 
L 179.28 313.56 
" style="fill:#9fccb9;stroke:#ffffff;stroke-width:0.5;"/>
    <path clip-path="url(#pab74a1434d)" d="M 223.92 313.56 
L 268.56 313.56 
L 268.56 358.2 
L 223.92 358.2 
L 223.92 313.56 
" style="fill:#3b936e;stroke:#ffffff;stroke-width:0.5;"/>
    <path clip-path="url(#pab74a1434d)" d="M 268.56 313.56 
L 313.2 313.56 
L 313.2 358.2 
L 268.56 358.2 
L 268.56 313.56 
" style="fill:none;stroke:#ffffff;stroke-width:0.5;"/>
    <path clip-path="url(#pab74a1434d)" d="M 313.2 313.56 
L 357.84 313.56 
L 357.84 358.2 
L 313.2 358.2 
L 313.2 313.56 
" style="fill:none;stroke:#ffffff;stroke-width:0.5;"/>
    <path clip-path="url(#pab74a1434d)" d="M 357.84 313.56 
L 402.48 313.56 
L 402.48 358.2 
L 357.84 358.2 
L 357.84 313.56 
" style="fill:none;stroke:#ffffff;stroke-width:0.5;"/>
    <path clip-path="url(#pab74a1434d)" d="M 402.48 313.56 
L 447.12 313.56 
L 447.12 358.2 
L 402.48 358.2 
L 402.48 313.56 
" style="fill:none;stroke:#ffffff;stroke-width:0.5;"/>
    <path clip-path="url(#pab74a1434d)" d="M 447.12 313.56 
L 491.76 313.56 
L 491.76 358.2 
L 447.12 358.2 
L 447.12 313.56 
" style="fill:none;stroke:#ffffff;stroke-width:0.5;"/>
    <path clip-path="url(#pab74a1434d)" d="M 491.76 313.56 
L 536.4 313.56 
L 536.4 358.2 
L 491.76 358.2 
L 491.76 313.56 
" style="fill:none;stroke:#ffffff;stroke-width:0.5;"/>
    <path clip-path="url(#pab74a1434d)" d="M 90 358.2 
L 134.64 358.2 
L 134.64 402.84 
L 90 402.84 
L 90 358.2 
" style="fill:#c3e0d4;stroke:#ffffff;stroke-width:0.5;"/>
    <path clip-path="url(#pab74a1434d)" d="M 134.64 358.2 
L 179.28 358.2 
L 179.28 402.84 
L 134.64 402.84 
L 134.64 358.2 
" style="fill:#c3e0d4;stroke:#ffffff;stroke-width:0.5;"/>
    <path clip-path="url(#pab74a1434d)" d="M 179.28 358.2 
L 223.92 358.2 
L 223.92 402.84 
L 179.28 402.84 
L 179.28 358.2 
" style="fill:#e4f3ed;stroke:#ffffff;stroke-width:0.5;"/>
    <path clip-path="url(#pab74a1434d)" d="M 223.92 358.2 
L 268.56 358.2 
L 268.56 402.84 
L 223.92 402.84 
L 223.92 358.2 
" style="fill:#ebe3fa;stroke:#ffffff;stroke-width:0.5;"/>
    <path clip-path="url(#pab74a1434d)" d="M 268.56 358.2 
L 313.2 358.2 
L 313.2 402.84 
L 268.56 402.84 
L 268.56 358.2 
" style="fill:#5ca687;stroke:#ffffff;stroke-width:0.5;"/>
    <path clip-path="url(#pab74a1434d)" d="M 313.2 358.2 
L 357.84 358.2 
L 357.84 402.84 
L 313.2 402.84 
L 313.2 358.2 
" style="fill:none;stroke:#ffffff;stroke-width:0.5;"/>
    <path clip-path="url(#pab74a1434d)" d="M 357.84 358.2 
L 402.48 358.2 
L 402.48 402.84 
L 357.84 402.84 
L 357.84 358.2 
" style="fill:none;stroke:#ffffff;stroke-width:0.5;"/>
    <path clip-path="url(#pab74a1434d)" d="M 402.48 358.2 
L 447.12 358.2 
L 447.12 402.84 
L 402.48 402.84 
L 402.48 358.2 
" style="fill:none;stroke:#ffffff;stroke-width:0.5;"/>
    <path clip-path="url(#pab74a1434d)" d="M 447.12 358.2 
L 491.76 358.2 
L 491.76 402.84 
L 447.12 402.84 
L 447.12 358.2 
" style="fill:none;stroke:#ffffff;stroke-width:0.5;"/>
    <path clip-path="url(#pab74a1434d)" d="M 491.76 358.2 
L 536.4 358.2 
L 536.4 402.84 
L 491.76 402.84 
L 491.76 358.2 
" style="fill:none;stroke:#ffffff;stroke-width:0.5;"/>
    <path clip-path="url(#pab74a1434d)" d="M 90 402.84 
L 134.64 402.84 
L 134.64 447.48 
L 90 447.48 
L 90 402.84 
" style="fill:#c3e0d4;stroke:#ffffff;stroke-width:0.5;"/>
    <path clip-path="url(#pab74a1434d)" d="M 134.64 402.84 
L 179.28 402.84 
L 179.28 447.48 
L 134.64 447.48 
L 134.64 402.84 
" style="fill:#c3e0d4;stroke:#ffffff;stroke-width:0.5;"/>
    <path clip-path="url(#pab74a1434d)" d="M 179.28 402.84 
L 223.92 402.84 
L 223.92 447.48 
L 179.28 447.48 
L 179.28 402.84 
" style="fill:#e4f3ed;stroke:#ffffff;stroke-width:0.5;"/>
    <path clip-path="url(#pab74a1434d)" d="M 223.92 402.84 
L 268.56 402.84 
L 268.56 447.48 
L 223.92 447.48 
L 223.92 402.84 
" style="fill:#e4f3ed;stroke:#ffffff;stroke-width:0.5;"/>
    <path clip-path="url(#pab74a1434d)" d="M 268.56 402.84 
L 313.2 402.84 
L 313.2 447.48 
L 268.56 447.48 
L 268.56 402.84 
" style="fill:#7eb9a0;stroke:#ffffff;stroke-width:0.5;"/>
    <path clip-path="url(#pab74a1434d)" d="M 313.2 402.84 
L 357.84 402.84 
L 357.84 447.48 
L 313.2 447.48 
L 313.2 402.84 
" style="fill:#a485ea;stroke:#ffffff;stroke-width:0.5;"/>
    <path clip-path="url(#pab74a1434d)" d="M 357.84 402.84 
L 402.48 402.84 
L 402.48 447.48 
L 357.84 447.48 
L 357.84 402.84 
" style="fill:none;stroke:#ffffff;stroke-width:0.5;"/>
    <path clip-path="url(#pab74a1434d)" d="M 402.48 402.84 
L 447.12 402.84 
L 447.12 447.48 
L 402.48 447.48 
L 402.48 402.84 
" style="fill:none;stroke:#ffffff;stroke-width:0.5;"/>
    <path clip-path="url(#pab74a1434d)" d="M 447.12 402.84 
L 491.76 402.84 
L 491.76 447.48 
L 447.12 447.48 
L 447.12 402.84 
" style="fill:none;stroke:#ffffff;stroke-width:0.5;"/>
    <path clip-path="url(#pab74a1434d)" d="M 491.76 402.84 
L 536.4 402.84 
L 536.4 447.48 
L 491.76 447.48 
L 491.76 402.84 
" style="fill:none;stroke:#ffffff;stroke-width:0.5;"/>
    <path clip-path="url(#pab74a1434d)" d="M 90 447.48 
L 134.64 447.48 
L 134.64 492.12 
L 90 492.12 
L 90 447.48 
" style="fill:#e4f3ed;stroke:#ffffff;stroke-width:0.5;"/>
    <path clip-path="url(#pab74a1434d)" d="M 134.64 447.48 
L 179.28 447.48 
L 179.28 492.12 
L 134.64 492.12 
L 134.64 447.48 
" style="fill:#c3e0d4;stroke:#ffffff;stroke-width:0.5;"/>
    <path clip-path="url(#pab74a1434d)" d="M 179.28 447.48 
L 223.92 447.48 
L 223.92 492.12 
L 179.28 492.12 
L 179.28 447.48 
" style="fill:#c3e0d4;stroke:#ffffff;stroke-width:0.5;"/>
    <path clip-path="url(#pab74a1434d)" d="M 223.92 447.48 
L 268.56 447.48 
L 268.56 492.12 
L 223.92 492.12 
L 223.92 447.48 
" style="fill:#9fccb9;stroke:#ffffff;stroke-width:0.5;"/>
    <path clip-path="url(#pab74a1434d)" d="M 268.56 447.48 
L 313.2 447.48 
L 313.2 492.12 
L 268.56 492.12 
L 268.56 447.48 
" style="fill:#c3e0d4;stroke:#ffffff;stroke-width:0.5;"/>
    <path clip-path="url(#pab74a1434d)" d="M 313.2 447.48 
L 357.84 447.48 
L 357.84 492.12 
L 313.2 492.12 
L 313.2 447.48 
" style="fill:#ebe3fa;stroke:#ffffff;stroke-width:0.5;"/>
    <path clip-path="url(#pab74a1434d)" d="M 357.84 447.48 
L 402.48 447.48 
L 402.48 492.12 
L 357.84 492.12 
L 357.84 447.48 
" style="fill:#c3e0d4;stroke:#ffffff;stroke-width:0.5;"/>
    <path clip-path="url(#pab74a1434d)" d="M 402.48 447.48 
L 447.12 447.48 
L 447.12 492.12 
L 402.48 492.12 
L 402.48 447.48 
" style="fill:none;stroke:#ffffff;stroke-width:0.5;"/>
    <path clip-path="url(#pab74a1434d)" d="M 447.12 447.48 
L 491.76 447.48 
L 491.76 492.12 
L 447.12 492.12 
L 447.12 447.48 
" style="fill:none;stroke:#ffffff;stroke-width:0.5;"/>
    <path clip-path="url(#pab74a1434d)" d="M 491.76 447.48 
L 536.4 447.48 
L 536.4 492.12 
L 491.76 492.12 
L 491.76 447.48 
" style="fill:none;stroke:#ffffff;stroke-width:0.5;"/>
    <path clip-path="url(#pab74a1434d)" d="M 90 492.12 
L 134.64 492.12 
L 134.64 536.76 
L 90 536.76 
L 90 492.12 
" style="fill:#c3e0d4;stroke:#ffffff;stroke-width:0.5;"/>
    <path clip-path="url(#pab74a1434d)" d="M 134.64 492.12 
L 179.28 492.12 
L 179.28 536.76 
L 134.64 536.76 
L 134.64 492.12 
" style="fill:#c3e0d4;stroke:#ffffff;stroke-width:0.5;"/>
    <path clip-path="url(#pab74a1434d)" d="M 179.28 492.12 
L 223.92 492.12 
L 223.92 536.76 
L 179.28 536.76 
L 179.28 492.12 
" style="fill:#e4f3ed;stroke:#ffffff;stroke-width:0.5;"/>
    <path clip-path="url(#pab74a1434d)" d="M 223.92 492.12 
L 268.56 492.12 
L 268.56 536.76 
L 223.92 536.76 
L 223.92 492.12 
" style="fill:#ebe3fa;stroke:#ffffff;stroke-width:0.5;"/>
    <path clip-path="url(#pab74a1434d)" d="M 268.56 492.12 
L 313.2 492.12 
L 313.2 536.76 
L 268.56 536.76 
L 268.56 492.12 
" style="fill:#5ca687;stroke:#ffffff;stroke-width:0.5;"/>
    <path clip-path="url(#pab74a1434d)" d="M 313.2 492.12 
L 357.84 492.12 
L 357.84 536.76 
L 313.2 536.76 
L 313.2 492.12 
" style="fill:#936ee6;stroke:#ffffff;stroke-width:0.5;"/>
    <path clip-path="url(#pab74a1434d)" d="M 357.84 492.12 
L 402.48 492.12 
L 402.48 536.76 
L 357.84 536.76 
L 357.84 492.12 
" style="fill:#b69cee;stroke:#ffffff;stroke-width:0.5;"/>
    <path clip-path="url(#pab74a1434d)" d="M 402.48 492.12 
L 447.12 492.12 
L 447.12 536.76 
L 402.48 536.76 
L 402.48 492.12 
" style="fill:#ebe3fa;stroke:#ffffff;stroke-width:0.5;"/>
    <path clip-path="url(#pab74a1434d)" d="M 447.12 492.12 
L 491.76 492.12 
L 491.76 536.76 
L 447.12 536.76 
L 447.12 492.12 
" style="fill:none;stroke:#ffffff;stroke-width:0.5;"/>
    <path clip-path="url(#pab74a1434d)" d="M 491.76 492.12 
L 536.4 492.12 
L 536.4 536.76 
L 491.76 536.76 
L 491.76 492.12 
" style="fill:none;stroke:#ffffff;stroke-width:0.5;"/>
    <path clip-path="url(#pab74a1434d)" d="M 90 536.76 
L 134.64 536.76 
L 134.64 581.4 
L 90 581.4 
L 90 536.76 
" style="fill:#c3e0d4;stroke:#ffffff;stroke-width:0.5;"/>
    <path clip-path="url(#pab74a1434d)" d="M 134.64 536.76 
L 179.28 536.76 
L 179.28 581.4 
L 134.64 581.4 
L 134.64 536.76 
" style="fill:#c3e0d4;stroke:#ffffff;stroke-width:0.5;"/>
    <path clip-path="url(#pab74a1434d)" d="M 179.28 536.76 
L 223.92 536.76 
L 223.92 581.4 
L 179.28 581.4 
L 179.28 536.76 
" style="fill:#e4f3ed;stroke:#ffffff;stroke-width:0.5;"/>
    <path clip-path="url(#pab74a1434d)" d="M 223.92 536.76 
L 268.56 536.76 
L 268.56 581.4 
L 223.92 581.4 
L 223.92 536.76 
" style="fill:#d9ccf6;stroke:#ffffff;stroke-width:0.5;"/>
    <path clip-path="url(#pab74a1434d)" d="M 268.56 536.76 
L 313.2 536.76 
L 313.2 581.4 
L 268.56 581.4 
L 268.56 536.76 
" style="fill:#3b936e;stroke:#ffffff;stroke-width:0.5;"/>
    <path clip-path="url(#pab74a1434d)" d="M 313.2 536.76 
L 357.84 536.76 
L 357.84 581.4 
L 313.2 581.4 
L 313.2 536.76 
" style="fill:#936ee6;stroke:#ffffff;stroke-width:0.5;"/>
    <path clip-path="url(#pab74a1434d)" d="M 357.84 536.76 
L 402.48 536.76 
L 402.48 581.4 
L 357.84 581.4 
L 357.84 536.76 
" style="fill:#c7b3f2;stroke:#ffffff;stroke-width:0.5;"/>
    <path clip-path="url(#pab74a1434d)" d="M 402.48 536.76 
L 447.12 536.76 
L 447.12 581.4 
L 402.48 581.4 
L 402.48 536.76 
" style="fill:#e4f3ed;stroke:#ffffff;stroke-width:0.5;"/>
    <path clip-path="url(#pab74a1434d)" d="M 447.12 536.76 
L 491.76 536.76 
L 491.76 581.4 
L 447.12 581.4 
L 447.12 536.76 
" style="fill:#936ee6;stroke:#ffffff;stroke-width:0.5;"/>
    <path clip-path="url(#pab74a1434d)" d="M 491.76 536.76 
L 536.4 536.76 
L 536.4 581.4 
L 491.76 581.4 
L 491.76 536.76 
" style="fill:none;stroke:#ffffff;stroke-width:0.5;"/>
   </g>
   <g id="matplotlib.axis_1">
    <g id="xtick_1">
     <g id="line2d_1">
      <defs>
       <path d="M 0 0 
L 0 3.5 
" id="md409ea010d" style="stroke:#000000;stroke-width:0.8;"/>
      </defs>
      <g>
       <use style="stroke:#000000;stroke-width:0.8;" x="112.32" xlink:href="#md409ea010d" y="581.4"/>
      </g>
     </g>
     <g id="text_1">
      <!-- age -->
      <defs>
       <path d="M 34.28125 27.484375 
Q 23.390625 27.484375 19.1875 25 
Q 14.984375 22.515625 14.984375 16.5 
Q 14.984375 11.71875 18.140625 8.90625 
Q 21.296875 6.109375 26.703125 6.109375 
Q 34.1875 6.109375 38.703125 11.40625 
Q 43.21875 16.703125 43.21875 25.484375 
L 43.21875 27.484375 
z
M 52.203125 31.203125 
L 52.203125 0 
L 43.21875 0 
L 43.21875 8.296875 
Q 40.140625 3.328125 35.546875 0.953125 
Q 30.953125 -1.421875 24.3125 -1.421875 
Q 15.921875 -1.421875 10.953125 3.296875 
Q 6 8.015625 6 15.921875 
Q 6 25.140625 12.171875 29.828125 
Q 18.359375 34.515625 30.609375 34.515625 
L 43.21875 34.515625 
L 43.21875 35.40625 
Q 43.21875 41.609375 39.140625 45 
Q 35.0625 48.390625 27.6875 48.390625 
Q 23 48.390625 18.546875 47.265625 
Q 14.109375 46.140625 10.015625 43.890625 
L 10.015625 52.203125 
Q 14.9375 54.109375 19.578125 55.046875 
Q 24.21875 56 28.609375 56 
Q 40.484375 56 46.34375 49.84375 
Q 52.203125 43.703125 52.203125 31.203125 
z
" id="DejaVuSans-61"/>
       <path d="M 45.40625 27.984375 
Q 45.40625 37.75 41.375 43.109375 
Q 37.359375 48.484375 30.078125 48.484375 
Q 22.859375 48.484375 18.828125 43.109375 
Q 14.796875 37.75 14.796875 27.984375 
Q 14.796875 18.265625 18.828125 12.890625 
Q 22.859375 7.515625 30.078125 7.515625 
Q 37.359375 7.515625 41.375 12.890625 
Q 45.40625 18.265625 45.40625 27.984375 
z
M 54.390625 6.78125 
Q 54.390625 -7.171875 48.1875 -13.984375 
Q 42 -20.796875 29.203125 -20.796875 
Q 24.46875 -20.796875 20.265625 -20.09375 
Q 16.0625 -19.390625 12.109375 -17.921875 
L 12.109375 -9.1875 
Q 16.0625 -11.328125 19.921875 -12.34375 
Q 23.78125 -13.375 27.78125 -13.375 
Q 36.625 -13.375 41.015625 -8.765625 
Q 45.40625 -4.15625 45.40625 5.171875 
L 45.40625 9.625 
Q 42.625 4.78125 38.28125 2.390625 
Q 33.9375 0 27.875 0 
Q 17.828125 0 11.671875 7.65625 
Q 5.515625 15.328125 5.515625 27.984375 
Q 5.515625 40.671875 11.671875 48.328125 
Q 17.828125 56 27.875 56 
Q 33.9375 56 38.28125 53.609375 
Q 42.625 51.21875 45.40625 46.390625 
L 45.40625 54.6875 
L 54.390625 54.6875 
z
" id="DejaVuSans-67"/>
       <path d="M 56.203125 29.59375 
L 56.203125 25.203125 
L 14.890625 25.203125 
Q 15.484375 15.921875 20.484375 11.0625 
Q 25.484375 6.203125 34.421875 6.203125 
Q 39.59375 6.203125 44.453125 7.46875 
Q 49.3125 8.734375 54.109375 11.28125 
L 54.109375 2.78125 
Q 49.265625 0.734375 44.1875 -0.34375 
Q 39.109375 -1.421875 33.890625 -1.421875 
Q 20.796875 -1.421875 13.15625 6.1875 
Q 5.515625 13.8125 5.515625 26.8125 
Q 5.515625 40.234375 12.765625 48.109375 
Q 20.015625 56 32.328125 56 
Q 43.359375 56 49.78125 48.890625 
Q 56.203125 41.796875 56.203125 29.59375 
z
M 47.21875 32.234375 
Q 47.125 39.59375 43.09375 43.984375 
Q 39.0625 48.390625 32.421875 48.390625 
Q 24.90625 48.390625 20.390625 44.140625 
Q 15.875 39.890625 15.1875 32.171875 
z
" id="DejaVuSans-65"/>
      </defs>
      <g transform="translate(115.079375 607.029688)rotate(-90)scale(0.1 -0.1)">
       <use xlink:href="#DejaVuSans-61"/>
       <use x="61.279297" xlink:href="#DejaVuSans-67"/>
       <use x="124.755859" xlink:href="#DejaVuSans-65"/>
      </g>
     </g>
    </g>
    <g id="xtick_2">
     <g id="line2d_2">
      <g>
       <use style="stroke:#000000;stroke-width:0.8;" x="156.96" xlink:href="#md409ea010d" y="581.4"/>
      </g>
     </g>
     <g id="text_2">
      <!-- duration -->
      <defs>
       <path d="M 45.40625 46.390625 
L 45.40625 75.984375 
L 54.390625 75.984375 
L 54.390625 0 
L 45.40625 0 
L 45.40625 8.203125 
Q 42.578125 3.328125 38.25 0.953125 
Q 33.9375 -1.421875 27.875 -1.421875 
Q 17.96875 -1.421875 11.734375 6.484375 
Q 5.515625 14.40625 5.515625 27.296875 
Q 5.515625 40.1875 11.734375 48.09375 
Q 17.96875 56 27.875 56 
Q 33.9375 56 38.25 53.625 
Q 42.578125 51.265625 45.40625 46.390625 
z
M 14.796875 27.296875 
Q 14.796875 17.390625 18.875 11.75 
Q 22.953125 6.109375 30.078125 6.109375 
Q 37.203125 6.109375 41.296875 11.75 
Q 45.40625 17.390625 45.40625 27.296875 
Q 45.40625 37.203125 41.296875 42.84375 
Q 37.203125 48.484375 30.078125 48.484375 
Q 22.953125 48.484375 18.875 42.84375 
Q 14.796875 37.203125 14.796875 27.296875 
z
" id="DejaVuSans-64"/>
       <path d="M 8.5 21.578125 
L 8.5 54.6875 
L 17.484375 54.6875 
L 17.484375 21.921875 
Q 17.484375 14.15625 20.5 10.265625 
Q 23.53125 6.390625 29.59375 6.390625 
Q 36.859375 6.390625 41.078125 11.03125 
Q 45.3125 15.671875 45.3125 23.6875 
L 45.3125 54.6875 
L 54.296875 54.6875 
L 54.296875 0 
L 45.3125 0 
L 45.3125 8.40625 
Q 42.046875 3.421875 37.71875 1 
Q 33.40625 -1.421875 27.6875 -1.421875 
Q 18.265625 -1.421875 13.375 4.4375 
Q 8.5 10.296875 8.5 21.578125 
z
M 31.109375 56 
z
" id="DejaVuSans-75"/>
       <path d="M 41.109375 46.296875 
Q 39.59375 47.171875 37.8125 47.578125 
Q 36.03125 48 33.890625 48 
Q 26.265625 48 22.1875 43.046875 
Q 18.109375 38.09375 18.109375 28.8125 
L 18.109375 0 
L 9.078125 0 
L 9.078125 54.6875 
L 18.109375 54.6875 
L 18.109375 46.1875 
Q 20.953125 51.171875 25.484375 53.578125 
Q 30.03125 56 36.53125 56 
Q 37.453125 56 38.578125 55.875 
Q 39.703125 55.765625 41.0625 55.515625 
z
" id="DejaVuSans-72"/>
       <path d="M 18.3125 70.21875 
L 18.3125 54.6875 
L 36.8125 54.6875 
L 36.8125 47.703125 
L 18.3125 47.703125 
L 18.3125 18.015625 
Q 18.3125 11.328125 20.140625 9.421875 
Q 21.96875 7.515625 27.59375 7.515625 
L 36.8125 7.515625 
L 36.8125 0 
L 27.59375 0 
Q 17.1875 0 13.234375 3.875 
Q 9.28125 7.765625 9.28125 18.015625 
L 9.28125 47.703125 
L 2.6875 47.703125 
L 2.6875 54.6875 
L 9.28125 54.6875 
L 9.28125 70.21875 
z
" id="DejaVuSans-74"/>
       <path d="M 9.421875 54.6875 
L 18.40625 54.6875 
L 18.40625 0 
L 9.421875 0 
z
M 9.421875 75.984375 
L 18.40625 75.984375 
L 18.40625 64.59375 
L 9.421875 64.59375 
z
" id="DejaVuSans-69"/>
       <path d="M 30.609375 48.390625 
Q 23.390625 48.390625 19.1875 42.75 
Q 14.984375 37.109375 14.984375 27.296875 
Q 14.984375 17.484375 19.15625 11.84375 
Q 23.34375 6.203125 30.609375 6.203125 
Q 37.796875 6.203125 41.984375 11.859375 
Q 46.1875 17.53125 46.1875 27.296875 
Q 46.1875 37.015625 41.984375 42.703125 
Q 37.796875 48.390625 30.609375 48.390625 
z
M 30.609375 56 
Q 42.328125 56 49.015625 48.375 
Q 55.71875 40.765625 55.71875 27.296875 
Q 55.71875 13.875 49.015625 6.21875 
Q 42.328125 -1.421875 30.609375 -1.421875 
Q 18.84375 -1.421875 12.171875 6.21875 
Q 5.515625 13.875 5.515625 27.296875 
Q 5.515625 40.765625 12.171875 48.375 
Q 18.84375 56 30.609375 56 
z
" id="DejaVuSans-6f"/>
       <path d="M 54.890625 33.015625 
L 54.890625 0 
L 45.90625 0 
L 45.90625 32.71875 
Q 45.90625 40.484375 42.875 44.328125 
Q 39.84375 48.1875 33.796875 48.1875 
Q 26.515625 48.1875 22.3125 43.546875 
Q 18.109375 38.921875 18.109375 30.90625 
L 18.109375 0 
L 9.078125 0 
L 9.078125 54.6875 
L 18.109375 54.6875 
L 18.109375 46.1875 
Q 21.34375 51.125 25.703125 53.5625 
Q 30.078125 56 35.796875 56 
Q 45.21875 56 50.046875 50.171875 
Q 54.890625 44.34375 54.890625 33.015625 
z
" id="DejaVuSans-6e"/>
      </defs>
      <g transform="translate(159.719375 630.479688)rotate(-90)scale(0.1 -0.1)">
       <use xlink:href="#DejaVuSans-64"/>
       <use x="63.476562" xlink:href="#DejaVuSans-75"/>
       <use x="126.855469" xlink:href="#DejaVuSans-72"/>
       <use x="167.96875" xlink:href="#DejaVuSans-61"/>
       <use x="229.248047" xlink:href="#DejaVuSans-74"/>
       <use x="268.457031" xlink:href="#DejaVuSans-69"/>
       <use x="296.240234" xlink:href="#DejaVuSans-6f"/>
       <use x="357.421875" xlink:href="#DejaVuSans-6e"/>
      </g>
     </g>
    </g>
    <g id="xtick_3">
     <g id="line2d_3">
      <g>
       <use style="stroke:#000000;stroke-width:0.8;" x="201.6" xlink:href="#md409ea010d" y="581.4"/>
      </g>
     </g>
     <g id="text_3">
      <!-- campaign -->
      <defs>
       <path d="M 48.78125 52.59375 
L 48.78125 44.1875 
Q 44.96875 46.296875 41.140625 47.34375 
Q 37.3125 48.390625 33.40625 48.390625 
Q 24.65625 48.390625 19.8125 42.84375 
Q 14.984375 37.3125 14.984375 27.296875 
Q 14.984375 17.28125 19.8125 11.734375 
Q 24.65625 6.203125 33.40625 6.203125 
Q 37.3125 6.203125 41.140625 7.25 
Q 44.96875 8.296875 48.78125 10.40625 
L 48.78125 2.09375 
Q 45.015625 0.34375 40.984375 -0.53125 
Q 36.96875 -1.421875 32.421875 -1.421875 
Q 20.0625 -1.421875 12.78125 6.34375 
Q 5.515625 14.109375 5.515625 27.296875 
Q 5.515625 40.671875 12.859375 48.328125 
Q 20.21875 56 33.015625 56 
Q 37.15625 56 41.109375 55.140625 
Q 45.0625 54.296875 48.78125 52.59375 
z
" id="DejaVuSans-63"/>
       <path d="M 52 44.1875 
Q 55.375 50.25 60.0625 53.125 
Q 64.75 56 71.09375 56 
Q 79.640625 56 84.28125 50.015625 
Q 88.921875 44.046875 88.921875 33.015625 
L 88.921875 0 
L 79.890625 0 
L 79.890625 32.71875 
Q 79.890625 40.578125 77.09375 44.375 
Q 74.3125 48.1875 68.609375 48.1875 
Q 61.625 48.1875 57.5625 43.546875 
Q 53.515625 38.921875 53.515625 30.90625 
L 53.515625 0 
L 44.484375 0 
L 44.484375 32.71875 
Q 44.484375 40.625 41.703125 44.40625 
Q 38.921875 48.1875 33.109375 48.1875 
Q 26.21875 48.1875 22.15625 43.53125 
Q 18.109375 38.875 18.109375 30.90625 
L 18.109375 0 
L 9.078125 0 
L 9.078125 54.6875 
L 18.109375 54.6875 
L 18.109375 46.1875 
Q 21.1875 51.21875 25.484375 53.609375 
Q 29.78125 56 35.6875 56 
Q 41.65625 56 45.828125 52.96875 
Q 50 49.953125 52 44.1875 
z
" id="DejaVuSans-6d"/>
       <path d="M 18.109375 8.203125 
L 18.109375 -20.796875 
L 9.078125 -20.796875 
L 9.078125 54.6875 
L 18.109375 54.6875 
L 18.109375 46.390625 
Q 20.953125 51.265625 25.265625 53.625 
Q 29.59375 56 35.59375 56 
Q 45.5625 56 51.78125 48.09375 
Q 58.015625 40.1875 58.015625 27.296875 
Q 58.015625 14.40625 51.78125 6.484375 
Q 45.5625 -1.421875 35.59375 -1.421875 
Q 29.59375 -1.421875 25.265625 0.953125 
Q 20.953125 3.328125 18.109375 8.203125 
z
M 48.6875 27.296875 
Q 48.6875 37.203125 44.609375 42.84375 
Q 40.53125 48.484375 33.40625 48.484375 
Q 26.265625 48.484375 22.1875 42.84375 
Q 18.109375 37.203125 18.109375 27.296875 
Q 18.109375 17.390625 22.1875 11.75 
Q 26.265625 6.109375 33.40625 6.109375 
Q 40.53125 6.109375 44.609375 11.75 
Q 48.6875 17.390625 48.6875 27.296875 
z
" id="DejaVuSans-70"/>
      </defs>
      <g transform="translate(204.359375 637.707813)rotate(-90)scale(0.1 -0.1)">
       <use xlink:href="#DejaVuSans-63"/>
       <use x="54.980469" xlink:href="#DejaVuSans-61"/>
       <use x="116.259766" xlink:href="#DejaVuSans-6d"/>
       <use x="213.671875" xlink:href="#DejaVuSans-70"/>
       <use x="277.148438" xlink:href="#DejaVuSans-61"/>
       <use x="338.427734" xlink:href="#DejaVuSans-69"/>
       <use x="366.210938" xlink:href="#DejaVuSans-67"/>
       <use x="429.6875" xlink:href="#DejaVuSans-6e"/>
      </g>
     </g>
    </g>
    <g id="xtick_4">
     <g id="line2d_4">
      <g>
       <use style="stroke:#000000;stroke-width:0.8;" x="246.24" xlink:href="#md409ea010d" y="581.4"/>
      </g>
     </g>
     <g id="text_4">
      <!-- pdays -->
      <defs>
       <path d="M 32.171875 -5.078125 
Q 28.375 -14.84375 24.75 -17.8125 
Q 21.140625 -20.796875 15.09375 -20.796875 
L 7.90625 -20.796875 
L 7.90625 -13.28125 
L 13.1875 -13.28125 
Q 16.890625 -13.28125 18.9375 -11.515625 
Q 21 -9.765625 23.484375 -3.21875 
L 25.09375 0.875 
L 2.984375 54.6875 
L 12.5 54.6875 
L 29.59375 11.921875 
L 46.6875 54.6875 
L 56.203125 54.6875 
z
" id="DejaVuSans-79"/>
       <path d="M 44.28125 53.078125 
L 44.28125 44.578125 
Q 40.484375 46.53125 36.375 47.5 
Q 32.28125 48.484375 27.875 48.484375 
Q 21.1875 48.484375 17.84375 46.4375 
Q 14.5 44.390625 14.5 40.28125 
Q 14.5 37.15625 16.890625 35.375 
Q 19.28125 33.59375 26.515625 31.984375 
L 29.59375 31.296875 
Q 39.15625 29.25 43.1875 25.515625 
Q 47.21875 21.78125 47.21875 15.09375 
Q 47.21875 7.46875 41.1875 3.015625 
Q 35.15625 -1.421875 24.609375 -1.421875 
Q 20.21875 -1.421875 15.453125 -0.5625 
Q 10.6875 0.296875 5.421875 2 
L 5.421875 11.28125 
Q 10.40625 8.6875 15.234375 7.390625 
Q 20.0625 6.109375 24.8125 6.109375 
Q 31.15625 6.109375 34.5625 8.28125 
Q 37.984375 10.453125 37.984375 14.40625 
Q 37.984375 18.0625 35.515625 20.015625 
Q 33.0625 21.96875 24.703125 23.78125 
L 21.578125 24.515625 
Q 13.234375 26.265625 9.515625 29.90625 
Q 5.8125 33.546875 5.8125 39.890625 
Q 5.8125 47.609375 11.28125 51.796875 
Q 16.75 56 26.8125 56 
Q 31.78125 56 36.171875 55.265625 
Q 40.578125 54.546875 44.28125 53.078125 
z
" id="DejaVuSans-73"/>
      </defs>
      <g transform="translate(248.999375 618.353125)rotate(-90)scale(0.1 -0.1)">
       <use xlink:href="#DejaVuSans-70"/>
       <use x="63.476562" xlink:href="#DejaVuSans-64"/>
       <use x="126.953125" xlink:href="#DejaVuSans-61"/>
       <use x="188.232422" xlink:href="#DejaVuSans-79"/>
       <use x="247.412109" xlink:href="#DejaVuSans-73"/>
      </g>
     </g>
    </g>
    <g id="xtick_5">
     <g id="line2d_5">
      <g>
       <use style="stroke:#000000;stroke-width:0.8;" x="290.88" xlink:href="#md409ea010d" y="581.4"/>
      </g>
     </g>
     <g id="text_5">
      <!-- previous -->
      <defs>
       <path d="M 2.984375 54.6875 
L 12.5 54.6875 
L 29.59375 8.796875 
L 46.6875 54.6875 
L 56.203125 54.6875 
L 35.6875 0 
L 23.484375 0 
z
" id="DejaVuSans-76"/>
      </defs>
      <g transform="translate(293.639375 631.371875)rotate(-90)scale(0.1 -0.1)">
       <use xlink:href="#DejaVuSans-70"/>
       <use x="63.476562" xlink:href="#DejaVuSans-72"/>
       <use x="104.558594" xlink:href="#DejaVuSans-65"/>
       <use x="166.082031" xlink:href="#DejaVuSans-76"/>
       <use x="225.261719" xlink:href="#DejaVuSans-69"/>
       <use x="253.044922" xlink:href="#DejaVuSans-6f"/>
       <use x="314.226562" xlink:href="#DejaVuSans-75"/>
       <use x="377.605469" xlink:href="#DejaVuSans-73"/>
      </g>
     </g>
    </g>
    <g id="xtick_6">
     <g id="line2d_6">
      <g>
       <use style="stroke:#000000;stroke-width:0.8;" x="335.52" xlink:href="#md409ea010d" y="581.4"/>
      </g>
     </g>
     <g id="text_6">
      <!-- emp.var.rate -->
      <defs>
       <path d="M 10.6875 12.40625 
L 21 12.40625 
L 21 0 
L 10.6875 0 
z
" id="DejaVuSans-2e"/>
      </defs>
      <g transform="translate(338.279375 653.454688)rotate(-90)scale(0.1 -0.1)">
       <use xlink:href="#DejaVuSans-65"/>
       <use x="61.523438" xlink:href="#DejaVuSans-6d"/>
       <use x="158.935547" xlink:href="#DejaVuSans-70"/>
       <use x="222.412109" xlink:href="#DejaVuSans-2e"/>
       <use x="254.199219" xlink:href="#DejaVuSans-76"/>
       <use x="313.378906" xlink:href="#DejaVuSans-61"/>
       <use x="374.658203" xlink:href="#DejaVuSans-72"/>
       <use x="415.630859" xlink:href="#DejaVuSans-2e"/>
       <use x="447.417969" xlink:href="#DejaVuSans-72"/>
       <use x="488.53125" xlink:href="#DejaVuSans-61"/>
       <use x="549.810547" xlink:href="#DejaVuSans-74"/>
       <use x="589.019531" xlink:href="#DejaVuSans-65"/>
      </g>
     </g>
    </g>
    <g id="xtick_7">
     <g id="line2d_7">
      <g>
       <use style="stroke:#000000;stroke-width:0.8;" x="380.16" xlink:href="#md409ea010d" y="581.4"/>
      </g>
     </g>
     <g id="text_7">
      <!-- cons.price.idx -->
      <defs>
       <path d="M 54.890625 54.6875 
L 35.109375 28.078125 
L 55.90625 0 
L 45.3125 0 
L 29.390625 21.484375 
L 13.484375 0 
L 2.875 0 
L 24.125 28.609375 
L 4.6875 54.6875 
L 15.28125 54.6875 
L 29.78125 35.203125 
L 44.28125 54.6875 
z
" id="DejaVuSans-78"/>
      </defs>
      <g transform="translate(382.919375 657.854688)rotate(-90)scale(0.1 -0.1)">
       <use xlink:href="#DejaVuSans-63"/>
       <use x="54.980469" xlink:href="#DejaVuSans-6f"/>
       <use x="116.162109" xlink:href="#DejaVuSans-6e"/>
       <use x="179.541016" xlink:href="#DejaVuSans-73"/>
       <use x="231.640625" xlink:href="#DejaVuSans-2e"/>
       <use x="263.427734" xlink:href="#DejaVuSans-70"/>
       <use x="326.904297" xlink:href="#DejaVuSans-72"/>
       <use x="368.017578" xlink:href="#DejaVuSans-69"/>
       <use x="395.800781" xlink:href="#DejaVuSans-63"/>
       <use x="450.78125" xlink:href="#DejaVuSans-65"/>
       <use x="512.304688" xlink:href="#DejaVuSans-2e"/>
       <use x="544.091797" xlink:href="#DejaVuSans-69"/>
       <use x="571.875" xlink:href="#DejaVuSans-64"/>
       <use x="635.351562" xlink:href="#DejaVuSans-78"/>
      </g>
     </g>
    </g>
    <g id="xtick_8">
     <g id="line2d_8">
      <g>
       <use style="stroke:#000000;stroke-width:0.8;" x="424.8" xlink:href="#md409ea010d" y="581.4"/>
      </g>
     </g>
     <g id="text_8">
      <!-- cons.conf.idx -->
      <defs>
       <path d="M 37.109375 75.984375 
L 37.109375 68.5 
L 28.515625 68.5 
Q 23.6875 68.5 21.796875 66.546875 
Q 19.921875 64.59375 19.921875 59.515625 
L 19.921875 54.6875 
L 34.71875 54.6875 
L 34.71875 47.703125 
L 19.921875 47.703125 
L 19.921875 0 
L 10.890625 0 
L 10.890625 47.703125 
L 2.296875 47.703125 
L 2.296875 54.6875 
L 10.890625 54.6875 
L 10.890625 58.5 
Q 10.890625 67.625 15.140625 71.796875 
Q 19.390625 75.984375 28.609375 75.984375 
z
" id="DejaVuSans-66"/>
      </defs>
      <g transform="translate(427.559375 654.429688)rotate(-90)scale(0.1 -0.1)">
       <use xlink:href="#DejaVuSans-63"/>
       <use x="54.980469" xlink:href="#DejaVuSans-6f"/>
       <use x="116.162109" xlink:href="#DejaVuSans-6e"/>
       <use x="179.541016" xlink:href="#DejaVuSans-73"/>
       <use x="231.640625" xlink:href="#DejaVuSans-2e"/>
       <use x="263.427734" xlink:href="#DejaVuSans-63"/>
       <use x="318.408203" xlink:href="#DejaVuSans-6f"/>
       <use x="379.589844" xlink:href="#DejaVuSans-6e"/>
       <use x="442.96875" xlink:href="#DejaVuSans-66"/>
       <use x="478.064453" xlink:href="#DejaVuSans-2e"/>
       <use x="509.851562" xlink:href="#DejaVuSans-69"/>
       <use x="537.634766" xlink:href="#DejaVuSans-64"/>
       <use x="601.111328" xlink:href="#DejaVuSans-78"/>
      </g>
     </g>
    </g>
    <g id="xtick_9">
     <g id="line2d_9">
      <g>
       <use style="stroke:#000000;stroke-width:0.8;" x="469.44" xlink:href="#md409ea010d" y="581.4"/>
      </g>
     </g>
     <g id="text_9">
      <!-- euribor3m -->
      <defs>
       <path d="M 48.6875 27.296875 
Q 48.6875 37.203125 44.609375 42.84375 
Q 40.53125 48.484375 33.40625 48.484375 
Q 26.265625 48.484375 22.1875 42.84375 
Q 18.109375 37.203125 18.109375 27.296875 
Q 18.109375 17.390625 22.1875 11.75 
Q 26.265625 6.109375 33.40625 6.109375 
Q 40.53125 6.109375 44.609375 11.75 
Q 48.6875 17.390625 48.6875 27.296875 
z
M 18.109375 46.390625 
Q 20.953125 51.265625 25.265625 53.625 
Q 29.59375 56 35.59375 56 
Q 45.5625 56 51.78125 48.09375 
Q 58.015625 40.1875 58.015625 27.296875 
Q 58.015625 14.40625 51.78125 6.484375 
Q 45.5625 -1.421875 35.59375 -1.421875 
Q 29.59375 -1.421875 25.265625 0.953125 
Q 20.953125 3.328125 18.109375 8.203125 
L 18.109375 0 
L 9.078125 0 
L 9.078125 75.984375 
L 18.109375 75.984375 
z
" id="DejaVuSans-62"/>
       <path d="M 40.578125 39.3125 
Q 47.65625 37.796875 51.625 33 
Q 55.609375 28.21875 55.609375 21.1875 
Q 55.609375 10.40625 48.1875 4.484375 
Q 40.765625 -1.421875 27.09375 -1.421875 
Q 22.515625 -1.421875 17.65625 -0.515625 
Q 12.796875 0.390625 7.625 2.203125 
L 7.625 11.71875 
Q 11.71875 9.328125 16.59375 8.109375 
Q 21.484375 6.890625 26.8125 6.890625 
Q 36.078125 6.890625 40.9375 10.546875 
Q 45.796875 14.203125 45.796875 21.1875 
Q 45.796875 27.640625 41.28125 31.265625 
Q 36.765625 34.90625 28.71875 34.90625 
L 20.21875 34.90625 
L 20.21875 43.015625 
L 29.109375 43.015625 
Q 36.375 43.015625 40.234375 45.921875 
Q 44.09375 48.828125 44.09375 54.296875 
Q 44.09375 59.90625 40.109375 62.90625 
Q 36.140625 65.921875 28.71875 65.921875 
Q 24.65625 65.921875 20.015625 65.03125 
Q 15.375 64.15625 9.8125 62.3125 
L 9.8125 71.09375 
Q 15.4375 72.65625 20.34375 73.4375 
Q 25.25 74.21875 29.59375 74.21875 
Q 40.828125 74.21875 47.359375 69.109375 
Q 53.90625 64.015625 53.90625 55.328125 
Q 53.90625 49.265625 50.4375 45.09375 
Q 46.96875 40.921875 40.578125 39.3125 
z
" id="DejaVuSans-33"/>
      </defs>
      <g transform="translate(472.199375 640.460938)rotate(-90)scale(0.1 -0.1)">
       <use xlink:href="#DejaVuSans-65"/>
       <use x="61.523438" xlink:href="#DejaVuSans-75"/>
       <use x="124.902344" xlink:href="#DejaVuSans-72"/>
       <use x="166.015625" xlink:href="#DejaVuSans-69"/>
       <use x="193.798828" xlink:href="#DejaVuSans-62"/>
       <use x="257.275391" xlink:href="#DejaVuSans-6f"/>
       <use x="318.457031" xlink:href="#DejaVuSans-72"/>
       <use x="359.570312" xlink:href="#DejaVuSans-33"/>
       <use x="423.193359" xlink:href="#DejaVuSans-6d"/>
      </g>
     </g>
    </g>
    <g id="xtick_10">
     <g id="line2d_10">
      <g>
       <use style="stroke:#000000;stroke-width:0.8;" x="514.08" xlink:href="#md409ea010d" y="581.4"/>
      </g>
     </g>
     <g id="text_10">
      <!-- nr.employed -->
      <defs>
       <path d="M 9.421875 75.984375 
L 18.40625 75.984375 
L 18.40625 0 
L 9.421875 0 
z
" id="DejaVuSans-6c"/>
      </defs>
      <g transform="translate(516.839375 651.571875)rotate(-90)scale(0.1 -0.1)">
       <use xlink:href="#DejaVuSans-6e"/>
       <use x="63.378906" xlink:href="#DejaVuSans-72"/>
       <use x="104.351562" xlink:href="#DejaVuSans-2e"/>
       <use x="136.138672" xlink:href="#DejaVuSans-65"/>
       <use x="197.662109" xlink:href="#DejaVuSans-6d"/>
       <use x="295.074219" xlink:href="#DejaVuSans-70"/>
       <use x="358.550781" xlink:href="#DejaVuSans-6c"/>
       <use x="386.333984" xlink:href="#DejaVuSans-6f"/>
       <use x="447.515625" xlink:href="#DejaVuSans-79"/>
       <use x="506.695312" xlink:href="#DejaVuSans-65"/>
       <use x="568.21875" xlink:href="#DejaVuSans-64"/>
      </g>
     </g>
    </g>
   </g>
   <g id="matplotlib.axis_2">
    <g id="ytick_1">
     <g id="line2d_11">
      <defs>
       <path d="M 0 0 
L -3.5 0 
" id="m5f3dfa8015" style="stroke:#000000;stroke-width:0.8;"/>
      </defs>
      <g>
       <use style="stroke:#000000;stroke-width:0.8;" x="90" xlink:href="#m5f3dfa8015" y="157.32"/>
      </g>
     </g>
     <g id="text_11">
      <!-- age -->
      <g transform="translate(64.370312 161.119219)scale(0.1 -0.1)">
       <use xlink:href="#DejaVuSans-61"/>
       <use x="61.279297" xlink:href="#DejaVuSans-67"/>
       <use x="124.755859" xlink:href="#DejaVuSans-65"/>
      </g>
     </g>
    </g>
    <g id="ytick_2">
     <g id="line2d_12">
      <g>
       <use style="stroke:#000000;stroke-width:0.8;" x="90" xlink:href="#m5f3dfa8015" y="201.96"/>
      </g>
     </g>
     <g id="text_12">
      <!-- duration -->
      <g transform="translate(40.920312 205.759219)scale(0.1 -0.1)">
       <use xlink:href="#DejaVuSans-64"/>
       <use x="63.476562" xlink:href="#DejaVuSans-75"/>
       <use x="126.855469" xlink:href="#DejaVuSans-72"/>
       <use x="167.96875" xlink:href="#DejaVuSans-61"/>
       <use x="229.248047" xlink:href="#DejaVuSans-74"/>
       <use x="268.457031" xlink:href="#DejaVuSans-69"/>
       <use x="296.240234" xlink:href="#DejaVuSans-6f"/>
       <use x="357.421875" xlink:href="#DejaVuSans-6e"/>
      </g>
     </g>
    </g>
    <g id="ytick_3">
     <g id="line2d_13">
      <g>
       <use style="stroke:#000000;stroke-width:0.8;" x="90" xlink:href="#m5f3dfa8015" y="246.6"/>
      </g>
     </g>
     <g id="text_13">
      <!-- campaign -->
      <g transform="translate(33.692187 250.399219)scale(0.1 -0.1)">
       <use xlink:href="#DejaVuSans-63"/>
       <use x="54.980469" xlink:href="#DejaVuSans-61"/>
       <use x="116.259766" xlink:href="#DejaVuSans-6d"/>
       <use x="213.671875" xlink:href="#DejaVuSans-70"/>
       <use x="277.148438" xlink:href="#DejaVuSans-61"/>
       <use x="338.427734" xlink:href="#DejaVuSans-69"/>
       <use x="366.210938" xlink:href="#DejaVuSans-67"/>
       <use x="429.6875" xlink:href="#DejaVuSans-6e"/>
      </g>
     </g>
    </g>
    <g id="ytick_4">
     <g id="line2d_14">
      <g>
       <use style="stroke:#000000;stroke-width:0.8;" x="90" xlink:href="#m5f3dfa8015" y="291.24"/>
      </g>
     </g>
     <g id="text_14">
      <!-- pdays -->
      <g transform="translate(53.046875 295.039219)scale(0.1 -0.1)">
       <use xlink:href="#DejaVuSans-70"/>
       <use x="63.476562" xlink:href="#DejaVuSans-64"/>
       <use x="126.953125" xlink:href="#DejaVuSans-61"/>
       <use x="188.232422" xlink:href="#DejaVuSans-79"/>
       <use x="247.412109" xlink:href="#DejaVuSans-73"/>
      </g>
     </g>
    </g>
    <g id="ytick_5">
     <g id="line2d_15">
      <g>
       <use style="stroke:#000000;stroke-width:0.8;" x="90" xlink:href="#m5f3dfa8015" y="335.88"/>
      </g>
     </g>
     <g id="text_15">
      <!-- previous -->
      <g transform="translate(40.028125 339.679219)scale(0.1 -0.1)">
       <use xlink:href="#DejaVuSans-70"/>
       <use x="63.476562" xlink:href="#DejaVuSans-72"/>
       <use x="104.558594" xlink:href="#DejaVuSans-65"/>
       <use x="166.082031" xlink:href="#DejaVuSans-76"/>
       <use x="225.261719" xlink:href="#DejaVuSans-69"/>
       <use x="253.044922" xlink:href="#DejaVuSans-6f"/>
       <use x="314.226562" xlink:href="#DejaVuSans-75"/>
       <use x="377.605469" xlink:href="#DejaVuSans-73"/>
      </g>
     </g>
    </g>
    <g id="ytick_6">
     <g id="line2d_16">
      <g>
       <use style="stroke:#000000;stroke-width:0.8;" x="90" xlink:href="#m5f3dfa8015" y="380.52"/>
      </g>
     </g>
     <g id="text_16">
      <!-- emp.var.rate -->
      <g transform="translate(17.945312 384.319219)scale(0.1 -0.1)">
       <use xlink:href="#DejaVuSans-65"/>
       <use x="61.523438" xlink:href="#DejaVuSans-6d"/>
       <use x="158.935547" xlink:href="#DejaVuSans-70"/>
       <use x="222.412109" xlink:href="#DejaVuSans-2e"/>
       <use x="254.199219" xlink:href="#DejaVuSans-76"/>
       <use x="313.378906" xlink:href="#DejaVuSans-61"/>
       <use x="374.658203" xlink:href="#DejaVuSans-72"/>
       <use x="415.630859" xlink:href="#DejaVuSans-2e"/>
       <use x="447.417969" xlink:href="#DejaVuSans-72"/>
       <use x="488.53125" xlink:href="#DejaVuSans-61"/>
       <use x="549.810547" xlink:href="#DejaVuSans-74"/>
       <use x="589.019531" xlink:href="#DejaVuSans-65"/>
      </g>
     </g>
    </g>
    <g id="ytick_7">
     <g id="line2d_17">
      <g>
       <use style="stroke:#000000;stroke-width:0.8;" x="90" xlink:href="#m5f3dfa8015" y="425.16"/>
      </g>
     </g>
     <g id="text_17">
      <!-- cons.price.idx -->
      <g transform="translate(13.545312 428.959219)scale(0.1 -0.1)">
       <use xlink:href="#DejaVuSans-63"/>
       <use x="54.980469" xlink:href="#DejaVuSans-6f"/>
       <use x="116.162109" xlink:href="#DejaVuSans-6e"/>
       <use x="179.541016" xlink:href="#DejaVuSans-73"/>
       <use x="231.640625" xlink:href="#DejaVuSans-2e"/>
       <use x="263.427734" xlink:href="#DejaVuSans-70"/>
       <use x="326.904297" xlink:href="#DejaVuSans-72"/>
       <use x="368.017578" xlink:href="#DejaVuSans-69"/>
       <use x="395.800781" xlink:href="#DejaVuSans-63"/>
       <use x="450.78125" xlink:href="#DejaVuSans-65"/>
       <use x="512.304688" xlink:href="#DejaVuSans-2e"/>
       <use x="544.091797" xlink:href="#DejaVuSans-69"/>
       <use x="571.875" xlink:href="#DejaVuSans-64"/>
       <use x="635.351562" xlink:href="#DejaVuSans-78"/>
      </g>
     </g>
    </g>
    <g id="ytick_8">
     <g id="line2d_18">
      <g>
       <use style="stroke:#000000;stroke-width:0.8;" x="90" xlink:href="#m5f3dfa8015" y="469.8"/>
      </g>
     </g>
     <g id="text_18">
      <!-- cons.conf.idx -->
      <g transform="translate(16.970312 473.599219)scale(0.1 -0.1)">
       <use xlink:href="#DejaVuSans-63"/>
       <use x="54.980469" xlink:href="#DejaVuSans-6f"/>
       <use x="116.162109" xlink:href="#DejaVuSans-6e"/>
       <use x="179.541016" xlink:href="#DejaVuSans-73"/>
       <use x="231.640625" xlink:href="#DejaVuSans-2e"/>
       <use x="263.427734" xlink:href="#DejaVuSans-63"/>
       <use x="318.408203" xlink:href="#DejaVuSans-6f"/>
       <use x="379.589844" xlink:href="#DejaVuSans-6e"/>
       <use x="442.96875" xlink:href="#DejaVuSans-66"/>
       <use x="478.064453" xlink:href="#DejaVuSans-2e"/>
       <use x="509.851562" xlink:href="#DejaVuSans-69"/>
       <use x="537.634766" xlink:href="#DejaVuSans-64"/>
       <use x="601.111328" xlink:href="#DejaVuSans-78"/>
      </g>
     </g>
    </g>
    <g id="ytick_9">
     <g id="line2d_19">
      <g>
       <use style="stroke:#000000;stroke-width:0.8;" x="90" xlink:href="#m5f3dfa8015" y="514.44"/>
      </g>
     </g>
     <g id="text_19">
      <!-- euribor3m -->
      <g transform="translate(30.939062 518.239219)scale(0.1 -0.1)">
       <use xlink:href="#DejaVuSans-65"/>
       <use x="61.523438" xlink:href="#DejaVuSans-75"/>
       <use x="124.902344" xlink:href="#DejaVuSans-72"/>
       <use x="166.015625" xlink:href="#DejaVuSans-69"/>
       <use x="193.798828" xlink:href="#DejaVuSans-62"/>
       <use x="257.275391" xlink:href="#DejaVuSans-6f"/>
       <use x="318.457031" xlink:href="#DejaVuSans-72"/>
       <use x="359.570312" xlink:href="#DejaVuSans-33"/>
       <use x="423.193359" xlink:href="#DejaVuSans-6d"/>
      </g>
     </g>
    </g>
    <g id="ytick_10">
     <g id="line2d_20">
      <g>
       <use style="stroke:#000000;stroke-width:0.8;" x="90" xlink:href="#m5f3dfa8015" y="559.08"/>
      </g>
     </g>
     <g id="text_20">
      <!-- nr.employed -->
      <g transform="translate(19.828125 562.879219)scale(0.1 -0.1)">
       <use xlink:href="#DejaVuSans-6e"/>
       <use x="63.378906" xlink:href="#DejaVuSans-72"/>
       <use x="104.351562" xlink:href="#DejaVuSans-2e"/>
       <use x="136.138672" xlink:href="#DejaVuSans-65"/>
       <use x="197.662109" xlink:href="#DejaVuSans-6d"/>
       <use x="295.074219" xlink:href="#DejaVuSans-70"/>
       <use x="358.550781" xlink:href="#DejaVuSans-6c"/>
       <use x="386.333984" xlink:href="#DejaVuSans-6f"/>
       <use x="447.515625" xlink:href="#DejaVuSans-79"/>
       <use x="506.695312" xlink:href="#DejaVuSans-65"/>
       <use x="568.21875" xlink:href="#DejaVuSans-64"/>
      </g>
     </g>
    </g>
   </g>
  </g>
  <g id="axes_2">
   <g id="patch_3">
    <path clip-path="url(#p5a8c1413e7)" d="M 564.3 630 
L 564.3 584.7 
L 564.3 131.7 
L 564.3 86.4 
L 591.48 86.4 
L 591.48 131.7 
L 591.48 584.7 
L 591.48 630 
z
" style="fill:#ffffff;stroke:#ffffff;stroke-linejoin:miter;stroke-width:0.01;"/>
   </g>
   <g id="QuadMesh_2">
    <path clip-path="url(#p5a8c1413e7)" d="M 564.3 630 
L 591.48 630 
L 591.48 584.7 
L 564.3 584.7 
L 564.3 630 
" style="fill:#3b936e;"/>
    <path clip-path="url(#p5a8c1413e7)" d="M 564.3 584.7 
L 591.48 584.7 
L 591.48 539.4 
L 564.3 539.4 
L 564.3 584.7 
" style="fill:#5ca687;"/>
    <path clip-path="url(#p5a8c1413e7)" d="M 564.3 539.4 
L 591.48 539.4 
L 591.48 494.1 
L 564.3 494.1 
L 564.3 539.4 
" style="fill:#7eb9a0;"/>
    <path clip-path="url(#p5a8c1413e7)" d="M 564.3 494.1 
L 591.48 494.1 
L 591.48 448.8 
L 564.3 448.8 
L 564.3 494.1 
" style="fill:#9fccb9;"/>
    <path clip-path="url(#p5a8c1413e7)" d="M 564.3 448.8 
L 591.48 448.8 
L 591.48 403.5 
L 564.3 403.5 
L 564.3 448.8 
" style="fill:#c3e0d4;"/>
    <path clip-path="url(#p5a8c1413e7)" d="M 564.3 403.5 
L 591.48 403.5 
L 591.48 358.2 
L 564.3 358.2 
L 564.3 403.5 
" style="fill:#e4f3ed;"/>
    <path clip-path="url(#p5a8c1413e7)" d="M 564.3 358.2 
L 591.48 358.2 
L 591.48 312.9 
L 564.3 312.9 
L 564.3 358.2 
" style="fill:#ebe3fa;"/>
    <path clip-path="url(#p5a8c1413e7)" d="M 564.3 312.9 
L 591.48 312.9 
L 591.48 267.6 
L 564.3 267.6 
L 564.3 312.9 
" style="fill:#d9ccf6;"/>
    <path clip-path="url(#p5a8c1413e7)" d="M 564.3 267.6 
L 591.48 267.6 
L 591.48 222.3 
L 564.3 222.3 
L 564.3 267.6 
" style="fill:#c7b3f2;"/>
    <path clip-path="url(#p5a8c1413e7)" d="M 564.3 222.3 
L 591.48 222.3 
L 591.48 177 
L 564.3 177 
L 564.3 222.3 
" style="fill:#b69cee;"/>
    <path clip-path="url(#p5a8c1413e7)" d="M 564.3 177 
L 591.48 177 
L 591.48 131.7 
L 564.3 131.7 
L 564.3 177 
" style="fill:#a485ea;"/>
    <path clip-path="url(#p5a8c1413e7)" d="M 564.3 131.7 
L 591.48 131.7 
L 591.48 86.4 
L 564.3 86.4 
L 564.3 131.7 
" style="fill:#936ee6;"/>
   </g>
   <g id="matplotlib.axis_3"/>
   <g id="matplotlib.axis_4">
    <g id="ytick_11">
     <g id="line2d_21">
      <defs>
       <path d="M 0 0 
L 3.5 0 
" id="m41604b92e7" style="stroke:#000000;stroke-width:0.8;"/>
      </defs>
      <g>
       <use style="stroke:#000000;stroke-width:0.8;" x="591.48" xlink:href="#m41604b92e7" y="564.648517"/>
      </g>
     </g>
     <g id="text_21">
      <!-- 0.4 -->
      <defs>
       <path d="M 10.59375 35.5 
L 73.1875 35.5 
L 73.1875 27.203125 
L 10.59375 27.203125 
z
" id="DejaVuSans-2212"/>
       <path d="M 31.78125 66.40625 
Q 24.171875 66.40625 20.328125 58.90625 
Q 16.5 51.421875 16.5 36.375 
Q 16.5 21.390625 20.328125 13.890625 
Q 24.171875 6.390625 31.78125 6.390625 
Q 39.453125 6.390625 43.28125 13.890625 
Q 47.125 21.390625 47.125 36.375 
Q 47.125 51.421875 43.28125 58.90625 
Q 39.453125 66.40625 31.78125 66.40625 
z
M 31.78125 74.21875 
Q 44.046875 74.21875 50.515625 64.515625 
Q 56.984375 54.828125 56.984375 36.375 
Q 56.984375 17.96875 50.515625 8.265625 
Q 44.046875 -1.421875 31.78125 -1.421875 
Q 19.53125 -1.421875 13.0625 8.265625 
Q 6.59375 17.96875 6.59375 36.375 
Q 6.59375 54.828125 13.0625 64.515625 
Q 19.53125 74.21875 31.78125 74.21875 
z
" id="DejaVuSans-30"/>
       <path d="M 37.796875 64.3125 
L 12.890625 25.390625 
L 37.796875 25.390625 
z
M 35.203125 72.90625 
L 47.609375 72.90625 
L 47.609375 25.390625 
L 58.015625 25.390625 
L 58.015625 17.1875 
L 47.609375 17.1875 
L 47.609375 0 
L 37.796875 0 
L 37.796875 17.1875 
L 4.890625 17.1875 
L 4.890625 26.703125 
z
" id="DejaVuSans-34"/>
      </defs>
      <g transform="translate(598.48 568.447736)scale(0.1 -0.1)">
       <use xlink:href="#DejaVuSans-2212"/>
       <use x="83.789062" xlink:href="#DejaVuSans-30"/>
       <use x="147.412109" xlink:href="#DejaVuSans-2e"/>
       <use x="179.199219" xlink:href="#DejaVuSans-34"/>
      </g>
     </g>
    </g>
    <g id="ytick_12">
     <g id="line2d_22">
      <g>
       <use style="stroke:#000000;stroke-width:0.8;" x="591.48" xlink:href="#m41604b92e7" y="494.94542"/>
      </g>
     </g>
     <g id="text_22">
      <!-- 0.2 -->
      <defs>
       <path d="M 19.1875 8.296875 
L 53.609375 8.296875 
L 53.609375 0 
L 7.328125 0 
L 7.328125 8.296875 
Q 12.9375 14.109375 22.625 23.890625 
Q 32.328125 33.6875 34.8125 36.53125 
Q 39.546875 41.84375 41.421875 45.53125 
Q 43.3125 49.21875 43.3125 52.78125 
Q 43.3125 58.59375 39.234375 62.25 
Q 35.15625 65.921875 28.609375 65.921875 
Q 23.96875 65.921875 18.8125 64.3125 
Q 13.671875 62.703125 7.8125 59.421875 
L 7.8125 69.390625 
Q 13.765625 71.78125 18.9375 73 
Q 24.125 74.21875 28.421875 74.21875 
Q 39.75 74.21875 46.484375 68.546875 
Q 53.21875 62.890625 53.21875 53.421875 
Q 53.21875 48.921875 51.53125 44.890625 
Q 49.859375 40.875 45.40625 35.40625 
Q 44.1875 33.984375 37.640625 27.21875 
Q 31.109375 20.453125 19.1875 8.296875 
z
" id="DejaVuSans-32"/>
      </defs>
      <g transform="translate(598.48 498.744639)scale(0.1 -0.1)">
       <use xlink:href="#DejaVuSans-2212"/>
       <use x="83.789062" xlink:href="#DejaVuSans-30"/>
       <use x="147.412109" xlink:href="#DejaVuSans-2e"/>
       <use x="179.199219" xlink:href="#DejaVuSans-32"/>
      </g>
     </g>
    </g>
    <g id="ytick_13">
     <g id="line2d_23">
      <g>
       <use style="stroke:#000000;stroke-width:0.8;" x="591.48" xlink:href="#m41604b92e7" y="425.242323"/>
      </g>
     </g>
     <g id="text_23">
      <!-- 0.0 -->
      <g transform="translate(598.48 429.041542)scale(0.1 -0.1)">
       <use xlink:href="#DejaVuSans-30"/>
       <use x="63.623047" xlink:href="#DejaVuSans-2e"/>
       <use x="95.410156" xlink:href="#DejaVuSans-30"/>
      </g>
     </g>
    </g>
    <g id="ytick_14">
     <g id="line2d_24">
      <g>
       <use style="stroke:#000000;stroke-width:0.8;" x="591.48" xlink:href="#m41604b92e7" y="355.539226"/>
      </g>
     </g>
     <g id="text_24">
      <!-- 0.2 -->
      <g transform="translate(598.48 359.338445)scale(0.1 -0.1)">
       <use xlink:href="#DejaVuSans-30"/>
       <use x="63.623047" xlink:href="#DejaVuSans-2e"/>
       <use x="95.410156" xlink:href="#DejaVuSans-32"/>
      </g>
     </g>
    </g>
    <g id="ytick_15">
     <g id="line2d_25">
      <g>
       <use style="stroke:#000000;stroke-width:0.8;" x="591.48" xlink:href="#m41604b92e7" y="285.836129"/>
      </g>
     </g>
     <g id="text_25">
      <!-- 0.4 -->
      <g transform="translate(598.48 289.635348)scale(0.1 -0.1)">
       <use xlink:href="#DejaVuSans-30"/>
       <use x="63.623047" xlink:href="#DejaVuSans-2e"/>
       <use x="95.410156" xlink:href="#DejaVuSans-34"/>
      </g>
     </g>
    </g>
    <g id="ytick_16">
     <g id="line2d_26">
      <g>
       <use style="stroke:#000000;stroke-width:0.8;" x="591.48" xlink:href="#m41604b92e7" y="216.133032"/>
      </g>
     </g>
     <g id="text_26">
      <!-- 0.6 -->
      <defs>
       <path d="M 33.015625 40.375 
Q 26.375 40.375 22.484375 35.828125 
Q 18.609375 31.296875 18.609375 23.390625 
Q 18.609375 15.53125 22.484375 10.953125 
Q 26.375 6.390625 33.015625 6.390625 
Q 39.65625 6.390625 43.53125 10.953125 
Q 47.40625 15.53125 47.40625 23.390625 
Q 47.40625 31.296875 43.53125 35.828125 
Q 39.65625 40.375 33.015625 40.375 
z
M 52.59375 71.296875 
L 52.59375 62.3125 
Q 48.875 64.0625 45.09375 64.984375 
Q 41.3125 65.921875 37.59375 65.921875 
Q 27.828125 65.921875 22.671875 59.328125 
Q 17.53125 52.734375 16.796875 39.40625 
Q 19.671875 43.65625 24.015625 45.921875 
Q 28.375 48.1875 33.59375 48.1875 
Q 44.578125 48.1875 50.953125 41.515625 
Q 57.328125 34.859375 57.328125 23.390625 
Q 57.328125 12.15625 50.6875 5.359375 
Q 44.046875 -1.421875 33.015625 -1.421875 
Q 20.359375 -1.421875 13.671875 8.265625 
Q 6.984375 17.96875 6.984375 36.375 
Q 6.984375 53.65625 15.1875 63.9375 
Q 23.390625 74.21875 37.203125 74.21875 
Q 40.921875 74.21875 44.703125 73.484375 
Q 48.484375 72.75 52.59375 71.296875 
z
" id="DejaVuSans-36"/>
      </defs>
      <g transform="translate(598.48 219.932251)scale(0.1 -0.1)">
       <use xlink:href="#DejaVuSans-30"/>
       <use x="63.623047" xlink:href="#DejaVuSans-2e"/>
       <use x="95.410156" xlink:href="#DejaVuSans-36"/>
      </g>
     </g>
    </g>
    <g id="ytick_17">
     <g id="line2d_27">
      <g>
       <use style="stroke:#000000;stroke-width:0.8;" x="591.48" xlink:href="#m41604b92e7" y="146.429935"/>
      </g>
     </g>
     <g id="text_27">
      <!-- 0.8 -->
      <defs>
       <path d="M 31.78125 34.625 
Q 24.75 34.625 20.71875 30.859375 
Q 16.703125 27.09375 16.703125 20.515625 
Q 16.703125 13.921875 20.71875 10.15625 
Q 24.75 6.390625 31.78125 6.390625 
Q 38.8125 6.390625 42.859375 10.171875 
Q 46.921875 13.96875 46.921875 20.515625 
Q 46.921875 27.09375 42.890625 30.859375 
Q 38.875 34.625 31.78125 34.625 
z
M 21.921875 38.8125 
Q 15.578125 40.375 12.03125 44.71875 
Q 8.5 49.078125 8.5 55.328125 
Q 8.5 64.0625 14.71875 69.140625 
Q 20.953125 74.21875 31.78125 74.21875 
Q 42.671875 74.21875 48.875 69.140625 
Q 55.078125 64.0625 55.078125 55.328125 
Q 55.078125 49.078125 51.53125 44.71875 
Q 48 40.375 41.703125 38.8125 
Q 48.828125 37.15625 52.796875 32.3125 
Q 56.78125 27.484375 56.78125 20.515625 
Q 56.78125 9.90625 50.3125 4.234375 
Q 43.84375 -1.421875 31.78125 -1.421875 
Q 19.734375 -1.421875 13.25 4.234375 
Q 6.78125 9.90625 6.78125 20.515625 
Q 6.78125 27.484375 10.78125 32.3125 
Q 14.796875 37.15625 21.921875 38.8125 
z
M 18.3125 54.390625 
Q 18.3125 48.734375 21.84375 45.5625 
Q 25.390625 42.390625 31.78125 42.390625 
Q 38.140625 42.390625 41.71875 45.5625 
Q 45.3125 48.734375 45.3125 54.390625 
Q 45.3125 60.0625 41.71875 63.234375 
Q 38.140625 66.40625 31.78125 66.40625 
Q 25.390625 66.40625 21.84375 63.234375 
Q 18.3125 60.0625 18.3125 54.390625 
z
" id="DejaVuSans-38"/>
      </defs>
      <g transform="translate(598.48 150.229154)scale(0.1 -0.1)">
       <use xlink:href="#DejaVuSans-30"/>
       <use x="63.623047" xlink:href="#DejaVuSans-2e"/>
       <use x="95.410156" xlink:href="#DejaVuSans-38"/>
      </g>
     </g>
    </g>
   </g>
   <g id="patch_4">
    <path d="M 564.3 630 
L 564.3 584.7 
L 564.3 131.7 
L 564.3 86.4 
L 591.48 86.4 
L 591.48 131.7 
L 591.48 584.7 
L 591.48 630 
z
" style="fill:none;"/>
   </g>
  </g>
 </g>
 <defs>
  <clipPath id="pab74a1434d">
   <rect height="446.4" width="446.4" x="90" y="135"/>
  </clipPath>
  <clipPath id="p5a8c1413e7">
   <rect height="543.6" width="27.18" x="564.3" y="86.4"/>
  </clipPath>
 </defs>
</svg>
