<?xml version="1.0" encoding="utf-8" standalone="no"?>
<!DOCTYPE svg PUBLIC "-//W3C//DTD SVG 1.1//EN"
  "http://www.w3.org/Graphics/SVG/1.1/DTD/svg11.dtd">
<!-- Created with matplotlib (http://matplotlib.org/) -->
<svg height="720pt" version="1.1" viewBox="0 0 720 720" width="720pt" xmlns="http://www.w3.org/2000/svg" xmlns:xlink="http://www.w3.org/1999/xlink">
 <defs>
  <style type="text/css">
*{stroke-linecap:butt;stroke-linejoin:round;}
  </style>
 </defs>
 <g id="figure_1">
  <g id="patch_1">
   <path d="M 0 720 
L 720 720 
L 720 0 
L 0 0 
z
" style="fill:#ffffff;"/>
  </g>
  <g id="axes_1">
   <g id="patch_2">
    <path d="M 90 630 
L 648 630 
L 648 86.4 
L 90 86.4 
z
" style="fill:#ffffff;"/>
   </g>
   <g id="matplotlib.axis_1">
    <g id="xtick_1">
     <g id="line2d_1">
      <defs>
       <path d="M 0 0 
L 0 3.5 
" id="m9a045c9511" style="stroke:#000000;stroke-width:0.8;"/>
      </defs>
      <g>
       <use style="stroke:#000000;stroke-width:0.8;" x="134.151515" xlink:href="#m9a045c9511" y="630"/>
      </g>
     </g>
     <g id="text_1">
      <!-- 20 -->
      <defs>
       <path d="M 19.1875 8.296875 
L 53.609375 8.296875 
L 53.609375 0 
L 7.328125 0 
L 7.328125 8.296875 
Q 12.9375 14.109375 22.625 23.890625 
Q 32.328125 33.6875 34.8125 36.53125 
Q 39.546875 41.84375 41.421875 45.53125 
Q 43.3125 49.21875 43.3125 52.78125 
Q 43.3125 58.59375 39.234375 62.25 
Q 35.15625 65.921875 28.609375 65.921875 
Q 23.96875 65.921875 18.8125 64.3125 
Q 13.671875 62.703125 7.8125 59.421875 
L 7.8125 69.390625 
Q 13.765625 71.78125 18.9375 73 
Q 24.125 74.21875 28.421875 74.21875 
Q 39.75 74.21875 46.484375 68.546875 
Q 53.21875 62.890625 53.21875 53.421875 
Q 53.21875 48.921875 51.53125 44.890625 
Q 49.859375 40.875 45.40625 35.40625 
Q 44.1875 33.984375 37.640625 27.21875 
Q 31.109375 20.453125 19.1875 8.296875 
z
" id="DejaVuSans-32"/>
       <path d="M 31.78125 66.40625 
Q 24.171875 66.40625 20.328125 58.90625 
Q 16.5 51.421875 16.5 36.375 
Q 16.5 21.390625 20.328125 13.890625 
Q 24.171875 6.390625 31.78125 6.390625 
Q 39.453125 6.390625 43.28125 13.890625 
Q 47.125 21.390625 47.125 36.375 
Q 47.125 51.421875 43.28125 58.90625 
Q 39.453125 66.40625 31.78125 66.40625 
z
M 31.78125 74.21875 
Q 44.046875 74.21875 50.515625 64.515625 
Q 56.984375 54.828125 56.984375 36.375 
Q 56.984375 17.96875 50.515625 8.265625 
Q 44.046875 -1.421875 31.78125 -1.421875 
Q 19.53125 -1.421875 13.0625 8.265625 
Q 6.59375 17.96875 6.59375 36.375 
Q 6.59375 54.828125 13.0625 64.515625 
Q 19.53125 74.21875 31.78125 74.21875 
z
" id="DejaVuSans-30"/>
      </defs>
      <g transform="translate(127.789015 644.598438)scale(0.1 -0.1)">
       <use xlink:href="#DejaVuSans-32"/>
       <use x="63.623047" xlink:href="#DejaVuSans-30"/>
      </g>
     </g>
    </g>
    <g id="xtick_2">
     <g id="line2d_2">
      <g>
       <use style="stroke:#000000;stroke-width:0.8;" x="196.777778" xlink:href="#m9a045c9511" y="630"/>
      </g>
     </g>
     <g id="text_2">
      <!-- 30 -->
      <defs>
       <path d="M 40.578125 39.3125 
Q 47.65625 37.796875 51.625 33 
Q 55.609375 28.21875 55.609375 21.1875 
Q 55.609375 10.40625 48.1875 4.484375 
Q 40.765625 -1.421875 27.09375 -1.421875 
Q 22.515625 -1.421875 17.65625 -0.515625 
Q 12.796875 0.390625 7.625 2.203125 
L 7.625 11.71875 
Q 11.71875 9.328125 16.59375 8.109375 
Q 21.484375 6.890625 26.8125 6.890625 
Q 36.078125 6.890625 40.9375 10.546875 
Q 45.796875 14.203125 45.796875 21.1875 
Q 45.796875 27.640625 41.28125 31.265625 
Q 36.765625 34.90625 28.71875 34.90625 
L 20.21875 34.90625 
L 20.21875 43.015625 
L 29.109375 43.015625 
Q 36.375 43.015625 40.234375 45.921875 
Q 44.09375 48.828125 44.09375 54.296875 
Q 44.09375 59.90625 40.109375 62.90625 
Q 36.140625 65.921875 28.71875 65.921875 
Q 24.65625 65.921875 20.015625 65.03125 
Q 15.375 64.15625 9.8125 62.3125 
L 9.8125 71.09375 
Q 15.4375 72.65625 20.34375 73.4375 
Q 25.25 74.21875 29.59375 74.21875 
Q 40.828125 74.21875 47.359375 69.109375 
Q 53.90625 64.015625 53.90625 55.328125 
Q 53.90625 49.265625 50.4375 45.09375 
Q 46.96875 40.921875 40.578125 39.3125 
z
" id="DejaVuSans-33"/>
      </defs>
      <g transform="translate(190.415278 644.598438)scale(0.1 -0.1)">
       <use xlink:href="#DejaVuSans-33"/>
       <use x="63.623047" xlink:href="#DejaVuSans-30"/>
      </g>
     </g>
    </g>
    <g id="xtick_3">
     <g id="line2d_3">
      <g>
       <use style="stroke:#000000;stroke-width:0.8;" x="259.40404" xlink:href="#m9a045c9511" y="630"/>
      </g>
     </g>
     <g id="text_3">
      <!-- 40 -->
      <defs>
       <path d="M 37.796875 64.3125 
L 12.890625 25.390625 
L 37.796875 25.390625 
z
M 35.203125 72.90625 
L 47.609375 72.90625 
L 47.609375 25.390625 
L 58.015625 25.390625 
L 58.015625 17.1875 
L 47.609375 17.1875 
L 47.609375 0 
L 37.796875 0 
L 37.796875 17.1875 
L 4.890625 17.1875 
L 4.890625 26.703125 
z
" id="DejaVuSans-34"/>
      </defs>
      <g transform="translate(253.04154 644.598438)scale(0.1 -0.1)">
       <use xlink:href="#DejaVuSans-34"/>
       <use x="63.623047" xlink:href="#DejaVuSans-30"/>
      </g>
     </g>
    </g>
    <g id="xtick_4">
     <g id="line2d_4">
      <g>
       <use style="stroke:#000000;stroke-width:0.8;" x="322.030303" xlink:href="#m9a045c9511" y="630"/>
      </g>
     </g>
     <g id="text_4">
      <!-- 50 -->
      <defs>
       <path d="M 10.796875 72.90625 
L 49.515625 72.90625 
L 49.515625 64.59375 
L 19.828125 64.59375 
L 19.828125 46.734375 
Q 21.96875 47.46875 24.109375 47.828125 
Q 26.265625 48.1875 28.421875 48.1875 
Q 40.625 48.1875 47.75 41.5 
Q 54.890625 34.8125 54.890625 23.390625 
Q 54.890625 11.625 47.5625 5.09375 
Q 40.234375 -1.421875 26.90625 -1.421875 
Q 22.3125 -1.421875 17.546875 -0.640625 
Q 12.796875 0.140625 7.71875 1.703125 
L 7.71875 11.625 
Q 12.109375 9.234375 16.796875 8.0625 
Q 21.484375 6.890625 26.703125 6.890625 
Q 35.15625 6.890625 40.078125 11.328125 
Q 45.015625 15.765625 45.015625 23.390625 
Q 45.015625 31 40.078125 35.4375 
Q 35.15625 39.890625 26.703125 39.890625 
Q 22.75 39.890625 18.8125 39.015625 
Q 14.890625 38.140625 10.796875 36.28125 
z
" id="DejaVuSans-35"/>
      </defs>
      <g transform="translate(315.667803 644.598438)scale(0.1 -0.1)">
       <use xlink:href="#DejaVuSans-35"/>
       <use x="63.623047" xlink:href="#DejaVuSans-30"/>
      </g>
     </g>
    </g>
    <g id="xtick_5">
     <g id="line2d_5">
      <g>
       <use style="stroke:#000000;stroke-width:0.8;" x="384.656566" xlink:href="#m9a045c9511" y="630"/>
      </g>
     </g>
     <g id="text_5">
      <!-- 60 -->
      <defs>
       <path d="M 33.015625 40.375 
Q 26.375 40.375 22.484375 35.828125 
Q 18.609375 31.296875 18.609375 23.390625 
Q 18.609375 15.53125 22.484375 10.953125 
Q 26.375 6.390625 33.015625 6.390625 
Q 39.65625 6.390625 43.53125 10.953125 
Q 47.40625 15.53125 47.40625 23.390625 
Q 47.40625 31.296875 43.53125 35.828125 
Q 39.65625 40.375 33.015625 40.375 
z
M 52.59375 71.296875 
L 52.59375 62.3125 
Q 48.875 64.0625 45.09375 64.984375 
Q 41.3125 65.921875 37.59375 65.921875 
Q 27.828125 65.921875 22.671875 59.328125 
Q 17.53125 52.734375 16.796875 39.40625 
Q 19.671875 43.65625 24.015625 45.921875 
Q 28.375 48.1875 33.59375 48.1875 
Q 44.578125 48.1875 50.953125 41.515625 
Q 57.328125 34.859375 57.328125 23.390625 
Q 57.328125 12.15625 50.6875 5.359375 
Q 44.046875 -1.421875 33.015625 -1.421875 
Q 20.359375 -1.421875 13.671875 8.265625 
Q 6.984375 17.96875 6.984375 36.375 
Q 6.984375 53.65625 15.1875 63.9375 
Q 23.390625 74.21875 37.203125 74.21875 
Q 40.921875 74.21875 44.703125 73.484375 
Q 48.484375 72.75 52.59375 71.296875 
z
" id="DejaVuSans-36"/>
      </defs>
      <g transform="translate(378.294066 644.598438)scale(0.1 -0.1)">
       <use xlink:href="#DejaVuSans-36"/>
       <use x="63.623047" xlink:href="#DejaVuSans-30"/>
      </g>
     </g>
    </g>
    <g id="xtick_6">
     <g id="line2d_6">
      <g>
       <use style="stroke:#000000;stroke-width:0.8;" x="447.282828" xlink:href="#m9a045c9511" y="630"/>
      </g>
     </g>
     <g id="text_6">
      <!-- 70 -->
      <defs>
       <path d="M 8.203125 72.90625 
L 55.078125 72.90625 
L 55.078125 68.703125 
L 28.609375 0 
L 18.3125 0 
L 43.21875 64.59375 
L 8.203125 64.59375 
z
" id="DejaVuSans-37"/>
      </defs>
      <g transform="translate(440.920328 644.598438)scale(0.1 -0.1)">
       <use xlink:href="#DejaVuSans-37"/>
       <use x="63.623047" xlink:href="#DejaVuSans-30"/>
      </g>
     </g>
    </g>
    <g id="xtick_7">
     <g id="line2d_7">
      <g>
       <use style="stroke:#000000;stroke-width:0.8;" x="509.909091" xlink:href="#m9a045c9511" y="630"/>
      </g>
     </g>
     <g id="text_7">
      <!-- 80 -->
      <defs>
       <path d="M 31.78125 34.625 
Q 24.75 34.625 20.71875 30.859375 
Q 16.703125 27.09375 16.703125 20.515625 
Q 16.703125 13.921875 20.71875 10.15625 
Q 24.75 6.390625 31.78125 6.390625 
Q 38.8125 6.390625 42.859375 10.171875 
Q 46.921875 13.96875 46.921875 20.515625 
Q 46.921875 27.09375 42.890625 30.859375 
Q 38.875 34.625 31.78125 34.625 
z
M 21.921875 38.8125 
Q 15.578125 40.375 12.03125 44.71875 
Q 8.5 49.078125 8.5 55.328125 
Q 8.5 64.0625 14.71875 69.140625 
Q 20.953125 74.21875 31.78125 74.21875 
Q 42.671875 74.21875 48.875 69.140625 
Q 55.078125 64.0625 55.078125 55.328125 
Q 55.078125 49.078125 51.53125 44.71875 
Q 48 40.375 41.703125 38.8125 
Q 48.828125 37.15625 52.796875 32.3125 
Q 56.78125 27.484375 56.78125 20.515625 
Q 56.78125 9.90625 50.3125 4.234375 
Q 43.84375 -1.421875 31.78125 -1.421875 
Q 19.734375 -1.421875 13.25 4.234375 
Q 6.78125 9.90625 6.78125 20.515625 
Q 6.78125 27.484375 10.78125 32.3125 
Q 14.796875 37.15625 21.921875 38.8125 
z
M 18.3125 54.390625 
Q 18.3125 48.734375 21.84375 45.5625 
Q 25.390625 42.390625 31.78125 42.390625 
Q 38.140625 42.390625 41.71875 45.5625 
Q 45.3125 48.734375 45.3125 54.390625 
Q 45.3125 60.0625 41.71875 63.234375 
Q 38.140625 66.40625 31.78125 66.40625 
Q 25.390625 66.40625 21.84375 63.234375 
Q 18.3125 60.0625 18.3125 54.390625 
z
" id="DejaVuSans-38"/>
      </defs>
      <g transform="translate(503.546591 644.598438)scale(0.1 -0.1)">
       <use xlink:href="#DejaVuSans-38"/>
       <use x="63.623047" xlink:href="#DejaVuSans-30"/>
      </g>
     </g>
    </g>
    <g id="xtick_8">
     <g id="line2d_8">
      <g>
       <use style="stroke:#000000;stroke-width:0.8;" x="572.535354" xlink:href="#m9a045c9511" y="630"/>
      </g>
     </g>
     <g id="text_8">
      <!-- 90 -->
      <defs>
       <path d="M 10.984375 1.515625 
L 10.984375 10.5 
Q 14.703125 8.734375 18.5 7.8125 
Q 22.3125 6.890625 25.984375 6.890625 
Q 35.75 6.890625 40.890625 13.453125 
Q 46.046875 20.015625 46.78125 33.40625 
Q 43.953125 29.203125 39.59375 26.953125 
Q 35.25 24.703125 29.984375 24.703125 
Q 19.046875 24.703125 12.671875 31.3125 
Q 6.296875 37.9375 6.296875 49.421875 
Q 6.296875 60.640625 12.9375 67.421875 
Q 19.578125 74.21875 30.609375 74.21875 
Q 43.265625 74.21875 49.921875 64.515625 
Q 56.59375 54.828125 56.59375 36.375 
Q 56.59375 19.140625 48.40625 8.859375 
Q 40.234375 -1.421875 26.421875 -1.421875 
Q 22.703125 -1.421875 18.890625 -0.6875 
Q 15.09375 0.046875 10.984375 1.515625 
z
M 30.609375 32.421875 
Q 37.25 32.421875 41.125 36.953125 
Q 45.015625 41.5 45.015625 49.421875 
Q 45.015625 57.28125 41.125 61.84375 
Q 37.25 66.40625 30.609375 66.40625 
Q 23.96875 66.40625 20.09375 61.84375 
Q 16.21875 57.28125 16.21875 49.421875 
Q 16.21875 41.5 20.09375 36.953125 
Q 23.96875 32.421875 30.609375 32.421875 
z
" id="DejaVuSans-39"/>
      </defs>
      <g transform="translate(566.172854 644.598438)scale(0.1 -0.1)">
       <use xlink:href="#DejaVuSans-39"/>
       <use x="63.623047" xlink:href="#DejaVuSans-30"/>
      </g>
     </g>
    </g>
    <g id="xtick_9">
     <g id="line2d_9">
      <g>
       <use style="stroke:#000000;stroke-width:0.8;" x="635.161616" xlink:href="#m9a045c9511" y="630"/>
      </g>
     </g>
     <g id="text_9">
      <!-- 100 -->
      <defs>
       <path d="M 12.40625 8.296875 
L 28.515625 8.296875 
L 28.515625 63.921875 
L 10.984375 60.40625 
L 10.984375 69.390625 
L 28.421875 72.90625 
L 38.28125 72.90625 
L 38.28125 8.296875 
L 54.390625 8.296875 
L 54.390625 0 
L 12.40625 0 
z
" id="DejaVuSans-31"/>
      </defs>
      <g transform="translate(625.617866 644.598438)scale(0.1 -0.1)">
       <use xlink:href="#DejaVuSans-31"/>
       <use x="63.623047" xlink:href="#DejaVuSans-30"/>
       <use x="127.246094" xlink:href="#DejaVuSans-30"/>
      </g>
     </g>
    </g>
    <g id="text_10">
     <!-- age -->
     <defs>
      <path d="M 34.28125 27.484375 
Q 23.390625 27.484375 19.1875 25 
Q 14.984375 22.515625 14.984375 16.5 
Q 14.984375 11.71875 18.140625 8.90625 
Q 21.296875 6.109375 26.703125 6.109375 
Q 34.1875 6.109375 38.703125 11.40625 
Q 43.21875 16.703125 43.21875 25.484375 
L 43.21875 27.484375 
z
M 52.203125 31.203125 
L 52.203125 0 
L 43.21875 0 
L 43.21875 8.296875 
Q 40.140625 3.328125 35.546875 0.953125 
Q 30.953125 -1.421875 24.3125 -1.421875 
Q 15.921875 -1.421875 10.953125 3.296875 
Q 6 8.015625 6 15.921875 
Q 6 25.140625 12.171875 29.828125 
Q 18.359375 34.515625 30.609375 34.515625 
L 43.21875 34.515625 
L 43.21875 35.40625 
Q 43.21875 41.609375 39.140625 45 
Q 35.0625 48.390625 27.6875 48.390625 
Q 23 48.390625 18.546875 47.265625 
Q 14.109375 46.140625 10.015625 43.890625 
L 10.015625 52.203125 
Q 14.9375 54.109375 19.578125 55.046875 
Q 24.21875 56 28.609375 56 
Q 40.484375 56 46.34375 49.84375 
Q 52.203125 43.703125 52.203125 31.203125 
z
" id="DejaVuSans-61"/>
      <path d="M 45.40625 27.984375 
Q 45.40625 37.75 41.375 43.109375 
Q 37.359375 48.484375 30.078125 48.484375 
Q 22.859375 48.484375 18.828125 43.109375 
Q 14.796875 37.75 14.796875 27.984375 
Q 14.796875 18.265625 18.828125 12.890625 
Q 22.859375 7.515625 30.078125 7.515625 
Q 37.359375 7.515625 41.375 12.890625 
Q 45.40625 18.265625 45.40625 27.984375 
z
M 54.390625 6.78125 
Q 54.390625 -7.171875 48.1875 -13.984375 
Q 42 -20.796875 29.203125 -20.796875 
Q 24.46875 -20.796875 20.265625 -20.09375 
Q 16.0625 -19.390625 12.109375 -17.921875 
L 12.109375 -9.1875 
Q 16.0625 -11.328125 19.921875 -12.34375 
Q 23.78125 -13.375 27.78125 -13.375 
Q 36.625 -13.375 41.015625 -8.765625 
Q 45.40625 -4.15625 45.40625 5.171875 
L 45.40625 9.625 
Q 42.625 4.78125 38.28125 2.390625 
Q 33.9375 0 27.875 0 
Q 17.828125 0 11.671875 7.65625 
Q 5.515625 15.328125 5.515625 27.984375 
Q 5.515625 40.671875 11.671875 48.328125 
Q 17.828125 56 27.875 56 
Q 33.9375 56 38.28125 53.609375 
Q 42.625 51.21875 45.40625 46.390625 
L 45.40625 54.6875 
L 54.390625 54.6875 
z
" id="DejaVuSans-67"/>
      <path d="M 56.203125 29.59375 
L 56.203125 25.203125 
L 14.890625 25.203125 
Q 15.484375 15.921875 20.484375 11.0625 
Q 25.484375 6.203125 34.421875 6.203125 
Q 39.59375 6.203125 44.453125 7.46875 
Q 49.3125 8.734375 54.109375 11.28125 
L 54.109375 2.78125 
Q 49.265625 0.734375 44.1875 -0.34375 
Q 39.109375 -1.421875 33.890625 -1.421875 
Q 20.796875 -1.421875 13.15625 6.1875 
Q 5.515625 13.8125 5.515625 26.8125 
Q 5.515625 40.234375 12.765625 48.109375 
Q 20.015625 56 32.328125 56 
Q 43.359375 56 49.78125 48.890625 
Q 56.203125 41.796875 56.203125 29.59375 
z
M 47.21875 32.234375 
Q 47.125 39.59375 43.09375 43.984375 
Q 39.0625 48.390625 32.421875 48.390625 
Q 24.90625 48.390625 20.390625 44.140625 
Q 15.875 39.890625 15.1875 32.171875 
z
" id="DejaVuSans-65"/>
     </defs>
     <g transform="translate(359.685156 658.276562)scale(0.1 -0.1)">
      <use xlink:href="#DejaVuSans-61"/>
      <use x="61.279297" xlink:href="#DejaVuSans-67"/>
      <use x="124.755859" xlink:href="#DejaVuSans-65"/>
     </g>
    </g>
   </g>
   <g id="matplotlib.axis_2">
    <g id="ytick_1">
     <g id="line2d_10">
      <defs>
       <path d="M 0 0 
L -3.5 0 
" id="m431b37923e" style="stroke:#000000;stroke-width:0.8;"/>
      </defs>
      <g>
       <use style="stroke:#000000;stroke-width:0.8;" x="90" xlink:href="#m431b37923e" y="605.856777"/>
      </g>
     </g>
     <g id="text_11">
      <!-- 0.000 -->
      <defs>
       <path d="M 10.6875 12.40625 
L 21 12.40625 
L 21 0 
L 10.6875 0 
z
" id="DejaVuSans-2e"/>
      </defs>
      <g transform="translate(54.371875 609.655996)scale(0.1 -0.1)">
       <use xlink:href="#DejaVuSans-30"/>
       <use x="63.623047" xlink:href="#DejaVuSans-2e"/>
       <use x="95.410156" xlink:href="#DejaVuSans-30"/>
       <use x="159.033203" xlink:href="#DejaVuSans-30"/>
       <use x="222.65625" xlink:href="#DejaVuSans-30"/>
      </g>
     </g>
    </g>
    <g id="ytick_2">
     <g id="line2d_11">
      <g>
       <use style="stroke:#000000;stroke-width:0.8;" x="90" xlink:href="#m431b37923e" y="502.450054"/>
      </g>
     </g>
     <g id="text_12">
      <!-- 0.005 -->
      <g transform="translate(54.371875 506.249272)scale(0.1 -0.1)">
       <use xlink:href="#DejaVuSans-30"/>
       <use x="63.623047" xlink:href="#DejaVuSans-2e"/>
       <use x="95.410156" xlink:href="#DejaVuSans-30"/>
       <use x="159.033203" xlink:href="#DejaVuSans-30"/>
       <use x="222.65625" xlink:href="#DejaVuSans-35"/>
      </g>
     </g>
    </g>
    <g id="ytick_3">
     <g id="line2d_12">
      <g>
       <use style="stroke:#000000;stroke-width:0.8;" x="90" xlink:href="#m431b37923e" y="399.04333"/>
      </g>
     </g>
     <g id="text_13">
      <!-- 0.010 -->
      <g transform="translate(54.371875 402.842549)scale(0.1 -0.1)">
       <use xlink:href="#DejaVuSans-30"/>
       <use x="63.623047" xlink:href="#DejaVuSans-2e"/>
       <use x="95.410156" xlink:href="#DejaVuSans-30"/>
       <use x="159.033203" xlink:href="#DejaVuSans-31"/>
       <use x="222.65625" xlink:href="#DejaVuSans-30"/>
      </g>
     </g>
    </g>
    <g id="ytick_4">
     <g id="line2d_13">
      <g>
       <use style="stroke:#000000;stroke-width:0.8;" x="90" xlink:href="#m431b37923e" y="295.636606"/>
      </g>
     </g>
     <g id="text_14">
      <!-- 0.015 -->
      <g transform="translate(54.371875 299.435825)scale(0.1 -0.1)">
       <use xlink:href="#DejaVuSans-30"/>
       <use x="63.623047" xlink:href="#DejaVuSans-2e"/>
       <use x="95.410156" xlink:href="#DejaVuSans-30"/>
       <use x="159.033203" xlink:href="#DejaVuSans-31"/>
       <use x="222.65625" xlink:href="#DejaVuSans-35"/>
      </g>
     </g>
    </g>
    <g id="ytick_5">
     <g id="line2d_14">
      <g>
       <use style="stroke:#000000;stroke-width:0.8;" x="90" xlink:href="#m431b37923e" y="192.229883"/>
      </g>
     </g>
     <g id="text_15">
      <!-- 0.020 -->
      <g transform="translate(54.371875 196.029101)scale(0.1 -0.1)">
       <use xlink:href="#DejaVuSans-30"/>
       <use x="63.623047" xlink:href="#DejaVuSans-2e"/>
       <use x="95.410156" xlink:href="#DejaVuSans-30"/>
       <use x="159.033203" xlink:href="#DejaVuSans-32"/>
       <use x="222.65625" xlink:href="#DejaVuSans-30"/>
      </g>
     </g>
    </g>
    <g id="ytick_6">
     <g id="line2d_15">
      <g>
       <use style="stroke:#000000;stroke-width:0.8;" x="90" xlink:href="#m431b37923e" y="88.823159"/>
      </g>
     </g>
     <g id="text_16">
      <!-- 0.025 -->
      <g transform="translate(54.371875 92.622378)scale(0.1 -0.1)">
       <use xlink:href="#DejaVuSans-30"/>
       <use x="63.623047" xlink:href="#DejaVuSans-2e"/>
       <use x="95.410156" xlink:href="#DejaVuSans-30"/>
       <use x="159.033203" xlink:href="#DejaVuSans-32"/>
       <use x="222.65625" xlink:href="#DejaVuSans-35"/>
      </g>
     </g>
    </g>
    <g id="text_17">
     <!-- percentage -->
     <defs>
      <path d="M 18.109375 8.203125 
L 18.109375 -20.796875 
L 9.078125 -20.796875 
L 9.078125 54.6875 
L 18.109375 54.6875 
L 18.109375 46.390625 
Q 20.953125 51.265625 25.265625 53.625 
Q 29.59375 56 35.59375 56 
Q 45.5625 56 51.78125 48.09375 
Q 58.015625 40.1875 58.015625 27.296875 
Q 58.015625 14.40625 51.78125 6.484375 
Q 45.5625 -1.421875 35.59375 -1.421875 
Q 29.59375 -1.421875 25.265625 0.953125 
Q 20.953125 3.328125 18.109375 8.203125 
z
M 48.6875 27.296875 
Q 48.6875 37.203125 44.609375 42.84375 
Q 40.53125 48.484375 33.40625 48.484375 
Q 26.265625 48.484375 22.1875 42.84375 
Q 18.109375 37.203125 18.109375 27.296875 
Q 18.109375 17.390625 22.1875 11.75 
Q 26.265625 6.109375 33.40625 6.109375 
Q 40.53125 6.109375 44.609375 11.75 
Q 48.6875 17.390625 48.6875 27.296875 
z
" id="DejaVuSans-70"/>
      <path d="M 41.109375 46.296875 
Q 39.59375 47.171875 37.8125 47.578125 
Q 36.03125 48 33.890625 48 
Q 26.265625 48 22.1875 43.046875 
Q 18.109375 38.09375 18.109375 28.8125 
L 18.109375 0 
L 9.078125 0 
L 9.078125 54.6875 
L 18.109375 54.6875 
L 18.109375 46.1875 
Q 20.953125 51.171875 25.484375 53.578125 
Q 30.03125 56 36.53125 56 
Q 37.453125 56 38.578125 55.875 
Q 39.703125 55.765625 41.0625 55.515625 
z
" id="DejaVuSans-72"/>
      <path d="M 48.78125 52.59375 
L 48.78125 44.1875 
Q 44.96875 46.296875 41.140625 47.34375 
Q 37.3125 48.390625 33.40625 48.390625 
Q 24.65625 48.390625 19.8125 42.84375 
Q 14.984375 37.3125 14.984375 27.296875 
Q 14.984375 17.28125 19.8125 11.734375 
Q 24.65625 6.203125 33.40625 6.203125 
Q 37.3125 6.203125 41.140625 7.25 
Q 44.96875 8.296875 48.78125 10.40625 
L 48.78125 2.09375 
Q 45.015625 0.34375 40.984375 -0.53125 
Q 36.96875 -1.421875 32.421875 -1.421875 
Q 20.0625 -1.421875 12.78125 6.34375 
Q 5.515625 14.109375 5.515625 27.296875 
Q 5.515625 40.671875 12.859375 48.328125 
Q 20.21875 56 33.015625 56 
Q 37.15625 56 41.109375 55.140625 
Q 45.0625 54.296875 48.78125 52.59375 
z
" id="DejaVuSans-63"/>
      <path d="M 54.890625 33.015625 
L 54.890625 0 
L 45.90625 0 
L 45.90625 32.71875 
Q 45.90625 40.484375 42.875 44.328125 
Q 39.84375 48.1875 33.796875 48.1875 
Q 26.515625 48.1875 22.3125 43.546875 
Q 18.109375 38.921875 18.109375 30.90625 
L 18.109375 0 
L 9.078125 0 
L 9.078125 54.6875 
L 18.109375 54.6875 
L 18.109375 46.1875 
Q 21.34375 51.125 25.703125 53.5625 
Q 30.078125 56 35.796875 56 
Q 45.21875 56 50.046875 50.171875 
Q 54.890625 44.34375 54.890625 33.015625 
z
" id="DejaVuSans-6e"/>
      <path d="M 18.3125 70.21875 
L 18.3125 54.6875 
L 36.8125 54.6875 
L 36.8125 47.703125 
L 18.3125 47.703125 
L 18.3125 18.015625 
Q 18.3125 11.328125 20.140625 9.421875 
Q 21.96875 7.515625 27.59375 7.515625 
L 36.8125 7.515625 
L 36.8125 0 
L 27.59375 0 
Q 17.1875 0 13.234375 3.875 
Q 9.28125 7.765625 9.28125 18.015625 
L 9.28125 47.703125 
L 2.6875 47.703125 
L 2.6875 54.6875 
L 9.28125 54.6875 
L 9.28125 70.21875 
z
" id="DejaVuSans-74"/>
     </defs>
     <g transform="translate(48.292187 386.774219)rotate(-90)scale(0.1 -0.1)">
      <use xlink:href="#DejaVuSans-70"/>
      <use x="63.476562" xlink:href="#DejaVuSans-65"/>
      <use x="125" xlink:href="#DejaVuSans-72"/>
      <use x="166.082031" xlink:href="#DejaVuSans-63"/>
      <use x="221.0625" xlink:href="#DejaVuSans-65"/>
      <use x="282.585938" xlink:href="#DejaVuSans-6e"/>
      <use x="345.964844" xlink:href="#DejaVuSans-74"/>
      <use x="385.173828" xlink:href="#DejaVuSans-61"/>
      <use x="446.453125" xlink:href="#DejaVuSans-67"/>
      <use x="509.929688" xlink:href="#DejaVuSans-65"/>
     </g>
    </g>
   </g>
   <g id="line2d_16">
    <path clip-path="url(#p86f9677a76)" d="M 121.626263 604.159173 
L 127.888889 605.290909 
L 134.151515 604.159173 
L 140.414141 604.725041 
L 146.676768 602.461569 
L 152.939394 601.329833 
L 159.20202 598.500493 
L 165.464646 591.710076 
L 171.727273 591.144208 
L 177.989899 587.183132 
L 184.252525 583.222056 
L 190.515152 586.051396 
L 196.777778 576.43164 
L 203.040404 565.114279 
L 209.30303 557.757995 
L 215.565657 567.377751 
L 221.828283 557.757995 
L 228.090909 552.665182 
L 234.353535 556.060391 
L 240.616162 569.641223 
L 246.878788 555.494523 
L 253.141414 538.518482 
L 259.40404 558.889731 
L 265.666667 532.293933 
L 271.929293 527.201121 
L 278.191919 526.069385 
L 284.454545 543.045426 
L 290.717172 530.596329 
L 296.979798 532.859801 
L 303.242424 530.030461 
L 309.505051 522.108309 
L 315.767677 536.820878 
L 322.030303 526.069385 
L 328.292929 542.479558 
L 334.555556 536.820878 
L 340.818182 544.177162 
L 347.080808 534.557405 
L 353.343434 536.25501 
L 359.606061 516.449629 
L 365.868687 537.952614 
L 372.131313 535.123274 
L 378.393939 549.835842 
L 384.656566 575.865772 
L 390.919192 601.329833 
L 397.181818 603.027437 
L 403.444444 600.763965 
L 409.707071 603.027437 
L 415.969697 600.763965 
L 422.232323 601.329833 
L 428.494949 603.027437 
L 434.757576 602.461569 
L 441.020202 604.159173 
L 447.282828 597.934625 
L 453.545455 599.066361 
L 459.808081 601.329833 
L 466.070707 597.934625 
L 472.333333 602.461569 
L 478.59596 601.329833 
L 484.858586 602.461569 
L 491.121212 604.725041 
L 497.383838 603.027437 
L 509.909091 599.066361 
L 516.171717 603.027437 
L 522.434343 605.290909 
L 528.69697 603.593305 
L 534.959596 604.159173 
L 541.222222 601.895701 
L 547.484848 604.159173 
L 560.010101 599.632229 
" style="fill:none;stroke:#1f77b4;stroke-linecap:square;stroke-width:1.5;"/>
   </g>
   <g id="line2d_17">
    <path clip-path="url(#p86f9677a76)" d="M 121.626263 601.399591 
L 127.888889 596.942404 
L 134.151515 588.028032 
L 152.939394 601.399591 
L 159.20202 601.399591 
L 165.464646 596.942404 
L 171.727273 601.399591 
L 177.989899 601.399591 
L 184.252525 601.399591 
L 190.515152 588.028032 
L 196.777778 596.942404 
L 203.040404 588.028032 
L 209.30303 574.656473 
L 215.565657 570.199286 
L 221.828283 592.485218 
L 228.090909 579.113659 
L 234.353535 583.570845 
L 240.616162 592.485218 
L 246.878788 588.028032 
L 259.40404 583.570845 
L 265.666667 583.570845 
L 271.929293 583.570845 
L 278.191919 574.656473 
L 284.454545 574.656473 
L 290.717172 561.284913 
L 296.979798 574.656473 
L 303.242424 596.942404 
L 309.505051 596.942404 
L 315.767677 579.113659 
L 322.030303 561.284913 
L 328.292929 574.656473 
L 334.555556 552.370541 
L 340.818182 556.827727 
L 347.080808 574.656473 
L 353.343434 556.827727 
L 359.606061 494.427118 
L 365.868687 561.284913 
L 372.131313 543.456168 
L 378.393939 525.627423 
L 384.656566 561.284913 
L 390.919192 579.113659 
L 397.181818 601.399591 
L 403.444444 579.113659 
L 409.707071 570.199286 
L 415.969697 570.199286 
L 422.232323 534.541795 
L 428.494949 583.570845 
L 434.757576 588.028032 
L 441.020202 592.485218 
L 447.282828 547.913354 
L 453.545455 561.284913 
L 459.808081 583.570845 
L 466.070707 583.570845 
L 472.333333 583.570845 
L 478.59596 579.113659 
L 484.858586 565.7421 
L 491.121212 583.570845 
L 497.383838 579.113659 
L 503.646465 583.570845 
L 509.909091 552.370541 
L 516.171717 583.570845 
L 522.434343 570.199286 
L 528.69697 588.028032 
L 534.959596 601.399591 
L 541.222222 579.113659 
L 547.484848 601.399591 
L 553.747475 601.399591 
L 560.010101 565.7421 
L 566.272727 596.942404 
L 622.636364 596.942404 
" style="fill:none;stroke:#1f77b4;stroke-dasharray:6,2.25;stroke-dashoffset:0;stroke-width:1.5;"/>
   </g>
   <g id="line2d_18">
    <path clip-path="url(#p86f9677a76)" d="M 121.626263 605.290909 
L 146.676768 601.895701 
L 152.939394 604.725041 
L 159.20202 601.329833 
L 165.464646 599.066361 
L 171.727273 592.841812 
L 177.989899 588.880736 
L 184.252525 579.26098 
L 190.515152 580.958584 
L 196.777778 575.299904 
L 203.040404 563.982543 
L 209.30303 562.850807 
L 215.565657 566.246015 
L 221.828283 560.021467 
L 228.090909 554.362786 
L 234.353535 541.91369 
L 240.616162 557.757995 
L 246.878788 536.25501 
L 253.141414 543.611294 
L 259.40404 556.060391 
L 265.666667 551.533446 
L 271.929293 551.533446 
L 278.191919 566.811883 
L 284.454545 556.060391 
L 290.717172 567.943619 
L 296.979798 566.811883 
L 303.242424 572.470563 
L 309.505051 568.509487 
L 315.767677 579.826848 
L 322.030303 582.09032 
L 328.292929 582.656188 
L 334.555556 586.051396 
L 340.818182 588.880736 
L 347.080808 594.539417 
L 353.343434 594.539417 
L 359.606061 588.880736 
L 365.868687 590.57834 
L 372.131313 595.105285 
L 378.393939 593.40768 
L 384.656566 599.632229 
L 403.444444 605.290909 
L 409.707071 605.290909 
L 422.232323 604.725041 
L 447.282828 605.290909 
L 459.808081 604.725041 
L 484.858586 605.290909 
L 497.383838 604.725041 
L 516.171717 605.290909 
L 603.848485 605.290909 
" style="fill:none;stroke:#ff7f0e;stroke-linecap:square;stroke-width:1.5;"/>
   </g>
   <g id="line2d_19">
    <path clip-path="url(#p86f9677a76)" d="M 121.626263 601.399591 
L 127.888889 588.028032 
L 146.676768 596.942404 
L 152.939394 601.399591 
L 159.20202 601.399591 
L 165.464646 596.942404 
L 171.727273 596.942404 
L 177.989899 592.485218 
L 184.252525 588.028032 
L 190.515152 596.942404 
L 196.777778 583.570845 
L 203.040404 556.827727 
L 209.30303 592.485218 
L 215.565657 556.827727 
L 221.828283 574.656473 
L 228.090909 583.570845 
L 234.353535 561.284913 
L 240.616162 574.656473 
L 246.878788 561.284913 
L 253.141414 561.284913 
L 259.40404 583.570845 
L 265.666667 579.113659 
L 271.929293 579.113659 
L 278.191919 574.656473 
L 284.454545 579.113659 
L 290.717172 583.570845 
L 296.979798 583.570845 
L 303.242424 592.485218 
L 309.505051 579.113659 
L 315.767677 583.570845 
L 322.030303 579.113659 
L 328.292929 579.113659 
L 334.555556 588.028032 
L 340.818182 592.485218 
L 347.080808 601.399591 
L 359.606061 601.399591 
L 365.868687 601.399591 
L 378.393939 601.399591 
L 390.919192 601.399591 
L 415.969697 601.399591 
L 422.232323 601.399591 
L 428.494949 601.399591 
L 441.020202 601.399591 
L 459.808081 588.028032 
L 497.383838 601.399591 
" style="fill:none;stroke:#ff7f0e;stroke-dasharray:6,2.25;stroke-dashoffset:0;stroke-width:1.5;"/>
   </g>
   <g id="line2d_20">
    <path clip-path="url(#p86f9677a76)" d="M 115.363636 604.725041 
L 121.626263 604.725041 
L 127.888889 600.198097 
L 134.151515 603.593305 
L 140.414141 595.105285 
L 146.676768 590.012472 
L 152.939394 583.222056 
L 159.20202 563.416675 
L 165.464646 550.40171 
L 171.727273 545.308898 
L 177.989899 530.030461 
L 184.252525 507.961608 
L 190.515152 506.829872 
L 196.777778 489.853831 
L 203.040404 464.38977 
L 209.30303 491.551435 
L 215.565657 463.823902 
L 221.828283 473.443658 
L 228.090909 471.746054 
L 234.353535 444.584389 
L 240.616162 502.302928 
L 246.878788 490.985567 
L 253.141414 489.287963 
L 259.40404 501.171192 
L 265.666667 487.024491 
L 271.929293 528.332857 
L 278.191919 523.240045 
L 284.454545 529.464593 
L 290.717172 491.551435 
L 296.979798 500.605324 
L 303.242424 535.123274 
L 309.505051 535.123274 
L 315.767677 547.006502 
L 322.030303 526.635253 
L 328.292929 539.08435 
L 334.555556 545.874766 
L 340.818182 554.928655 
L 347.080808 563.982543 
L 353.343434 563.416675 
L 359.606061 561.719071 
L 365.868687 561.719071 
L 372.131313 578.129244 
L 378.393939 582.09032 
L 384.656566 599.632229 
L 390.919192 602.461569 
L 397.181818 605.290909 
L 403.444444 605.290909 
L 409.707071 604.725041 
L 422.232323 605.290909 
L 434.757576 605.290909 
L 441.020202 605.290909 
L 447.282828 605.290909 
L 453.545455 604.725041 
L 459.808081 605.290909 
L 466.070707 605.290909 
L 472.333333 605.290909 
L 478.59596 603.593305 
L 491.121212 605.290909 
L 497.383838 605.290909 
L 503.646465 604.159173 
L 516.171717 605.290909 
L 528.69697 604.725041 
L 534.959596 605.290909 
L 597.585859 605.290909 
" style="fill:none;stroke:#2ca02c;stroke-linecap:square;stroke-width:1.5;"/>
   </g>
   <g id="line2d_21">
    <path clip-path="url(#p86f9677a76)" d="M 115.363636 601.399591 
L 121.626263 596.942404 
L 127.888889 588.028032 
L 134.151515 596.942404 
L 140.414141 583.570845 
L 146.676768 592.485218 
L 152.939394 561.284913 
L 159.20202 574.656473 
L 165.464646 579.113659 
L 171.727273 516.71305 
L 177.989899 556.827727 
L 184.252525 503.341491 
L 190.515152 534.541795 
L 196.777778 543.456168 
L 203.040404 472.141186 
L 209.30303 538.998982 
L 215.565657 507.798677 
L 221.828283 547.913354 
L 228.090909 538.998982 
L 234.353535 538.998982 
L 240.616162 565.7421 
L 246.878788 543.456168 
L 253.141414 534.541795 
L 259.40404 556.827727 
L 265.666667 552.370541 
L 271.929293 570.199286 
L 278.191919 552.370541 
L 284.454545 570.199286 
L 290.717172 556.827727 
L 296.979798 556.827727 
L 303.242424 579.113659 
L 309.505051 543.456168 
L 315.767677 579.113659 
L 322.030303 565.7421 
L 328.292929 556.827727 
L 334.555556 579.113659 
L 340.818182 547.913354 
L 347.080808 561.284913 
L 353.343434 561.284913 
L 359.606061 561.284913 
L 365.868687 574.656473 
L 372.131313 574.656473 
L 378.393939 579.113659 
L 384.656566 592.485218 
L 415.969697 601.399591 
L 422.232323 601.399591 
L 453.545455 601.399591 
L 472.333333 596.942404 
L 478.59596 601.399591 
L 503.646465 596.942404 
L 547.484848 601.399591 
" style="fill:none;stroke:#2ca02c;stroke-dasharray:6,2.25;stroke-dashoffset:0;stroke-width:1.5;"/>
   </g>
   <g id="line2d_22">
    <path clip-path="url(#p86f9677a76)" d="M 121.626263 604.159173 
L 127.888889 604.159173 
L 134.151515 592.275944 
L 140.414141 585.485528 
L 146.676768 582.656188 
L 152.939394 565.680147 
L 159.20202 517.015497 
L 165.464646 502.302928 
L 171.727273 487.590359 
L 177.989899 480.234075 
L 184.252525 461.56043 
L 190.515152 410.066439 
L 196.777778 386.299982 
L 203.040404 337.635331 
L 209.30303 394.222134 
L 215.565657 377.246093 
L 221.828283 423.081404 
L 228.090909 401.578419 
L 234.353535 371.021545 
L 240.616162 413.461647 
L 246.878788 450.243069 
L 253.141414 422.515536 
L 259.40404 459.862826 
L 265.666667 467.21911 
L 271.929293 488.722095 
L 278.191919 479.668207 
L 284.454545 481.931679 
L 290.717172 498.90772 
L 296.979798 497.210116 
L 303.242424 504.000532 
L 309.505051 498.90772 
L 315.767677 490.985567 
L 322.030303 536.25501 
L 328.292929 531.162197 
L 334.555556 530.596329 
L 340.818182 538.518482 
L 347.080808 543.045426 
L 353.343434 543.045426 
L 359.606061 545.308898 
L 365.868687 550.967578 
L 372.131313 563.982543 
L 378.393939 578.129244 
L 384.656566 583.222056 
L 390.919192 600.763965 
L 397.181818 603.593305 
L 403.444444 603.593305 
L 409.707071 604.725041 
L 415.969697 603.593305 
L 422.232323 604.159173 
L 434.757576 604.159173 
L 441.020202 603.593305 
L 447.282828 604.159173 
L 453.545455 604.159173 
L 466.070707 605.290909 
L 472.333333 603.593305 
L 497.383838 604.725041 
L 503.646465 604.159173 
L 509.909091 605.290909 
L 516.171717 604.725041 
L 522.434343 605.290909 
L 528.69697 605.290909 
L 560.010101 605.290909 
" style="fill:none;stroke:#d62728;stroke-linecap:square;stroke-width:1.5;"/>
   </g>
   <g id="line2d_23">
    <path clip-path="url(#p86f9677a76)" d="M 121.626263 596.942404 
L 127.888889 601.399591 
L 134.151515 565.7421 
L 140.414141 534.541795 
L 146.676768 547.913354 
L 152.939394 525.627423 
L 159.20202 440.940882 
L 165.464646 445.398068 
L 171.727273 423.112136 
L 177.989899 481.055559 
L 184.252525 396.369018 
L 190.515152 338.425595 
L 196.777778 432.026509 
L 203.040404 391.911832 
L 209.30303 445.398068 
L 215.565657 378.540273 
L 221.828283 458.769627 
L 228.090909 440.940882 
L 234.353535 472.141186 
L 240.616162 467.684 
L 246.878788 449.855254 
L 253.141414 489.969932 
L 259.40404 525.627423 
L 265.666667 494.427118 
L 271.929293 538.998982 
L 278.191919 485.512745 
L 284.454545 525.627423 
L 290.717172 547.913354 
L 296.979798 534.541795 
L 303.242424 525.627423 
L 309.505051 512.255864 
L 315.767677 547.913354 
L 322.030303 543.456168 
L 328.292929 552.370541 
L 334.555556 543.456168 
L 340.818182 579.113659 
L 347.080808 547.913354 
L 353.343434 552.370541 
L 359.606061 565.7421 
L 365.868687 552.370541 
L 372.131313 556.827727 
L 378.393939 574.656473 
L 384.656566 543.456168 
L 390.919192 588.028032 
L 397.181818 574.656473 
L 403.444444 592.485218 
L 409.707071 574.656473 
L 415.969697 596.942404 
L 422.232323 592.485218 
L 434.757576 583.570845 
L 441.020202 579.113659 
L 447.282828 601.399591 
L 453.545455 601.399591 
L 459.808081 601.399591 
L 466.070707 596.942404 
L 472.333333 601.399591 
L 478.59596 601.399591 
L 491.121212 601.399591 
L 509.909091 596.942404 
L 528.69697 601.399591 
L 534.959596 601.399591 
" style="fill:none;stroke:#d62728;stroke-dasharray:6,2.25;stroke-dashoffset:0;stroke-width:1.5;"/>
   </g>
   <g id="line2d_24">
    <path clip-path="url(#p86f9677a76)" d="M 221.828283 604.725041 
L 271.929293 605.290909 
L 284.454545 605.290909 
L 290.717172 604.159173 
L 328.292929 604.159173 
L 347.080808 605.290909 
L 353.343434 604.725041 
L 384.656566 605.290909 
" style="fill:none;stroke:#9467bd;stroke-linecap:square;stroke-width:1.5;"/>
   </g>
   <g id="line2d_25">
    <path clip-path="url(#p86f9677a76)" d="M 221.828283 601.399591 
L 271.929293 601.399591 
L 328.292929 601.399591 
L 509.909091 601.399591 
" style="fill:none;stroke:#9467bd;stroke-dasharray:6,2.25;stroke-dashoffset:0;stroke-width:1.5;"/>
   </g>
   <g id="line2d_26">
    <path clip-path="url(#p86f9677a76)" d="M 134.151515 604.725041 
L 140.414141 604.159173 
L 146.676768 602.461569 
L 152.939394 588.314868 
L 159.20202 579.26098 
L 165.464646 582.09032 
L 171.727273 573.036431 
L 177.989899 556.060391 
L 184.252525 569.075355 
L 190.515152 525.503517 
L 196.777778 494.946643 
L 203.040404 494.380775 
L 209.30303 477.970603 
L 215.565657 480.799943 
L 221.828283 471.180186 
L 228.090909 461.56043 
L 234.353535 502.868796 
L 240.616162 480.234075 
L 246.878788 503.434664 
L 253.141414 502.868796 
L 259.40404 519.278969 
L 265.666667 527.201121 
L 271.929293 545.874766 
L 278.191919 535.123274 
L 284.454545 519.278969 
L 290.717172 539.08435 
L 296.979798 540.216086 
L 303.242424 543.611294 
L 309.505051 540.781954 
L 315.767677 555.494523 
L 322.030303 551.533446 
L 328.292929 558.889731 
L 334.555556 563.416675 
L 340.818182 554.362786 
L 347.080808 564.548411 
L 353.343434 554.362786 
L 359.606061 574.734036 
L 365.868687 572.470563 
L 372.131313 562.850807 
L 378.393939 578.129244 
L 384.656566 585.485528 
L 390.919192 604.159173 
L 397.181818 603.593305 
L 403.444444 601.329833 
L 409.707071 604.159173 
L 415.969697 604.159173 
L 422.232323 604.159173 
L 428.494949 603.593305 
L 434.757576 604.725041 
L 441.020202 603.027437 
L 447.282828 604.159173 
L 453.545455 603.593305 
L 459.808081 604.725041 
L 466.070707 604.725041 
L 472.333333 603.593305 
L 484.858586 605.290909 
L 491.121212 605.290909 
L 497.383838 605.290909 
L 516.171717 604.725041 
L 541.222222 605.290909 
" style="fill:none;stroke:#8c564b;stroke-linecap:square;stroke-width:1.5;"/>
   </g>
   <g id="line2d_27">
    <path clip-path="url(#p86f9677a76)" d="M 140.414141 601.399591 
L 146.676768 565.7421 
L 152.939394 583.570845 
L 159.20202 556.827727 
L 165.464646 583.570845 
L 171.727273 552.370541 
L 177.989899 579.113659 
L 184.252525 521.170236 
L 190.515152 476.598373 
L 196.777778 498.884304 
L 203.040404 489.969932 
L 209.30303 463.226814 
L 215.565657 463.226814 
L 221.828283 476.598373 
L 228.090909 498.884304 
L 234.353535 547.913354 
L 240.616162 530.084609 
L 246.878788 489.969932 
L 253.141414 530.084609 
L 259.40404 547.913354 
L 265.666667 530.084609 
L 271.929293 534.541795 
L 278.191919 570.199286 
L 284.454545 570.199286 
L 290.717172 570.199286 
L 296.979798 561.284913 
L 303.242424 579.113659 
L 309.505051 534.541795 
L 315.767677 574.656473 
L 322.030303 547.913354 
L 328.292929 552.370541 
L 334.555556 565.7421 
L 340.818182 570.199286 
L 347.080808 574.656473 
L 353.343434 574.656473 
L 359.606061 561.284913 
L 365.868687 579.113659 
L 372.131313 583.570845 
L 378.393939 534.541795 
L 384.656566 565.7421 
L 390.919192 583.570845 
L 397.181818 592.485218 
L 403.444444 592.485218 
L 409.707071 592.485218 
L 415.969697 601.399591 
L 422.232323 592.485218 
L 428.494949 588.028032 
L 434.757576 596.942404 
L 441.020202 596.942404 
L 447.282828 596.942404 
L 453.545455 588.028032 
L 459.808081 601.399591 
L 466.070707 596.942404 
L 472.333333 601.399591 
L 484.858586 592.485218 
L 497.383838 596.942404 
L 509.909091 596.942404 
L 522.434343 601.399591 
L 528.69697 601.399591 
L 541.222222 601.399591 
L 547.484848 601.399591 
" style="fill:none;stroke:#8c564b;stroke-dasharray:6,2.25;stroke-dashoffset:0;stroke-width:1.5;"/>
   </g>
   <g id="line2d_28">
    <path clip-path="url(#p86f9677a76)" d="M 134.151515 605.290909 
L 140.414141 603.027437 
L 146.676768 602.461569 
L 152.939394 592.841812 
L 159.20202 571.904695 
L 165.464646 533.991537 
L 171.727273 527.201121 
L 177.989899 487.590359 
L 184.252525 471.746054 
L 190.515152 322.356895 
L 196.777778 282.180265 
L 203.040404 249.925787 
L 209.30303 219.934781 
L 215.565657 275.389848 
L 221.828283 287.838945 
L 228.090909 316.698214 
L 234.353535 329.147311 
L 240.616162 372.153281 
L 246.878788 414.593383 
L 253.141414 417.422723 
L 259.40404 452.506541 
L 265.666667 446.847861 
L 271.929293 429.87182 
L 278.191919 476.838867 
L 284.454545 498.90772 
L 290.717172 478.536471 
L 296.979798 482.497547 
L 303.242424 487.590359 
L 309.505051 489.287963 
L 315.767677 507.39574 
L 322.030303 493.814907 
L 328.292929 515.317892 
L 334.555556 497.775984 
L 340.818182 503.434664 
L 347.080808 504.000532 
L 353.343434 530.030461 
L 359.606061 520.410705 
L 365.868687 513.620288 
L 372.131313 524.937649 
L 378.393939 550.967578 
L 384.656566 573.036431 
L 390.919192 597.934625 
L 397.181818 597.368757 
L 403.444444 601.895701 
L 409.707071 599.632229 
L 415.969697 604.159173 
L 422.232323 603.027437 
L 428.494949 603.027437 
L 434.757576 603.027437 
L 441.020202 603.593305 
L 447.282828 603.593305 
L 453.545455 600.763965 
L 459.808081 601.895701 
L 466.070707 604.159173 
L 472.333333 604.725041 
L 484.858586 601.895701 
L 516.171717 605.290909 
L 522.434343 603.593305 
L 560.010101 605.290909 
L 578.79798 604.725041 
" style="fill:none;stroke:#e377c2;stroke-linecap:square;stroke-width:1.5;"/>
   </g>
   <g id="line2d_29">
    <path clip-path="url(#p86f9677a76)" d="M 134.151515 601.399591 
L 140.414141 592.485218 
L 146.676768 574.656473 
L 152.939394 556.827727 
L 159.20202 516.71305 
L 165.464646 472.141186 
L 171.727273 405.283391 
L 177.989899 342.882782 
L 184.252525 369.6259 
L 190.515152 289.396545 
L 196.777778 111.109091 
L 203.040404 195.795632 
L 209.30303 222.53875 
L 215.565657 231.453123 
L 221.828283 200.252818 
L 228.090909 271.5678 
L 234.353535 258.196241 
L 240.616162 298.310918 
L 246.878788 387.454645 
L 253.141414 423.112136 
L 259.40404 467.684 
L 265.666667 427.569323 
L 271.929293 445.398068 
L 278.191919 489.969932 
L 284.454545 498.884304 
L 290.717172 467.684 
L 296.979798 485.512745 
L 303.242424 521.170236 
L 309.505051 454.312441 
L 315.767677 530.084609 
L 322.030303 472.141186 
L 328.292929 516.71305 
L 334.555556 463.226814 
L 340.818182 489.969932 
L 347.080808 498.884304 
L 353.343434 538.998982 
L 359.606061 516.71305 
L 365.868687 507.798677 
L 372.131313 512.255864 
L 378.393939 538.998982 
L 384.656566 534.541795 
L 390.919192 538.998982 
L 397.181818 570.199286 
L 403.444444 601.399591 
L 409.707071 579.113659 
L 415.969697 574.656473 
L 422.232323 596.942404 
L 434.757576 588.028032 
L 441.020202 596.942404 
L 447.282828 601.399591 
L 453.545455 592.485218 
L 459.808081 601.399591 
L 466.070707 592.485218 
L 472.333333 588.028032 
L 478.59596 601.399591 
L 484.858586 588.028032 
L 491.121212 592.485218 
L 522.434343 601.399591 
L 528.69697 596.942404 
" style="fill:none;stroke:#e377c2;stroke-dasharray:6,2.25;stroke-dashoffset:0;stroke-width:1.5;"/>
   </g>
   <g id="line2d_30">
    <path clip-path="url(#p86f9677a76)" d="M 115.363636 605.290909 
L 121.626263 601.895701 
L 127.888889 601.329833 
L 134.151515 601.329833 
L 140.414141 601.329833 
L 146.676768 601.895701 
L 152.939394 604.159173 
L 159.20202 596.237021 
L 165.464646 595.671153 
L 171.727273 597.934625 
L 177.989899 593.973549 
L 184.252525 587.183132 
L 190.515152 592.275944 
L 196.777778 580.392716 
L 203.040404 588.314868 
L 209.30303 596.237021 
L 215.565657 591.710076 
L 221.828283 585.485528 
L 228.090909 581.524452 
L 234.353535 575.299904 
L 240.616162 588.314868 
L 246.878788 574.734036 
L 253.141414 580.958584 
L 259.40404 583.787924 
L 265.666667 569.641223 
L 271.929293 575.299904 
L 278.191919 586.051396 
L 284.454545 584.353792 
L 290.717172 563.982543 
L 296.979798 582.656188 
L 303.242424 575.865772 
L 309.505051 587.183132 
L 315.767677 579.826848 
L 322.030303 578.695112 
L 328.292929 587.183132 
L 334.555556 585.485528 
L 340.818182 580.392716 
L 347.080808 586.051396 
L 353.343434 585.485528 
L 359.606061 580.392716 
L 365.868687 583.222056 
L 372.131313 587.749 
L 378.393939 585.485528 
L 384.656566 597.368757 
L 390.919192 605.290909 
L 397.181818 601.329833 
L 403.444444 601.329833 
L 409.707071 602.461569 
L 415.969697 604.725041 
L 422.232323 602.461569 
L 428.494949 605.290909 
L 434.757576 605.290909 
L 441.020202 604.159173 
L 447.282828 604.725041 
L 453.545455 604.725041 
L 459.808081 605.290909 
L 478.59596 605.290909 
L 484.858586 605.290909 
L 491.121212 604.159173 
L 497.383838 604.725041 
L 503.646465 605.290909 
L 528.69697 604.725041 
L 585.060606 605.290909 
" style="fill:none;stroke:#7f7f7f;stroke-linecap:square;stroke-width:1.5;"/>
   </g>
   <g id="line2d_31">
    <path clip-path="url(#p86f9677a76)" d="M 115.363636 601.399591 
L 121.626263 579.113659 
L 127.888889 565.7421 
L 134.151515 574.656473 
L 140.414141 588.028032 
L 146.676768 596.942404 
L 152.939394 596.942404 
L 159.20202 565.7421 
L 165.464646 552.370541 
L 171.727273 601.399591 
L 177.989899 579.113659 
L 184.252525 588.028032 
L 190.515152 588.028032 
L 196.777778 574.656473 
L 203.040404 565.7421 
L 209.30303 583.570845 
L 215.565657 596.942404 
L 221.828283 574.656473 
L 228.090909 583.570845 
L 234.353535 592.485218 
L 240.616162 601.399591 
L 246.878788 583.570845 
L 253.141414 588.028032 
L 259.40404 601.399591 
L 265.666667 570.199286 
L 271.929293 588.028032 
L 278.191919 601.399591 
L 284.454545 579.113659 
L 290.717172 543.456168 
L 296.979798 592.485218 
L 303.242424 588.028032 
L 309.505051 588.028032 
L 315.767677 601.399591 
L 322.030303 583.570845 
L 328.292929 592.485218 
L 334.555556 588.028032 
L 340.818182 601.399591 
L 347.080808 596.942404 
L 353.343434 601.399591 
L 359.606061 583.570845 
L 365.868687 588.028032 
L 378.393939 579.113659 
L 384.656566 579.113659 
L 390.919192 601.399591 
L 397.181818 579.113659 
L 403.444444 588.028032 
L 409.707071 592.485218 
L 415.969697 592.485218 
L 422.232323 592.485218 
L 428.494949 601.399591 
L 447.282828 596.942404 
L 453.545455 596.942404 
L 459.808081 601.399591 
L 466.070707 601.399591 
L 472.333333 596.942404 
L 478.59596 596.942404 
L 484.858586 596.942404 
L 491.121212 588.028032 
L 497.383838 583.570845 
L 509.909091 601.399591 
L 516.171717 592.485218 
L 522.434343 601.399591 
L 534.959596 601.399591 
L 547.484848 596.942404 
L 585.060606 592.485218 
" style="fill:none;stroke:#7f7f7f;stroke-dasharray:6,2.25;stroke-dashoffset:0;stroke-width:1.5;"/>
   </g>
   <g id="line2d_32"/>
   <g id="line2d_33"/>
   <g id="line2d_34"/>
   <g id="line2d_35"/>
   <g id="line2d_36"/>
   <g id="line2d_37"/>
   <g id="line2d_38"/>
   <g id="line2d_39"/>
   <g id="line2d_40"/>
   <g id="line2d_41"/>
   <g id="line2d_42"/>
   <g id="line2d_43"/>
   <g id="patch_3">
    <path d="M 90 630 
L 90 86.4 
" style="fill:none;stroke:#000000;stroke-linecap:square;stroke-linejoin:miter;stroke-width:0.8;"/>
   </g>
   <g id="patch_4">
    <path d="M 648 630 
L 648 86.4 
" style="fill:none;stroke:#000000;stroke-linecap:square;stroke-linejoin:miter;stroke-width:0.8;"/>
   </g>
   <g id="patch_5">
    <path d="M 90 630 
L 648 630 
" style="fill:none;stroke:#000000;stroke-linecap:square;stroke-linejoin:miter;stroke-width:0.8;"/>
   </g>
   <g id="patch_6">
    <path d="M 90 86.4 
L 648 86.4 
" style="fill:none;stroke:#000000;stroke-linecap:square;stroke-linejoin:miter;stroke-width:0.8;"/>
   </g>
   <g id="legend_1">
    <g id="patch_7">
     <path d="M 511.585938 270.5375 
L 641 270.5375 
Q 643 270.5375 643 268.5375 
L 643 93.4 
Q 643 91.4 641 91.4 
L 511.585938 91.4 
Q 509.585938 91.4 509.585938 93.4 
L 509.585938 268.5375 
Q 509.585938 270.5375 511.585938 270.5375 
z
" style="fill:#ffffff;opacity:0.8;stroke:#cccccc;stroke-linejoin:miter;"/>
    </g>
    <g id="line2d_44">
     <path d="M 513.585938 99.498437 
L 533.585938 99.498437 
" style="fill:none;"/>
    </g>
    <g id="line2d_45"/>
    <g id="text_18">
     <!-- education -->
     <defs>
      <path d="M 45.40625 46.390625 
L 45.40625 75.984375 
L 54.390625 75.984375 
L 54.390625 0 
L 45.40625 0 
L 45.40625 8.203125 
Q 42.578125 3.328125 38.25 0.953125 
Q 33.9375 -1.421875 27.875 -1.421875 
Q 17.96875 -1.421875 11.734375 6.484375 
Q 5.515625 14.40625 5.515625 27.296875 
Q 5.515625 40.1875 11.734375 48.09375 
Q 17.96875 56 27.875 56 
Q 33.9375 56 38.25 53.625 
Q 42.578125 51.265625 45.40625 46.390625 
z
M 14.796875 27.296875 
Q 14.796875 17.390625 18.875 11.75 
Q 22.953125 6.109375 30.078125 6.109375 
Q 37.203125 6.109375 41.296875 11.75 
Q 45.40625 17.390625 45.40625 27.296875 
Q 45.40625 37.203125 41.296875 42.84375 
Q 37.203125 48.484375 30.078125 48.484375 
Q 22.953125 48.484375 18.875 42.84375 
Q 14.796875 37.203125 14.796875 27.296875 
z
" id="DejaVuSans-64"/>
      <path d="M 8.5 21.578125 
L 8.5 54.6875 
L 17.484375 54.6875 
L 17.484375 21.921875 
Q 17.484375 14.15625 20.5 10.265625 
Q 23.53125 6.390625 29.59375 6.390625 
Q 36.859375 6.390625 41.078125 11.03125 
Q 45.3125 15.671875 45.3125 23.6875 
L 45.3125 54.6875 
L 54.296875 54.6875 
L 54.296875 0 
L 45.3125 0 
L 45.3125 8.40625 
Q 42.046875 3.421875 37.71875 1 
Q 33.40625 -1.421875 27.6875 -1.421875 
Q 18.265625 -1.421875 13.375 4.4375 
Q 8.5 10.296875 8.5 21.578125 
z
M 31.109375 56 
z
" id="DejaVuSans-75"/>
      <path d="M 9.421875 54.6875 
L 18.40625 54.6875 
L 18.40625 0 
L 9.421875 0 
z
M 9.421875 75.984375 
L 18.40625 75.984375 
L 18.40625 64.59375 
L 9.421875 64.59375 
z
" id="DejaVuSans-69"/>
      <path d="M 30.609375 48.390625 
Q 23.390625 48.390625 19.1875 42.75 
Q 14.984375 37.109375 14.984375 27.296875 
Q 14.984375 17.484375 19.15625 11.84375 
Q 23.34375 6.203125 30.609375 6.203125 
Q 37.796875 6.203125 41.984375 11.859375 
Q 46.1875 17.53125 46.1875 27.296875 
Q 46.1875 37.015625 41.984375 42.703125 
Q 37.796875 48.390625 30.609375 48.390625 
z
M 30.609375 56 
Q 42.328125 56 49.015625 48.375 
Q 55.71875 40.765625 55.71875 27.296875 
Q 55.71875 13.875 49.015625 6.21875 
Q 42.328125 -1.421875 30.609375 -1.421875 
Q 18.84375 -1.421875 12.171875 6.21875 
Q 5.515625 13.875 5.515625 27.296875 
Q 5.515625 40.765625 12.171875 48.375 
Q 18.84375 56 30.609375 56 
z
" id="DejaVuSans-6f"/>
     </defs>
     <g transform="translate(541.585938 102.998437)scale(0.1 -0.1)">
      <use xlink:href="#DejaVuSans-65"/>
      <use x="61.523438" xlink:href="#DejaVuSans-64"/>
      <use x="125" xlink:href="#DejaVuSans-75"/>
      <use x="188.378906" xlink:href="#DejaVuSans-63"/>
      <use x="243.359375" xlink:href="#DejaVuSans-61"/>
      <use x="304.638672" xlink:href="#DejaVuSans-74"/>
      <use x="343.847656" xlink:href="#DejaVuSans-69"/>
      <use x="371.630859" xlink:href="#DejaVuSans-6f"/>
      <use x="432.8125" xlink:href="#DejaVuSans-6e"/>
     </g>
    </g>
    <g id="line2d_46">
     <path d="M 513.585938 114.176562 
L 533.585938 114.176562 
" style="fill:none;stroke:#1f77b4;stroke-linecap:square;stroke-width:1.5;"/>
    </g>
    <g id="line2d_47"/>
    <g id="text_19">
     <!-- basic.4y -->
     <defs>
      <path d="M 48.6875 27.296875 
Q 48.6875 37.203125 44.609375 42.84375 
Q 40.53125 48.484375 33.40625 48.484375 
Q 26.265625 48.484375 22.1875 42.84375 
Q 18.109375 37.203125 18.109375 27.296875 
Q 18.109375 17.390625 22.1875 11.75 
Q 26.265625 6.109375 33.40625 6.109375 
Q 40.53125 6.109375 44.609375 11.75 
Q 48.6875 17.390625 48.6875 27.296875 
z
M 18.109375 46.390625 
Q 20.953125 51.265625 25.265625 53.625 
Q 29.59375 56 35.59375 56 
Q 45.5625 56 51.78125 48.09375 
Q 58.015625 40.1875 58.015625 27.296875 
Q 58.015625 14.40625 51.78125 6.484375 
Q 45.5625 -1.421875 35.59375 -1.421875 
Q 29.59375 -1.421875 25.265625 0.953125 
Q 20.953125 3.328125 18.109375 8.203125 
L 18.109375 0 
L 9.078125 0 
L 9.078125 75.984375 
L 18.109375 75.984375 
z
" id="DejaVuSans-62"/>
      <path d="M 44.28125 53.078125 
L 44.28125 44.578125 
Q 40.484375 46.53125 36.375 47.5 
Q 32.28125 48.484375 27.875 48.484375 
Q 21.1875 48.484375 17.84375 46.4375 
Q 14.5 44.390625 14.5 40.28125 
Q 14.5 37.15625 16.890625 35.375 
Q 19.28125 33.59375 26.515625 31.984375 
L 29.59375 31.296875 
Q 39.15625 29.25 43.1875 25.515625 
Q 47.21875 21.78125 47.21875 15.09375 
Q 47.21875 7.46875 41.1875 3.015625 
Q 35.15625 -1.421875 24.609375 -1.421875 
Q 20.21875 -1.421875 15.453125 -0.5625 
Q 10.6875 0.296875 5.421875 2 
L 5.421875 11.28125 
Q 10.40625 8.6875 15.234375 7.390625 
Q 20.0625 6.109375 24.8125 6.109375 
Q 31.15625 6.109375 34.5625 8.28125 
Q 37.984375 10.453125 37.984375 14.40625 
Q 37.984375 18.0625 35.515625 20.015625 
Q 33.0625 21.96875 24.703125 23.78125 
L 21.578125 24.515625 
Q 13.234375 26.265625 9.515625 29.90625 
Q 5.8125 33.546875 5.8125 39.890625 
Q 5.8125 47.609375 11.28125 51.796875 
Q 16.75 56 26.8125 56 
Q 31.78125 56 36.171875 55.265625 
Q 40.578125 54.546875 44.28125 53.078125 
z
" id="DejaVuSans-73"/>
      <path d="M 32.171875 -5.078125 
Q 28.375 -14.84375 24.75 -17.8125 
Q 21.140625 -20.796875 15.09375 -20.796875 
L 7.90625 -20.796875 
L 7.90625 -13.28125 
L 13.1875 -13.28125 
Q 16.890625 -13.28125 18.9375 -11.515625 
Q 21 -9.765625 23.484375 -3.21875 
L 25.09375 0.875 
L 2.984375 54.6875 
L 12.5 54.6875 
L 29.59375 11.921875 
L 46.6875 54.6875 
L 56.203125 54.6875 
z
" id="DejaVuSans-79"/>
     </defs>
     <g transform="translate(541.585938 117.676562)scale(0.1 -0.1)">
      <use xlink:href="#DejaVuSans-62"/>
      <use x="63.476562" xlink:href="#DejaVuSans-61"/>
      <use x="124.755859" xlink:href="#DejaVuSans-73"/>
      <use x="176.855469" xlink:href="#DejaVuSans-69"/>
      <use x="204.638672" xlink:href="#DejaVuSans-63"/>
      <use x="259.619141" xlink:href="#DejaVuSans-2e"/>
      <use x="291.40625" xlink:href="#DejaVuSans-34"/>
      <use x="355.029297" xlink:href="#DejaVuSans-79"/>
     </g>
    </g>
    <g id="line2d_48">
     <path d="M 513.585938 128.854687 
L 533.585938 128.854687 
" style="fill:none;stroke:#ff7f0e;stroke-linecap:square;stroke-width:1.5;"/>
    </g>
    <g id="line2d_49"/>
    <g id="text_20">
     <!-- basic.6y -->
     <g transform="translate(541.585938 132.354687)scale(0.1 -0.1)">
      <use xlink:href="#DejaVuSans-62"/>
      <use x="63.476562" xlink:href="#DejaVuSans-61"/>
      <use x="124.755859" xlink:href="#DejaVuSans-73"/>
      <use x="176.855469" xlink:href="#DejaVuSans-69"/>
      <use x="204.638672" xlink:href="#DejaVuSans-63"/>
      <use x="259.619141" xlink:href="#DejaVuSans-2e"/>
      <use x="291.40625" xlink:href="#DejaVuSans-36"/>
      <use x="355.029297" xlink:href="#DejaVuSans-79"/>
     </g>
    </g>
    <g id="line2d_50">
     <path d="M 513.585938 143.532812 
L 533.585938 143.532812 
" style="fill:none;stroke:#2ca02c;stroke-linecap:square;stroke-width:1.5;"/>
    </g>
    <g id="line2d_51"/>
    <g id="text_21">
     <!-- basic.9y -->
     <g transform="translate(541.585938 147.032812)scale(0.1 -0.1)">
      <use xlink:href="#DejaVuSans-62"/>
      <use x="63.476562" xlink:href="#DejaVuSans-61"/>
      <use x="124.755859" xlink:href="#DejaVuSans-73"/>
      <use x="176.855469" xlink:href="#DejaVuSans-69"/>
      <use x="204.638672" xlink:href="#DejaVuSans-63"/>
      <use x="259.619141" xlink:href="#DejaVuSans-2e"/>
      <use x="291.40625" xlink:href="#DejaVuSans-39"/>
      <use x="355.029297" xlink:href="#DejaVuSans-79"/>
     </g>
    </g>
    <g id="line2d_52">
     <path d="M 513.585938 158.210937 
L 533.585938 158.210937 
" style="fill:none;stroke:#d62728;stroke-linecap:square;stroke-width:1.5;"/>
    </g>
    <g id="line2d_53"/>
    <g id="text_22">
     <!-- high.school -->
     <defs>
      <path d="M 54.890625 33.015625 
L 54.890625 0 
L 45.90625 0 
L 45.90625 32.71875 
Q 45.90625 40.484375 42.875 44.328125 
Q 39.84375 48.1875 33.796875 48.1875 
Q 26.515625 48.1875 22.3125 43.546875 
Q 18.109375 38.921875 18.109375 30.90625 
L 18.109375 0 
L 9.078125 0 
L 9.078125 75.984375 
L 18.109375 75.984375 
L 18.109375 46.1875 
Q 21.34375 51.125 25.703125 53.5625 
Q 30.078125 56 35.796875 56 
Q 45.21875 56 50.046875 50.171875 
Q 54.890625 44.34375 54.890625 33.015625 
z
" id="DejaVuSans-68"/>
      <path d="M 9.421875 75.984375 
L 18.40625 75.984375 
L 18.40625 0 
L 9.421875 0 
z
" id="DejaVuSans-6c"/>
     </defs>
     <g transform="translate(541.585938 161.710937)scale(0.1 -0.1)">
      <use xlink:href="#DejaVuSans-68"/>
      <use x="63.378906" xlink:href="#DejaVuSans-69"/>
      <use x="91.162109" xlink:href="#DejaVuSans-67"/>
      <use x="154.638672" xlink:href="#DejaVuSans-68"/>
      <use x="218.017578" xlink:href="#DejaVuSans-2e"/>
      <use x="249.804688" xlink:href="#DejaVuSans-73"/>
      <use x="301.904297" xlink:href="#DejaVuSans-63"/>
      <use x="356.884766" xlink:href="#DejaVuSans-68"/>
      <use x="420.263672" xlink:href="#DejaVuSans-6f"/>
      <use x="481.445312" xlink:href="#DejaVuSans-6f"/>
      <use x="542.626953" xlink:href="#DejaVuSans-6c"/>
     </g>
    </g>
    <g id="line2d_54">
     <path d="M 513.585938 172.889062 
L 533.585938 172.889062 
" style="fill:none;stroke:#9467bd;stroke-linecap:square;stroke-width:1.5;"/>
    </g>
    <g id="line2d_55"/>
    <g id="text_23">
     <!-- illiterate -->
     <g transform="translate(541.585938 176.389062)scale(0.1 -0.1)">
      <use xlink:href="#DejaVuSans-69"/>
      <use x="27.783203" xlink:href="#DejaVuSans-6c"/>
      <use x="55.566406" xlink:href="#DejaVuSans-6c"/>
      <use x="83.349609" xlink:href="#DejaVuSans-69"/>
      <use x="111.132812" xlink:href="#DejaVuSans-74"/>
      <use x="150.341797" xlink:href="#DejaVuSans-65"/>
      <use x="211.865234" xlink:href="#DejaVuSans-72"/>
      <use x="252.978516" xlink:href="#DejaVuSans-61"/>
      <use x="314.257812" xlink:href="#DejaVuSans-74"/>
      <use x="353.466797" xlink:href="#DejaVuSans-65"/>
     </g>
    </g>
    <g id="line2d_56">
     <path d="M 513.585938 187.567187 
L 533.585938 187.567187 
" style="fill:none;stroke:#8c564b;stroke-linecap:square;stroke-width:1.5;"/>
    </g>
    <g id="line2d_57"/>
    <g id="text_24">
     <!-- professional.course -->
     <defs>
      <path d="M 37.109375 75.984375 
L 37.109375 68.5 
L 28.515625 68.5 
Q 23.6875 68.5 21.796875 66.546875 
Q 19.921875 64.59375 19.921875 59.515625 
L 19.921875 54.6875 
L 34.71875 54.6875 
L 34.71875 47.703125 
L 19.921875 47.703125 
L 19.921875 0 
L 10.890625 0 
L 10.890625 47.703125 
L 2.296875 47.703125 
L 2.296875 54.6875 
L 10.890625 54.6875 
L 10.890625 58.5 
Q 10.890625 67.625 15.140625 71.796875 
Q 19.390625 75.984375 28.609375 75.984375 
z
" id="DejaVuSans-66"/>
     </defs>
     <g transform="translate(541.585938 191.067187)scale(0.1 -0.1)">
      <use xlink:href="#DejaVuSans-70"/>
      <use x="63.476562" xlink:href="#DejaVuSans-72"/>
      <use x="104.558594" xlink:href="#DejaVuSans-6f"/>
      <use x="165.740234" xlink:href="#DejaVuSans-66"/>
      <use x="200.945312" xlink:href="#DejaVuSans-65"/>
      <use x="262.46875" xlink:href="#DejaVuSans-73"/>
      <use x="314.568359" xlink:href="#DejaVuSans-73"/>
      <use x="366.667969" xlink:href="#DejaVuSans-69"/>
      <use x="394.451172" xlink:href="#DejaVuSans-6f"/>
      <use x="455.632812" xlink:href="#DejaVuSans-6e"/>
      <use x="519.011719" xlink:href="#DejaVuSans-61"/>
      <use x="580.291016" xlink:href="#DejaVuSans-6c"/>
      <use x="608.074219" xlink:href="#DejaVuSans-2e"/>
      <use x="639.861328" xlink:href="#DejaVuSans-63"/>
      <use x="694.841797" xlink:href="#DejaVuSans-6f"/>
      <use x="756.023438" xlink:href="#DejaVuSans-75"/>
      <use x="819.402344" xlink:href="#DejaVuSans-72"/>
      <use x="860.515625" xlink:href="#DejaVuSans-73"/>
      <use x="912.615234" xlink:href="#DejaVuSans-65"/>
     </g>
    </g>
    <g id="line2d_58">
     <path d="M 513.585938 202.245312 
L 533.585938 202.245312 
" style="fill:none;stroke:#e377c2;stroke-linecap:square;stroke-width:1.5;"/>
    </g>
    <g id="line2d_59"/>
    <g id="text_25">
     <!-- university.degree -->
     <defs>
      <path d="M 2.984375 54.6875 
L 12.5 54.6875 
L 29.59375 8.796875 
L 46.6875 54.6875 
L 56.203125 54.6875 
L 35.6875 0 
L 23.484375 0 
z
" id="DejaVuSans-76"/>
     </defs>
     <g transform="translate(541.585938 205.745312)scale(0.1 -0.1)">
      <use xlink:href="#DejaVuSans-75"/>
      <use x="63.378906" xlink:href="#DejaVuSans-6e"/>
      <use x="126.757812" xlink:href="#DejaVuSans-69"/>
      <use x="154.541016" xlink:href="#DejaVuSans-76"/>
      <use x="213.720703" xlink:href="#DejaVuSans-65"/>
      <use x="275.244141" xlink:href="#DejaVuSans-72"/>
      <use x="316.357422" xlink:href="#DejaVuSans-73"/>
      <use x="368.457031" xlink:href="#DejaVuSans-69"/>
      <use x="396.240234" xlink:href="#DejaVuSans-74"/>
      <use x="435.449219" xlink:href="#DejaVuSans-79"/>
      <use x="494.410156" xlink:href="#DejaVuSans-2e"/>
      <use x="526.197266" xlink:href="#DejaVuSans-64"/>
      <use x="589.673828" xlink:href="#DejaVuSans-65"/>
      <use x="651.197266" xlink:href="#DejaVuSans-67"/>
      <use x="714.673828" xlink:href="#DejaVuSans-72"/>
      <use x="755.755859" xlink:href="#DejaVuSans-65"/>
      <use x="817.279297" xlink:href="#DejaVuSans-65"/>
     </g>
    </g>
    <g id="line2d_60">
     <path d="M 513.585938 216.923437 
L 533.585938 216.923437 
" style="fill:none;stroke:#7f7f7f;stroke-linecap:square;stroke-width:1.5;"/>
    </g>
    <g id="line2d_61"/>
    <g id="text_26">
     <!-- unknown -->
     <defs>
      <path d="M 9.078125 75.984375 
L 18.109375 75.984375 
L 18.109375 31.109375 
L 44.921875 54.6875 
L 56.390625 54.6875 
L 27.390625 29.109375 
L 57.625 0 
L 45.90625 0 
L 18.109375 26.703125 
L 18.109375 0 
L 9.078125 0 
z
" id="DejaVuSans-6b"/>
      <path d="M 4.203125 54.6875 
L 13.1875 54.6875 
L 24.421875 12.015625 
L 35.59375 54.6875 
L 46.1875 54.6875 
L 57.421875 12.015625 
L 68.609375 54.6875 
L 77.59375 54.6875 
L 63.28125 0 
L 52.6875 0 
L 40.921875 44.828125 
L 29.109375 0 
L 18.5 0 
z
" id="DejaVuSans-77"/>
     </defs>
     <g transform="translate(541.585938 220.423437)scale(0.1 -0.1)">
      <use xlink:href="#DejaVuSans-75"/>
      <use x="63.378906" xlink:href="#DejaVuSans-6e"/>
      <use x="126.757812" xlink:href="#DejaVuSans-6b"/>
      <use x="184.667969" xlink:href="#DejaVuSans-6e"/>
      <use x="248.046875" xlink:href="#DejaVuSans-6f"/>
      <use x="309.228516" xlink:href="#DejaVuSans-77"/>
      <use x="391.015625" xlink:href="#DejaVuSans-6e"/>
     </g>
    </g>
    <g id="line2d_62">
     <path d="M 513.585938 231.601562 
L 533.585938 231.601562 
" style="fill:none;"/>
    </g>
    <g id="line2d_63"/>
    <g id="text_27">
     <!-- y -->
     <g transform="translate(541.585938 235.101562)scale(0.1 -0.1)">
      <use xlink:href="#DejaVuSans-79"/>
     </g>
    </g>
    <g id="line2d_64">
     <path d="M 513.585938 246.279687 
L 533.585938 246.279687 
" style="fill:none;stroke:#333333;stroke-linecap:square;stroke-width:1.5;"/>
    </g>
    <g id="line2d_65"/>
    <g id="text_28">
     <!-- no -->
     <g transform="translate(541.585938 249.779687)scale(0.1 -0.1)">
      <use xlink:href="#DejaVuSans-6e"/>
      <use x="63.378906" xlink:href="#DejaVuSans-6f"/>
     </g>
    </g>
    <g id="line2d_66">
     <path d="M 513.585938 260.957812 
L 533.585938 260.957812 
" style="fill:none;stroke:#333333;stroke-dasharray:6,2.25;stroke-dashoffset:0;stroke-width:1.5;"/>
    </g>
    <g id="line2d_67"/>
    <g id="text_29">
     <!-- yes -->
     <g transform="translate(541.585938 264.457812)scale(0.1 -0.1)">
      <use xlink:href="#DejaVuSans-79"/>
      <use x="59.179688" xlink:href="#DejaVuSans-65"/>
      <use x="120.703125" xlink:href="#DejaVuSans-73"/>
     </g>
    </g>
   </g>
  </g>
 </g>
 <defs>
  <clipPath id="p86f9677a76">
   <rect height="543.6" width="558" x="90" y="86.4"/>
  </clipPath>
 </defs>
</svg>
