<?xml version="1.0" encoding="utf-8" standalone="no"?>
<!DOCTYPE svg PUBLIC "-//W3C//DTD SVG 1.1//EN"
  "http://www.w3.org/Graphics/SVG/1.1/DTD/svg11.dtd">
<!-- Created with matplotlib (http://matplotlib.org/) -->
<svg height="720pt" version="1.1" viewBox="0 0 720 720" width="720pt" xmlns="http://www.w3.org/2000/svg" xmlns:xlink="http://www.w3.org/1999/xlink">
 <defs>
  <style type="text/css">
*{stroke-linecap:butt;stroke-linejoin:round;}
  </style>
 </defs>
 <g id="figure_1">
  <g id="patch_1">
   <path d="M 0 720 
L 720 720 
L 720 0 
L 0 0 
z
" style="fill:#ffffff;"/>
  </g>
  <g id="axes_1">
   <g id="patch_2">
    <path d="M 90 630 
L 648 630 
L 648 86.4 
L 90 86.4 
z
" style="fill:#ffffff;"/>
   </g>
   <g id="matplotlib.axis_1">
    <g id="xtick_1">
     <g id="line2d_1">
      <defs>
       <path d="M 0 0 
L 0 3.5 
" id="m93c298bd41" style="stroke:#000000;stroke-width:0.8;"/>
      </defs>
      <g>
       <use style="stroke:#000000;stroke-width:0.8;" x="134.151515" xlink:href="#m93c298bd41" y="630"/>
      </g>
     </g>
     <g id="text_1">
      <!-- 20 -->
      <defs>
       <path d="M 19.1875 8.296875 
L 53.609375 8.296875 
L 53.609375 0 
L 7.328125 0 
L 7.328125 8.296875 
Q 12.9375 14.109375 22.625 23.890625 
Q 32.328125 33.6875 34.8125 36.53125 
Q 39.546875 41.84375 41.421875 45.53125 
Q 43.3125 49.21875 43.3125 52.78125 
Q 43.3125 58.59375 39.234375 62.25 
Q 35.15625 65.921875 28.609375 65.921875 
Q 23.96875 65.921875 18.8125 64.3125 
Q 13.671875 62.703125 7.8125 59.421875 
L 7.8125 69.390625 
Q 13.765625 71.78125 18.9375 73 
Q 24.125 74.21875 28.421875 74.21875 
Q 39.75 74.21875 46.484375 68.546875 
Q 53.21875 62.890625 53.21875 53.421875 
Q 53.21875 48.921875 51.53125 44.890625 
Q 49.859375 40.875 45.40625 35.40625 
Q 44.1875 33.984375 37.640625 27.21875 
Q 31.109375 20.453125 19.1875 8.296875 
z
" id="DejaVuSans-32"/>
       <path d="M 31.78125 66.40625 
Q 24.171875 66.40625 20.328125 58.90625 
Q 16.5 51.421875 16.5 36.375 
Q 16.5 21.390625 20.328125 13.890625 
Q 24.171875 6.390625 31.78125 6.390625 
Q 39.453125 6.390625 43.28125 13.890625 
Q 47.125 21.390625 47.125 36.375 
Q 47.125 51.421875 43.28125 58.90625 
Q 39.453125 66.40625 31.78125 66.40625 
z
M 31.78125 74.21875 
Q 44.046875 74.21875 50.515625 64.515625 
Q 56.984375 54.828125 56.984375 36.375 
Q 56.984375 17.96875 50.515625 8.265625 
Q 44.046875 -1.421875 31.78125 -1.421875 
Q 19.53125 -1.421875 13.0625 8.265625 
Q 6.59375 17.96875 6.59375 36.375 
Q 6.59375 54.828125 13.0625 64.515625 
Q 19.53125 74.21875 31.78125 74.21875 
z
" id="DejaVuSans-30"/>
      </defs>
      <g transform="translate(127.789015 644.598438)scale(0.1 -0.1)">
       <use xlink:href="#DejaVuSans-32"/>
       <use x="63.623047" xlink:href="#DejaVuSans-30"/>
      </g>
     </g>
    </g>
    <g id="xtick_2">
     <g id="line2d_2">
      <g>
       <use style="stroke:#000000;stroke-width:0.8;" x="196.777778" xlink:href="#m93c298bd41" y="630"/>
      </g>
     </g>
     <g id="text_2">
      <!-- 30 -->
      <defs>
       <path d="M 40.578125 39.3125 
Q 47.65625 37.796875 51.625 33 
Q 55.609375 28.21875 55.609375 21.1875 
Q 55.609375 10.40625 48.1875 4.484375 
Q 40.765625 -1.421875 27.09375 -1.421875 
Q 22.515625 -1.421875 17.65625 -0.515625 
Q 12.796875 0.390625 7.625 2.203125 
L 7.625 11.71875 
Q 11.71875 9.328125 16.59375 8.109375 
Q 21.484375 6.890625 26.8125 6.890625 
Q 36.078125 6.890625 40.9375 10.546875 
Q 45.796875 14.203125 45.796875 21.1875 
Q 45.796875 27.640625 41.28125 31.265625 
Q 36.765625 34.90625 28.71875 34.90625 
L 20.21875 34.90625 
L 20.21875 43.015625 
L 29.109375 43.015625 
Q 36.375 43.015625 40.234375 45.921875 
Q 44.09375 48.828125 44.09375 54.296875 
Q 44.09375 59.90625 40.109375 62.90625 
Q 36.140625 65.921875 28.71875 65.921875 
Q 24.65625 65.921875 20.015625 65.03125 
Q 15.375 64.15625 9.8125 62.3125 
L 9.8125 71.09375 
Q 15.4375 72.65625 20.34375 73.4375 
Q 25.25 74.21875 29.59375 74.21875 
Q 40.828125 74.21875 47.359375 69.109375 
Q 53.90625 64.015625 53.90625 55.328125 
Q 53.90625 49.265625 50.4375 45.09375 
Q 46.96875 40.921875 40.578125 39.3125 
z
" id="DejaVuSans-33"/>
      </defs>
      <g transform="translate(190.415278 644.598438)scale(0.1 -0.1)">
       <use xlink:href="#DejaVuSans-33"/>
       <use x="63.623047" xlink:href="#DejaVuSans-30"/>
      </g>
     </g>
    </g>
    <g id="xtick_3">
     <g id="line2d_3">
      <g>
       <use style="stroke:#000000;stroke-width:0.8;" x="259.40404" xlink:href="#m93c298bd41" y="630"/>
      </g>
     </g>
     <g id="text_3">
      <!-- 40 -->
      <defs>
       <path d="M 37.796875 64.3125 
L 12.890625 25.390625 
L 37.796875 25.390625 
z
M 35.203125 72.90625 
L 47.609375 72.90625 
L 47.609375 25.390625 
L 58.015625 25.390625 
L 58.015625 17.1875 
L 47.609375 17.1875 
L 47.609375 0 
L 37.796875 0 
L 37.796875 17.1875 
L 4.890625 17.1875 
L 4.890625 26.703125 
z
" id="DejaVuSans-34"/>
      </defs>
      <g transform="translate(253.04154 644.598438)scale(0.1 -0.1)">
       <use xlink:href="#DejaVuSans-34"/>
       <use x="63.623047" xlink:href="#DejaVuSans-30"/>
      </g>
     </g>
    </g>
    <g id="xtick_4">
     <g id="line2d_4">
      <g>
       <use style="stroke:#000000;stroke-width:0.8;" x="322.030303" xlink:href="#m93c298bd41" y="630"/>
      </g>
     </g>
     <g id="text_4">
      <!-- 50 -->
      <defs>
       <path d="M 10.796875 72.90625 
L 49.515625 72.90625 
L 49.515625 64.59375 
L 19.828125 64.59375 
L 19.828125 46.734375 
Q 21.96875 47.46875 24.109375 47.828125 
Q 26.265625 48.1875 28.421875 48.1875 
Q 40.625 48.1875 47.75 41.5 
Q 54.890625 34.8125 54.890625 23.390625 
Q 54.890625 11.625 47.5625 5.09375 
Q 40.234375 -1.421875 26.90625 -1.421875 
Q 22.3125 -1.421875 17.546875 -0.640625 
Q 12.796875 0.140625 7.71875 1.703125 
L 7.71875 11.625 
Q 12.109375 9.234375 16.796875 8.0625 
Q 21.484375 6.890625 26.703125 6.890625 
Q 35.15625 6.890625 40.078125 11.328125 
Q 45.015625 15.765625 45.015625 23.390625 
Q 45.015625 31 40.078125 35.4375 
Q 35.15625 39.890625 26.703125 39.890625 
Q 22.75 39.890625 18.8125 39.015625 
Q 14.890625 38.140625 10.796875 36.28125 
z
" id="DejaVuSans-35"/>
      </defs>
      <g transform="translate(315.667803 644.598438)scale(0.1 -0.1)">
       <use xlink:href="#DejaVuSans-35"/>
       <use x="63.623047" xlink:href="#DejaVuSans-30"/>
      </g>
     </g>
    </g>
    <g id="xtick_5">
     <g id="line2d_5">
      <g>
       <use style="stroke:#000000;stroke-width:0.8;" x="384.656566" xlink:href="#m93c298bd41" y="630"/>
      </g>
     </g>
     <g id="text_5">
      <!-- 60 -->
      <defs>
       <path d="M 33.015625 40.375 
Q 26.375 40.375 22.484375 35.828125 
Q 18.609375 31.296875 18.609375 23.390625 
Q 18.609375 15.53125 22.484375 10.953125 
Q 26.375 6.390625 33.015625 6.390625 
Q 39.65625 6.390625 43.53125 10.953125 
Q 47.40625 15.53125 47.40625 23.390625 
Q 47.40625 31.296875 43.53125 35.828125 
Q 39.65625 40.375 33.015625 40.375 
z
M 52.59375 71.296875 
L 52.59375 62.3125 
Q 48.875 64.0625 45.09375 64.984375 
Q 41.3125 65.921875 37.59375 65.921875 
Q 27.828125 65.921875 22.671875 59.328125 
Q 17.53125 52.734375 16.796875 39.40625 
Q 19.671875 43.65625 24.015625 45.921875 
Q 28.375 48.1875 33.59375 48.1875 
Q 44.578125 48.1875 50.953125 41.515625 
Q 57.328125 34.859375 57.328125 23.390625 
Q 57.328125 12.15625 50.6875 5.359375 
Q 44.046875 -1.421875 33.015625 -1.421875 
Q 20.359375 -1.421875 13.671875 8.265625 
Q 6.984375 17.96875 6.984375 36.375 
Q 6.984375 53.65625 15.1875 63.9375 
Q 23.390625 74.21875 37.203125 74.21875 
Q 40.921875 74.21875 44.703125 73.484375 
Q 48.484375 72.75 52.59375 71.296875 
z
" id="DejaVuSans-36"/>
      </defs>
      <g transform="translate(378.294066 644.598438)scale(0.1 -0.1)">
       <use xlink:href="#DejaVuSans-36"/>
       <use x="63.623047" xlink:href="#DejaVuSans-30"/>
      </g>
     </g>
    </g>
    <g id="xtick_6">
     <g id="line2d_6">
      <g>
       <use style="stroke:#000000;stroke-width:0.8;" x="447.282828" xlink:href="#m93c298bd41" y="630"/>
      </g>
     </g>
     <g id="text_6">
      <!-- 70 -->
      <defs>
       <path d="M 8.203125 72.90625 
L 55.078125 72.90625 
L 55.078125 68.703125 
L 28.609375 0 
L 18.3125 0 
L 43.21875 64.59375 
L 8.203125 64.59375 
z
" id="DejaVuSans-37"/>
      </defs>
      <g transform="translate(440.920328 644.598438)scale(0.1 -0.1)">
       <use xlink:href="#DejaVuSans-37"/>
       <use x="63.623047" xlink:href="#DejaVuSans-30"/>
      </g>
     </g>
    </g>
    <g id="xtick_7">
     <g id="line2d_7">
      <g>
       <use style="stroke:#000000;stroke-width:0.8;" x="509.909091" xlink:href="#m93c298bd41" y="630"/>
      </g>
     </g>
     <g id="text_7">
      <!-- 80 -->
      <defs>
       <path d="M 31.78125 34.625 
Q 24.75 34.625 20.71875 30.859375 
Q 16.703125 27.09375 16.703125 20.515625 
Q 16.703125 13.921875 20.71875 10.15625 
Q 24.75 6.390625 31.78125 6.390625 
Q 38.8125 6.390625 42.859375 10.171875 
Q 46.921875 13.96875 46.921875 20.515625 
Q 46.921875 27.09375 42.890625 30.859375 
Q 38.875 34.625 31.78125 34.625 
z
M 21.921875 38.8125 
Q 15.578125 40.375 12.03125 44.71875 
Q 8.5 49.078125 8.5 55.328125 
Q 8.5 64.0625 14.71875 69.140625 
Q 20.953125 74.21875 31.78125 74.21875 
Q 42.671875 74.21875 48.875 69.140625 
Q 55.078125 64.0625 55.078125 55.328125 
Q 55.078125 49.078125 51.53125 44.71875 
Q 48 40.375 41.703125 38.8125 
Q 48.828125 37.15625 52.796875 32.3125 
Q 56.78125 27.484375 56.78125 20.515625 
Q 56.78125 9.90625 50.3125 4.234375 
Q 43.84375 -1.421875 31.78125 -1.421875 
Q 19.734375 -1.421875 13.25 4.234375 
Q 6.78125 9.90625 6.78125 20.515625 
Q 6.78125 27.484375 10.78125 32.3125 
Q 14.796875 37.15625 21.921875 38.8125 
z
M 18.3125 54.390625 
Q 18.3125 48.734375 21.84375 45.5625 
Q 25.390625 42.390625 31.78125 42.390625 
Q 38.140625 42.390625 41.71875 45.5625 
Q 45.3125 48.734375 45.3125 54.390625 
Q 45.3125 60.0625 41.71875 63.234375 
Q 38.140625 66.40625 31.78125 66.40625 
Q 25.390625 66.40625 21.84375 63.234375 
Q 18.3125 60.0625 18.3125 54.390625 
z
" id="DejaVuSans-38"/>
      </defs>
      <g transform="translate(503.546591 644.598438)scale(0.1 -0.1)">
       <use xlink:href="#DejaVuSans-38"/>
       <use x="63.623047" xlink:href="#DejaVuSans-30"/>
      </g>
     </g>
    </g>
    <g id="xtick_8">
     <g id="line2d_8">
      <g>
       <use style="stroke:#000000;stroke-width:0.8;" x="572.535354" xlink:href="#m93c298bd41" y="630"/>
      </g>
     </g>
     <g id="text_8">
      <!-- 90 -->
      <defs>
       <path d="M 10.984375 1.515625 
L 10.984375 10.5 
Q 14.703125 8.734375 18.5 7.8125 
Q 22.3125 6.890625 25.984375 6.890625 
Q 35.75 6.890625 40.890625 13.453125 
Q 46.046875 20.015625 46.78125 33.40625 
Q 43.953125 29.203125 39.59375 26.953125 
Q 35.25 24.703125 29.984375 24.703125 
Q 19.046875 24.703125 12.671875 31.3125 
Q 6.296875 37.9375 6.296875 49.421875 
Q 6.296875 60.640625 12.9375 67.421875 
Q 19.578125 74.21875 30.609375 74.21875 
Q 43.265625 74.21875 49.921875 64.515625 
Q 56.59375 54.828125 56.59375 36.375 
Q 56.59375 19.140625 48.40625 8.859375 
Q 40.234375 -1.421875 26.421875 -1.421875 
Q 22.703125 -1.421875 18.890625 -0.6875 
Q 15.09375 0.046875 10.984375 1.515625 
z
M 30.609375 32.421875 
Q 37.25 32.421875 41.125 36.953125 
Q 45.015625 41.5 45.015625 49.421875 
Q 45.015625 57.28125 41.125 61.84375 
Q 37.25 66.40625 30.609375 66.40625 
Q 23.96875 66.40625 20.09375 61.84375 
Q 16.21875 57.28125 16.21875 49.421875 
Q 16.21875 41.5 20.09375 36.953125 
Q 23.96875 32.421875 30.609375 32.421875 
z
" id="DejaVuSans-39"/>
      </defs>
      <g transform="translate(566.172854 644.598438)scale(0.1 -0.1)">
       <use xlink:href="#DejaVuSans-39"/>
       <use x="63.623047" xlink:href="#DejaVuSans-30"/>
      </g>
     </g>
    </g>
    <g id="xtick_9">
     <g id="line2d_9">
      <g>
       <use style="stroke:#000000;stroke-width:0.8;" x="635.161616" xlink:href="#m93c298bd41" y="630"/>
      </g>
     </g>
     <g id="text_9">
      <!-- 100 -->
      <defs>
       <path d="M 12.40625 8.296875 
L 28.515625 8.296875 
L 28.515625 63.921875 
L 10.984375 60.40625 
L 10.984375 69.390625 
L 28.421875 72.90625 
L 38.28125 72.90625 
L 38.28125 8.296875 
L 54.390625 8.296875 
L 54.390625 0 
L 12.40625 0 
z
" id="DejaVuSans-31"/>
      </defs>
      <g transform="translate(625.617866 644.598438)scale(0.1 -0.1)">
       <use xlink:href="#DejaVuSans-31"/>
       <use x="63.623047" xlink:href="#DejaVuSans-30"/>
       <use x="127.246094" xlink:href="#DejaVuSans-30"/>
      </g>
     </g>
    </g>
    <g id="text_10">
     <!-- age -->
     <defs>
      <path d="M 34.28125 27.484375 
Q 23.390625 27.484375 19.1875 25 
Q 14.984375 22.515625 14.984375 16.5 
Q 14.984375 11.71875 18.140625 8.90625 
Q 21.296875 6.109375 26.703125 6.109375 
Q 34.1875 6.109375 38.703125 11.40625 
Q 43.21875 16.703125 43.21875 25.484375 
L 43.21875 27.484375 
z
M 52.203125 31.203125 
L 52.203125 0 
L 43.21875 0 
L 43.21875 8.296875 
Q 40.140625 3.328125 35.546875 0.953125 
Q 30.953125 -1.421875 24.3125 -1.421875 
Q 15.921875 -1.421875 10.953125 3.296875 
Q 6 8.015625 6 15.921875 
Q 6 25.140625 12.171875 29.828125 
Q 18.359375 34.515625 30.609375 34.515625 
L 43.21875 34.515625 
L 43.21875 35.40625 
Q 43.21875 41.609375 39.140625 45 
Q 35.0625 48.390625 27.6875 48.390625 
Q 23 48.390625 18.546875 47.265625 
Q 14.109375 46.140625 10.015625 43.890625 
L 10.015625 52.203125 
Q 14.9375 54.109375 19.578125 55.046875 
Q 24.21875 56 28.609375 56 
Q 40.484375 56 46.34375 49.84375 
Q 52.203125 43.703125 52.203125 31.203125 
z
" id="DejaVuSans-61"/>
      <path d="M 45.40625 27.984375 
Q 45.40625 37.75 41.375 43.109375 
Q 37.359375 48.484375 30.078125 48.484375 
Q 22.859375 48.484375 18.828125 43.109375 
Q 14.796875 37.75 14.796875 27.984375 
Q 14.796875 18.265625 18.828125 12.890625 
Q 22.859375 7.515625 30.078125 7.515625 
Q 37.359375 7.515625 41.375 12.890625 
Q 45.40625 18.265625 45.40625 27.984375 
z
M 54.390625 6.78125 
Q 54.390625 -7.171875 48.1875 -13.984375 
Q 42 -20.796875 29.203125 -20.796875 
Q 24.46875 -20.796875 20.265625 -20.09375 
Q 16.0625 -19.390625 12.109375 -17.921875 
L 12.109375 -9.1875 
Q 16.0625 -11.328125 19.921875 -12.34375 
Q 23.78125 -13.375 27.78125 -13.375 
Q 36.625 -13.375 41.015625 -8.765625 
Q 45.40625 -4.15625 45.40625 5.171875 
L 45.40625 9.625 
Q 42.625 4.78125 38.28125 2.390625 
Q 33.9375 0 27.875 0 
Q 17.828125 0 11.671875 7.65625 
Q 5.515625 15.328125 5.515625 27.984375 
Q 5.515625 40.671875 11.671875 48.328125 
Q 17.828125 56 27.875 56 
Q 33.9375 56 38.28125 53.609375 
Q 42.625 51.21875 45.40625 46.390625 
L 45.40625 54.6875 
L 54.390625 54.6875 
z
" id="DejaVuSans-67"/>
      <path d="M 56.203125 29.59375 
L 56.203125 25.203125 
L 14.890625 25.203125 
Q 15.484375 15.921875 20.484375 11.0625 
Q 25.484375 6.203125 34.421875 6.203125 
Q 39.59375 6.203125 44.453125 7.46875 
Q 49.3125 8.734375 54.109375 11.28125 
L 54.109375 2.78125 
Q 49.265625 0.734375 44.1875 -0.34375 
Q 39.109375 -1.421875 33.890625 -1.421875 
Q 20.796875 -1.421875 13.15625 6.1875 
Q 5.515625 13.8125 5.515625 26.8125 
Q 5.515625 40.234375 12.765625 48.109375 
Q 20.015625 56 32.328125 56 
Q 43.359375 56 49.78125 48.890625 
Q 56.203125 41.796875 56.203125 29.59375 
z
M 47.21875 32.234375 
Q 47.125 39.59375 43.09375 43.984375 
Q 39.0625 48.390625 32.421875 48.390625 
Q 24.90625 48.390625 20.390625 44.140625 
Q 15.875 39.890625 15.1875 32.171875 
z
" id="DejaVuSans-65"/>
     </defs>
     <g transform="translate(359.685156 658.276562)scale(0.1 -0.1)">
      <use xlink:href="#DejaVuSans-61"/>
      <use x="61.279297" xlink:href="#DejaVuSans-67"/>
      <use x="124.755859" xlink:href="#DejaVuSans-65"/>
     </g>
    </g>
   </g>
   <g id="matplotlib.axis_2">
    <g id="ytick_1">
     <g id="line2d_10">
      <defs>
       <path d="M 0 0 
L -3.5 0 
" id="m8ba533543c" style="stroke:#000000;stroke-width:0.8;"/>
      </defs>
      <g>
       <use style="stroke:#000000;stroke-width:0.8;" x="90" xlink:href="#m8ba533543c" y="606.01658"/>
      </g>
     </g>
     <g id="text_11">
      <!-- 0 -->
      <g transform="translate(76.6375 609.815799)scale(0.1 -0.1)">
       <use xlink:href="#DejaVuSans-30"/>
      </g>
     </g>
    </g>
    <g id="ytick_2">
     <g id="line2d_11">
      <g>
       <use style="stroke:#000000;stroke-width:0.8;" x="90" xlink:href="#m8ba533543c" y="533.449499"/>
      </g>
     </g>
     <g id="text_12">
      <!-- 100 -->
      <g transform="translate(63.9125 537.248718)scale(0.1 -0.1)">
       <use xlink:href="#DejaVuSans-31"/>
       <use x="63.623047" xlink:href="#DejaVuSans-30"/>
       <use x="127.246094" xlink:href="#DejaVuSans-30"/>
      </g>
     </g>
    </g>
    <g id="ytick_3">
     <g id="line2d_12">
      <g>
       <use style="stroke:#000000;stroke-width:0.8;" x="90" xlink:href="#m8ba533543c" y="460.882419"/>
      </g>
     </g>
     <g id="text_13">
      <!-- 200 -->
      <g transform="translate(63.9125 464.681638)scale(0.1 -0.1)">
       <use xlink:href="#DejaVuSans-32"/>
       <use x="63.623047" xlink:href="#DejaVuSans-30"/>
       <use x="127.246094" xlink:href="#DejaVuSans-30"/>
      </g>
     </g>
    </g>
    <g id="ytick_4">
     <g id="line2d_13">
      <g>
       <use style="stroke:#000000;stroke-width:0.8;" x="90" xlink:href="#m8ba533543c" y="388.315338"/>
      </g>
     </g>
     <g id="text_14">
      <!-- 300 -->
      <g transform="translate(63.9125 392.114557)scale(0.1 -0.1)">
       <use xlink:href="#DejaVuSans-33"/>
       <use x="63.623047" xlink:href="#DejaVuSans-30"/>
       <use x="127.246094" xlink:href="#DejaVuSans-30"/>
      </g>
     </g>
    </g>
    <g id="ytick_5">
     <g id="line2d_14">
      <g>
       <use style="stroke:#000000;stroke-width:0.8;" x="90" xlink:href="#m8ba533543c" y="315.748258"/>
      </g>
     </g>
     <g id="text_15">
      <!-- 400 -->
      <g transform="translate(63.9125 319.547477)scale(0.1 -0.1)">
       <use xlink:href="#DejaVuSans-34"/>
       <use x="63.623047" xlink:href="#DejaVuSans-30"/>
       <use x="127.246094" xlink:href="#DejaVuSans-30"/>
      </g>
     </g>
    </g>
    <g id="ytick_6">
     <g id="line2d_15">
      <g>
       <use style="stroke:#000000;stroke-width:0.8;" x="90" xlink:href="#m8ba533543c" y="243.181177"/>
      </g>
     </g>
     <g id="text_16">
      <!-- 500 -->
      <g transform="translate(63.9125 246.980396)scale(0.1 -0.1)">
       <use xlink:href="#DejaVuSans-35"/>
       <use x="63.623047" xlink:href="#DejaVuSans-30"/>
       <use x="127.246094" xlink:href="#DejaVuSans-30"/>
      </g>
     </g>
    </g>
    <g id="ytick_7">
     <g id="line2d_16">
      <g>
       <use style="stroke:#000000;stroke-width:0.8;" x="90" xlink:href="#m8ba533543c" y="170.614097"/>
      </g>
     </g>
     <g id="text_17">
      <!-- 600 -->
      <g transform="translate(63.9125 174.413316)scale(0.1 -0.1)">
       <use xlink:href="#DejaVuSans-36"/>
       <use x="63.623047" xlink:href="#DejaVuSans-30"/>
       <use x="127.246094" xlink:href="#DejaVuSans-30"/>
      </g>
     </g>
    </g>
    <g id="ytick_8">
     <g id="line2d_17">
      <g>
       <use style="stroke:#000000;stroke-width:0.8;" x="90" xlink:href="#m8ba533543c" y="98.047016"/>
      </g>
     </g>
     <g id="text_18">
      <!-- 700 -->
      <g transform="translate(63.9125 101.846235)scale(0.1 -0.1)">
       <use xlink:href="#DejaVuSans-37"/>
       <use x="63.623047" xlink:href="#DejaVuSans-30"/>
       <use x="127.246094" xlink:href="#DejaVuSans-30"/>
      </g>
     </g>
    </g>
    <g id="text_19">
     <!-- count -->
     <defs>
      <path d="M 48.78125 52.59375 
L 48.78125 44.1875 
Q 44.96875 46.296875 41.140625 47.34375 
Q 37.3125 48.390625 33.40625 48.390625 
Q 24.65625 48.390625 19.8125 42.84375 
Q 14.984375 37.3125 14.984375 27.296875 
Q 14.984375 17.28125 19.8125 11.734375 
Q 24.65625 6.203125 33.40625 6.203125 
Q 37.3125 6.203125 41.140625 7.25 
Q 44.96875 8.296875 48.78125 10.40625 
L 48.78125 2.09375 
Q 45.015625 0.34375 40.984375 -0.53125 
Q 36.96875 -1.421875 32.421875 -1.421875 
Q 20.0625 -1.421875 12.78125 6.34375 
Q 5.515625 14.109375 5.515625 27.296875 
Q 5.515625 40.671875 12.859375 48.328125 
Q 20.21875 56 33.015625 56 
Q 37.15625 56 41.109375 55.140625 
Q 45.0625 54.296875 48.78125 52.59375 
z
" id="DejaVuSans-63"/>
      <path d="M 30.609375 48.390625 
Q 23.390625 48.390625 19.1875 42.75 
Q 14.984375 37.109375 14.984375 27.296875 
Q 14.984375 17.484375 19.15625 11.84375 
Q 23.34375 6.203125 30.609375 6.203125 
Q 37.796875 6.203125 41.984375 11.859375 
Q 46.1875 17.53125 46.1875 27.296875 
Q 46.1875 37.015625 41.984375 42.703125 
Q 37.796875 48.390625 30.609375 48.390625 
z
M 30.609375 56 
Q 42.328125 56 49.015625 48.375 
Q 55.71875 40.765625 55.71875 27.296875 
Q 55.71875 13.875 49.015625 6.21875 
Q 42.328125 -1.421875 30.609375 -1.421875 
Q 18.84375 -1.421875 12.171875 6.21875 
Q 5.515625 13.875 5.515625 27.296875 
Q 5.515625 40.765625 12.171875 48.375 
Q 18.84375 56 30.609375 56 
z
" id="DejaVuSans-6f"/>
      <path d="M 8.5 21.578125 
L 8.5 54.6875 
L 17.484375 54.6875 
L 17.484375 21.921875 
Q 17.484375 14.15625 20.5 10.265625 
Q 23.53125 6.390625 29.59375 6.390625 
Q 36.859375 6.390625 41.078125 11.03125 
Q 45.3125 15.671875 45.3125 23.6875 
L 45.3125 54.6875 
L 54.296875 54.6875 
L 54.296875 0 
L 45.3125 0 
L 45.3125 8.40625 
Q 42.046875 3.421875 37.71875 1 
Q 33.40625 -1.421875 27.6875 -1.421875 
Q 18.265625 -1.421875 13.375 4.4375 
Q 8.5 10.296875 8.5 21.578125 
z
M 31.109375 56 
z
" id="DejaVuSans-75"/>
      <path d="M 54.890625 33.015625 
L 54.890625 0 
L 45.90625 0 
L 45.90625 32.71875 
Q 45.90625 40.484375 42.875 44.328125 
Q 39.84375 48.1875 33.796875 48.1875 
Q 26.515625 48.1875 22.3125 43.546875 
Q 18.109375 38.921875 18.109375 30.90625 
L 18.109375 0 
L 9.078125 0 
L 9.078125 54.6875 
L 18.109375 54.6875 
L 18.109375 46.1875 
Q 21.34375 51.125 25.703125 53.5625 
Q 30.078125 56 35.796875 56 
Q 45.21875 56 50.046875 50.171875 
Q 54.890625 44.34375 54.890625 33.015625 
z
" id="DejaVuSans-6e"/>
      <path d="M 18.3125 70.21875 
L 18.3125 54.6875 
L 36.8125 54.6875 
L 36.8125 47.703125 
L 18.3125 47.703125 
L 18.3125 18.015625 
Q 18.3125 11.328125 20.140625 9.421875 
Q 21.96875 7.515625 27.59375 7.515625 
L 36.8125 7.515625 
L 36.8125 0 
L 27.59375 0 
Q 17.1875 0 13.234375 3.875 
Q 9.28125 7.765625 9.28125 18.015625 
L 9.28125 47.703125 
L 2.6875 47.703125 
L 2.6875 54.6875 
L 9.28125 54.6875 
L 9.28125 70.21875 
z
" id="DejaVuSans-74"/>
     </defs>
     <g transform="translate(57.832812 372.30625)rotate(-90)scale(0.1 -0.1)">
      <use xlink:href="#DejaVuSans-63"/>
      <use x="54.980469" xlink:href="#DejaVuSans-6f"/>
      <use x="116.162109" xlink:href="#DejaVuSans-75"/>
      <use x="179.541016" xlink:href="#DejaVuSans-6e"/>
      <use x="242.919922" xlink:href="#DejaVuSans-74"/>
     </g>
    </g>
   </g>
   <g id="line2d_18">
    <path clip-path="url(#p3692506037)" d="M 121.626263 603.839567 
L 127.888889 605.290909 
L 134.151515 603.839567 
L 140.414141 604.565238 
L 146.676768 601.662555 
L 152.939394 600.211213 
L 159.20202 596.582859 
L 165.464646 587.87481 
L 171.727273 587.149139 
L 177.989899 582.069443 
L 184.252525 576.989748 
L 190.515152 580.618102 
L 196.777778 568.281698 
L 203.040404 553.768282 
L 209.30303 544.334561 
L 215.565657 556.670965 
L 221.828283 544.334561 
L 228.090909 537.803524 
L 234.353535 542.157549 
L 240.616162 559.573648 
L 246.878788 541.431878 
L 253.141414 519.661754 
L 259.40404 545.785903 
L 265.666667 511.679375 
L 271.929293 505.148338 
L 278.191919 503.696996 
L 284.454545 525.467121 
L 290.717172 509.502363 
L 296.979798 512.405046 
L 303.242424 508.776692 
L 309.505051 498.617301 
L 315.767677 517.484742 
L 322.030303 503.696996 
L 328.292929 524.74145 
L 334.555556 517.484742 
L 340.818182 526.918462 
L 347.080808 514.582058 
L 353.343434 516.759071 
L 359.606061 491.360593 
L 365.868687 518.936083 
L 372.131313 515.307729 
L 378.393939 534.17517 
L 384.656566 567.556027 
L 390.919192 600.211213 
L 397.181818 602.388226 
L 403.444444 599.485543 
L 409.707071 602.388226 
L 415.969697 599.485543 
L 422.232323 600.211213 
L 428.494949 602.388226 
L 434.757576 601.662555 
L 441.020202 603.839567 
L 447.282828 595.857189 
L 453.545455 597.30853 
L 459.808081 600.211213 
L 466.070707 595.857189 
L 472.333333 601.662555 
L 478.59596 600.211213 
L 484.858586 601.662555 
L 491.121212 604.565238 
L 497.383838 602.388226 
L 509.909091 597.30853 
L 516.171717 602.388226 
L 522.434343 605.290909 
L 528.69697 603.113897 
L 534.959596 603.839567 
L 541.222222 600.936884 
L 547.484848 603.839567 
L 560.010101 598.034201 
" style="fill:none;stroke:#1f77b4;stroke-linecap:square;stroke-width:1.5;"/>
   </g>
   <g id="line2d_19">
    <path clip-path="url(#p3692506037)" d="M 121.626263 605.290909 
L 127.888889 604.565238 
L 134.151515 603.113897 
L 152.939394 605.290909 
L 159.20202 605.290909 
L 165.464646 604.565238 
L 171.727273 605.290909 
L 177.989899 605.290909 
L 184.252525 605.290909 
L 190.515152 603.113897 
L 196.777778 604.565238 
L 203.040404 603.113897 
L 209.30303 600.936884 
L 215.565657 600.211213 
L 221.828283 603.839567 
L 228.090909 601.662555 
L 234.353535 602.388226 
L 240.616162 603.839567 
L 246.878788 603.113897 
L 259.40404 602.388226 
L 265.666667 602.388226 
L 271.929293 602.388226 
L 278.191919 600.936884 
L 284.454545 600.936884 
L 290.717172 598.759872 
L 296.979798 600.936884 
L 303.242424 604.565238 
L 309.505051 604.565238 
L 315.767677 601.662555 
L 322.030303 598.759872 
L 328.292929 600.936884 
L 334.555556 597.30853 
L 340.818182 598.034201 
L 347.080808 600.936884 
L 353.343434 598.034201 
L 359.606061 587.87481 
L 365.868687 598.759872 
L 372.131313 595.857189 
L 378.393939 592.954505 
L 384.656566 598.759872 
L 390.919192 601.662555 
L 397.181818 605.290909 
L 403.444444 601.662555 
L 409.707071 600.211213 
L 415.969697 600.211213 
L 422.232323 594.405847 
L 428.494949 602.388226 
L 434.757576 603.113897 
L 441.020202 603.839567 
L 447.282828 596.582859 
L 453.545455 598.759872 
L 459.808081 602.388226 
L 466.070707 602.388226 
L 472.333333 602.388226 
L 478.59596 601.662555 
L 484.858586 599.485543 
L 491.121212 602.388226 
L 497.383838 601.662555 
L 503.646465 602.388226 
L 509.909091 597.30853 
L 516.171717 602.388226 
L 522.434343 600.211213 
L 528.69697 603.113897 
L 534.959596 605.290909 
L 541.222222 601.662555 
L 547.484848 605.290909 
L 553.747475 605.290909 
L 560.010101 599.485543 
L 566.272727 604.565238 
L 622.636364 604.565238 
" style="fill:none;stroke:#1f77b4;stroke-dasharray:6,2.25;stroke-dashoffset:0;stroke-width:1.5;"/>
   </g>
   <g id="line2d_20">
    <path clip-path="url(#p3692506037)" d="M 121.626263 605.290909 
L 146.676768 600.936884 
L 152.939394 604.565238 
L 159.20202 600.211213 
L 165.464646 597.30853 
L 171.727273 589.326151 
L 177.989899 584.246456 
L 184.252525 571.910052 
L 190.515152 574.087064 
L 196.777778 566.830356 
L 203.040404 552.31694 
L 209.30303 550.865599 
L 215.565657 555.219624 
L 221.828283 547.237245 
L 228.090909 539.980537 
L 234.353535 524.015779 
L 240.616162 544.334561 
L 246.878788 516.759071 
L 253.141414 526.192791 
L 259.40404 542.157549 
L 265.666667 536.352183 
L 271.929293 536.352183 
L 278.191919 555.945294 
L 284.454545 542.157549 
L 290.717172 557.396636 
L 296.979798 555.945294 
L 303.242424 563.202002 
L 309.505051 558.122307 
L 315.767677 572.635723 
L 322.030303 575.538406 
L 328.292929 576.264077 
L 334.555556 580.618102 
L 340.818182 584.246456 
L 347.080808 591.503164 
L 353.343434 591.503164 
L 359.606061 584.246456 
L 365.868687 586.423468 
L 372.131313 592.228835 
L 378.393939 590.051822 
L 384.656566 598.034201 
L 403.444444 605.290909 
L 409.707071 605.290909 
L 422.232323 604.565238 
L 447.282828 605.290909 
L 459.808081 604.565238 
L 484.858586 605.290909 
L 497.383838 604.565238 
L 516.171717 605.290909 
L 603.848485 605.290909 
" style="fill:none;stroke:#ff7f0e;stroke-linecap:square;stroke-width:1.5;"/>
   </g>
   <g id="line2d_21">
    <path clip-path="url(#p3692506037)" d="M 121.626263 605.290909 
L 127.888889 603.113897 
L 146.676768 604.565238 
L 152.939394 605.290909 
L 159.20202 605.290909 
L 165.464646 604.565238 
L 171.727273 604.565238 
L 177.989899 603.839567 
L 184.252525 603.113897 
L 190.515152 604.565238 
L 196.777778 602.388226 
L 203.040404 598.034201 
L 209.30303 603.839567 
L 215.565657 598.034201 
L 221.828283 600.936884 
L 228.090909 602.388226 
L 234.353535 598.759872 
L 240.616162 600.936884 
L 246.878788 598.759872 
L 253.141414 598.759872 
L 259.40404 602.388226 
L 265.666667 601.662555 
L 271.929293 601.662555 
L 278.191919 600.936884 
L 284.454545 601.662555 
L 290.717172 602.388226 
L 296.979798 602.388226 
L 303.242424 603.839567 
L 309.505051 601.662555 
L 315.767677 602.388226 
L 322.030303 601.662555 
L 328.292929 601.662555 
L 334.555556 603.113897 
L 340.818182 603.839567 
L 347.080808 605.290909 
L 359.606061 605.290909 
L 365.868687 605.290909 
L 378.393939 605.290909 
L 390.919192 605.290909 
L 415.969697 605.290909 
L 422.232323 605.290909 
L 428.494949 605.290909 
L 441.020202 605.290909 
L 459.808081 603.113897 
L 497.383838 605.290909 
" style="fill:none;stroke:#ff7f0e;stroke-dasharray:6,2.25;stroke-dashoffset:0;stroke-width:1.5;"/>
   </g>
   <g id="line2d_22">
    <path clip-path="url(#p3692506037)" d="M 115.363636 604.565238 
L 121.626263 604.565238 
L 127.888889 598.759872 
L 134.151515 603.113897 
L 140.414141 592.228835 
L 146.676768 585.697797 
L 152.939394 576.989748 
L 159.20202 551.59127 
L 165.464646 534.900841 
L 171.727273 528.369804 
L 177.989899 508.776692 
L 184.252525 480.475531 
L 190.515152 479.024189 
L 196.777778 457.254065 
L 203.040404 424.598879 
L 209.30303 459.431077 
L 215.565657 423.873208 
L 221.828283 436.209612 
L 228.090909 434.032599 
L 234.353535 399.2004 
L 240.616162 473.218823 
L 246.878788 458.705406 
L 253.141414 456.528394 
L 259.40404 471.767481 
L 265.666667 453.625711 
L 271.929293 506.59968 
L 278.191919 500.068642 
L 284.454545 508.051021 
L 290.717172 459.431077 
L 296.979798 471.04181 
L 303.242424 515.307729 
L 309.505051 515.307729 
L 315.767677 530.546816 
L 322.030303 504.422667 
L 328.292929 520.387425 
L 334.555556 529.095475 
L 340.818182 540.706207 
L 347.080808 552.31694 
L 353.343434 551.59127 
L 359.606061 549.414257 
L 365.868687 549.414257 
L 372.131313 570.45871 
L 378.393939 575.538406 
L 384.656566 598.034201 
L 390.919192 601.662555 
L 397.181818 605.290909 
L 403.444444 605.290909 
L 409.707071 604.565238 
L 422.232323 605.290909 
L 434.757576 605.290909 
L 441.020202 605.290909 
L 447.282828 605.290909 
L 453.545455 604.565238 
L 459.808081 605.290909 
L 466.070707 605.290909 
L 472.333333 605.290909 
L 478.59596 603.113897 
L 491.121212 605.290909 
L 497.383838 605.290909 
L 503.646465 603.839567 
L 516.171717 605.290909 
L 528.69697 604.565238 
L 534.959596 605.290909 
L 597.585859 605.290909 
" style="fill:none;stroke:#2ca02c;stroke-linecap:square;stroke-width:1.5;"/>
   </g>
   <g id="line2d_23">
    <path clip-path="url(#p3692506037)" d="M 115.363636 605.290909 
L 121.626263 604.565238 
L 127.888889 603.113897 
L 134.151515 604.565238 
L 140.414141 602.388226 
L 146.676768 603.839567 
L 152.939394 598.759872 
L 159.20202 600.936884 
L 165.464646 601.662555 
L 171.727273 591.503164 
L 177.989899 598.034201 
L 184.252525 589.326151 
L 190.515152 594.405847 
L 196.777778 595.857189 
L 203.040404 584.246456 
L 209.30303 595.131518 
L 215.565657 590.051822 
L 221.828283 596.582859 
L 228.090909 595.131518 
L 234.353535 595.131518 
L 240.616162 599.485543 
L 246.878788 595.857189 
L 253.141414 594.405847 
L 259.40404 598.034201 
L 265.666667 597.30853 
L 271.929293 600.211213 
L 278.191919 597.30853 
L 284.454545 600.211213 
L 290.717172 598.034201 
L 296.979798 598.034201 
L 303.242424 601.662555 
L 309.505051 595.857189 
L 315.767677 601.662555 
L 322.030303 599.485543 
L 328.292929 598.034201 
L 334.555556 601.662555 
L 340.818182 596.582859 
L 347.080808 598.759872 
L 353.343434 598.759872 
L 359.606061 598.759872 
L 365.868687 600.936884 
L 372.131313 600.936884 
L 378.393939 601.662555 
L 384.656566 603.839567 
L 415.969697 605.290909 
L 422.232323 605.290909 
L 453.545455 605.290909 
L 472.333333 604.565238 
L 478.59596 605.290909 
L 503.646465 604.565238 
L 547.484848 605.290909 
" style="fill:none;stroke:#2ca02c;stroke-dasharray:6,2.25;stroke-dashoffset:0;stroke-width:1.5;"/>
   </g>
   <g id="line2d_24">
    <path clip-path="url(#p3692506037)" d="M 121.626263 603.839567 
L 127.888889 603.839567 
L 134.151515 588.600481 
L 140.414141 579.892431 
L 146.676768 576.264077 
L 152.939394 554.493953 
L 159.20202 492.086264 
L 165.464646 473.218823 
L 171.727273 454.351382 
L 177.989899 444.917661 
L 184.252525 420.970525 
L 190.515152 354.934481 
L 196.777778 324.456308 
L 203.040404 262.048618 
L 209.30303 334.615699 
L 215.565657 312.845575 
L 221.828283 371.62491 
L 228.090909 344.049419 
L 234.353535 304.863196 
L 240.616162 359.288506 
L 246.878788 406.457109 
L 253.141414 370.899239 
L 259.40404 418.793512 
L 265.666667 428.227233 
L 271.929293 455.802723 
L 278.191919 444.19199 
L 284.454545 447.094674 
L 290.717172 468.864798 
L 296.979798 466.687785 
L 303.242424 475.395835 
L 309.505051 468.864798 
L 315.767677 458.705406 
L 322.030303 516.759071 
L 328.292929 510.228034 
L 334.555556 509.502363 
L 340.818182 519.661754 
L 347.080808 525.467121 
L 353.343434 525.467121 
L 359.606061 528.369804 
L 365.868687 535.626512 
L 372.131313 552.31694 
L 378.393939 570.45871 
L 384.656566 576.989748 
L 390.919192 599.485543 
L 397.181818 603.113897 
L 403.444444 603.113897 
L 409.707071 604.565238 
L 415.969697 603.113897 
L 422.232323 603.839567 
L 434.757576 603.839567 
L 441.020202 603.113897 
L 447.282828 603.839567 
L 453.545455 603.839567 
L 466.070707 605.290909 
L 472.333333 603.113897 
L 497.383838 604.565238 
L 503.646465 603.839567 
L 509.909091 605.290909 
L 516.171717 604.565238 
L 522.434343 605.290909 
L 528.69697 605.290909 
L 560.010101 605.290909 
" style="fill:none;stroke:#d62728;stroke-linecap:square;stroke-width:1.5;"/>
   </g>
   <g id="line2d_25">
    <path clip-path="url(#p3692506037)" d="M 121.626263 604.565238 
L 127.888889 605.290909 
L 134.151515 599.485543 
L 140.414141 594.405847 
L 146.676768 596.582859 
L 152.939394 592.954505 
L 159.20202 579.16676 
L 165.464646 579.892431 
L 171.727273 576.264077 
L 177.989899 585.697797 
L 184.252525 571.910052 
L 190.515152 562.476332 
L 196.777778 577.715419 
L 203.040404 571.184381 
L 209.30303 579.892431 
L 215.565657 569.007369 
L 221.828283 582.069443 
L 228.090909 579.16676 
L 234.353535 584.246456 
L 240.616162 583.520785 
L 246.878788 580.618102 
L 253.141414 587.149139 
L 259.40404 592.954505 
L 265.666667 587.87481 
L 271.929293 595.131518 
L 278.191919 586.423468 
L 284.454545 592.954505 
L 290.717172 596.582859 
L 296.979798 594.405847 
L 303.242424 592.954505 
L 309.505051 590.777493 
L 315.767677 596.582859 
L 322.030303 595.857189 
L 328.292929 597.30853 
L 334.555556 595.857189 
L 340.818182 601.662555 
L 347.080808 596.582859 
L 353.343434 597.30853 
L 359.606061 599.485543 
L 365.868687 597.30853 
L 372.131313 598.034201 
L 378.393939 600.936884 
L 384.656566 595.857189 
L 390.919192 603.113897 
L 397.181818 600.936884 
L 403.444444 603.839567 
L 409.707071 600.936884 
L 415.969697 604.565238 
L 422.232323 603.839567 
L 434.757576 602.388226 
L 441.020202 601.662555 
L 447.282828 605.290909 
L 453.545455 605.290909 
L 459.808081 605.290909 
L 466.070707 604.565238 
L 472.333333 605.290909 
L 478.59596 605.290909 
L 491.121212 605.290909 
L 509.909091 604.565238 
L 528.69697 605.290909 
L 534.959596 605.290909 
" style="fill:none;stroke:#d62728;stroke-dasharray:6,2.25;stroke-dashoffset:0;stroke-width:1.5;"/>
   </g>
   <g id="line2d_26">
    <path clip-path="url(#p3692506037)" d="M 221.828283 604.565238 
L 271.929293 605.290909 
L 284.454545 605.290909 
L 290.717172 603.839567 
L 328.292929 603.839567 
L 347.080808 605.290909 
L 353.343434 604.565238 
L 384.656566 605.290909 
" style="fill:none;stroke:#9467bd;stroke-linecap:square;stroke-width:1.5;"/>
   </g>
   <g id="line2d_27">
    <path clip-path="url(#p3692506037)" d="M 221.828283 605.290909 
L 271.929293 605.290909 
L 328.292929 605.290909 
L 509.909091 605.290909 
" style="fill:none;stroke:#9467bd;stroke-dasharray:6,2.25;stroke-dashoffset:0;stroke-width:1.5;"/>
   </g>
   <g id="line2d_28">
    <path clip-path="url(#p3692506037)" d="M 134.151515 604.565238 
L 140.414141 603.839567 
L 146.676768 601.662555 
L 152.939394 583.520785 
L 159.20202 571.910052 
L 165.464646 575.538406 
L 171.727273 563.927673 
L 177.989899 542.157549 
L 184.252525 558.847978 
L 190.515152 502.971326 
L 196.777778 463.785102 
L 203.040404 463.059431 
L 209.30303 442.014978 
L 215.565657 445.643332 
L 221.828283 433.306928 
L 228.090909 420.970525 
L 234.353535 473.944493 
L 240.616162 444.917661 
L 246.878788 474.670164 
L 253.141414 473.944493 
L 259.40404 494.988947 
L 265.666667 505.148338 
L 271.929293 529.095475 
L 278.191919 515.307729 
L 284.454545 494.988947 
L 290.717172 520.387425 
L 296.979798 521.838767 
L 303.242424 526.192791 
L 309.505051 522.564437 
L 315.767677 541.431878 
L 322.030303 536.352183 
L 328.292929 545.785903 
L 334.555556 551.59127 
L 340.818182 539.980537 
L 347.080808 553.042611 
L 353.343434 539.980537 
L 359.606061 566.104686 
L 365.868687 563.202002 
L 372.131313 550.865599 
L 378.393939 570.45871 
L 384.656566 579.892431 
L 390.919192 603.839567 
L 397.181818 603.113897 
L 403.444444 600.211213 
L 409.707071 603.839567 
L 415.969697 603.839567 
L 422.232323 603.839567 
L 428.494949 603.113897 
L 434.757576 604.565238 
L 441.020202 602.388226 
L 447.282828 603.839567 
L 453.545455 603.113897 
L 459.808081 604.565238 
L 466.070707 604.565238 
L 472.333333 603.113897 
L 484.858586 605.290909 
L 491.121212 605.290909 
L 497.383838 605.290909 
L 516.171717 604.565238 
L 541.222222 605.290909 
" style="fill:none;stroke:#8c564b;stroke-linecap:square;stroke-width:1.5;"/>
   </g>
   <g id="line2d_29">
    <path clip-path="url(#p3692506037)" d="M 140.414141 605.290909 
L 146.676768 599.485543 
L 152.939394 602.388226 
L 159.20202 598.034201 
L 165.464646 602.388226 
L 171.727273 597.30853 
L 177.989899 601.662555 
L 184.252525 592.228835 
L 190.515152 584.972127 
L 196.777778 588.600481 
L 203.040404 587.149139 
L 209.30303 582.795114 
L 215.565657 582.795114 
L 221.828283 584.972127 
L 228.090909 588.600481 
L 234.353535 596.582859 
L 240.616162 593.680176 
L 246.878788 587.149139 
L 253.141414 593.680176 
L 259.40404 596.582859 
L 265.666667 593.680176 
L 271.929293 594.405847 
L 278.191919 600.211213 
L 284.454545 600.211213 
L 290.717172 600.211213 
L 296.979798 598.759872 
L 303.242424 601.662555 
L 309.505051 594.405847 
L 315.767677 600.936884 
L 322.030303 596.582859 
L 328.292929 597.30853 
L 334.555556 599.485543 
L 340.818182 600.211213 
L 347.080808 600.936884 
L 353.343434 600.936884 
L 359.606061 598.759872 
L 365.868687 601.662555 
L 372.131313 602.388226 
L 378.393939 594.405847 
L 384.656566 599.485543 
L 390.919192 602.388226 
L 397.181818 603.839567 
L 403.444444 603.839567 
L 409.707071 603.839567 
L 415.969697 605.290909 
L 422.232323 603.839567 
L 428.494949 603.113897 
L 434.757576 604.565238 
L 441.020202 604.565238 
L 447.282828 604.565238 
L 453.545455 603.113897 
L 459.808081 605.290909 
L 466.070707 604.565238 
L 472.333333 605.290909 
L 484.858586 603.839567 
L 497.383838 604.565238 
L 509.909091 604.565238 
L 522.434343 605.290909 
L 528.69697 605.290909 
L 541.222222 605.290909 
L 547.484848 605.290909 
" style="fill:none;stroke:#8c564b;stroke-dasharray:6,2.25;stroke-dashoffset:0;stroke-width:1.5;"/>
   </g>
   <g id="line2d_30">
    <path clip-path="url(#p3692506037)" d="M 134.151515 605.290909 
L 140.414141 602.388226 
L 146.676768 601.662555 
L 152.939394 589.326151 
L 159.20202 562.476332 
L 165.464646 513.856388 
L 171.727273 505.148338 
L 177.989899 454.351382 
L 184.252525 434.032599 
L 190.515152 242.455507 
L 196.777778 190.932879 
L 203.040404 149.569644 
L 209.30303 111.109091 
L 215.565657 182.22483 
L 221.828283 198.189588 
L 228.090909 235.198799 
L 234.353535 251.163556 
L 240.616162 306.314537 
L 246.878788 360.739848 
L 253.141414 364.368202 
L 259.40404 409.359792 
L 265.666667 402.103084 
L 271.929293 380.33296 
L 278.191919 440.563636 
L 284.454545 468.864798 
L 290.717172 442.740649 
L 296.979798 447.820344 
L 303.242424 454.351382 
L 309.505051 456.528394 
L 315.767677 479.74986 
L 322.030303 462.333761 
L 328.292929 489.909251 
L 334.555556 467.413456 
L 340.818182 474.670164 
L 347.080808 475.395835 
L 353.343434 508.776692 
L 359.606061 496.440288 
L 365.868687 487.732239 
L 372.131313 502.245655 
L 378.393939 535.626512 
L 384.656566 563.927673 
L 390.919192 595.857189 
L 397.181818 595.131518 
L 403.444444 600.936884 
L 409.707071 598.034201 
L 415.969697 603.839567 
L 422.232323 602.388226 
L 428.494949 602.388226 
L 434.757576 602.388226 
L 441.020202 603.113897 
L 447.282828 603.113897 
L 453.545455 599.485543 
L 459.808081 600.936884 
L 466.070707 603.839567 
L 472.333333 604.565238 
L 484.858586 600.936884 
L 516.171717 605.290909 
L 522.434343 603.113897 
L 560.010101 605.290909 
L 578.79798 604.565238 
" style="fill:none;stroke:#e377c2;stroke-linecap:square;stroke-width:1.5;"/>
   </g>
   <g id="line2d_31">
    <path clip-path="url(#p3692506037)" d="M 134.151515 605.290909 
L 140.414141 603.839567 
L 146.676768 600.936884 
L 152.939394 598.034201 
L 159.20202 591.503164 
L 165.464646 584.246456 
L 171.727273 573.361394 
L 177.989899 563.202002 
L 184.252525 567.556027 
L 190.515152 554.493953 
L 196.777778 525.467121 
L 203.040404 539.254866 
L 209.30303 543.608891 
L 215.565657 545.060232 
L 221.828283 539.980537 
L 228.090909 551.59127 
L 234.353535 549.414257 
L 240.616162 555.945294 
L 246.878788 570.45871 
L 253.141414 576.264077 
L 259.40404 583.520785 
L 265.666667 576.989748 
L 271.929293 579.892431 
L 278.191919 587.149139 
L 284.454545 588.600481 
L 290.717172 583.520785 
L 296.979798 586.423468 
L 303.242424 592.228835 
L 309.505051 581.343773 
L 315.767677 593.680176 
L 322.030303 584.246456 
L 328.292929 591.503164 
L 334.555556 582.795114 
L 340.818182 587.149139 
L 347.080808 588.600481 
L 353.343434 595.131518 
L 359.606061 591.503164 
L 365.868687 590.051822 
L 372.131313 590.777493 
L 378.393939 595.131518 
L 384.656566 594.405847 
L 390.919192 595.131518 
L 397.181818 600.211213 
L 403.444444 605.290909 
L 409.707071 601.662555 
L 415.969697 600.936884 
L 422.232323 604.565238 
L 434.757576 603.113897 
L 441.020202 604.565238 
L 447.282828 605.290909 
L 453.545455 603.839567 
L 459.808081 605.290909 
L 466.070707 603.839567 
L 472.333333 603.113897 
L 478.59596 605.290909 
L 484.858586 603.113897 
L 491.121212 603.839567 
L 522.434343 605.290909 
L 528.69697 604.565238 
" style="fill:none;stroke:#e377c2;stroke-dasharray:6,2.25;stroke-dashoffset:0;stroke-width:1.5;"/>
   </g>
   <g id="line2d_32">
    <path clip-path="url(#p3692506037)" d="M 115.363636 605.290909 
L 121.626263 600.936884 
L 127.888889 600.211213 
L 134.151515 600.211213 
L 140.414141 600.211213 
L 146.676768 600.936884 
L 152.939394 603.839567 
L 159.20202 593.680176 
L 165.464646 592.954505 
L 171.727273 595.857189 
L 177.989899 590.777493 
L 184.252525 582.069443 
L 190.515152 588.600481 
L 196.777778 573.361394 
L 203.040404 583.520785 
L 209.30303 593.680176 
L 215.565657 587.87481 
L 221.828283 579.892431 
L 228.090909 574.812735 
L 234.353535 566.830356 
L 240.616162 583.520785 
L 246.878788 566.104686 
L 253.141414 574.087064 
L 259.40404 577.715419 
L 265.666667 559.573648 
L 271.929293 566.830356 
L 278.191919 580.618102 
L 284.454545 578.441089 
L 290.717172 552.31694 
L 296.979798 576.264077 
L 303.242424 567.556027 
L 309.505051 582.069443 
L 315.767677 572.635723 
L 322.030303 571.184381 
L 328.292929 582.069443 
L 334.555556 579.892431 
L 340.818182 573.361394 
L 347.080808 580.618102 
L 353.343434 579.892431 
L 359.606061 573.361394 
L 365.868687 576.989748 
L 372.131313 582.795114 
L 378.393939 579.892431 
L 384.656566 595.131518 
L 390.919192 605.290909 
L 397.181818 600.211213 
L 403.444444 600.211213 
L 409.707071 601.662555 
L 415.969697 604.565238 
L 422.232323 601.662555 
L 428.494949 605.290909 
L 434.757576 605.290909 
L 441.020202 603.839567 
L 447.282828 604.565238 
L 453.545455 604.565238 
L 459.808081 605.290909 
L 478.59596 605.290909 
L 484.858586 605.290909 
L 491.121212 603.839567 
L 497.383838 604.565238 
L 503.646465 605.290909 
L 528.69697 604.565238 
L 585.060606 605.290909 
" style="fill:none;stroke:#7f7f7f;stroke-linecap:square;stroke-width:1.5;"/>
   </g>
   <g id="line2d_33">
    <path clip-path="url(#p3692506037)" d="M 115.363636 605.290909 
L 121.626263 601.662555 
L 127.888889 599.485543 
L 134.151515 600.936884 
L 140.414141 603.113897 
L 146.676768 604.565238 
L 152.939394 604.565238 
L 159.20202 599.485543 
L 165.464646 597.30853 
L 171.727273 605.290909 
L 177.989899 601.662555 
L 184.252525 603.113897 
L 190.515152 603.113897 
L 196.777778 600.936884 
L 203.040404 599.485543 
L 209.30303 602.388226 
L 215.565657 604.565238 
L 221.828283 600.936884 
L 228.090909 602.388226 
L 234.353535 603.839567 
L 240.616162 605.290909 
L 246.878788 602.388226 
L 253.141414 603.113897 
L 259.40404 605.290909 
L 265.666667 600.211213 
L 271.929293 603.113897 
L 278.191919 605.290909 
L 284.454545 601.662555 
L 290.717172 595.857189 
L 296.979798 603.839567 
L 303.242424 603.113897 
L 309.505051 603.113897 
L 315.767677 605.290909 
L 322.030303 602.388226 
L 328.292929 603.839567 
L 334.555556 603.113897 
L 340.818182 605.290909 
L 347.080808 604.565238 
L 353.343434 605.290909 
L 359.606061 602.388226 
L 365.868687 603.113897 
L 378.393939 601.662555 
L 384.656566 601.662555 
L 390.919192 605.290909 
L 397.181818 601.662555 
L 403.444444 603.113897 
L 409.707071 603.839567 
L 415.969697 603.839567 
L 422.232323 603.839567 
L 428.494949 605.290909 
L 447.282828 604.565238 
L 453.545455 604.565238 
L 459.808081 605.290909 
L 466.070707 605.290909 
L 472.333333 604.565238 
L 478.59596 604.565238 
L 484.858586 604.565238 
L 491.121212 603.113897 
L 497.383838 602.388226 
L 509.909091 605.290909 
L 516.171717 603.839567 
L 522.434343 605.290909 
L 534.959596 605.290909 
L 547.484848 604.565238 
L 585.060606 603.839567 
" style="fill:none;stroke:#7f7f7f;stroke-dasharray:6,2.25;stroke-dashoffset:0;stroke-width:1.5;"/>
   </g>
   <g id="line2d_34"/>
   <g id="line2d_35"/>
   <g id="line2d_36"/>
   <g id="line2d_37"/>
   <g id="line2d_38"/>
   <g id="line2d_39"/>
   <g id="line2d_40"/>
   <g id="line2d_41"/>
   <g id="line2d_42"/>
   <g id="line2d_43"/>
   <g id="line2d_44"/>
   <g id="line2d_45"/>
   <g id="patch_3">
    <path d="M 90 630 
L 90 86.4 
" style="fill:none;stroke:#000000;stroke-linecap:square;stroke-linejoin:miter;stroke-width:0.8;"/>
   </g>
   <g id="patch_4">
    <path d="M 648 630 
L 648 86.4 
" style="fill:none;stroke:#000000;stroke-linecap:square;stroke-linejoin:miter;stroke-width:0.8;"/>
   </g>
   <g id="patch_5">
    <path d="M 90 630 
L 648 630 
" style="fill:none;stroke:#000000;stroke-linecap:square;stroke-linejoin:miter;stroke-width:0.8;"/>
   </g>
   <g id="patch_6">
    <path d="M 90 86.4 
L 648 86.4 
" style="fill:none;stroke:#000000;stroke-linecap:square;stroke-linejoin:miter;stroke-width:0.8;"/>
   </g>
   <g id="legend_1">
    <g id="patch_7">
     <path d="M 511.585938 270.5375 
L 641 270.5375 
Q 643 270.5375 643 268.5375 
L 643 93.4 
Q 643 91.4 641 91.4 
L 511.585938 91.4 
Q 509.585938 91.4 509.585938 93.4 
L 509.585938 268.5375 
Q 509.585938 270.5375 511.585938 270.5375 
z
" style="fill:#ffffff;opacity:0.8;stroke:#cccccc;stroke-linejoin:miter;"/>
    </g>
    <g id="line2d_46">
     <path d="M 513.585938 99.498437 
L 533.585938 99.498437 
" style="fill:none;"/>
    </g>
    <g id="line2d_47"/>
    <g id="text_20">
     <!-- education -->
     <defs>
      <path d="M 45.40625 46.390625 
L 45.40625 75.984375 
L 54.390625 75.984375 
L 54.390625 0 
L 45.40625 0 
L 45.40625 8.203125 
Q 42.578125 3.328125 38.25 0.953125 
Q 33.9375 -1.421875 27.875 -1.421875 
Q 17.96875 -1.421875 11.734375 6.484375 
Q 5.515625 14.40625 5.515625 27.296875 
Q 5.515625 40.1875 11.734375 48.09375 
Q 17.96875 56 27.875 56 
Q 33.9375 56 38.25 53.625 
Q 42.578125 51.265625 45.40625 46.390625 
z
M 14.796875 27.296875 
Q 14.796875 17.390625 18.875 11.75 
Q 22.953125 6.109375 30.078125 6.109375 
Q 37.203125 6.109375 41.296875 11.75 
Q 45.40625 17.390625 45.40625 27.296875 
Q 45.40625 37.203125 41.296875 42.84375 
Q 37.203125 48.484375 30.078125 48.484375 
Q 22.953125 48.484375 18.875 42.84375 
Q 14.796875 37.203125 14.796875 27.296875 
z
" id="DejaVuSans-64"/>
      <path d="M 9.421875 54.6875 
L 18.40625 54.6875 
L 18.40625 0 
L 9.421875 0 
z
M 9.421875 75.984375 
L 18.40625 75.984375 
L 18.40625 64.59375 
L 9.421875 64.59375 
z
" id="DejaVuSans-69"/>
     </defs>
     <g transform="translate(541.585938 102.998437)scale(0.1 -0.1)">
      <use xlink:href="#DejaVuSans-65"/>
      <use x="61.523438" xlink:href="#DejaVuSans-64"/>
      <use x="125" xlink:href="#DejaVuSans-75"/>
      <use x="188.378906" xlink:href="#DejaVuSans-63"/>
      <use x="243.359375" xlink:href="#DejaVuSans-61"/>
      <use x="304.638672" xlink:href="#DejaVuSans-74"/>
      <use x="343.847656" xlink:href="#DejaVuSans-69"/>
      <use x="371.630859" xlink:href="#DejaVuSans-6f"/>
      <use x="432.8125" xlink:href="#DejaVuSans-6e"/>
     </g>
    </g>
    <g id="line2d_48">
     <path d="M 513.585938 114.176562 
L 533.585938 114.176562 
" style="fill:none;stroke:#1f77b4;stroke-linecap:square;stroke-width:1.5;"/>
    </g>
    <g id="line2d_49"/>
    <g id="text_21">
     <!-- basic.4y -->
     <defs>
      <path d="M 48.6875 27.296875 
Q 48.6875 37.203125 44.609375 42.84375 
Q 40.53125 48.484375 33.40625 48.484375 
Q 26.265625 48.484375 22.1875 42.84375 
Q 18.109375 37.203125 18.109375 27.296875 
Q 18.109375 17.390625 22.1875 11.75 
Q 26.265625 6.109375 33.40625 6.109375 
Q 40.53125 6.109375 44.609375 11.75 
Q 48.6875 17.390625 48.6875 27.296875 
z
M 18.109375 46.390625 
Q 20.953125 51.265625 25.265625 53.625 
Q 29.59375 56 35.59375 56 
Q 45.5625 56 51.78125 48.09375 
Q 58.015625 40.1875 58.015625 27.296875 
Q 58.015625 14.40625 51.78125 6.484375 
Q 45.5625 -1.421875 35.59375 -1.421875 
Q 29.59375 -1.421875 25.265625 0.953125 
Q 20.953125 3.328125 18.109375 8.203125 
L 18.109375 0 
L 9.078125 0 
L 9.078125 75.984375 
L 18.109375 75.984375 
z
" id="DejaVuSans-62"/>
      <path d="M 44.28125 53.078125 
L 44.28125 44.578125 
Q 40.484375 46.53125 36.375 47.5 
Q 32.28125 48.484375 27.875 48.484375 
Q 21.1875 48.484375 17.84375 46.4375 
Q 14.5 44.390625 14.5 40.28125 
Q 14.5 37.15625 16.890625 35.375 
Q 19.28125 33.59375 26.515625 31.984375 
L 29.59375 31.296875 
Q 39.15625 29.25 43.1875 25.515625 
Q 47.21875 21.78125 47.21875 15.09375 
Q 47.21875 7.46875 41.1875 3.015625 
Q 35.15625 -1.421875 24.609375 -1.421875 
Q 20.21875 -1.421875 15.453125 -0.5625 
Q 10.6875 0.296875 5.421875 2 
L 5.421875 11.28125 
Q 10.40625 8.6875 15.234375 7.390625 
Q 20.0625 6.109375 24.8125 6.109375 
Q 31.15625 6.109375 34.5625 8.28125 
Q 37.984375 10.453125 37.984375 14.40625 
Q 37.984375 18.0625 35.515625 20.015625 
Q 33.0625 21.96875 24.703125 23.78125 
L 21.578125 24.515625 
Q 13.234375 26.265625 9.515625 29.90625 
Q 5.8125 33.546875 5.8125 39.890625 
Q 5.8125 47.609375 11.28125 51.796875 
Q 16.75 56 26.8125 56 
Q 31.78125 56 36.171875 55.265625 
Q 40.578125 54.546875 44.28125 53.078125 
z
" id="DejaVuSans-73"/>
      <path d="M 10.6875 12.40625 
L 21 12.40625 
L 21 0 
L 10.6875 0 
z
" id="DejaVuSans-2e"/>
      <path d="M 32.171875 -5.078125 
Q 28.375 -14.84375 24.75 -17.8125 
Q 21.140625 -20.796875 15.09375 -20.796875 
L 7.90625 -20.796875 
L 7.90625 -13.28125 
L 13.1875 -13.28125 
Q 16.890625 -13.28125 18.9375 -11.515625 
Q 21 -9.765625 23.484375 -3.21875 
L 25.09375 0.875 
L 2.984375 54.6875 
L 12.5 54.6875 
L 29.59375 11.921875 
L 46.6875 54.6875 
L 56.203125 54.6875 
z
" id="DejaVuSans-79"/>
     </defs>
     <g transform="translate(541.585938 117.676562)scale(0.1 -0.1)">
      <use xlink:href="#DejaVuSans-62"/>
      <use x="63.476562" xlink:href="#DejaVuSans-61"/>
      <use x="124.755859" xlink:href="#DejaVuSans-73"/>
      <use x="176.855469" xlink:href="#DejaVuSans-69"/>
      <use x="204.638672" xlink:href="#DejaVuSans-63"/>
      <use x="259.619141" xlink:href="#DejaVuSans-2e"/>
      <use x="291.40625" xlink:href="#DejaVuSans-34"/>
      <use x="355.029297" xlink:href="#DejaVuSans-79"/>
     </g>
    </g>
    <g id="line2d_50">
     <path d="M 513.585938 128.854687 
L 533.585938 128.854687 
" style="fill:none;stroke:#ff7f0e;stroke-linecap:square;stroke-width:1.5;"/>
    </g>
    <g id="line2d_51"/>
    <g id="text_22">
     <!-- basic.6y -->
     <g transform="translate(541.585938 132.354687)scale(0.1 -0.1)">
      <use xlink:href="#DejaVuSans-62"/>
      <use x="63.476562" xlink:href="#DejaVuSans-61"/>
      <use x="124.755859" xlink:href="#DejaVuSans-73"/>
      <use x="176.855469" xlink:href="#DejaVuSans-69"/>
      <use x="204.638672" xlink:href="#DejaVuSans-63"/>
      <use x="259.619141" xlink:href="#DejaVuSans-2e"/>
      <use x="291.40625" xlink:href="#DejaVuSans-36"/>
      <use x="355.029297" xlink:href="#DejaVuSans-79"/>
     </g>
    </g>
    <g id="line2d_52">
     <path d="M 513.585938 143.532812 
L 533.585938 143.532812 
" style="fill:none;stroke:#2ca02c;stroke-linecap:square;stroke-width:1.5;"/>
    </g>
    <g id="line2d_53"/>
    <g id="text_23">
     <!-- basic.9y -->
     <g transform="translate(541.585938 147.032812)scale(0.1 -0.1)">
      <use xlink:href="#DejaVuSans-62"/>
      <use x="63.476562" xlink:href="#DejaVuSans-61"/>
      <use x="124.755859" xlink:href="#DejaVuSans-73"/>
      <use x="176.855469" xlink:href="#DejaVuSans-69"/>
      <use x="204.638672" xlink:href="#DejaVuSans-63"/>
      <use x="259.619141" xlink:href="#DejaVuSans-2e"/>
      <use x="291.40625" xlink:href="#DejaVuSans-39"/>
      <use x="355.029297" xlink:href="#DejaVuSans-79"/>
     </g>
    </g>
    <g id="line2d_54">
     <path d="M 513.585938 158.210937 
L 533.585938 158.210937 
" style="fill:none;stroke:#d62728;stroke-linecap:square;stroke-width:1.5;"/>
    </g>
    <g id="line2d_55"/>
    <g id="text_24">
     <!-- high.school -->
     <defs>
      <path d="M 54.890625 33.015625 
L 54.890625 0 
L 45.90625 0 
L 45.90625 32.71875 
Q 45.90625 40.484375 42.875 44.328125 
Q 39.84375 48.1875 33.796875 48.1875 
Q 26.515625 48.1875 22.3125 43.546875 
Q 18.109375 38.921875 18.109375 30.90625 
L 18.109375 0 
L 9.078125 0 
L 9.078125 75.984375 
L 18.109375 75.984375 
L 18.109375 46.1875 
Q 21.34375 51.125 25.703125 53.5625 
Q 30.078125 56 35.796875 56 
Q 45.21875 56 50.046875 50.171875 
Q 54.890625 44.34375 54.890625 33.015625 
z
" id="DejaVuSans-68"/>
      <path d="M 9.421875 75.984375 
L 18.40625 75.984375 
L 18.40625 0 
L 9.421875 0 
z
" id="DejaVuSans-6c"/>
     </defs>
     <g transform="translate(541.585938 161.710937)scale(0.1 -0.1)">
      <use xlink:href="#DejaVuSans-68"/>
      <use x="63.378906" xlink:href="#DejaVuSans-69"/>
      <use x="91.162109" xlink:href="#DejaVuSans-67"/>
      <use x="154.638672" xlink:href="#DejaVuSans-68"/>
      <use x="218.017578" xlink:href="#DejaVuSans-2e"/>
      <use x="249.804688" xlink:href="#DejaVuSans-73"/>
      <use x="301.904297" xlink:href="#DejaVuSans-63"/>
      <use x="356.884766" xlink:href="#DejaVuSans-68"/>
      <use x="420.263672" xlink:href="#DejaVuSans-6f"/>
      <use x="481.445312" xlink:href="#DejaVuSans-6f"/>
      <use x="542.626953" xlink:href="#DejaVuSans-6c"/>
     </g>
    </g>
    <g id="line2d_56">
     <path d="M 513.585938 172.889062 
L 533.585938 172.889062 
" style="fill:none;stroke:#9467bd;stroke-linecap:square;stroke-width:1.5;"/>
    </g>
    <g id="line2d_57"/>
    <g id="text_25">
     <!-- illiterate -->
     <defs>
      <path d="M 41.109375 46.296875 
Q 39.59375 47.171875 37.8125 47.578125 
Q 36.03125 48 33.890625 48 
Q 26.265625 48 22.1875 43.046875 
Q 18.109375 38.09375 18.109375 28.8125 
L 18.109375 0 
L 9.078125 0 
L 9.078125 54.6875 
L 18.109375 54.6875 
L 18.109375 46.1875 
Q 20.953125 51.171875 25.484375 53.578125 
Q 30.03125 56 36.53125 56 
Q 37.453125 56 38.578125 55.875 
Q 39.703125 55.765625 41.0625 55.515625 
z
" id="DejaVuSans-72"/>
     </defs>
     <g transform="translate(541.585938 176.389062)scale(0.1 -0.1)">
      <use xlink:href="#DejaVuSans-69"/>
      <use x="27.783203" xlink:href="#DejaVuSans-6c"/>
      <use x="55.566406" xlink:href="#DejaVuSans-6c"/>
      <use x="83.349609" xlink:href="#DejaVuSans-69"/>
      <use x="111.132812" xlink:href="#DejaVuSans-74"/>
      <use x="150.341797" xlink:href="#DejaVuSans-65"/>
      <use x="211.865234" xlink:href="#DejaVuSans-72"/>
      <use x="252.978516" xlink:href="#DejaVuSans-61"/>
      <use x="314.257812" xlink:href="#DejaVuSans-74"/>
      <use x="353.466797" xlink:href="#DejaVuSans-65"/>
     </g>
    </g>
    <g id="line2d_58">
     <path d="M 513.585938 187.567187 
L 533.585938 187.567187 
" style="fill:none;stroke:#8c564b;stroke-linecap:square;stroke-width:1.5;"/>
    </g>
    <g id="line2d_59"/>
    <g id="text_26">
     <!-- professional.course -->
     <defs>
      <path d="M 18.109375 8.203125 
L 18.109375 -20.796875 
L 9.078125 -20.796875 
L 9.078125 54.6875 
L 18.109375 54.6875 
L 18.109375 46.390625 
Q 20.953125 51.265625 25.265625 53.625 
Q 29.59375 56 35.59375 56 
Q 45.5625 56 51.78125 48.09375 
Q 58.015625 40.1875 58.015625 27.296875 
Q 58.015625 14.40625 51.78125 6.484375 
Q 45.5625 -1.421875 35.59375 -1.421875 
Q 29.59375 -1.421875 25.265625 0.953125 
Q 20.953125 3.328125 18.109375 8.203125 
z
M 48.6875 27.296875 
Q 48.6875 37.203125 44.609375 42.84375 
Q 40.53125 48.484375 33.40625 48.484375 
Q 26.265625 48.484375 22.1875 42.84375 
Q 18.109375 37.203125 18.109375 27.296875 
Q 18.109375 17.390625 22.1875 11.75 
Q 26.265625 6.109375 33.40625 6.109375 
Q 40.53125 6.109375 44.609375 11.75 
Q 48.6875 17.390625 48.6875 27.296875 
z
" id="DejaVuSans-70"/>
      <path d="M 37.109375 75.984375 
L 37.109375 68.5 
L 28.515625 68.5 
Q 23.6875 68.5 21.796875 66.546875 
Q 19.921875 64.59375 19.921875 59.515625 
L 19.921875 54.6875 
L 34.71875 54.6875 
L 34.71875 47.703125 
L 19.921875 47.703125 
L 19.921875 0 
L 10.890625 0 
L 10.890625 47.703125 
L 2.296875 47.703125 
L 2.296875 54.6875 
L 10.890625 54.6875 
L 10.890625 58.5 
Q 10.890625 67.625 15.140625 71.796875 
Q 19.390625 75.984375 28.609375 75.984375 
z
" id="DejaVuSans-66"/>
     </defs>
     <g transform="translate(541.585938 191.067187)scale(0.1 -0.1)">
      <use xlink:href="#DejaVuSans-70"/>
      <use x="63.476562" xlink:href="#DejaVuSans-72"/>
      <use x="104.558594" xlink:href="#DejaVuSans-6f"/>
      <use x="165.740234" xlink:href="#DejaVuSans-66"/>
      <use x="200.945312" xlink:href="#DejaVuSans-65"/>
      <use x="262.46875" xlink:href="#DejaVuSans-73"/>
      <use x="314.568359" xlink:href="#DejaVuSans-73"/>
      <use x="366.667969" xlink:href="#DejaVuSans-69"/>
      <use x="394.451172" xlink:href="#DejaVuSans-6f"/>
      <use x="455.632812" xlink:href="#DejaVuSans-6e"/>
      <use x="519.011719" xlink:href="#DejaVuSans-61"/>
      <use x="580.291016" xlink:href="#DejaVuSans-6c"/>
      <use x="608.074219" xlink:href="#DejaVuSans-2e"/>
      <use x="639.861328" xlink:href="#DejaVuSans-63"/>
      <use x="694.841797" xlink:href="#DejaVuSans-6f"/>
      <use x="756.023438" xlink:href="#DejaVuSans-75"/>
      <use x="819.402344" xlink:href="#DejaVuSans-72"/>
      <use x="860.515625" xlink:href="#DejaVuSans-73"/>
      <use x="912.615234" xlink:href="#DejaVuSans-65"/>
     </g>
    </g>
    <g id="line2d_60">
     <path d="M 513.585938 202.245312 
L 533.585938 202.245312 
" style="fill:none;stroke:#e377c2;stroke-linecap:square;stroke-width:1.5;"/>
    </g>
    <g id="line2d_61"/>
    <g id="text_27">
     <!-- university.degree -->
     <defs>
      <path d="M 2.984375 54.6875 
L 12.5 54.6875 
L 29.59375 8.796875 
L 46.6875 54.6875 
L 56.203125 54.6875 
L 35.6875 0 
L 23.484375 0 
z
" id="DejaVuSans-76"/>
     </defs>
     <g transform="translate(541.585938 205.745312)scale(0.1 -0.1)">
      <use xlink:href="#DejaVuSans-75"/>
      <use x="63.378906" xlink:href="#DejaVuSans-6e"/>
      <use x="126.757812" xlink:href="#DejaVuSans-69"/>
      <use x="154.541016" xlink:href="#DejaVuSans-76"/>
      <use x="213.720703" xlink:href="#DejaVuSans-65"/>
      <use x="275.244141" xlink:href="#DejaVuSans-72"/>
      <use x="316.357422" xlink:href="#DejaVuSans-73"/>
      <use x="368.457031" xlink:href="#DejaVuSans-69"/>
      <use x="396.240234" xlink:href="#DejaVuSans-74"/>
      <use x="435.449219" xlink:href="#DejaVuSans-79"/>
      <use x="494.410156" xlink:href="#DejaVuSans-2e"/>
      <use x="526.197266" xlink:href="#DejaVuSans-64"/>
      <use x="589.673828" xlink:href="#DejaVuSans-65"/>
      <use x="651.197266" xlink:href="#DejaVuSans-67"/>
      <use x="714.673828" xlink:href="#DejaVuSans-72"/>
      <use x="755.755859" xlink:href="#DejaVuSans-65"/>
      <use x="817.279297" xlink:href="#DejaVuSans-65"/>
     </g>
    </g>
    <g id="line2d_62">
     <path d="M 513.585938 216.923437 
L 533.585938 216.923437 
" style="fill:none;stroke:#7f7f7f;stroke-linecap:square;stroke-width:1.5;"/>
    </g>
    <g id="line2d_63"/>
    <g id="text_28">
     <!-- unknown -->
     <defs>
      <path d="M 9.078125 75.984375 
L 18.109375 75.984375 
L 18.109375 31.109375 
L 44.921875 54.6875 
L 56.390625 54.6875 
L 27.390625 29.109375 
L 57.625 0 
L 45.90625 0 
L 18.109375 26.703125 
L 18.109375 0 
L 9.078125 0 
z
" id="DejaVuSans-6b"/>
      <path d="M 4.203125 54.6875 
L 13.1875 54.6875 
L 24.421875 12.015625 
L 35.59375 54.6875 
L 46.1875 54.6875 
L 57.421875 12.015625 
L 68.609375 54.6875 
L 77.59375 54.6875 
L 63.28125 0 
L 52.6875 0 
L 40.921875 44.828125 
L 29.109375 0 
L 18.5 0 
z
" id="DejaVuSans-77"/>
     </defs>
     <g transform="translate(541.585938 220.423437)scale(0.1 -0.1)">
      <use xlink:href="#DejaVuSans-75"/>
      <use x="63.378906" xlink:href="#DejaVuSans-6e"/>
      <use x="126.757812" xlink:href="#DejaVuSans-6b"/>
      <use x="184.667969" xlink:href="#DejaVuSans-6e"/>
      <use x="248.046875" xlink:href="#DejaVuSans-6f"/>
      <use x="309.228516" xlink:href="#DejaVuSans-77"/>
      <use x="391.015625" xlink:href="#DejaVuSans-6e"/>
     </g>
    </g>
    <g id="line2d_64">
     <path d="M 513.585938 231.601562 
L 533.585938 231.601562 
" style="fill:none;"/>
    </g>
    <g id="line2d_65"/>
    <g id="text_29">
     <!-- y -->
     <g transform="translate(541.585938 235.101562)scale(0.1 -0.1)">
      <use xlink:href="#DejaVuSans-79"/>
     </g>
    </g>
    <g id="line2d_66">
     <path d="M 513.585938 246.279687 
L 533.585938 246.279687 
" style="fill:none;stroke:#333333;stroke-linecap:square;stroke-width:1.5;"/>
    </g>
    <g id="line2d_67"/>
    <g id="text_30">
     <!-- no -->
     <g transform="translate(541.585938 249.779687)scale(0.1 -0.1)">
      <use xlink:href="#DejaVuSans-6e"/>
      <use x="63.378906" xlink:href="#DejaVuSans-6f"/>
     </g>
    </g>
    <g id="line2d_68">
     <path d="M 513.585938 260.957812 
L 533.585938 260.957812 
" style="fill:none;stroke:#333333;stroke-dasharray:6,2.25;stroke-dashoffset:0;stroke-width:1.5;"/>
    </g>
    <g id="line2d_69"/>
    <g id="text_31">
     <!-- yes -->
     <g transform="translate(541.585938 264.457812)scale(0.1 -0.1)">
      <use xlink:href="#DejaVuSans-79"/>
      <use x="59.179688" xlink:href="#DejaVuSans-65"/>
      <use x="120.703125" xlink:href="#DejaVuSans-73"/>
     </g>
    </g>
   </g>
  </g>
 </g>
 <defs>
  <clipPath id="p3692506037">
   <rect height="543.6" width="558" x="90" y="86.4"/>
  </clipPath>
 </defs>
</svg>
