<?xml version="1.0" encoding="utf-8" standalone="no"?>
<!DOCTYPE svg PUBLIC "-//W3C//DTD SVG 1.1//EN"
  "http://www.w3.org/Graphics/SVG/1.1/DTD/svg11.dtd">
<!-- Created with matplotlib (http://matplotlib.org/) -->
<svg height="360pt" version="1.1" viewBox="0 0 826.75 360" width="826.75pt" xmlns="http://www.w3.org/2000/svg" xmlns:xlink="http://www.w3.org/1999/xlink">
 <defs>
  <style type="text/css">
*{stroke-linecap:butt;stroke-linejoin:round;}
  </style>
 </defs>
 <g id="figure_1">
  <g id="patch_1">
   <path d="M 0 360 
L 826.75 360 
L 826.75 0 
L 0 0 
z
" style="fill:#ffffff;"/>
  </g>
  <g id="axes_1">
   <g id="patch_2">
    <path d="M 62.207196 318.2 
L 378.097164 318.2 
L 378.097164 24.8 
L 62.207196 24.8 
z
" style="fill:#ffffff;"/>
   </g>
   <g id="PathCollection_1"/>
   <g id="PathCollection_2"/>
   <g id="PathCollection_3"/>
   <g id="PathCollection_4"/>
   <g id="PathCollection_5"/>
   <g id="PathCollection_6"/>
   <g id="PathCollection_7"/>
   <g id="PathCollection_8"/>
   <g id="PathCollection_9"/>
   <g id="PathCollection_10"/>
   <g id="PathCollection_11"/>
   <g id="PathCollection_12"/>
   <g id="matplotlib.axis_1">
    <g id="xtick_1">
     <g id="line2d_1">
      <defs>
       <path d="M 0 0 
L 0 3.5 
" id="m7e0a8f7b63" style="stroke:#000000;stroke-width:0.8;"/>
      </defs>
      <g>
       <use style="stroke:#000000;stroke-width:0.8;" x="88.53136" xlink:href="#m7e0a8f7b63" y="318.2"/>
      </g>
     </g>
     <g id="text_1">
      <!-- (10, 20] -->
      <defs>
       <path d="M 31 75.875 
Q 24.46875 64.65625 21.28125 53.65625 
Q 18.109375 42.671875 18.109375 31.390625 
Q 18.109375 20.125 21.3125 9.0625 
Q 24.515625 -2 31 -13.1875 
L 23.1875 -13.1875 
Q 15.875 -1.703125 12.234375 9.375 
Q 8.59375 20.453125 8.59375 31.390625 
Q 8.59375 42.28125 12.203125 53.3125 
Q 15.828125 64.359375 23.1875 75.875 
z
" id="DejaVuSans-28"/>
       <path d="M 12.40625 8.296875 
L 28.515625 8.296875 
L 28.515625 63.921875 
L 10.984375 60.40625 
L 10.984375 69.390625 
L 28.421875 72.90625 
L 38.28125 72.90625 
L 38.28125 8.296875 
L 54.390625 8.296875 
L 54.390625 0 
L 12.40625 0 
z
" id="DejaVuSans-31"/>
       <path d="M 31.78125 66.40625 
Q 24.171875 66.40625 20.328125 58.90625 
Q 16.5 51.421875 16.5 36.375 
Q 16.5 21.390625 20.328125 13.890625 
Q 24.171875 6.390625 31.78125 6.390625 
Q 39.453125 6.390625 43.28125 13.890625 
Q 47.125 21.390625 47.125 36.375 
Q 47.125 51.421875 43.28125 58.90625 
Q 39.453125 66.40625 31.78125 66.40625 
z
M 31.78125 74.21875 
Q 44.046875 74.21875 50.515625 64.515625 
Q 56.984375 54.828125 56.984375 36.375 
Q 56.984375 17.96875 50.515625 8.265625 
Q 44.046875 -1.421875 31.78125 -1.421875 
Q 19.53125 -1.421875 13.0625 8.265625 
Q 6.59375 17.96875 6.59375 36.375 
Q 6.59375 54.828125 13.0625 64.515625 
Q 19.53125 74.21875 31.78125 74.21875 
z
" id="DejaVuSans-30"/>
       <path d="M 11.71875 12.40625 
L 22.015625 12.40625 
L 22.015625 4 
L 14.015625 -11.625 
L 7.71875 -11.625 
L 11.71875 4 
z
" id="DejaVuSans-2c"/>
       <path id="DejaVuSans-20"/>
       <path d="M 19.1875 8.296875 
L 53.609375 8.296875 
L 53.609375 0 
L 7.328125 0 
L 7.328125 8.296875 
Q 12.9375 14.109375 22.625 23.890625 
Q 32.328125 33.6875 34.8125 36.53125 
Q 39.546875 41.84375 41.421875 45.53125 
Q 43.3125 49.21875 43.3125 52.78125 
Q 43.3125 58.59375 39.234375 62.25 
Q 35.15625 65.921875 28.609375 65.921875 
Q 23.96875 65.921875 18.8125 64.3125 
Q 13.671875 62.703125 7.8125 59.421875 
L 7.8125 69.390625 
Q 13.765625 71.78125 18.9375 73 
Q 24.125 74.21875 28.421875 74.21875 
Q 39.75 74.21875 46.484375 68.546875 
Q 53.21875 62.890625 53.21875 53.421875 
Q 53.21875 48.921875 51.53125 44.890625 
Q 49.859375 40.875 45.40625 35.40625 
Q 44.1875 33.984375 37.640625 27.21875 
Q 31.109375 20.453125 19.1875 8.296875 
z
" id="DejaVuSans-32"/>
       <path d="M 30.421875 75.984375 
L 30.421875 -13.1875 
L 9.71875 -13.1875 
L 9.71875 -6.203125 
L 21.390625 -6.203125 
L 21.390625 69 
L 9.71875 69 
L 9.71875 75.984375 
z
" id="DejaVuSans-5d"/>
      </defs>
      <g transform="translate(68.726673 332.798438)scale(0.1 -0.1)">
       <use xlink:href="#DejaVuSans-28"/>
       <use x="39.013672" xlink:href="#DejaVuSans-31"/>
       <use x="102.636719" xlink:href="#DejaVuSans-30"/>
       <use x="166.259766" xlink:href="#DejaVuSans-2c"/>
       <use x="198.046875" xlink:href="#DejaVuSans-20"/>
       <use x="229.833984" xlink:href="#DejaVuSans-32"/>
       <use x="293.457031" xlink:href="#DejaVuSans-30"/>
       <use x="357.080078" xlink:href="#DejaVuSans-5d"/>
      </g>
     </g>
    </g>
    <g id="xtick_2">
     <g id="line2d_2">
      <g>
       <use style="stroke:#000000;stroke-width:0.8;" x="141.179688" xlink:href="#m7e0a8f7b63" y="318.2"/>
      </g>
     </g>
     <g id="text_2">
      <!-- (20, 30] -->
      <defs>
       <path d="M 40.578125 39.3125 
Q 47.65625 37.796875 51.625 33 
Q 55.609375 28.21875 55.609375 21.1875 
Q 55.609375 10.40625 48.1875 4.484375 
Q 40.765625 -1.421875 27.09375 -1.421875 
Q 22.515625 -1.421875 17.65625 -0.515625 
Q 12.796875 0.390625 7.625 2.203125 
L 7.625 11.71875 
Q 11.71875 9.328125 16.59375 8.109375 
Q 21.484375 6.890625 26.8125 6.890625 
Q 36.078125 6.890625 40.9375 10.546875 
Q 45.796875 14.203125 45.796875 21.1875 
Q 45.796875 27.640625 41.28125 31.265625 
Q 36.765625 34.90625 28.71875 34.90625 
L 20.21875 34.90625 
L 20.21875 43.015625 
L 29.109375 43.015625 
Q 36.375 43.015625 40.234375 45.921875 
Q 44.09375 48.828125 44.09375 54.296875 
Q 44.09375 59.90625 40.109375 62.90625 
Q 36.140625 65.921875 28.71875 65.921875 
Q 24.65625 65.921875 20.015625 65.03125 
Q 15.375 64.15625 9.8125 62.3125 
L 9.8125 71.09375 
Q 15.4375 72.65625 20.34375 73.4375 
Q 25.25 74.21875 29.59375 74.21875 
Q 40.828125 74.21875 47.359375 69.109375 
Q 53.90625 64.015625 53.90625 55.328125 
Q 53.90625 49.265625 50.4375 45.09375 
Q 46.96875 40.921875 40.578125 39.3125 
z
" id="DejaVuSans-33"/>
      </defs>
      <g transform="translate(121.375001 332.798438)scale(0.1 -0.1)">
       <use xlink:href="#DejaVuSans-28"/>
       <use x="39.013672" xlink:href="#DejaVuSans-32"/>
       <use x="102.636719" xlink:href="#DejaVuSans-30"/>
       <use x="166.259766" xlink:href="#DejaVuSans-2c"/>
       <use x="198.046875" xlink:href="#DejaVuSans-20"/>
       <use x="229.833984" xlink:href="#DejaVuSans-33"/>
       <use x="293.457031" xlink:href="#DejaVuSans-30"/>
       <use x="357.080078" xlink:href="#DejaVuSans-5d"/>
      </g>
     </g>
    </g>
    <g id="xtick_3">
     <g id="line2d_3">
      <g>
       <use style="stroke:#000000;stroke-width:0.8;" x="193.828016" xlink:href="#m7e0a8f7b63" y="318.2"/>
      </g>
     </g>
     <g id="text_3">
      <!-- (30, 40] -->
      <defs>
       <path d="M 37.796875 64.3125 
L 12.890625 25.390625 
L 37.796875 25.390625 
z
M 35.203125 72.90625 
L 47.609375 72.90625 
L 47.609375 25.390625 
L 58.015625 25.390625 
L 58.015625 17.1875 
L 47.609375 17.1875 
L 47.609375 0 
L 37.796875 0 
L 37.796875 17.1875 
L 4.890625 17.1875 
L 4.890625 26.703125 
z
" id="DejaVuSans-34"/>
      </defs>
      <g transform="translate(174.023329 332.798438)scale(0.1 -0.1)">
       <use xlink:href="#DejaVuSans-28"/>
       <use x="39.013672" xlink:href="#DejaVuSans-33"/>
       <use x="102.636719" xlink:href="#DejaVuSans-30"/>
       <use x="166.259766" xlink:href="#DejaVuSans-2c"/>
       <use x="198.046875" xlink:href="#DejaVuSans-20"/>
       <use x="229.833984" xlink:href="#DejaVuSans-34"/>
       <use x="293.457031" xlink:href="#DejaVuSans-30"/>
       <use x="357.080078" xlink:href="#DejaVuSans-5d"/>
      </g>
     </g>
    </g>
    <g id="xtick_4">
     <g id="line2d_4">
      <g>
       <use style="stroke:#000000;stroke-width:0.8;" x="246.476344" xlink:href="#m7e0a8f7b63" y="318.2"/>
      </g>
     </g>
     <g id="text_4">
      <!-- (40, 50] -->
      <defs>
       <path d="M 10.796875 72.90625 
L 49.515625 72.90625 
L 49.515625 64.59375 
L 19.828125 64.59375 
L 19.828125 46.734375 
Q 21.96875 47.46875 24.109375 47.828125 
Q 26.265625 48.1875 28.421875 48.1875 
Q 40.625 48.1875 47.75 41.5 
Q 54.890625 34.8125 54.890625 23.390625 
Q 54.890625 11.625 47.5625 5.09375 
Q 40.234375 -1.421875 26.90625 -1.421875 
Q 22.3125 -1.421875 17.546875 -0.640625 
Q 12.796875 0.140625 7.71875 1.703125 
L 7.71875 11.625 
Q 12.109375 9.234375 16.796875 8.0625 
Q 21.484375 6.890625 26.703125 6.890625 
Q 35.15625 6.890625 40.078125 11.328125 
Q 45.015625 15.765625 45.015625 23.390625 
Q 45.015625 31 40.078125 35.4375 
Q 35.15625 39.890625 26.703125 39.890625 
Q 22.75 39.890625 18.8125 39.015625 
Q 14.890625 38.140625 10.796875 36.28125 
z
" id="DejaVuSans-35"/>
      </defs>
      <g transform="translate(226.671657 332.798438)scale(0.1 -0.1)">
       <use xlink:href="#DejaVuSans-28"/>
       <use x="39.013672" xlink:href="#DejaVuSans-34"/>
       <use x="102.636719" xlink:href="#DejaVuSans-30"/>
       <use x="166.259766" xlink:href="#DejaVuSans-2c"/>
       <use x="198.046875" xlink:href="#DejaVuSans-20"/>
       <use x="229.833984" xlink:href="#DejaVuSans-35"/>
       <use x="293.457031" xlink:href="#DejaVuSans-30"/>
       <use x="357.080078" xlink:href="#DejaVuSans-5d"/>
      </g>
     </g>
    </g>
    <g id="xtick_5">
     <g id="line2d_5">
      <g>
       <use style="stroke:#000000;stroke-width:0.8;" x="299.124672" xlink:href="#m7e0a8f7b63" y="318.2"/>
      </g>
     </g>
     <g id="text_5">
      <!-- (50, 60] -->
      <defs>
       <path d="M 33.015625 40.375 
Q 26.375 40.375 22.484375 35.828125 
Q 18.609375 31.296875 18.609375 23.390625 
Q 18.609375 15.53125 22.484375 10.953125 
Q 26.375 6.390625 33.015625 6.390625 
Q 39.65625 6.390625 43.53125 10.953125 
Q 47.40625 15.53125 47.40625 23.390625 
Q 47.40625 31.296875 43.53125 35.828125 
Q 39.65625 40.375 33.015625 40.375 
z
M 52.59375 71.296875 
L 52.59375 62.3125 
Q 48.875 64.0625 45.09375 64.984375 
Q 41.3125 65.921875 37.59375 65.921875 
Q 27.828125 65.921875 22.671875 59.328125 
Q 17.53125 52.734375 16.796875 39.40625 
Q 19.671875 43.65625 24.015625 45.921875 
Q 28.375 48.1875 33.59375 48.1875 
Q 44.578125 48.1875 50.953125 41.515625 
Q 57.328125 34.859375 57.328125 23.390625 
Q 57.328125 12.15625 50.6875 5.359375 
Q 44.046875 -1.421875 33.015625 -1.421875 
Q 20.359375 -1.421875 13.671875 8.265625 
Q 6.984375 17.96875 6.984375 36.375 
Q 6.984375 53.65625 15.1875 63.9375 
Q 23.390625 74.21875 37.203125 74.21875 
Q 40.921875 74.21875 44.703125 73.484375 
Q 48.484375 72.75 52.59375 71.296875 
z
" id="DejaVuSans-36"/>
      </defs>
      <g transform="translate(279.319985 332.798438)scale(0.1 -0.1)">
       <use xlink:href="#DejaVuSans-28"/>
       <use x="39.013672" xlink:href="#DejaVuSans-35"/>
       <use x="102.636719" xlink:href="#DejaVuSans-30"/>
       <use x="166.259766" xlink:href="#DejaVuSans-2c"/>
       <use x="198.046875" xlink:href="#DejaVuSans-20"/>
       <use x="229.833984" xlink:href="#DejaVuSans-36"/>
       <use x="293.457031" xlink:href="#DejaVuSans-30"/>
       <use x="357.080078" xlink:href="#DejaVuSans-5d"/>
      </g>
     </g>
    </g>
    <g id="xtick_6">
     <g id="line2d_6">
      <g>
       <use style="stroke:#000000;stroke-width:0.8;" x="351.773" xlink:href="#m7e0a8f7b63" y="318.2"/>
      </g>
     </g>
     <g id="text_6">
      <!-- (60, 70] -->
      <defs>
       <path d="M 8.203125 72.90625 
L 55.078125 72.90625 
L 55.078125 68.703125 
L 28.609375 0 
L 18.3125 0 
L 43.21875 64.59375 
L 8.203125 64.59375 
z
" id="DejaVuSans-37"/>
      </defs>
      <g transform="translate(331.968313 332.798438)scale(0.1 -0.1)">
       <use xlink:href="#DejaVuSans-28"/>
       <use x="39.013672" xlink:href="#DejaVuSans-36"/>
       <use x="102.636719" xlink:href="#DejaVuSans-30"/>
       <use x="166.259766" xlink:href="#DejaVuSans-2c"/>
       <use x="198.046875" xlink:href="#DejaVuSans-20"/>
       <use x="229.833984" xlink:href="#DejaVuSans-37"/>
       <use x="293.457031" xlink:href="#DejaVuSans-30"/>
       <use x="357.080078" xlink:href="#DejaVuSans-5d"/>
      </g>
     </g>
    </g>
    <g id="text_7">
     <!-- age_group -->
     <defs>
      <path d="M 34.28125 27.484375 
Q 23.390625 27.484375 19.1875 25 
Q 14.984375 22.515625 14.984375 16.5 
Q 14.984375 11.71875 18.140625 8.90625 
Q 21.296875 6.109375 26.703125 6.109375 
Q 34.1875 6.109375 38.703125 11.40625 
Q 43.21875 16.703125 43.21875 25.484375 
L 43.21875 27.484375 
z
M 52.203125 31.203125 
L 52.203125 0 
L 43.21875 0 
L 43.21875 8.296875 
Q 40.140625 3.328125 35.546875 0.953125 
Q 30.953125 -1.421875 24.3125 -1.421875 
Q 15.921875 -1.421875 10.953125 3.296875 
Q 6 8.015625 6 15.921875 
Q 6 25.140625 12.171875 29.828125 
Q 18.359375 34.515625 30.609375 34.515625 
L 43.21875 34.515625 
L 43.21875 35.40625 
Q 43.21875 41.609375 39.140625 45 
Q 35.0625 48.390625 27.6875 48.390625 
Q 23 48.390625 18.546875 47.265625 
Q 14.109375 46.140625 10.015625 43.890625 
L 10.015625 52.203125 
Q 14.9375 54.109375 19.578125 55.046875 
Q 24.21875 56 28.609375 56 
Q 40.484375 56 46.34375 49.84375 
Q 52.203125 43.703125 52.203125 31.203125 
z
" id="DejaVuSans-61"/>
      <path d="M 45.40625 27.984375 
Q 45.40625 37.75 41.375 43.109375 
Q 37.359375 48.484375 30.078125 48.484375 
Q 22.859375 48.484375 18.828125 43.109375 
Q 14.796875 37.75 14.796875 27.984375 
Q 14.796875 18.265625 18.828125 12.890625 
Q 22.859375 7.515625 30.078125 7.515625 
Q 37.359375 7.515625 41.375 12.890625 
Q 45.40625 18.265625 45.40625 27.984375 
z
M 54.390625 6.78125 
Q 54.390625 -7.171875 48.1875 -13.984375 
Q 42 -20.796875 29.203125 -20.796875 
Q 24.46875 -20.796875 20.265625 -20.09375 
Q 16.0625 -19.390625 12.109375 -17.921875 
L 12.109375 -9.1875 
Q 16.0625 -11.328125 19.921875 -12.34375 
Q 23.78125 -13.375 27.78125 -13.375 
Q 36.625 -13.375 41.015625 -8.765625 
Q 45.40625 -4.15625 45.40625 5.171875 
L 45.40625 9.625 
Q 42.625 4.78125 38.28125 2.390625 
Q 33.9375 0 27.875 0 
Q 17.828125 0 11.671875 7.65625 
Q 5.515625 15.328125 5.515625 27.984375 
Q 5.515625 40.671875 11.671875 48.328125 
Q 17.828125 56 27.875 56 
Q 33.9375 56 38.28125 53.609375 
Q 42.625 51.21875 45.40625 46.390625 
L 45.40625 54.6875 
L 54.390625 54.6875 
z
" id="DejaVuSans-67"/>
      <path d="M 56.203125 29.59375 
L 56.203125 25.203125 
L 14.890625 25.203125 
Q 15.484375 15.921875 20.484375 11.0625 
Q 25.484375 6.203125 34.421875 6.203125 
Q 39.59375 6.203125 44.453125 7.46875 
Q 49.3125 8.734375 54.109375 11.28125 
L 54.109375 2.78125 
Q 49.265625 0.734375 44.1875 -0.34375 
Q 39.109375 -1.421875 33.890625 -1.421875 
Q 20.796875 -1.421875 13.15625 6.1875 
Q 5.515625 13.8125 5.515625 26.8125 
Q 5.515625 40.234375 12.765625 48.109375 
Q 20.015625 56 32.328125 56 
Q 43.359375 56 49.78125 48.890625 
Q 56.203125 41.796875 56.203125 29.59375 
z
M 47.21875 32.234375 
Q 47.125 39.59375 43.09375 43.984375 
Q 39.0625 48.390625 32.421875 48.390625 
Q 24.90625 48.390625 20.390625 44.140625 
Q 15.875 39.890625 15.1875 32.171875 
z
" id="DejaVuSans-65"/>
      <path d="M 50.984375 -16.609375 
L 50.984375 -23.578125 
L -0.984375 -23.578125 
L -0.984375 -16.609375 
z
" id="DejaVuSans-5f"/>
      <path d="M 41.109375 46.296875 
Q 39.59375 47.171875 37.8125 47.578125 
Q 36.03125 48 33.890625 48 
Q 26.265625 48 22.1875 43.046875 
Q 18.109375 38.09375 18.109375 28.8125 
L 18.109375 0 
L 9.078125 0 
L 9.078125 54.6875 
L 18.109375 54.6875 
L 18.109375 46.1875 
Q 20.953125 51.171875 25.484375 53.578125 
Q 30.03125 56 36.53125 56 
Q 37.453125 56 38.578125 55.875 
Q 39.703125 55.765625 41.0625 55.515625 
z
" id="DejaVuSans-72"/>
      <path d="M 30.609375 48.390625 
Q 23.390625 48.390625 19.1875 42.75 
Q 14.984375 37.109375 14.984375 27.296875 
Q 14.984375 17.484375 19.15625 11.84375 
Q 23.34375 6.203125 30.609375 6.203125 
Q 37.796875 6.203125 41.984375 11.859375 
Q 46.1875 17.53125 46.1875 27.296875 
Q 46.1875 37.015625 41.984375 42.703125 
Q 37.796875 48.390625 30.609375 48.390625 
z
M 30.609375 56 
Q 42.328125 56 49.015625 48.375 
Q 55.71875 40.765625 55.71875 27.296875 
Q 55.71875 13.875 49.015625 6.21875 
Q 42.328125 -1.421875 30.609375 -1.421875 
Q 18.84375 -1.421875 12.171875 6.21875 
Q 5.515625 13.875 5.515625 27.296875 
Q 5.515625 40.765625 12.171875 48.375 
Q 18.84375 56 30.609375 56 
z
" id="DejaVuSans-6f"/>
      <path d="M 8.5 21.578125 
L 8.5 54.6875 
L 17.484375 54.6875 
L 17.484375 21.921875 
Q 17.484375 14.15625 20.5 10.265625 
Q 23.53125 6.390625 29.59375 6.390625 
Q 36.859375 6.390625 41.078125 11.03125 
Q 45.3125 15.671875 45.3125 23.6875 
L 45.3125 54.6875 
L 54.296875 54.6875 
L 54.296875 0 
L 45.3125 0 
L 45.3125 8.40625 
Q 42.046875 3.421875 37.71875 1 
Q 33.40625 -1.421875 27.6875 -1.421875 
Q 18.265625 -1.421875 13.375 4.4375 
Q 8.5 10.296875 8.5 21.578125 
z
M 31.109375 56 
z
" id="DejaVuSans-75"/>
      <path d="M 18.109375 8.203125 
L 18.109375 -20.796875 
L 9.078125 -20.796875 
L 9.078125 54.6875 
L 18.109375 54.6875 
L 18.109375 46.390625 
Q 20.953125 51.265625 25.265625 53.625 
Q 29.59375 56 35.59375 56 
Q 45.5625 56 51.78125 48.09375 
Q 58.015625 40.1875 58.015625 27.296875 
Q 58.015625 14.40625 51.78125 6.484375 
Q 45.5625 -1.421875 35.59375 -1.421875 
Q 29.59375 -1.421875 25.265625 0.953125 
Q 20.953125 3.328125 18.109375 8.203125 
z
M 48.6875 27.296875 
Q 48.6875 37.203125 44.609375 42.84375 
Q 40.53125 48.484375 33.40625 48.484375 
Q 26.265625 48.484375 22.1875 42.84375 
Q 18.109375 37.203125 18.109375 27.296875 
Q 18.109375 17.390625 22.1875 11.75 
Q 26.265625 6.109375 33.40625 6.109375 
Q 40.53125 6.109375 44.609375 11.75 
Q 48.6875 17.390625 48.6875 27.296875 
z
" id="DejaVuSans-70"/>
     </defs>
     <g transform="translate(193.706868 346.198438)scale(0.1 -0.1)">
      <use xlink:href="#DejaVuSans-61"/>
      <use x="61.279297" xlink:href="#DejaVuSans-67"/>
      <use x="124.755859" xlink:href="#DejaVuSans-65"/>
      <use x="186.279297" xlink:href="#DejaVuSans-5f"/>
      <use x="236.279297" xlink:href="#DejaVuSans-67"/>
      <use x="299.755859" xlink:href="#DejaVuSans-72"/>
      <use x="340.837891" xlink:href="#DejaVuSans-6f"/>
      <use x="402.019531" xlink:href="#DejaVuSans-75"/>
      <use x="465.398438" xlink:href="#DejaVuSans-70"/>
     </g>
    </g>
   </g>
   <g id="matplotlib.axis_2">
    <g id="ytick_1">
     <g id="line2d_7">
      <defs>
       <path d="M 0 0 
L -3.5 0 
" id="mb8c59053b9" style="stroke:#000000;stroke-width:0.8;"/>
      </defs>
      <g>
       <use style="stroke:#000000;stroke-width:0.8;" x="62.207196" xlink:href="#mb8c59053b9" y="287.649138"/>
      </g>
     </g>
     <g id="text_8">
      <!-- 0.00 -->
      <defs>
       <path d="M 10.6875 12.40625 
L 21 12.40625 
L 21 0 
L 10.6875 0 
z
" id="DejaVuSans-2e"/>
      </defs>
      <g transform="translate(32.941571 291.448357)scale(0.1 -0.1)">
       <use xlink:href="#DejaVuSans-30"/>
       <use x="63.623047" xlink:href="#DejaVuSans-2e"/>
       <use x="95.410156" xlink:href="#DejaVuSans-30"/>
       <use x="159.033203" xlink:href="#DejaVuSans-30"/>
      </g>
     </g>
    </g>
    <g id="ytick_2">
     <g id="line2d_8">
      <g>
       <use style="stroke:#000000;stroke-width:0.8;" x="62.207196" xlink:href="#mb8c59053b9" y="243.785711"/>
      </g>
     </g>
     <g id="text_9">
      <!-- 0.02 -->
      <g transform="translate(32.941571 247.58493)scale(0.1 -0.1)">
       <use xlink:href="#DejaVuSans-30"/>
       <use x="63.623047" xlink:href="#DejaVuSans-2e"/>
       <use x="95.410156" xlink:href="#DejaVuSans-30"/>
       <use x="159.033203" xlink:href="#DejaVuSans-32"/>
      </g>
     </g>
    </g>
    <g id="ytick_3">
     <g id="line2d_9">
      <g>
       <use style="stroke:#000000;stroke-width:0.8;" x="62.207196" xlink:href="#mb8c59053b9" y="199.922284"/>
      </g>
     </g>
     <g id="text_10">
      <!-- 0.04 -->
      <g transform="translate(32.941571 203.721503)scale(0.1 -0.1)">
       <use xlink:href="#DejaVuSans-30"/>
       <use x="63.623047" xlink:href="#DejaVuSans-2e"/>
       <use x="95.410156" xlink:href="#DejaVuSans-30"/>
       <use x="159.033203" xlink:href="#DejaVuSans-34"/>
      </g>
     </g>
    </g>
    <g id="ytick_4">
     <g id="line2d_10">
      <g>
       <use style="stroke:#000000;stroke-width:0.8;" x="62.207196" xlink:href="#mb8c59053b9" y="156.058857"/>
      </g>
     </g>
     <g id="text_11">
      <!-- 0.06 -->
      <g transform="translate(32.941571 159.858076)scale(0.1 -0.1)">
       <use xlink:href="#DejaVuSans-30"/>
       <use x="63.623047" xlink:href="#DejaVuSans-2e"/>
       <use x="95.410156" xlink:href="#DejaVuSans-30"/>
       <use x="159.033203" xlink:href="#DejaVuSans-36"/>
      </g>
     </g>
    </g>
    <g id="ytick_5">
     <g id="line2d_11">
      <g>
       <use style="stroke:#000000;stroke-width:0.8;" x="62.207196" xlink:href="#mb8c59053b9" y="112.19543"/>
      </g>
     </g>
     <g id="text_12">
      <!-- 0.08 -->
      <defs>
       <path d="M 31.78125 34.625 
Q 24.75 34.625 20.71875 30.859375 
Q 16.703125 27.09375 16.703125 20.515625 
Q 16.703125 13.921875 20.71875 10.15625 
Q 24.75 6.390625 31.78125 6.390625 
Q 38.8125 6.390625 42.859375 10.171875 
Q 46.921875 13.96875 46.921875 20.515625 
Q 46.921875 27.09375 42.890625 30.859375 
Q 38.875 34.625 31.78125 34.625 
z
M 21.921875 38.8125 
Q 15.578125 40.375 12.03125 44.71875 
Q 8.5 49.078125 8.5 55.328125 
Q 8.5 64.0625 14.71875 69.140625 
Q 20.953125 74.21875 31.78125 74.21875 
Q 42.671875 74.21875 48.875 69.140625 
Q 55.078125 64.0625 55.078125 55.328125 
Q 55.078125 49.078125 51.53125 44.71875 
Q 48 40.375 41.703125 38.8125 
Q 48.828125 37.15625 52.796875 32.3125 
Q 56.78125 27.484375 56.78125 20.515625 
Q 56.78125 9.90625 50.3125 4.234375 
Q 43.84375 -1.421875 31.78125 -1.421875 
Q 19.734375 -1.421875 13.25 4.234375 
Q 6.78125 9.90625 6.78125 20.515625 
Q 6.78125 27.484375 10.78125 32.3125 
Q 14.796875 37.15625 21.921875 38.8125 
z
M 18.3125 54.390625 
Q 18.3125 48.734375 21.84375 45.5625 
Q 25.390625 42.390625 31.78125 42.390625 
Q 38.140625 42.390625 41.71875 45.5625 
Q 45.3125 48.734375 45.3125 54.390625 
Q 45.3125 60.0625 41.71875 63.234375 
Q 38.140625 66.40625 31.78125 66.40625 
Q 25.390625 66.40625 21.84375 63.234375 
Q 18.3125 60.0625 18.3125 54.390625 
z
" id="DejaVuSans-38"/>
      </defs>
      <g transform="translate(32.941571 115.994649)scale(0.1 -0.1)">
       <use xlink:href="#DejaVuSans-30"/>
       <use x="63.623047" xlink:href="#DejaVuSans-2e"/>
       <use x="95.410156" xlink:href="#DejaVuSans-30"/>
       <use x="159.033203" xlink:href="#DejaVuSans-38"/>
      </g>
     </g>
    </g>
    <g id="ytick_6">
     <g id="line2d_12">
      <g>
       <use style="stroke:#000000;stroke-width:0.8;" x="62.207196" xlink:href="#mb8c59053b9" y="68.332003"/>
      </g>
     </g>
     <g id="text_13">
      <!-- 0.10 -->
      <g transform="translate(32.941571 72.131222)scale(0.1 -0.1)">
       <use xlink:href="#DejaVuSans-30"/>
       <use x="63.623047" xlink:href="#DejaVuSans-2e"/>
       <use x="95.410156" xlink:href="#DejaVuSans-31"/>
       <use x="159.033203" xlink:href="#DejaVuSans-30"/>
      </g>
     </g>
    </g>
    <g id="ytick_7">
     <g id="line2d_13">
      <g>
       <use style="stroke:#000000;stroke-width:0.8;" x="62.207196" xlink:href="#mb8c59053b9" y="24.468576"/>
      </g>
     </g>
     <g id="text_14">
      <!-- 0.12 -->
      <g transform="translate(32.941571 28.267795)scale(0.1 -0.1)">
       <use xlink:href="#DejaVuSans-30"/>
       <use x="63.623047" xlink:href="#DejaVuSans-2e"/>
       <use x="95.410156" xlink:href="#DejaVuSans-31"/>
       <use x="159.033203" xlink:href="#DejaVuSans-32"/>
      </g>
     </g>
    </g>
    <g id="text_15">
     <!-- percentage -->
     <defs>
      <path d="M 48.78125 52.59375 
L 48.78125 44.1875 
Q 44.96875 46.296875 41.140625 47.34375 
Q 37.3125 48.390625 33.40625 48.390625 
Q 24.65625 48.390625 19.8125 42.84375 
Q 14.984375 37.3125 14.984375 27.296875 
Q 14.984375 17.28125 19.8125 11.734375 
Q 24.65625 6.203125 33.40625 6.203125 
Q 37.3125 6.203125 41.140625 7.25 
Q 44.96875 8.296875 48.78125 10.40625 
L 48.78125 2.09375 
Q 45.015625 0.34375 40.984375 -0.53125 
Q 36.96875 -1.421875 32.421875 -1.421875 
Q 20.0625 -1.421875 12.78125 6.34375 
Q 5.515625 14.109375 5.515625 27.296875 
Q 5.515625 40.671875 12.859375 48.328125 
Q 20.21875 56 33.015625 56 
Q 37.15625 56 41.109375 55.140625 
Q 45.0625 54.296875 48.78125 52.59375 
z
" id="DejaVuSans-63"/>
      <path d="M 54.890625 33.015625 
L 54.890625 0 
L 45.90625 0 
L 45.90625 32.71875 
Q 45.90625 40.484375 42.875 44.328125 
Q 39.84375 48.1875 33.796875 48.1875 
Q 26.515625 48.1875 22.3125 43.546875 
Q 18.109375 38.921875 18.109375 30.90625 
L 18.109375 0 
L 9.078125 0 
L 9.078125 54.6875 
L 18.109375 54.6875 
L 18.109375 46.1875 
Q 21.34375 51.125 25.703125 53.5625 
Q 30.078125 56 35.796875 56 
Q 45.21875 56 50.046875 50.171875 
Q 54.890625 44.34375 54.890625 33.015625 
z
" id="DejaVuSans-6e"/>
      <path d="M 18.3125 70.21875 
L 18.3125 54.6875 
L 36.8125 54.6875 
L 36.8125 47.703125 
L 18.3125 47.703125 
L 18.3125 18.015625 
Q 18.3125 11.328125 20.140625 9.421875 
Q 21.96875 7.515625 27.59375 7.515625 
L 36.8125 7.515625 
L 36.8125 0 
L 27.59375 0 
Q 17.1875 0 13.234375 3.875 
Q 9.28125 7.765625 9.28125 18.015625 
L 9.28125 47.703125 
L 2.6875 47.703125 
L 2.6875 54.6875 
L 9.28125 54.6875 
L 9.28125 70.21875 
z
" id="DejaVuSans-74"/>
     </defs>
     <g transform="translate(26.861884 200.074219)rotate(-90)scale(0.1 -0.1)">
      <use xlink:href="#DejaVuSans-70"/>
      <use x="63.476562" xlink:href="#DejaVuSans-65"/>
      <use x="125" xlink:href="#DejaVuSans-72"/>
      <use x="166.082031" xlink:href="#DejaVuSans-63"/>
      <use x="221.0625" xlink:href="#DejaVuSans-65"/>
      <use x="282.585938" xlink:href="#DejaVuSans-6e"/>
      <use x="345.964844" xlink:href="#DejaVuSans-74"/>
      <use x="385.173828" xlink:href="#DejaVuSans-61"/>
      <use x="446.453125" xlink:href="#DejaVuSans-67"/>
      <use x="509.929688" xlink:href="#DejaVuSans-65"/>
     </g>
    </g>
   </g>
   <g id="patch_3">
    <path d="M 62.207196 318.2 
L 62.207196 24.8 
" style="fill:none;stroke:#000000;stroke-linecap:square;stroke-linejoin:miter;stroke-width:0.8;"/>
   </g>
   <g id="patch_4">
    <path d="M 62.207196 318.2 
L 378.097164 318.2 
" style="fill:none;stroke:#000000;stroke-linecap:square;stroke-linejoin:miter;stroke-width:0.8;"/>
   </g>
   <g id="PathCollection_13">
    <defs>
     <path d="M 0 2.5 
C 0.663008 2.5 1.29895 2.236584 1.767767 1.767767 
C 2.236584 1.29895 2.5 0.663008 2.5 0 
C 2.5 -0.663008 2.236584 -1.29895 1.767767 -1.767767 
C 1.29895 -2.236584 0.663008 -2.5 0 -2.5 
C -0.663008 -2.5 -1.29895 -2.236584 -1.767767 -1.767767 
C -2.236584 -1.29895 -2.5 -0.663008 -2.5 0 
C -2.5 0.663008 -2.236584 1.29895 -1.767767 1.767767 
C -1.29895 2.236584 -0.663008 2.5 0 2.5 
z
" id="C0_0_d530368dbd"/>
    </defs>
    <g clip-path="url(#peb1f2a393c)">
     <use style="fill:#a6cee3;" x="83.44454" xlink:href="#C0_0_d530368dbd" y="287.58913"/>
    </g>
    <g clip-path="url(#peb1f2a393c)">
     <use style="fill:#1f78b4;" x="85.96397" xlink:href="#C0_0_d530368dbd" y="287.229082"/>
    </g>
    <g clip-path="url(#peb1f2a393c)">
     <use style="fill:#b2df8a;" x="92.681166" xlink:href="#C0_0_d530368dbd" y="287.409106"/>
    </g>
    <g clip-path="url(#peb1f2a393c)">
     <use style="fill:#ff7f00;" x="91.95838" xlink:href="#C0_0_d530368dbd" y="287.469114"/>
    </g>
    <g clip-path="url(#peb1f2a393c)">
     <use style="fill:#cab2d6;" x="90.744382" xlink:href="#C0_0_d530368dbd" y="283.688612"/>
    </g>
    <g clip-path="url(#peb1f2a393c)">
     <use style="fill:#6a3d9a;" x="89.358259" xlink:href="#C0_0_d530368dbd" y="287.529122"/>
    </g>
   </g>
   <g id="PathCollection_14">
    <defs>
     <path d="M 0 2.5 
C 0.663008 2.5 1.29895 2.236584 1.767767 1.767767 
C 2.236584 1.29895 2.5 0.663008 2.5 0 
C 2.5 -0.663008 2.236584 -1.29895 1.767767 -1.767767 
C 1.29895 -2.236584 0.663008 -2.5 0 -2.5 
C -0.663008 -2.5 -1.29895 -2.236584 -1.767767 -1.767767 
C -2.236584 -1.29895 -2.5 -0.663008 -2.5 0 
C -2.5 0.663008 -2.236584 1.29895 -1.767767 1.767767 
C -1.29895 2.236584 -0.663008 2.5 0 2.5 
z
" id="C1_0_77ab23af4f"/>
    </defs>
    <g clip-path="url(#peb1f2a393c)">
     <use style="fill:#a6cee3;" x="140.176064" xlink:href="#C1_0_77ab23af4f" y="181.014972"/>
    </g>
    <g clip-path="url(#peb1f2a393c)">
     <use style="fill:#1f78b4;" x="145.963031" xlink:href="#C1_0_77ab23af4f" y="205.858272"/>
    </g>
    <g clip-path="url(#peb1f2a393c)">
     <use style="fill:#b2df8a;" x="143.836539" xlink:href="#C1_0_77ab23af4f" y="280.448181"/>
    </g>
    <g clip-path="url(#peb1f2a393c)">
     <use style="fill:#33a02c;" x="143.568867" xlink:href="#C1_0_77ab23af4f" y="284.408707"/>
    </g>
    <g clip-path="url(#peb1f2a393c)">
     <use style="fill:#fb9a99;" x="136.531654" xlink:href="#C1_0_77ab23af4f" y="274.027328"/>
    </g>
    <g clip-path="url(#peb1f2a393c)">
     <use style="fill:#e31a1c;" x="143.874972" xlink:href="#C1_0_77ab23af4f" y="287.349098"/>
    </g>
    <g clip-path="url(#peb1f2a393c)">
     <use style="fill:#fdbf6f;" x="140.299387" xlink:href="#C1_0_77ab23af4f" y="274.447384"/>
    </g>
    <g clip-path="url(#peb1f2a393c)">
     <use style="fill:#ff7f00;" x="144.855612" xlink:href="#C1_0_77ab23af4f" y="238.382593"/>
    </g>
    <g clip-path="url(#peb1f2a393c)">
     <use style="fill:#cab2d6;" x="140.363498" xlink:href="#C1_0_77ab23af4f" y="262.085742"/>
    </g>
    <g clip-path="url(#peb1f2a393c)">
     <use style="fill:#6a3d9a;" x="136.19709" xlink:href="#C1_0_77ab23af4f" y="227.341126"/>
    </g>
    <g clip-path="url(#peb1f2a393c)">
     <use style="fill:#ffff99;" x="137.178973" xlink:href="#C1_0_77ab23af4f" y="279.60807"/>
    </g>
    <g clip-path="url(#peb1f2a393c)">
     <use style="fill:#b15928;" x="143.083598" xlink:href="#C1_0_77ab23af4f" y="286.208946"/>
    </g>
   </g>
   <g id="PathCollection_15">
    <defs>
     <path d="M 0 2.5 
C 0.663008 2.5 1.29895 2.236584 1.767767 1.767767 
C 2.236584 1.29895 2.5 0.663008 2.5 0 
C 2.5 -0.663008 2.236584 -1.29895 1.767767 -1.767767 
C 1.29895 -2.236584 0.663008 -2.5 0 -2.5 
C -0.663008 -2.5 -1.29895 -2.236584 -1.767767 -1.767767 
C -2.236584 -1.29895 -2.5 -0.663008 -2.5 0 
C -2.5 0.663008 -2.236584 1.29895 -1.767767 1.767767 
C -1.29895 2.236584 -0.663008 2.5 0 2.5 
z
" id="C2_0_072408d4c9"/>
    </defs>
    <g clip-path="url(#peb1f2a393c)">
     <use style="fill:#a6cee3;" x="190.127888" xlink:href="#C2_0_072408d4c9" y="39.516175"/>
    </g>
    <g clip-path="url(#peb1f2a393c)">
     <use style="fill:#1f78b4;" x="189.946366" xlink:href="#C2_0_072408d4c9" y="77.681245"/>
    </g>
    <g clip-path="url(#peb1f2a393c)">
     <use style="fill:#b2df8a;" x="198.021448" xlink:href="#C2_0_072408d4c9" y="256.084945"/>
    </g>
    <g clip-path="url(#peb1f2a393c)">
     <use style="fill:#33a02c;" x="192.27272" xlink:href="#C2_0_072408d4c9" y="269.226691"/>
    </g>
    <g clip-path="url(#peb1f2a393c)">
     <use style="fill:#fb9a99;" x="194.44632" xlink:href="#C2_0_072408d4c9" y="229.741445"/>
    </g>
    <g clip-path="url(#peb1f2a393c)">
     <use style="fill:#e31a1c;" x="192.414878" xlink:href="#C2_0_072408d4c9" y="285.848899"/>
    </g>
    <g clip-path="url(#peb1f2a393c)">
     <use style="fill:#fdbf6f;" x="193.881953" xlink:href="#C2_0_072408d4c9" y="258.965327"/>
    </g>
    <g clip-path="url(#peb1f2a393c)">
     <use style="fill:#ff7f00;" x="192.551335" xlink:href="#C2_0_072408d4c9" y="198.83734"/>
    </g>
    <g clip-path="url(#peb1f2a393c)">
     <use style="fill:#cab2d6;" x="189.50171" xlink:href="#C2_0_072408d4c9" y="281.408309"/>
    </g>
    <g clip-path="url(#peb1f2a393c)">
     <use style="fill:#6a3d9a;" x="188.868067" xlink:href="#C2_0_072408d4c9" y="116.566411"/>
    </g>
    <g clip-path="url(#peb1f2a393c)">
     <use style="fill:#ffff99;" x="189.874377" xlink:href="#C2_0_072408d4c9" y="266.526332"/>
    </g>
    <g clip-path="url(#peb1f2a393c)">
     <use style="fill:#b15928;" x="189.984219" xlink:href="#C2_0_072408d4c9" y="283.988652"/>
    </g>
   </g>
   <g id="PathCollection_16">
    <defs>
     <path d="M 0 2.5 
C 0.663008 2.5 1.29895 2.236584 1.767767 1.767767 
C 2.236584 1.29895 2.5 0.663008 2.5 0 
C 2.5 -0.663008 2.236584 -1.29895 1.767767 -1.767767 
C 1.29895 -2.236584 0.663008 -2.5 0 -2.5 
C -0.663008 -2.5 -1.29895 -2.236584 -1.767767 -1.767767 
C -2.236584 -1.29895 -2.5 -0.663008 -2.5 0 
C -2.5 0.663008 -2.236584 1.29895 -1.767767 1.767767 
C -1.29895 2.236584 -0.663008 2.5 0 2.5 
z
" id="C3_0_401c9c164a"/>
    </defs>
    <g clip-path="url(#peb1f2a393c)">
     <use style="fill:#a6cee3;" x="247.564815" xlink:href="#C3_0_401c9c164a" y="161.092326"/>
    </g>
    <g clip-path="url(#peb1f2a393c)">
     <use style="fill:#1f78b4;" x="246.317665" xlink:href="#C3_0_401c9c164a" y="130.848308"/>
    </g>
    <g clip-path="url(#peb1f2a393c)">
     <use style="fill:#b2df8a;" x="249.436603" xlink:href="#C3_0_401c9c164a" y="262.14575"/>
    </g>
    <g clip-path="url(#peb1f2a393c)">
     <use style="fill:#33a02c;" x="251.226007" xlink:href="#C3_0_401c9c164a" y="269.766762"/>
    </g>
    <g clip-path="url(#peb1f2a393c)">
     <use style="fill:#fb9a99;" x="246.077271" xlink:href="#C3_0_401c9c164a" y="238.142561"/>
    </g>
    <g clip-path="url(#peb1f2a393c)">
     <use style="fill:#e31a1c;" x="250.38803" xlink:href="#C3_0_401c9c164a" y="282.908508"/>
    </g>
    <g clip-path="url(#peb1f2a393c)">
     <use style="fill:#fdbf6f;" x="243.169472" xlink:href="#C3_0_401c9c164a" y="266.88638"/>
    </g>
    <g clip-path="url(#peb1f2a393c)">
     <use style="fill:#ff7f00;" x="241.977902" xlink:href="#C3_0_401c9c164a" y="232.441804"/>
    </g>
    <g clip-path="url(#peb1f2a393c)">
     <use style="fill:#cab2d6;" x="244.915953" xlink:href="#C3_0_401c9c164a" y="287.409106"/>
    </g>
    <g clip-path="url(#peb1f2a393c)">
     <use style="fill:#6a3d9a;" x="241.619357" xlink:href="#C3_0_401c9c164a" y="202.797866"/>
    </g>
    <g clip-path="url(#peb1f2a393c)">
     <use style="fill:#ffff99;" x="250.72068" xlink:href="#C3_0_401c9c164a" y="272.287097"/>
    </g>
    <g clip-path="url(#peb1f2a393c)">
     <use style="fill:#b15928;" x="248.64636" xlink:href="#C3_0_401c9c164a" y="280.808229"/>
    </g>
   </g>
   <g id="PathCollection_17">
    <defs>
     <path d="M 0 2.5 
C 0.663008 2.5 1.29895 2.236584 1.767767 1.767767 
C 2.236584 1.29895 2.5 0.663008 2.5 0 
C 2.5 -0.663008 2.236584 -1.29895 1.767767 -1.767767 
C 1.29895 -2.236584 0.663008 -2.5 0 -2.5 
C -0.663008 -2.5 -1.29895 -2.236584 -1.767767 -1.767767 
C -2.236584 -1.29895 -2.5 -0.663008 -2.5 0 
C -2.5 0.663008 -2.236584 1.29895 -1.767767 1.767767 
C -1.29895 2.236584 -0.663008 2.5 0 2.5 
z
" id="C4_0_7c4cadcf22"/>
    </defs>
    <g clip-path="url(#peb1f2a393c)">
     <use style="fill:#a6cee3;" x="294.519657" xlink:href="#C4_0_7c4cadcf22" y="226.080959"/>
    </g>
    <g clip-path="url(#peb1f2a393c)">
     <use style="fill:#1f78b4;" x="299.671564" xlink:href="#C4_0_7c4cadcf22" y="220.500218"/>
    </g>
    <g clip-path="url(#peb1f2a393c)">
     <use style="fill:#b2df8a;" x="300.240379" xlink:href="#C4_0_7c4cadcf22" y="272.407113"/>
    </g>
    <g clip-path="url(#peb1f2a393c)">
     <use style="fill:#33a02c;" x="294.385318" xlink:href="#C4_0_7c4cadcf22" y="271.567001"/>
    </g>
    <g clip-path="url(#peb1f2a393c)">
     <use style="fill:#fb9a99;" x="304.324111" xlink:href="#C4_0_7c4cadcf22" y="253.624618"/>
    </g>
    <g clip-path="url(#peb1f2a393c)">
     <use style="fill:#e31a1c;" x="296.849775" xlink:href="#C4_0_7c4cadcf22" y="239.222705"/>
    </g>
    <g clip-path="url(#peb1f2a393c)">
     <use style="fill:#fdbf6f;" x="297.839646" xlink:href="#C4_0_7c4cadcf22" y="274.507392"/>
    </g>
    <g clip-path="url(#peb1f2a393c)">
     <use style="fill:#ff7f00;" x="302.073023" xlink:href="#C4_0_7c4cadcf22" y="262.44579"/>
    </g>
    <g clip-path="url(#peb1f2a393c)">
     <use style="fill:#6a3d9a;" x="299.714932" xlink:href="#C4_0_7c4cadcf22" y="244.503406"/>
    </g>
    <g clip-path="url(#peb1f2a393c)">
     <use style="fill:#ffff99;" x="294.612827" xlink:href="#C4_0_7c4cadcf22" y="280.328165"/>
    </g>
    <g clip-path="url(#peb1f2a393c)">
     <use style="fill:#b15928;" x="297.837856" xlink:href="#C4_0_7c4cadcf22" y="282.788492"/>
    </g>
   </g>
   <g id="PathCollection_18">
    <defs>
     <path d="M 0 2.5 
C 0.663008 2.5 1.29895 2.236584 1.767767 1.767767 
C 2.236584 1.29895 2.5 0.663008 2.5 0 
C 2.5 -0.663008 2.236584 -1.29895 1.767767 -1.767767 
C 1.29895 -2.236584 0.663008 -2.5 0 -2.5 
C -0.663008 -2.5 -1.29895 -2.236584 -1.767767 -1.767767 
C -2.236584 -1.29895 -2.5 -0.663008 -2.5 0 
C -2.5 0.663008 -2.236584 1.29895 -1.767767 1.767767 
C -1.29895 2.236584 -0.663008 2.5 0 2.5 
z
" id="C5_0_23c83a09c2"/>
    </defs>
    <g clip-path="url(#peb1f2a393c)">
     <use style="fill:#a6cee3;" x="350.039684" xlink:href="#C5_0_23c83a09c2" y="286.448978"/>
    </g>
    <g clip-path="url(#peb1f2a393c)">
     <use style="fill:#1f78b4;" x="354.970129" xlink:href="#C5_0_23c83a09c2" y="286.869034"/>
    </g>
    <g clip-path="url(#peb1f2a393c)">
     <use style="fill:#b2df8a;" x="355.312293" xlink:href="#C5_0_23c83a09c2" y="287.469114"/>
    </g>
    <g clip-path="url(#peb1f2a393c)">
     <use style="fill:#33a02c;" x="353.822821" xlink:href="#C5_0_23c83a09c2" y="286.568994"/>
    </g>
    <g clip-path="url(#peb1f2a393c)">
     <use style="fill:#fb9a99;" x="353.44821" xlink:href="#C5_0_23c83a09c2" y="287.049058"/>
    </g>
    <g clip-path="url(#peb1f2a393c)">
     <use style="fill:#e31a1c;" x="353.239438" xlink:href="#C5_0_23c83a09c2" y="277.927846"/>
    </g>
    <g clip-path="url(#peb1f2a393c)">
     <use style="fill:#fdbf6f;" x="351.661377" xlink:href="#C5_0_23c83a09c2" y="287.169074"/>
    </g>
    <g clip-path="url(#peb1f2a393c)">
     <use style="fill:#ff7f00;" x="351.9525" xlink:href="#C5_0_23c83a09c2" y="287.529122"/>
    </g>
    <g clip-path="url(#peb1f2a393c)">
     <use style="fill:#6a3d9a;" x="350.459125" xlink:href="#C5_0_23c83a09c2" y="286.328962"/>
    </g>
    <g clip-path="url(#peb1f2a393c)">
     <use style="fill:#ffff99;" x="350.655628" xlink:href="#C5_0_23c83a09c2" y="287.28909"/>
    </g>
    <g clip-path="url(#peb1f2a393c)">
     <use style="fill:#b15928;" x="356.643635" xlink:href="#C5_0_23c83a09c2" y="286.929042"/>
    </g>
   </g>
   <g id="text_16">
    <!-- y = no -->
    <defs>
     <path d="M 32.171875 -5.078125 
Q 28.375 -14.84375 24.75 -17.8125 
Q 21.140625 -20.796875 15.09375 -20.796875 
L 7.90625 -20.796875 
L 7.90625 -13.28125 
L 13.1875 -13.28125 
Q 16.890625 -13.28125 18.9375 -11.515625 
Q 21 -9.765625 23.484375 -3.21875 
L 25.09375 0.875 
L 2.984375 54.6875 
L 12.5 54.6875 
L 29.59375 11.921875 
L 46.6875 54.6875 
L 56.203125 54.6875 
z
" id="DejaVuSans-79"/>
     <path d="M 10.59375 45.40625 
L 73.1875 45.40625 
L 73.1875 37.203125 
L 10.59375 37.203125 
z
M 10.59375 25.484375 
L 73.1875 25.484375 
L 73.1875 17.1875 
L 10.59375 17.1875 
z
" id="DejaVuSans-3d"/>
    </defs>
    <g transform="translate(203.596712 18.8)scale(0.1 -0.1)">
     <use xlink:href="#DejaVuSans-79"/>
     <use x="59.179688" xlink:href="#DejaVuSans-20"/>
     <use x="90.966797" xlink:href="#DejaVuSans-3d"/>
     <use x="174.755859" xlink:href="#DejaVuSans-20"/>
     <use x="206.542969" xlink:href="#DejaVuSans-6e"/>
     <use x="269.921875" xlink:href="#DejaVuSans-6f"/>
    </g>
   </g>
  </g>
  <g id="axes_2">
   <g id="patch_5">
    <path d="M 395.842532 318.2 
L 711.7325 318.2 
L 711.7325 24.8 
L 395.842532 24.8 
z
" style="fill:#ffffff;"/>
   </g>
   <g id="PathCollection_19"/>
   <g id="PathCollection_20"/>
   <g id="PathCollection_21"/>
   <g id="PathCollection_22"/>
   <g id="PathCollection_23"/>
   <g id="PathCollection_24"/>
   <g id="PathCollection_25"/>
   <g id="PathCollection_26"/>
   <g id="PathCollection_27"/>
   <g id="PathCollection_28"/>
   <g id="PathCollection_29"/>
   <g id="PathCollection_30"/>
   <g id="matplotlib.axis_3">
    <g id="xtick_7">
     <g id="line2d_14">
      <g>
       <use style="stroke:#000000;stroke-width:0.8;" x="422.166696" xlink:href="#m7e0a8f7b63" y="318.2"/>
      </g>
     </g>
     <g id="text_17">
      <!-- (10, 20] -->
      <g transform="translate(402.362008 332.798438)scale(0.1 -0.1)">
       <use xlink:href="#DejaVuSans-28"/>
       <use x="39.013672" xlink:href="#DejaVuSans-31"/>
       <use x="102.636719" xlink:href="#DejaVuSans-30"/>
       <use x="166.259766" xlink:href="#DejaVuSans-2c"/>
       <use x="198.046875" xlink:href="#DejaVuSans-20"/>
       <use x="229.833984" xlink:href="#DejaVuSans-32"/>
       <use x="293.457031" xlink:href="#DejaVuSans-30"/>
       <use x="357.080078" xlink:href="#DejaVuSans-5d"/>
      </g>
     </g>
    </g>
    <g id="xtick_8">
     <g id="line2d_15">
      <g>
       <use style="stroke:#000000;stroke-width:0.8;" x="474.815024" xlink:href="#m7e0a8f7b63" y="318.2"/>
      </g>
     </g>
     <g id="text_18">
      <!-- (20, 30] -->
      <g transform="translate(455.010336 332.798438)scale(0.1 -0.1)">
       <use xlink:href="#DejaVuSans-28"/>
       <use x="39.013672" xlink:href="#DejaVuSans-32"/>
       <use x="102.636719" xlink:href="#DejaVuSans-30"/>
       <use x="166.259766" xlink:href="#DejaVuSans-2c"/>
       <use x="198.046875" xlink:href="#DejaVuSans-20"/>
       <use x="229.833984" xlink:href="#DejaVuSans-33"/>
       <use x="293.457031" xlink:href="#DejaVuSans-30"/>
       <use x="357.080078" xlink:href="#DejaVuSans-5d"/>
      </g>
     </g>
    </g>
    <g id="xtick_9">
     <g id="line2d_16">
      <g>
       <use style="stroke:#000000;stroke-width:0.8;" x="527.463352" xlink:href="#m7e0a8f7b63" y="318.2"/>
      </g>
     </g>
     <g id="text_19">
      <!-- (30, 40] -->
      <g transform="translate(507.658664 332.798438)scale(0.1 -0.1)">
       <use xlink:href="#DejaVuSans-28"/>
       <use x="39.013672" xlink:href="#DejaVuSans-33"/>
       <use x="102.636719" xlink:href="#DejaVuSans-30"/>
       <use x="166.259766" xlink:href="#DejaVuSans-2c"/>
       <use x="198.046875" xlink:href="#DejaVuSans-20"/>
       <use x="229.833984" xlink:href="#DejaVuSans-34"/>
       <use x="293.457031" xlink:href="#DejaVuSans-30"/>
       <use x="357.080078" xlink:href="#DejaVuSans-5d"/>
      </g>
     </g>
    </g>
    <g id="xtick_10">
     <g id="line2d_17">
      <g>
       <use style="stroke:#000000;stroke-width:0.8;" x="580.11168" xlink:href="#m7e0a8f7b63" y="318.2"/>
      </g>
     </g>
     <g id="text_20">
      <!-- (40, 50] -->
      <g transform="translate(560.306992 332.798438)scale(0.1 -0.1)">
       <use xlink:href="#DejaVuSans-28"/>
       <use x="39.013672" xlink:href="#DejaVuSans-34"/>
       <use x="102.636719" xlink:href="#DejaVuSans-30"/>
       <use x="166.259766" xlink:href="#DejaVuSans-2c"/>
       <use x="198.046875" xlink:href="#DejaVuSans-20"/>
       <use x="229.833984" xlink:href="#DejaVuSans-35"/>
       <use x="293.457031" xlink:href="#DejaVuSans-30"/>
       <use x="357.080078" xlink:href="#DejaVuSans-5d"/>
      </g>
     </g>
    </g>
    <g id="xtick_11">
     <g id="line2d_18">
      <g>
       <use style="stroke:#000000;stroke-width:0.8;" x="632.760008" xlink:href="#m7e0a8f7b63" y="318.2"/>
      </g>
     </g>
     <g id="text_21">
      <!-- (50, 60] -->
      <g transform="translate(612.95532 332.798438)scale(0.1 -0.1)">
       <use xlink:href="#DejaVuSans-28"/>
       <use x="39.013672" xlink:href="#DejaVuSans-35"/>
       <use x="102.636719" xlink:href="#DejaVuSans-30"/>
       <use x="166.259766" xlink:href="#DejaVuSans-2c"/>
       <use x="198.046875" xlink:href="#DejaVuSans-20"/>
       <use x="229.833984" xlink:href="#DejaVuSans-36"/>
       <use x="293.457031" xlink:href="#DejaVuSans-30"/>
       <use x="357.080078" xlink:href="#DejaVuSans-5d"/>
      </g>
     </g>
    </g>
    <g id="xtick_12">
     <g id="line2d_19">
      <g>
       <use style="stroke:#000000;stroke-width:0.8;" x="685.408336" xlink:href="#m7e0a8f7b63" y="318.2"/>
      </g>
     </g>
     <g id="text_22">
      <!-- (60, 70] -->
      <g transform="translate(665.603648 332.798438)scale(0.1 -0.1)">
       <use xlink:href="#DejaVuSans-28"/>
       <use x="39.013672" xlink:href="#DejaVuSans-36"/>
       <use x="102.636719" xlink:href="#DejaVuSans-30"/>
       <use x="166.259766" xlink:href="#DejaVuSans-2c"/>
       <use x="198.046875" xlink:href="#DejaVuSans-20"/>
       <use x="229.833984" xlink:href="#DejaVuSans-37"/>
       <use x="293.457031" xlink:href="#DejaVuSans-30"/>
       <use x="357.080078" xlink:href="#DejaVuSans-5d"/>
      </g>
     </g>
    </g>
    <g id="text_23">
     <!-- age_group -->
     <g transform="translate(527.342203 346.198438)scale(0.1 -0.1)">
      <use xlink:href="#DejaVuSans-61"/>
      <use x="61.279297" xlink:href="#DejaVuSans-67"/>
      <use x="124.755859" xlink:href="#DejaVuSans-65"/>
      <use x="186.279297" xlink:href="#DejaVuSans-5f"/>
      <use x="236.279297" xlink:href="#DejaVuSans-67"/>
      <use x="299.755859" xlink:href="#DejaVuSans-72"/>
      <use x="340.837891" xlink:href="#DejaVuSans-6f"/>
      <use x="402.019531" xlink:href="#DejaVuSans-75"/>
      <use x="465.398438" xlink:href="#DejaVuSans-70"/>
     </g>
    </g>
   </g>
   <g id="matplotlib.axis_4">
    <g id="ytick_8">
     <g id="line2d_20">
      <g>
       <use style="stroke:#000000;stroke-width:0.8;" x="395.842532" xlink:href="#mb8c59053b9" y="287.649138"/>
      </g>
     </g>
    </g>
    <g id="ytick_9">
     <g id="line2d_21">
      <g>
       <use style="stroke:#000000;stroke-width:0.8;" x="395.842532" xlink:href="#mb8c59053b9" y="243.785711"/>
      </g>
     </g>
    </g>
    <g id="ytick_10">
     <g id="line2d_22">
      <g>
       <use style="stroke:#000000;stroke-width:0.8;" x="395.842532" xlink:href="#mb8c59053b9" y="199.922284"/>
      </g>
     </g>
    </g>
    <g id="ytick_11">
     <g id="line2d_23">
      <g>
       <use style="stroke:#000000;stroke-width:0.8;" x="395.842532" xlink:href="#mb8c59053b9" y="156.058857"/>
      </g>
     </g>
    </g>
    <g id="ytick_12">
     <g id="line2d_24">
      <g>
       <use style="stroke:#000000;stroke-width:0.8;" x="395.842532" xlink:href="#mb8c59053b9" y="112.19543"/>
      </g>
     </g>
    </g>
    <g id="ytick_13">
     <g id="line2d_25">
      <g>
       <use style="stroke:#000000;stroke-width:0.8;" x="395.842532" xlink:href="#mb8c59053b9" y="68.332003"/>
      </g>
     </g>
    </g>
    <g id="ytick_14">
     <g id="line2d_26">
      <g>
       <use style="stroke:#000000;stroke-width:0.8;" x="395.842532" xlink:href="#mb8c59053b9" y="24.468576"/>
      </g>
     </g>
    </g>
   </g>
   <g id="patch_6">
    <path d="M 395.842532 318.2 
L 395.842532 24.8 
" style="fill:none;stroke:#000000;stroke-linecap:square;stroke-linejoin:miter;stroke-width:0.8;"/>
   </g>
   <g id="patch_7">
    <path d="M 395.842532 318.2 
L 711.7325 318.2 
" style="fill:none;stroke:#000000;stroke-linecap:square;stroke-linejoin:miter;stroke-width:0.8;"/>
   </g>
   <g id="PathCollection_31">
    <defs>
     <path d="M 0 2.5 
C 0.663008 2.5 1.29895 2.236584 1.767767 1.767767 
C 2.236584 1.29895 2.5 0.663008 2.5 0 
C 2.5 -0.663008 2.236584 -1.29895 1.767767 -1.767767 
C 1.29895 -2.236584 0.663008 -2.5 0 -2.5 
C -0.663008 -2.5 -1.29895 -2.236584 -1.767767 -1.767767 
C -2.236584 -1.29895 -2.5 -0.663008 -2.5 0 
C -2.5 0.663008 -2.236584 1.29895 -1.767767 1.767767 
C -1.29895 2.236584 -0.663008 2.5 0 2.5 
z
" id="C6_0_6e628e07e5"/>
    </defs>
    <g clip-path="url(#pcda79c7367)">
     <use style="fill:#cab2d6;" x="422.269825" xlink:href="#C6_0_6e628e07e5" y="261.652495"/>
    </g>
    <g clip-path="url(#pcda79c7367)">
     <use style="fill:#6a3d9a;" x="419.179098" xlink:href="#C6_0_6e628e07e5" y="286.703805"/>
    </g>
   </g>
   <g id="PathCollection_32">
    <defs>
     <path d="M 0 2.5 
C 0.663008 2.5 1.29895 2.236584 1.767767 1.767767 
C 2.236584 1.29895 2.5 0.663008 2.5 0 
C 2.5 -0.663008 2.236584 -1.29895 1.767767 -1.767767 
C 1.29895 -2.236584 0.663008 -2.5 0 -2.5 
C -0.663008 -2.5 -1.29895 -2.236584 -1.767767 -1.767767 
C -2.236584 -1.29895 -2.5 -0.663008 -2.5 0 
C -2.5 0.663008 -2.236584 1.29895 -1.767767 1.767767 
C -1.29895 2.236584 -0.663008 2.5 0 2.5 
z
" id="C7_0_2e20a22729"/>
    </defs>
    <g clip-path="url(#pcda79c7367)">
     <use style="fill:#a6cee3;" x="475.441814" xlink:href="#C7_0_2e20a22729" y="113.707962"/>
    </g>
    <g clip-path="url(#pcda79c7367)">
     <use style="fill:#1f78b4;" x="469.795665" xlink:href="#C7_0_2e20a22729" y="230.456523"/>
    </g>
    <g clip-path="url(#pcda79c7367)">
     <use style="fill:#b2df8a;" x="477.145541" xlink:href="#C7_0_2e20a22729" y="281.03181"/>
    </g>
    <g clip-path="url(#pcda79c7367)">
     <use style="fill:#33a02c;" x="472.04493" xlink:href="#C7_0_2e20a22729" y="285.285807"/>
    </g>
    <g clip-path="url(#pcda79c7367)">
     <use style="fill:#fb9a99;" x="472.351929" xlink:href="#C7_0_2e20a22729" y="269.215154"/>
    </g>
    <g clip-path="url(#pcda79c7367)">
     <use style="fill:#fdbf6f;" x="473.324934" xlink:href="#C7_0_2e20a22729" y="268.742488"/>
    </g>
    <g clip-path="url(#pcda79c7367)">
     <use style="fill:#ff7f00;" x="474.738473" xlink:href="#C7_0_2e20a22729" y="244.63651"/>
    </g>
    <g clip-path="url(#pcda79c7367)">
     <use style="fill:#cab2d6;" x="475.038077" xlink:href="#C7_0_2e20a22729" y="198.315219"/>
    </g>
    <g clip-path="url(#pcda79c7367)">
     <use style="fill:#6a3d9a;" x="477.605086" xlink:href="#C7_0_2e20a22729" y="213.913205"/>
    </g>
    <g clip-path="url(#pcda79c7367)">
     <use style="fill:#ffff99;" x="471.694937" xlink:href="#C7_0_2e20a22729" y="271.105819"/>
    </g>
    <g clip-path="url(#pcda79c7367)">
     <use style="fill:#b15928;" x="475.581905" xlink:href="#C7_0_2e20a22729" y="283.395142"/>
    </g>
   </g>
   <g id="PathCollection_33">
    <defs>
     <path d="M 0 2.5 
C 0.663008 2.5 1.29895 2.236584 1.767767 1.767767 
C 2.236584 1.29895 2.5 0.663008 2.5 0 
C 2.5 -0.663008 2.236584 -1.29895 1.767767 -1.767767 
C 1.29895 -2.236584 0.663008 -2.5 0 -2.5 
C -0.663008 -2.5 -1.29895 -2.236584 -1.767767 -1.767767 
C -2.236584 -1.29895 -2.5 -0.663008 -2.5 0 
C -2.5 0.663008 -2.236584 1.29895 -1.767767 1.767767 
C -1.29895 2.236584 -0.663008 2.5 0 2.5 
z
" id="C8_0_824868cef7"/>
    </defs>
    <g clip-path="url(#pcda79c7367)">
     <use style="fill:#a6cee3;" x="528.155184" xlink:href="#C8_0_824868cef7" y="40.444695"/>
    </g>
    <g clip-path="url(#pcda79c7367)">
     <use style="fill:#1f78b4;" x="528.534336" xlink:href="#C8_0_824868cef7" y="167.591913"/>
    </g>
    <g clip-path="url(#pcda79c7367)">
     <use style="fill:#b2df8a;" x="529.105347" xlink:href="#C8_0_824868cef7" y="266.379157"/>
    </g>
    <g clip-path="url(#pcda79c7367)">
     <use style="fill:#33a02c;" x="527.240913" xlink:href="#C8_0_824868cef7" y="278.195813"/>
    </g>
    <g clip-path="url(#pcda79c7367)">
     <use style="fill:#fb9a99;" x="522.800301" xlink:href="#C8_0_824868cef7" y="228.565858"/>
    </g>
    <g clip-path="url(#pcda79c7367)">
     <use style="fill:#e31a1c;" x="523.233871" xlink:href="#C8_0_824868cef7" y="286.703805"/>
    </g>
    <g clip-path="url(#pcda79c7367)">
     <use style="fill:#fdbf6f;" x="528.983605" xlink:href="#C8_0_824868cef7" y="261.179828"/>
    </g>
    <g clip-path="url(#pcda79c7367)">
     <use style="fill:#ff7f00;" x="524.05907" xlink:href="#C8_0_824868cef7" y="223.839196"/>
    </g>
    <g clip-path="url(#pcda79c7367)">
     <use style="fill:#cab2d6;" x="531.54764" xlink:href="#C8_0_824868cef7" y="273.941817"/>
    </g>
    <g clip-path="url(#pcda79c7367)">
     <use style="fill:#6a3d9a;" x="527.26144" xlink:href="#C8_0_824868cef7" y="123.161287"/>
    </g>
    <g clip-path="url(#pcda79c7367)">
     <use style="fill:#ffff99;" x="523.928384" xlink:href="#C8_0_824868cef7" y="262.125161"/>
    </g>
    <g clip-path="url(#pcda79c7367)">
     <use style="fill:#b15928;" x="531.144749" xlink:href="#C8_0_824868cef7" y="284.81314"/>
    </g>
   </g>
   <g id="PathCollection_34">
    <defs>
     <path d="M 0 2.5 
C 0.663008 2.5 1.29895 2.236584 1.767767 1.767767 
C 2.236584 1.29895 2.5 0.663008 2.5 0 
C 2.5 -0.663008 2.236584 -1.29895 1.767767 -1.767767 
C 1.29895 -2.236584 0.663008 -2.5 0 -2.5 
C -0.663008 -2.5 -1.29895 -2.236584 -1.767767 -1.767767 
C -2.236584 -1.29895 -2.5 -0.663008 -2.5 0 
C -2.5 0.663008 -2.236584 1.29895 -1.767767 1.767767 
C -1.29895 2.236584 -0.663008 2.5 0 2.5 
z
" id="C9_0_2a931e060b"/>
    </defs>
    <g clip-path="url(#pcda79c7367)">
     <use style="fill:#a6cee3;" x="583.746898" xlink:href="#C9_0_2a931e060b" y="162.865251"/>
    </g>
    <g clip-path="url(#pcda79c7367)">
     <use style="fill:#1f78b4;" x="584.41722" xlink:href="#C9_0_2a931e060b" y="210.604541"/>
    </g>
    <g clip-path="url(#pcda79c7367)">
     <use style="fill:#b2df8a;" x="578.109226" xlink:href="#C9_0_2a931e060b" y="268.269822"/>
    </g>
    <g clip-path="url(#pcda79c7367)">
     <use style="fill:#33a02c;" x="576.085641" xlink:href="#C9_0_2a931e060b" y="276.305148"/>
    </g>
    <g clip-path="url(#pcda79c7367)">
     <use style="fill:#fb9a99;" x="575.887251" xlink:href="#C9_0_2a931e060b" y="252.671836"/>
    </g>
    <g clip-path="url(#pcda79c7367)">
     <use style="fill:#e31a1c;" x="577.711415" xlink:href="#C9_0_2a931e060b" y="284.81314"/>
    </g>
    <g clip-path="url(#pcda79c7367)">
     <use style="fill:#fdbf6f;" x="576.015449" xlink:href="#C9_0_2a931e060b" y="271.578486"/>
    </g>
    <g clip-path="url(#pcda79c7367)">
     <use style="fill:#ff7f00;" x="584.16025" xlink:href="#C9_0_2a931e060b" y="255.507834"/>
    </g>
    <g clip-path="url(#pcda79c7367)">
     <use style="fill:#cab2d6;" x="582.19389" xlink:href="#C9_0_2a931e060b" y="286.703805"/>
    </g>
    <g clip-path="url(#pcda79c7367)">
     <use style="fill:#6a3d9a;" x="580.709242" xlink:href="#C9_0_2a931e060b" y="228.093192"/>
    </g>
    <g clip-path="url(#pcda79c7367)">
     <use style="fill:#ffff99;" x="577.492114" xlink:href="#C9_0_2a931e060b" y="273.941817"/>
    </g>
    <g clip-path="url(#pcda79c7367)">
     <use style="fill:#b15928;" x="583.220138" xlink:href="#C9_0_2a931e060b" y="284.81314"/>
    </g>
   </g>
   <g id="PathCollection_35">
    <defs>
     <path d="M 0 2.5 
C 0.663008 2.5 1.29895 2.236584 1.767767 1.767767 
C 2.236584 1.29895 2.5 0.663008 2.5 0 
C 2.5 -0.663008 2.236584 -1.29895 1.767767 -1.767767 
C 1.29895 -2.236584 0.663008 -2.5 0 -2.5 
C -0.663008 -2.5 -1.29895 -2.236584 -1.767767 -1.767767 
C -2.236584 -1.29895 -2.5 -0.663008 -2.5 0 
C -2.5 0.663008 -2.236584 1.29895 -1.767767 1.767767 
C -1.29895 2.236584 -0.663008 2.5 0 2.5 
z
" id="Ca_0_efa297b60d"/>
    </defs>
    <g clip-path="url(#pcda79c7367)">
     <use style="fill:#a6cee3;" x="635.08204" xlink:href="#Ca_0_efa297b60d" y="206.350545"/>
    </g>
    <g clip-path="url(#pcda79c7367)">
     <use style="fill:#1f78b4;" x="627.773705" xlink:href="#Ca_0_efa297b60d" y="242.745845"/>
    </g>
    <g clip-path="url(#pcda79c7367)">
     <use style="fill:#b2df8a;" x="634.04226" xlink:href="#Ca_0_efa297b60d" y="278.668479"/>
    </g>
    <g clip-path="url(#pcda79c7367)">
     <use style="fill:#33a02c;" x="636.313034" xlink:href="#Ca_0_efa297b60d" y="273.469151"/>
    </g>
    <g clip-path="url(#pcda79c7367)">
     <use style="fill:#fb9a99;" x="632.802233" xlink:href="#Ca_0_efa297b60d" y="253.617169"/>
    </g>
    <g clip-path="url(#pcda79c7367)">
     <use style="fill:#e31a1c;" x="628.164323" xlink:href="#Ca_0_efa297b60d" y="234.237853"/>
    </g>
    <g clip-path="url(#pcda79c7367)">
     <use style="fill:#fdbf6f;" x="636.646502" xlink:href="#Ca_0_efa297b60d" y="278.668479"/>
    </g>
    <g clip-path="url(#pcda79c7367)">
     <use style="fill:#ff7f00;" x="629.344162" xlink:href="#Ca_0_efa297b60d" y="273.941817"/>
    </g>
    <g clip-path="url(#pcda79c7367)">
     <use style="fill:#6a3d9a;" x="629.682407" xlink:href="#Ca_0_efa297b60d" y="246.999841"/>
    </g>
    <g clip-path="url(#pcda79c7367)">
     <use style="fill:#ffff99;" x="629.520611" xlink:href="#Ca_0_efa297b60d" y="275.832482"/>
    </g>
    <g clip-path="url(#pcda79c7367)">
     <use style="fill:#b15928;" x="635.835919" xlink:href="#Ca_0_efa297b60d" y="283.867808"/>
    </g>
   </g>
   <g id="PathCollection_36">
    <defs>
     <path d="M 0 2.5 
C 0.663008 2.5 1.29895 2.236584 1.767767 1.767767 
C 2.236584 1.29895 2.5 0.663008 2.5 0 
C 2.5 -0.663008 2.236584 -1.29895 1.767767 -1.767767 
C 1.29895 -2.236584 0.663008 -2.5 0 -2.5 
C -0.663008 -2.5 -1.29895 -2.236584 -1.767767 -1.767767 
C -2.236584 -1.29895 -2.5 -0.663008 -2.5 0 
C -2.5 0.663008 -2.236584 1.29895 -1.767767 1.767767 
C -1.29895 2.236584 -0.663008 2.5 0 2.5 
z
" id="Cb_0_a379ec2ba4"/>
    </defs>
    <g clip-path="url(#pcda79c7367)">
     <use style="fill:#a6cee3;" x="686.677941" xlink:href="#Cb_0_a379ec2ba4" y="276.777814"/>
    </g>
    <g clip-path="url(#pcda79c7367)">
     <use style="fill:#1f78b4;" x="682.461233" xlink:href="#Cb_0_a379ec2ba4" y="285.285807"/>
    </g>
    <g clip-path="url(#pcda79c7367)">
     <use style="fill:#b2df8a;" x="681.923923" xlink:href="#Cb_0_a379ec2ba4" y="285.285807"/>
    </g>
    <g clip-path="url(#pcda79c7367)">
     <use style="fill:#33a02c;" x="683.081178" xlink:href="#Cb_0_a379ec2ba4" y="280.559144"/>
    </g>
    <g clip-path="url(#pcda79c7367)">
     <use style="fill:#fb9a99;" x="684.958203" xlink:href="#Cb_0_a379ec2ba4" y="281.03181"/>
    </g>
    <g clip-path="url(#pcda79c7367)">
     <use style="fill:#e31a1c;" x="688.661806" xlink:href="#Cb_0_a379ec2ba4" y="224.311862"/>
    </g>
    <g clip-path="url(#pcda79c7367)">
     <use style="fill:#6a3d9a;" x="684.71153" xlink:href="#Cb_0_a379ec2ba4" y="281.977143"/>
    </g>
    <g clip-path="url(#pcda79c7367)">
     <use style="fill:#ffff99;" x="686.595988" xlink:href="#Cb_0_a379ec2ba4" y="287.176472"/>
    </g>
    <g clip-path="url(#pcda79c7367)">
     <use style="fill:#b15928;" x="680.296491" xlink:href="#Cb_0_a379ec2ba4" y="286.231139"/>
    </g>
   </g>
   <g id="text_24">
    <!-- y = yes -->
    <defs>
     <path d="M 44.28125 53.078125 
L 44.28125 44.578125 
Q 40.484375 46.53125 36.375 47.5 
Q 32.28125 48.484375 27.875 48.484375 
Q 21.1875 48.484375 17.84375 46.4375 
Q 14.5 44.390625 14.5 40.28125 
Q 14.5 37.15625 16.890625 35.375 
Q 19.28125 33.59375 26.515625 31.984375 
L 29.59375 31.296875 
Q 39.15625 29.25 43.1875 25.515625 
Q 47.21875 21.78125 47.21875 15.09375 
Q 47.21875 7.46875 41.1875 3.015625 
Q 35.15625 -1.421875 24.609375 -1.421875 
Q 20.21875 -1.421875 15.453125 -0.5625 
Q 10.6875 0.296875 5.421875 2 
L 5.421875 11.28125 
Q 10.40625 8.6875 15.234375 7.390625 
Q 20.0625 6.109375 24.8125 6.109375 
Q 31.15625 6.109375 34.5625 8.28125 
Q 37.984375 10.453125 37.984375 14.40625 
Q 37.984375 18.0625 35.515625 20.015625 
Q 33.0625 21.96875 24.703125 23.78125 
L 21.578125 24.515625 
Q 13.234375 26.265625 9.515625 29.90625 
Q 5.8125 33.546875 5.8125 39.890625 
Q 5.8125 47.609375 11.28125 51.796875 
Q 16.75 56 26.8125 56 
Q 31.78125 56 36.171875 55.265625 
Q 40.578125 54.546875 44.28125 53.078125 
z
" id="DejaVuSans-73"/>
    </defs>
    <g transform="translate(534.819547 18.8)scale(0.1 -0.1)">
     <use xlink:href="#DejaVuSans-79"/>
     <use x="59.179688" xlink:href="#DejaVuSans-20"/>
     <use x="90.966797" xlink:href="#DejaVuSans-3d"/>
     <use x="174.755859" xlink:href="#DejaVuSans-20"/>
     <use x="206.542969" xlink:href="#DejaVuSans-79"/>
     <use x="265.722656" xlink:href="#DejaVuSans-65"/>
     <use x="327.246094" xlink:href="#DejaVuSans-73"/>
    </g>
   </g>
  </g>
  <g id="legend_1">
   <g id="text_25">
    <!-- job -->
    <defs>
     <path d="M 9.421875 54.6875 
L 18.40625 54.6875 
L 18.40625 -0.984375 
Q 18.40625 -11.421875 14.421875 -16.109375 
Q 10.453125 -20.796875 1.609375 -20.796875 
L -1.8125 -20.796875 
L -1.8125 -13.1875 
L 0.59375 -13.1875 
Q 5.71875 -13.1875 7.5625 -10.8125 
Q 9.421875 -8.453125 9.421875 -0.984375 
z
M 9.421875 75.984375 
L 18.40625 75.984375 
L 18.40625 64.59375 
L 9.421875 64.59375 
z
" id="DejaVuSans-6a"/>
     <path d="M 48.6875 27.296875 
Q 48.6875 37.203125 44.609375 42.84375 
Q 40.53125 48.484375 33.40625 48.484375 
Q 26.265625 48.484375 22.1875 42.84375 
Q 18.109375 37.203125 18.109375 27.296875 
Q 18.109375 17.390625 22.1875 11.75 
Q 26.265625 6.109375 33.40625 6.109375 
Q 40.53125 6.109375 44.609375 11.75 
Q 48.6875 17.390625 48.6875 27.296875 
z
M 18.109375 46.390625 
Q 20.953125 51.265625 25.265625 53.625 
Q 29.59375 56 35.59375 56 
Q 45.5625 56 51.78125 48.09375 
Q 58.015625 40.1875 58.015625 27.296875 
Q 58.015625 14.40625 51.78125 6.484375 
Q 45.5625 -1.421875 35.59375 -1.421875 
Q 29.59375 -1.421875 25.265625 0.953125 
Q 20.953125 3.328125 18.109375 8.203125 
L 18.109375 0 
L 9.078125 0 
L 9.078125 75.984375 
L 18.109375 75.984375 
z
" id="DejaVuSans-62"/>
    </defs>
    <g transform="translate(760.717188 94.690625)scale(0.1 -0.1)">
     <use xlink:href="#DejaVuSans-6a"/>
     <use x="27.783203" xlink:href="#DejaVuSans-6f"/>
     <use x="88.964844" xlink:href="#DejaVuSans-62"/>
    </g>
   </g>
   <g id="PathCollection_37">
    <defs>
     <path d="M 0 3.872983 
C 1.027127 3.872983 2.012324 3.464901 2.738613 2.738613 
C 3.464901 2.012324 3.872983 1.027127 3.872983 0 
C 3.872983 -1.027127 3.464901 -2.012324 2.738613 -2.738613 
C 2.012324 -3.464901 1.027127 -3.872983 0 -3.872983 
C -1.027127 -3.872983 -2.012324 -3.464901 -2.738613 -2.738613 
C -3.464901 -2.012324 -3.872983 -1.027127 -3.872983 0 
C -3.872983 1.027127 -3.464901 2.012324 -2.738613 2.738613 
C -2.012324 3.464901 -1.027127 3.872983 0 3.872983 
z
" id="m0c86773428" style="stroke:#a6cee3;"/>
    </defs>
    <g>
     <use style="fill:#a6cee3;stroke:#a6cee3;" x="728.929688" xlink:href="#m0c86773428" y="106.74375"/>
    </g>
   </g>
   <g id="text_26">
    <!-- admin. -->
    <defs>
     <path d="M 45.40625 46.390625 
L 45.40625 75.984375 
L 54.390625 75.984375 
L 54.390625 0 
L 45.40625 0 
L 45.40625 8.203125 
Q 42.578125 3.328125 38.25 0.953125 
Q 33.9375 -1.421875 27.875 -1.421875 
Q 17.96875 -1.421875 11.734375 6.484375 
Q 5.515625 14.40625 5.515625 27.296875 
Q 5.515625 40.1875 11.734375 48.09375 
Q 17.96875 56 27.875 56 
Q 33.9375 56 38.25 53.625 
Q 42.578125 51.265625 45.40625 46.390625 
z
M 14.796875 27.296875 
Q 14.796875 17.390625 18.875 11.75 
Q 22.953125 6.109375 30.078125 6.109375 
Q 37.203125 6.109375 41.296875 11.75 
Q 45.40625 17.390625 45.40625 27.296875 
Q 45.40625 37.203125 41.296875 42.84375 
Q 37.203125 48.484375 30.078125 48.484375 
Q 22.953125 48.484375 18.875 42.84375 
Q 14.796875 37.203125 14.796875 27.296875 
z
" id="DejaVuSans-64"/>
     <path d="M 52 44.1875 
Q 55.375 50.25 60.0625 53.125 
Q 64.75 56 71.09375 56 
Q 79.640625 56 84.28125 50.015625 
Q 88.921875 44.046875 88.921875 33.015625 
L 88.921875 0 
L 79.890625 0 
L 79.890625 32.71875 
Q 79.890625 40.578125 77.09375 44.375 
Q 74.3125 48.1875 68.609375 48.1875 
Q 61.625 48.1875 57.5625 43.546875 
Q 53.515625 38.921875 53.515625 30.90625 
L 53.515625 0 
L 44.484375 0 
L 44.484375 32.71875 
Q 44.484375 40.625 41.703125 44.40625 
Q 38.921875 48.1875 33.109375 48.1875 
Q 26.21875 48.1875 22.15625 43.53125 
Q 18.109375 38.875 18.109375 30.90625 
L 18.109375 0 
L 9.078125 0 
L 9.078125 54.6875 
L 18.109375 54.6875 
L 18.109375 46.1875 
Q 21.1875 51.21875 25.484375 53.609375 
Q 29.78125 56 35.6875 56 
Q 41.65625 56 45.828125 52.96875 
Q 50 49.953125 52 44.1875 
z
" id="DejaVuSans-6d"/>
     <path d="M 9.421875 54.6875 
L 18.40625 54.6875 
L 18.40625 0 
L 9.421875 0 
z
M 9.421875 75.984375 
L 18.40625 75.984375 
L 18.40625 64.59375 
L 9.421875 64.59375 
z
" id="DejaVuSans-69"/>
    </defs>
    <g transform="translate(746.929688 109.36875)scale(0.1 -0.1)">
     <use xlink:href="#DejaVuSans-61"/>
     <use x="61.279297" xlink:href="#DejaVuSans-64"/>
     <use x="124.755859" xlink:href="#DejaVuSans-6d"/>
     <use x="222.167969" xlink:href="#DejaVuSans-69"/>
     <use x="249.951172" xlink:href="#DejaVuSans-6e"/>
     <use x="313.330078" xlink:href="#DejaVuSans-2e"/>
    </g>
   </g>
   <g id="PathCollection_38">
    <defs>
     <path d="M 0 3.872983 
C 1.027127 3.872983 2.012324 3.464901 2.738613 2.738613 
C 3.464901 2.012324 3.872983 1.027127 3.872983 0 
C 3.872983 -1.027127 3.464901 -2.012324 2.738613 -2.738613 
C 2.012324 -3.464901 1.027127 -3.872983 0 -3.872983 
C -1.027127 -3.872983 -2.012324 -3.464901 -2.738613 -2.738613 
C -3.464901 -2.012324 -3.872983 -1.027127 -3.872983 0 
C -3.872983 1.027127 -3.464901 2.012324 -2.738613 2.738613 
C -2.012324 3.464901 -1.027127 3.872983 0 3.872983 
z
" id="m51b62172b8" style="stroke:#1f78b4;"/>
    </defs>
    <g>
     <use style="fill:#1f78b4;stroke:#1f78b4;" x="728.929688" xlink:href="#m51b62172b8" y="121.421875"/>
    </g>
   </g>
   <g id="text_27">
    <!-- blue-collar -->
    <defs>
     <path d="M 9.421875 75.984375 
L 18.40625 75.984375 
L 18.40625 0 
L 9.421875 0 
z
" id="DejaVuSans-6c"/>
     <path d="M 4.890625 31.390625 
L 31.203125 31.390625 
L 31.203125 23.390625 
L 4.890625 23.390625 
z
" id="DejaVuSans-2d"/>
    </defs>
    <g transform="translate(746.929688 124.046875)scale(0.1 -0.1)">
     <use xlink:href="#DejaVuSans-62"/>
     <use x="63.476562" xlink:href="#DejaVuSans-6c"/>
     <use x="91.259766" xlink:href="#DejaVuSans-75"/>
     <use x="154.638672" xlink:href="#DejaVuSans-65"/>
     <use x="216.162109" xlink:href="#DejaVuSans-2d"/>
     <use x="252.246094" xlink:href="#DejaVuSans-63"/>
     <use x="307.226562" xlink:href="#DejaVuSans-6f"/>
     <use x="368.408203" xlink:href="#DejaVuSans-6c"/>
     <use x="396.191406" xlink:href="#DejaVuSans-6c"/>
     <use x="423.974609" xlink:href="#DejaVuSans-61"/>
     <use x="485.253906" xlink:href="#DejaVuSans-72"/>
    </g>
   </g>
   <g id="PathCollection_39">
    <defs>
     <path d="M 0 3.872983 
C 1.027127 3.872983 2.012324 3.464901 2.738613 2.738613 
C 3.464901 2.012324 3.872983 1.027127 3.872983 0 
C 3.872983 -1.027127 3.464901 -2.012324 2.738613 -2.738613 
C 2.012324 -3.464901 1.027127 -3.872983 0 -3.872983 
C -1.027127 -3.872983 -2.012324 -3.464901 -2.738613 -2.738613 
C -3.464901 -2.012324 -3.872983 -1.027127 -3.872983 0 
C -3.872983 1.027127 -3.464901 2.012324 -2.738613 2.738613 
C -2.012324 3.464901 -1.027127 3.872983 0 3.872983 
z
" id="ma2fdbe1ca5" style="stroke:#b2df8a;"/>
    </defs>
    <g>
     <use style="fill:#b2df8a;stroke:#b2df8a;" x="728.929688" xlink:href="#ma2fdbe1ca5" y="136.1"/>
    </g>
   </g>
   <g id="text_28">
    <!-- entrepreneur -->
    <g transform="translate(746.929688 138.725)scale(0.1 -0.1)">
     <use xlink:href="#DejaVuSans-65"/>
     <use x="61.523438" xlink:href="#DejaVuSans-6e"/>
     <use x="124.902344" xlink:href="#DejaVuSans-74"/>
     <use x="164.111328" xlink:href="#DejaVuSans-72"/>
     <use x="205.193359" xlink:href="#DejaVuSans-65"/>
     <use x="266.716797" xlink:href="#DejaVuSans-70"/>
     <use x="330.193359" xlink:href="#DejaVuSans-72"/>
     <use x="371.275391" xlink:href="#DejaVuSans-65"/>
     <use x="432.798828" xlink:href="#DejaVuSans-6e"/>
     <use x="496.177734" xlink:href="#DejaVuSans-65"/>
     <use x="557.701172" xlink:href="#DejaVuSans-75"/>
     <use x="621.080078" xlink:href="#DejaVuSans-72"/>
    </g>
   </g>
   <g id="PathCollection_40">
    <defs>
     <path d="M 0 3.872983 
C 1.027127 3.872983 2.012324 3.464901 2.738613 2.738613 
C 3.464901 2.012324 3.872983 1.027127 3.872983 0 
C 3.872983 -1.027127 3.464901 -2.012324 2.738613 -2.738613 
C 2.012324 -3.464901 1.027127 -3.872983 0 -3.872983 
C -1.027127 -3.872983 -2.012324 -3.464901 -2.738613 -2.738613 
C -3.464901 -2.012324 -3.872983 -1.027127 -3.872983 0 
C -3.872983 1.027127 -3.464901 2.012324 -2.738613 2.738613 
C -2.012324 3.464901 -1.027127 3.872983 0 3.872983 
z
" id="me297ee9d9b" style="stroke:#33a02c;"/>
    </defs>
    <g>
     <use style="fill:#33a02c;stroke:#33a02c;" x="728.929688" xlink:href="#me297ee9d9b" y="150.778125"/>
    </g>
   </g>
   <g id="text_29">
    <!-- housemaid -->
    <defs>
     <path d="M 54.890625 33.015625 
L 54.890625 0 
L 45.90625 0 
L 45.90625 32.71875 
Q 45.90625 40.484375 42.875 44.328125 
Q 39.84375 48.1875 33.796875 48.1875 
Q 26.515625 48.1875 22.3125 43.546875 
Q 18.109375 38.921875 18.109375 30.90625 
L 18.109375 0 
L 9.078125 0 
L 9.078125 75.984375 
L 18.109375 75.984375 
L 18.109375 46.1875 
Q 21.34375 51.125 25.703125 53.5625 
Q 30.078125 56 35.796875 56 
Q 45.21875 56 50.046875 50.171875 
Q 54.890625 44.34375 54.890625 33.015625 
z
" id="DejaVuSans-68"/>
    </defs>
    <g transform="translate(746.929688 153.403125)scale(0.1 -0.1)">
     <use xlink:href="#DejaVuSans-68"/>
     <use x="63.378906" xlink:href="#DejaVuSans-6f"/>
     <use x="124.560547" xlink:href="#DejaVuSans-75"/>
     <use x="187.939453" xlink:href="#DejaVuSans-73"/>
     <use x="240.039062" xlink:href="#DejaVuSans-65"/>
     <use x="301.5625" xlink:href="#DejaVuSans-6d"/>
     <use x="398.974609" xlink:href="#DejaVuSans-61"/>
     <use x="460.253906" xlink:href="#DejaVuSans-69"/>
     <use x="488.037109" xlink:href="#DejaVuSans-64"/>
    </g>
   </g>
   <g id="PathCollection_41">
    <defs>
     <path d="M 0 3.872983 
C 1.027127 3.872983 2.012324 3.464901 2.738613 2.738613 
C 3.464901 2.012324 3.872983 1.027127 3.872983 0 
C 3.872983 -1.027127 3.464901 -2.012324 2.738613 -2.738613 
C 2.012324 -3.464901 1.027127 -3.872983 0 -3.872983 
C -1.027127 -3.872983 -2.012324 -3.464901 -2.738613 -2.738613 
C -3.464901 -2.012324 -3.872983 -1.027127 -3.872983 0 
C -3.872983 1.027127 -3.464901 2.012324 -2.738613 2.738613 
C -2.012324 3.464901 -1.027127 3.872983 0 3.872983 
z
" id="md66bf83e05" style="stroke:#fb9a99;"/>
    </defs>
    <g>
     <use style="fill:#fb9a99;stroke:#fb9a99;" x="728.929688" xlink:href="#md66bf83e05" y="165.45625"/>
    </g>
   </g>
   <g id="text_30">
    <!-- management -->
    <g transform="translate(746.929688 168.08125)scale(0.1 -0.1)">
     <use xlink:href="#DejaVuSans-6d"/>
     <use x="97.412109" xlink:href="#DejaVuSans-61"/>
     <use x="158.691406" xlink:href="#DejaVuSans-6e"/>
     <use x="222.070312" xlink:href="#DejaVuSans-61"/>
     <use x="283.349609" xlink:href="#DejaVuSans-67"/>
     <use x="346.826172" xlink:href="#DejaVuSans-65"/>
     <use x="408.349609" xlink:href="#DejaVuSans-6d"/>
     <use x="505.761719" xlink:href="#DejaVuSans-65"/>
     <use x="567.285156" xlink:href="#DejaVuSans-6e"/>
     <use x="630.664062" xlink:href="#DejaVuSans-74"/>
    </g>
   </g>
   <g id="PathCollection_42">
    <defs>
     <path d="M 0 3.872983 
C 1.027127 3.872983 2.012324 3.464901 2.738613 2.738613 
C 3.464901 2.012324 3.872983 1.027127 3.872983 0 
C 3.872983 -1.027127 3.464901 -2.012324 2.738613 -2.738613 
C 2.012324 -3.464901 1.027127 -3.872983 0 -3.872983 
C -1.027127 -3.872983 -2.012324 -3.464901 -2.738613 -2.738613 
C -3.464901 -2.012324 -3.872983 -1.027127 -3.872983 0 
C -3.872983 1.027127 -3.464901 2.012324 -2.738613 2.738613 
C -2.012324 3.464901 -1.027127 3.872983 0 3.872983 
z
" id="ma58c9d9561" style="stroke:#e31a1c;"/>
    </defs>
    <g>
     <use style="fill:#e31a1c;stroke:#e31a1c;" x="728.929688" xlink:href="#ma58c9d9561" y="180.134375"/>
    </g>
   </g>
   <g id="text_31">
    <!-- retired -->
    <g transform="translate(746.929688 182.759375)scale(0.1 -0.1)">
     <use xlink:href="#DejaVuSans-72"/>
     <use x="41.082031" xlink:href="#DejaVuSans-65"/>
     <use x="102.605469" xlink:href="#DejaVuSans-74"/>
     <use x="141.814453" xlink:href="#DejaVuSans-69"/>
     <use x="169.597656" xlink:href="#DejaVuSans-72"/>
     <use x="210.679688" xlink:href="#DejaVuSans-65"/>
     <use x="272.203125" xlink:href="#DejaVuSans-64"/>
    </g>
   </g>
   <g id="PathCollection_43">
    <defs>
     <path d="M 0 3.872983 
C 1.027127 3.872983 2.012324 3.464901 2.738613 2.738613 
C 3.464901 2.012324 3.872983 1.027127 3.872983 0 
C 3.872983 -1.027127 3.464901 -2.012324 2.738613 -2.738613 
C 2.012324 -3.464901 1.027127 -3.872983 0 -3.872983 
C -1.027127 -3.872983 -2.012324 -3.464901 -2.738613 -2.738613 
C -3.464901 -2.012324 -3.872983 -1.027127 -3.872983 0 
C -3.872983 1.027127 -3.464901 2.012324 -2.738613 2.738613 
C -2.012324 3.464901 -1.027127 3.872983 0 3.872983 
z
" id="m857455be0d" style="stroke:#fdbf6f;"/>
    </defs>
    <g>
     <use style="fill:#fdbf6f;stroke:#fdbf6f;" x="728.929688" xlink:href="#m857455be0d" y="194.8125"/>
    </g>
   </g>
   <g id="text_32">
    <!-- self-employed -->
    <defs>
     <path d="M 37.109375 75.984375 
L 37.109375 68.5 
L 28.515625 68.5 
Q 23.6875 68.5 21.796875 66.546875 
Q 19.921875 64.59375 19.921875 59.515625 
L 19.921875 54.6875 
L 34.71875 54.6875 
L 34.71875 47.703125 
L 19.921875 47.703125 
L 19.921875 0 
L 10.890625 0 
L 10.890625 47.703125 
L 2.296875 47.703125 
L 2.296875 54.6875 
L 10.890625 54.6875 
L 10.890625 58.5 
Q 10.890625 67.625 15.140625 71.796875 
Q 19.390625 75.984375 28.609375 75.984375 
z
" id="DejaVuSans-66"/>
    </defs>
    <g transform="translate(746.929688 197.4375)scale(0.1 -0.1)">
     <use xlink:href="#DejaVuSans-73"/>
     <use x="52.099609" xlink:href="#DejaVuSans-65"/>
     <use x="113.623047" xlink:href="#DejaVuSans-6c"/>
     <use x="141.40625" xlink:href="#DejaVuSans-66"/>
     <use x="176.533203" xlink:href="#DejaVuSans-2d"/>
     <use x="212.617188" xlink:href="#DejaVuSans-65"/>
     <use x="274.140625" xlink:href="#DejaVuSans-6d"/>
     <use x="371.552734" xlink:href="#DejaVuSans-70"/>
     <use x="435.029297" xlink:href="#DejaVuSans-6c"/>
     <use x="462.8125" xlink:href="#DejaVuSans-6f"/>
     <use x="523.994141" xlink:href="#DejaVuSans-79"/>
     <use x="583.173828" xlink:href="#DejaVuSans-65"/>
     <use x="644.697266" xlink:href="#DejaVuSans-64"/>
    </g>
   </g>
   <g id="PathCollection_44">
    <defs>
     <path d="M 0 3.872983 
C 1.027127 3.872983 2.012324 3.464901 2.738613 2.738613 
C 3.464901 2.012324 3.872983 1.027127 3.872983 0 
C 3.872983 -1.027127 3.464901 -2.012324 2.738613 -2.738613 
C 2.012324 -3.464901 1.027127 -3.872983 0 -3.872983 
C -1.027127 -3.872983 -2.012324 -3.464901 -2.738613 -2.738613 
C -3.464901 -2.012324 -3.872983 -1.027127 -3.872983 0 
C -3.872983 1.027127 -3.464901 2.012324 -2.738613 2.738613 
C -2.012324 3.464901 -1.027127 3.872983 0 3.872983 
z
" id="mee8ec964de" style="stroke:#ff7f00;"/>
    </defs>
    <g>
     <use style="fill:#ff7f00;stroke:#ff7f00;" x="728.929688" xlink:href="#mee8ec964de" y="209.490625"/>
    </g>
   </g>
   <g id="text_33">
    <!-- services -->
    <defs>
     <path d="M 2.984375 54.6875 
L 12.5 54.6875 
L 29.59375 8.796875 
L 46.6875 54.6875 
L 56.203125 54.6875 
L 35.6875 0 
L 23.484375 0 
z
" id="DejaVuSans-76"/>
    </defs>
    <g transform="translate(746.929688 212.115625)scale(0.1 -0.1)">
     <use xlink:href="#DejaVuSans-73"/>
     <use x="52.099609" xlink:href="#DejaVuSans-65"/>
     <use x="113.623047" xlink:href="#DejaVuSans-72"/>
     <use x="154.736328" xlink:href="#DejaVuSans-76"/>
     <use x="213.916016" xlink:href="#DejaVuSans-69"/>
     <use x="241.699219" xlink:href="#DejaVuSans-63"/>
     <use x="296.679688" xlink:href="#DejaVuSans-65"/>
     <use x="358.203125" xlink:href="#DejaVuSans-73"/>
    </g>
   </g>
   <g id="PathCollection_45">
    <defs>
     <path d="M 0 3.872983 
C 1.027127 3.872983 2.012324 3.464901 2.738613 2.738613 
C 3.464901 2.012324 3.872983 1.027127 3.872983 0 
C 3.872983 -1.027127 3.464901 -2.012324 2.738613 -2.738613 
C 2.012324 -3.464901 1.027127 -3.872983 0 -3.872983 
C -1.027127 -3.872983 -2.012324 -3.464901 -2.738613 -2.738613 
C -3.464901 -2.012324 -3.872983 -1.027127 -3.872983 0 
C -3.872983 1.027127 -3.464901 2.012324 -2.738613 2.738613 
C -2.012324 3.464901 -1.027127 3.872983 0 3.872983 
z
" id="mfd5856a38d" style="stroke:#cab2d6;"/>
    </defs>
    <g>
     <use style="fill:#cab2d6;stroke:#cab2d6;" x="728.929688" xlink:href="#mfd5856a38d" y="224.16875"/>
    </g>
   </g>
   <g id="text_34">
    <!-- student -->
    <g transform="translate(746.929688 226.79375)scale(0.1 -0.1)">
     <use xlink:href="#DejaVuSans-73"/>
     <use x="52.099609" xlink:href="#DejaVuSans-74"/>
     <use x="91.308594" xlink:href="#DejaVuSans-75"/>
     <use x="154.6875" xlink:href="#DejaVuSans-64"/>
     <use x="218.164062" xlink:href="#DejaVuSans-65"/>
     <use x="279.6875" xlink:href="#DejaVuSans-6e"/>
     <use x="343.066406" xlink:href="#DejaVuSans-74"/>
    </g>
   </g>
   <g id="PathCollection_46">
    <defs>
     <path d="M 0 3.872983 
C 1.027127 3.872983 2.012324 3.464901 2.738613 2.738613 
C 3.464901 2.012324 3.872983 1.027127 3.872983 0 
C 3.872983 -1.027127 3.464901 -2.012324 2.738613 -2.738613 
C 2.012324 -3.464901 1.027127 -3.872983 0 -3.872983 
C -1.027127 -3.872983 -2.012324 -3.464901 -2.738613 -2.738613 
C -3.464901 -2.012324 -3.872983 -1.027127 -3.872983 0 
C -3.872983 1.027127 -3.464901 2.012324 -2.738613 2.738613 
C -2.012324 3.464901 -1.027127 3.872983 0 3.872983 
z
" id="m5480ede199" style="stroke:#6a3d9a;"/>
    </defs>
    <g>
     <use style="fill:#6a3d9a;stroke:#6a3d9a;" x="728.929688" xlink:href="#m5480ede199" y="238.846875"/>
    </g>
   </g>
   <g id="text_35">
    <!-- technician -->
    <g transform="translate(746.929688 241.471875)scale(0.1 -0.1)">
     <use xlink:href="#DejaVuSans-74"/>
     <use x="39.208984" xlink:href="#DejaVuSans-65"/>
     <use x="100.732422" xlink:href="#DejaVuSans-63"/>
     <use x="155.712891" xlink:href="#DejaVuSans-68"/>
     <use x="219.091797" xlink:href="#DejaVuSans-6e"/>
     <use x="282.470703" xlink:href="#DejaVuSans-69"/>
     <use x="310.253906" xlink:href="#DejaVuSans-63"/>
     <use x="365.234375" xlink:href="#DejaVuSans-69"/>
     <use x="393.017578" xlink:href="#DejaVuSans-61"/>
     <use x="454.296875" xlink:href="#DejaVuSans-6e"/>
    </g>
   </g>
   <g id="PathCollection_47">
    <defs>
     <path d="M 0 3.872983 
C 1.027127 3.872983 2.012324 3.464901 2.738613 2.738613 
C 3.464901 2.012324 3.872983 1.027127 3.872983 0 
C 3.872983 -1.027127 3.464901 -2.012324 2.738613 -2.738613 
C 2.012324 -3.464901 1.027127 -3.872983 0 -3.872983 
C -1.027127 -3.872983 -2.012324 -3.464901 -2.738613 -2.738613 
C -3.464901 -2.012324 -3.872983 -1.027127 -3.872983 0 
C -3.872983 1.027127 -3.464901 2.012324 -2.738613 2.738613 
C -2.012324 3.464901 -1.027127 3.872983 0 3.872983 
z
" id="mb7a767f70b" style="stroke:#ffff99;"/>
    </defs>
    <g>
     <use style="fill:#ffff99;stroke:#ffff99;" x="728.929688" xlink:href="#mb7a767f70b" y="253.525"/>
    </g>
   </g>
   <g id="text_36">
    <!-- unemployed -->
    <g transform="translate(746.929688 256.15)scale(0.1 -0.1)">
     <use xlink:href="#DejaVuSans-75"/>
     <use x="63.378906" xlink:href="#DejaVuSans-6e"/>
     <use x="126.757812" xlink:href="#DejaVuSans-65"/>
     <use x="188.28125" xlink:href="#DejaVuSans-6d"/>
     <use x="285.693359" xlink:href="#DejaVuSans-70"/>
     <use x="349.169922" xlink:href="#DejaVuSans-6c"/>
     <use x="376.953125" xlink:href="#DejaVuSans-6f"/>
     <use x="438.134766" xlink:href="#DejaVuSans-79"/>
     <use x="497.314453" xlink:href="#DejaVuSans-65"/>
     <use x="558.837891" xlink:href="#DejaVuSans-64"/>
    </g>
   </g>
   <g id="PathCollection_48">
    <defs>
     <path d="M 0 3.872983 
C 1.027127 3.872983 2.012324 3.464901 2.738613 2.738613 
C 3.464901 2.012324 3.872983 1.027127 3.872983 0 
C 3.872983 -1.027127 3.464901 -2.012324 2.738613 -2.738613 
C 2.012324 -3.464901 1.027127 -3.872983 0 -3.872983 
C -1.027127 -3.872983 -2.012324 -3.464901 -2.738613 -2.738613 
C -3.464901 -2.012324 -3.872983 -1.027127 -3.872983 0 
C -3.872983 1.027127 -3.464901 2.012324 -2.738613 2.738613 
C -2.012324 3.464901 -1.027127 3.872983 0 3.872983 
z
" id="m532b64902d" style="stroke:#b15928;"/>
    </defs>
    <g>
     <use style="fill:#b15928;stroke:#b15928;" x="728.929688" xlink:href="#m532b64902d" y="268.203125"/>
    </g>
   </g>
   <g id="text_37">
    <!-- unknown -->
    <defs>
     <path d="M 9.078125 75.984375 
L 18.109375 75.984375 
L 18.109375 31.109375 
L 44.921875 54.6875 
L 56.390625 54.6875 
L 27.390625 29.109375 
L 57.625 0 
L 45.90625 0 
L 18.109375 26.703125 
L 18.109375 0 
L 9.078125 0 
z
" id="DejaVuSans-6b"/>
     <path d="M 4.203125 54.6875 
L 13.1875 54.6875 
L 24.421875 12.015625 
L 35.59375 54.6875 
L 46.1875 54.6875 
L 57.421875 12.015625 
L 68.609375 54.6875 
L 77.59375 54.6875 
L 63.28125 0 
L 52.6875 0 
L 40.921875 44.828125 
L 29.109375 0 
L 18.5 0 
z
" id="DejaVuSans-77"/>
    </defs>
    <g transform="translate(746.929688 270.828125)scale(0.1 -0.1)">
     <use xlink:href="#DejaVuSans-75"/>
     <use x="63.378906" xlink:href="#DejaVuSans-6e"/>
     <use x="126.757812" xlink:href="#DejaVuSans-6b"/>
     <use x="184.667969" xlink:href="#DejaVuSans-6e"/>
     <use x="248.046875" xlink:href="#DejaVuSans-6f"/>
     <use x="309.228516" xlink:href="#DejaVuSans-77"/>
     <use x="391.015625" xlink:href="#DejaVuSans-6e"/>
    </g>
   </g>
  </g>
 </g>
 <defs>
  <clipPath id="peb1f2a393c">
   <rect height="293.4" width="315.889968" x="62.207196" y="24.8"/>
  </clipPath>
  <clipPath id="pcda79c7367">
   <rect height="293.4" width="315.889968" x="395.842532" y="24.8"/>
  </clipPath>
 </defs>
</svg>
