<?xml version="1.0" encoding="utf-8" standalone="no"?>
<!DOCTYPE svg PUBLIC "-//W3C//DTD SVG 1.1//EN"
  "http://www.w3.org/Graphics/SVG/1.1/DTD/svg11.dtd">
<!-- Created with matplotlib (https://matplotlib.org/) -->
<svg height="345.6pt" version="1.1" viewBox="0 0 460.8 345.6" width="460.8pt" xmlns="http://www.w3.org/2000/svg" xmlns:xlink="http://www.w3.org/1999/xlink">
 <defs>
  <style type="text/css">
*{stroke-linecap:butt;stroke-linejoin:round;}
  </style>
 </defs>
 <g id="figure_1">
  <g id="patch_1">
   <path d="M 0 345.6 
L 460.8 345.6 
L 460.8 0 
L 0 0 
z
" style="fill:#ffffff;"/>
  </g>
  <g id="axes_1">
   <g id="patch_2">
    <path d="M 57.6 307.584 
L 414.72 307.584 
L 414.72 41.472 
L 57.6 41.472 
z
" style="fill:#ffffff;"/>
   </g>
   <g id="matplotlib.axis_1">
    <g id="xtick_1">
     <g id="line2d_1">
      <defs>
       <path d="M 0 0 
L 0 3.5 
" id="m514016a461" style="stroke:#000000;stroke-width:0.8;"/>
      </defs>
      <g>
       <use style="stroke:#000000;stroke-width:0.8;" x="73.795341" xlink:href="#m514016a461" y="307.584"/>
      </g>
     </g>
     <g id="text_1">
      <!-- −1.00 -->
      <defs>
       <path d="M 10.59375 35.5 
L 73.1875 35.5 
L 73.1875 27.203125 
L 10.59375 27.203125 
z
" id="DejaVuSans-8722"/>
       <path d="M 12.40625 8.296875 
L 28.515625 8.296875 
L 28.515625 63.921875 
L 10.984375 60.40625 
L 10.984375 69.390625 
L 28.421875 72.90625 
L 38.28125 72.90625 
L 38.28125 8.296875 
L 54.390625 8.296875 
L 54.390625 0 
L 12.40625 0 
z
" id="DejaVuSans-49"/>
       <path d="M 10.6875 12.40625 
L 21 12.40625 
L 21 0 
L 10.6875 0 
z
" id="DejaVuSans-46"/>
       <path d="M 31.78125 66.40625 
Q 24.171875 66.40625 20.328125 58.90625 
Q 16.5 51.421875 16.5 36.375 
Q 16.5 21.390625 20.328125 13.890625 
Q 24.171875 6.390625 31.78125 6.390625 
Q 39.453125 6.390625 43.28125 13.890625 
Q 47.125 21.390625 47.125 36.375 
Q 47.125 51.421875 43.28125 58.90625 
Q 39.453125 66.40625 31.78125 66.40625 
z
M 31.78125 74.21875 
Q 44.046875 74.21875 50.515625 64.515625 
Q 56.984375 54.828125 56.984375 36.375 
Q 56.984375 17.96875 50.515625 8.265625 
Q 44.046875 -1.421875 31.78125 -1.421875 
Q 19.53125 -1.421875 13.0625 8.265625 
Q 6.59375 17.96875 6.59375 36.375 
Q 6.59375 54.828125 13.0625 64.515625 
Q 19.53125 74.21875 31.78125 74.21875 
z
" id="DejaVuSans-48"/>
      </defs>
      <g transform="translate(58.472684 322.182437)scale(0.1 -0.1)">
       <use xlink:href="#DejaVuSans-8722"/>
       <use x="83.789062" xlink:href="#DejaVuSans-49"/>
       <use x="147.412109" xlink:href="#DejaVuSans-46"/>
       <use x="179.199219" xlink:href="#DejaVuSans-48"/>
       <use x="242.822266" xlink:href="#DejaVuSans-48"/>
      </g>
     </g>
    </g>
    <g id="xtick_2">
     <g id="line2d_2">
      <g>
       <use style="stroke:#000000;stroke-width:0.8;" x="114.381832" xlink:href="#m514016a461" y="307.584"/>
      </g>
     </g>
     <g id="text_2">
      <!-- −0.75 -->
      <defs>
       <path d="M 8.203125 72.90625 
L 55.078125 72.90625 
L 55.078125 68.703125 
L 28.609375 0 
L 18.3125 0 
L 43.21875 64.59375 
L 8.203125 64.59375 
z
" id="DejaVuSans-55"/>
       <path d="M 10.796875 72.90625 
L 49.515625 72.90625 
L 49.515625 64.59375 
L 19.828125 64.59375 
L 19.828125 46.734375 
Q 21.96875 47.46875 24.109375 47.828125 
Q 26.265625 48.1875 28.421875 48.1875 
Q 40.625 48.1875 47.75 41.5 
Q 54.890625 34.8125 54.890625 23.390625 
Q 54.890625 11.625 47.5625 5.09375 
Q 40.234375 -1.421875 26.90625 -1.421875 
Q 22.3125 -1.421875 17.546875 -0.640625 
Q 12.796875 0.140625 7.71875 1.703125 
L 7.71875 11.625 
Q 12.109375 9.234375 16.796875 8.0625 
Q 21.484375 6.890625 26.703125 6.890625 
Q 35.15625 6.890625 40.078125 11.328125 
Q 45.015625 15.765625 45.015625 23.390625 
Q 45.015625 31 40.078125 35.4375 
Q 35.15625 39.890625 26.703125 39.890625 
Q 22.75 39.890625 18.8125 39.015625 
Q 14.890625 38.140625 10.796875 36.28125 
z
" id="DejaVuSans-53"/>
      </defs>
      <g transform="translate(99.059176 322.182437)scale(0.1 -0.1)">
       <use xlink:href="#DejaVuSans-8722"/>
       <use x="83.789062" xlink:href="#DejaVuSans-48"/>
       <use x="147.412109" xlink:href="#DejaVuSans-46"/>
       <use x="179.199219" xlink:href="#DejaVuSans-55"/>
       <use x="242.822266" xlink:href="#DejaVuSans-53"/>
      </g>
     </g>
    </g>
    <g id="xtick_3">
     <g id="line2d_3">
      <g>
       <use style="stroke:#000000;stroke-width:0.8;" x="154.968324" xlink:href="#m514016a461" y="307.584"/>
      </g>
     </g>
     <g id="text_3">
      <!-- −0.50 -->
      <g transform="translate(139.645667 322.182437)scale(0.1 -0.1)">
       <use xlink:href="#DejaVuSans-8722"/>
       <use x="83.789062" xlink:href="#DejaVuSans-48"/>
       <use x="147.412109" xlink:href="#DejaVuSans-46"/>
       <use x="179.199219" xlink:href="#DejaVuSans-53"/>
       <use x="242.822266" xlink:href="#DejaVuSans-48"/>
      </g>
     </g>
    </g>
    <g id="xtick_4">
     <g id="line2d_4">
      <g>
       <use style="stroke:#000000;stroke-width:0.8;" x="195.554815" xlink:href="#m514016a461" y="307.584"/>
      </g>
     </g>
     <g id="text_4">
      <!-- −0.25 -->
      <defs>
       <path d="M 19.1875 8.296875 
L 53.609375 8.296875 
L 53.609375 0 
L 7.328125 0 
L 7.328125 8.296875 
Q 12.9375 14.109375 22.625 23.890625 
Q 32.328125 33.6875 34.8125 36.53125 
Q 39.546875 41.84375 41.421875 45.53125 
Q 43.3125 49.21875 43.3125 52.78125 
Q 43.3125 58.59375 39.234375 62.25 
Q 35.15625 65.921875 28.609375 65.921875 
Q 23.96875 65.921875 18.8125 64.3125 
Q 13.671875 62.703125 7.8125 59.421875 
L 7.8125 69.390625 
Q 13.765625 71.78125 18.9375 73 
Q 24.125 74.21875 28.421875 74.21875 
Q 39.75 74.21875 46.484375 68.546875 
Q 53.21875 62.890625 53.21875 53.421875 
Q 53.21875 48.921875 51.53125 44.890625 
Q 49.859375 40.875 45.40625 35.40625 
Q 44.1875 33.984375 37.640625 27.21875 
Q 31.109375 20.453125 19.1875 8.296875 
z
" id="DejaVuSans-50"/>
      </defs>
      <g transform="translate(180.232159 322.182437)scale(0.1 -0.1)">
       <use xlink:href="#DejaVuSans-8722"/>
       <use x="83.789062" xlink:href="#DejaVuSans-48"/>
       <use x="147.412109" xlink:href="#DejaVuSans-46"/>
       <use x="179.199219" xlink:href="#DejaVuSans-50"/>
       <use x="242.822266" xlink:href="#DejaVuSans-53"/>
      </g>
     </g>
    </g>
    <g id="xtick_5">
     <g id="line2d_5">
      <g>
       <use style="stroke:#000000;stroke-width:0.8;" x="236.141307" xlink:href="#m514016a461" y="307.584"/>
      </g>
     </g>
     <g id="text_5">
      <!-- 0.00 -->
      <g transform="translate(225.008494 322.182437)scale(0.1 -0.1)">
       <use xlink:href="#DejaVuSans-48"/>
       <use x="63.623047" xlink:href="#DejaVuSans-46"/>
       <use x="95.410156" xlink:href="#DejaVuSans-48"/>
       <use x="159.033203" xlink:href="#DejaVuSans-48"/>
      </g>
     </g>
    </g>
    <g id="xtick_6">
     <g id="line2d_6">
      <g>
       <use style="stroke:#000000;stroke-width:0.8;" x="276.727798" xlink:href="#m514016a461" y="307.584"/>
      </g>
     </g>
     <g id="text_6">
      <!-- 0.25 -->
      <g transform="translate(265.594986 322.182437)scale(0.1 -0.1)">
       <use xlink:href="#DejaVuSans-48"/>
       <use x="63.623047" xlink:href="#DejaVuSans-46"/>
       <use x="95.410156" xlink:href="#DejaVuSans-50"/>
       <use x="159.033203" xlink:href="#DejaVuSans-53"/>
      </g>
     </g>
    </g>
    <g id="xtick_7">
     <g id="line2d_7">
      <g>
       <use style="stroke:#000000;stroke-width:0.8;" x="317.31429" xlink:href="#m514016a461" y="307.584"/>
      </g>
     </g>
     <g id="text_7">
      <!-- 0.50 -->
      <g transform="translate(306.181477 322.182437)scale(0.1 -0.1)">
       <use xlink:href="#DejaVuSans-48"/>
       <use x="63.623047" xlink:href="#DejaVuSans-46"/>
       <use x="95.410156" xlink:href="#DejaVuSans-53"/>
       <use x="159.033203" xlink:href="#DejaVuSans-48"/>
      </g>
     </g>
    </g>
    <g id="xtick_8">
     <g id="line2d_8">
      <g>
       <use style="stroke:#000000;stroke-width:0.8;" x="357.900781" xlink:href="#m514016a461" y="307.584"/>
      </g>
     </g>
     <g id="text_8">
      <!-- 0.75 -->
      <g transform="translate(346.767969 322.182437)scale(0.1 -0.1)">
       <use xlink:href="#DejaVuSans-48"/>
       <use x="63.623047" xlink:href="#DejaVuSans-46"/>
       <use x="95.410156" xlink:href="#DejaVuSans-55"/>
       <use x="159.033203" xlink:href="#DejaVuSans-53"/>
      </g>
     </g>
    </g>
    <g id="xtick_9">
     <g id="line2d_9">
      <g>
       <use style="stroke:#000000;stroke-width:0.8;" x="398.487273" xlink:href="#m514016a461" y="307.584"/>
      </g>
     </g>
     <g id="text_9">
      <!-- 1.00 -->
      <g transform="translate(387.35446 322.182437)scale(0.1 -0.1)">
       <use xlink:href="#DejaVuSans-49"/>
       <use x="63.623047" xlink:href="#DejaVuSans-46"/>
       <use x="95.410156" xlink:href="#DejaVuSans-48"/>
       <use x="159.033203" xlink:href="#DejaVuSans-48"/>
      </g>
     </g>
    </g>
   </g>
   <g id="matplotlib.axis_2">
    <g id="ytick_1">
     <g id="line2d_10">
      <defs>
       <path d="M 0 0 
L -3.5 0 
" id="m79cdb09b3c" style="stroke:#000000;stroke-width:0.8;"/>
      </defs>
      <g>
       <use style="stroke:#000000;stroke-width:0.8;" x="57.6" xlink:href="#m79cdb09b3c" y="296.318232"/>
      </g>
     </g>
     <g id="text_10">
      <!-- −1.00 -->
      <g transform="translate(19.954687 300.117451)scale(0.1 -0.1)">
       <use xlink:href="#DejaVuSans-8722"/>
       <use x="83.789062" xlink:href="#DejaVuSans-49"/>
       <use x="147.412109" xlink:href="#DejaVuSans-46"/>
       <use x="179.199219" xlink:href="#DejaVuSans-48"/>
       <use x="242.822266" xlink:href="#DejaVuSans-48"/>
      </g>
     </g>
    </g>
    <g id="ytick_2">
     <g id="line2d_11">
      <g>
       <use style="stroke:#000000;stroke-width:0.8;" x="57.6" xlink:href="#m79cdb09b3c" y="265.741889"/>
      </g>
     </g>
     <g id="text_11">
      <!-- −0.75 -->
      <g transform="translate(19.954687 269.541107)scale(0.1 -0.1)">
       <use xlink:href="#DejaVuSans-8722"/>
       <use x="83.789062" xlink:href="#DejaVuSans-48"/>
       <use x="147.412109" xlink:href="#DejaVuSans-46"/>
       <use x="179.199219" xlink:href="#DejaVuSans-55"/>
       <use x="242.822266" xlink:href="#DejaVuSans-53"/>
      </g>
     </g>
    </g>
    <g id="ytick_3">
     <g id="line2d_12">
      <g>
       <use style="stroke:#000000;stroke-width:0.8;" x="57.6" xlink:href="#m79cdb09b3c" y="235.165545"/>
      </g>
     </g>
     <g id="text_12">
      <!-- −0.50 -->
      <g transform="translate(19.954687 238.964764)scale(0.1 -0.1)">
       <use xlink:href="#DejaVuSans-8722"/>
       <use x="83.789062" xlink:href="#DejaVuSans-48"/>
       <use x="147.412109" xlink:href="#DejaVuSans-46"/>
       <use x="179.199219" xlink:href="#DejaVuSans-53"/>
       <use x="242.822266" xlink:href="#DejaVuSans-48"/>
      </g>
     </g>
    </g>
    <g id="ytick_4">
     <g id="line2d_13">
      <g>
       <use style="stroke:#000000;stroke-width:0.8;" x="57.6" xlink:href="#m79cdb09b3c" y="204.589202"/>
      </g>
     </g>
     <g id="text_13">
      <!-- −0.25 -->
      <g transform="translate(19.954687 208.388421)scale(0.1 -0.1)">
       <use xlink:href="#DejaVuSans-8722"/>
       <use x="83.789062" xlink:href="#DejaVuSans-48"/>
       <use x="147.412109" xlink:href="#DejaVuSans-46"/>
       <use x="179.199219" xlink:href="#DejaVuSans-50"/>
       <use x="242.822266" xlink:href="#DejaVuSans-53"/>
      </g>
     </g>
    </g>
    <g id="ytick_5">
     <g id="line2d_14">
      <g>
       <use style="stroke:#000000;stroke-width:0.8;" x="57.6" xlink:href="#m79cdb09b3c" y="174.012859"/>
      </g>
     </g>
     <g id="text_14">
      <!-- 0.00 -->
      <g transform="translate(28.334375 177.812078)scale(0.1 -0.1)">
       <use xlink:href="#DejaVuSans-48"/>
       <use x="63.623047" xlink:href="#DejaVuSans-46"/>
       <use x="95.410156" xlink:href="#DejaVuSans-48"/>
       <use x="159.033203" xlink:href="#DejaVuSans-48"/>
      </g>
     </g>
    </g>
    <g id="ytick_6">
     <g id="line2d_15">
      <g>
       <use style="stroke:#000000;stroke-width:0.8;" x="57.6" xlink:href="#m79cdb09b3c" y="143.436516"/>
      </g>
     </g>
     <g id="text_15">
      <!-- 0.25 -->
      <g transform="translate(28.334375 147.235734)scale(0.1 -0.1)">
       <use xlink:href="#DejaVuSans-48"/>
       <use x="63.623047" xlink:href="#DejaVuSans-46"/>
       <use x="95.410156" xlink:href="#DejaVuSans-50"/>
       <use x="159.033203" xlink:href="#DejaVuSans-53"/>
      </g>
     </g>
    </g>
    <g id="ytick_7">
     <g id="line2d_16">
      <g>
       <use style="stroke:#000000;stroke-width:0.8;" x="57.6" xlink:href="#m79cdb09b3c" y="112.860172"/>
      </g>
     </g>
     <g id="text_16">
      <!-- 0.50 -->
      <g transform="translate(28.334375 116.659391)scale(0.1 -0.1)">
       <use xlink:href="#DejaVuSans-48"/>
       <use x="63.623047" xlink:href="#DejaVuSans-46"/>
       <use x="95.410156" xlink:href="#DejaVuSans-53"/>
       <use x="159.033203" xlink:href="#DejaVuSans-48"/>
      </g>
     </g>
    </g>
    <g id="ytick_8">
     <g id="line2d_17">
      <g>
       <use style="stroke:#000000;stroke-width:0.8;" x="57.6" xlink:href="#m79cdb09b3c" y="82.283829"/>
      </g>
     </g>
     <g id="text_17">
      <!-- 0.75 -->
      <g transform="translate(28.334375 86.083048)scale(0.1 -0.1)">
       <use xlink:href="#DejaVuSans-48"/>
       <use x="63.623047" xlink:href="#DejaVuSans-46"/>
       <use x="95.410156" xlink:href="#DejaVuSans-55"/>
       <use x="159.033203" xlink:href="#DejaVuSans-53"/>
      </g>
     </g>
    </g>
    <g id="ytick_9">
     <g id="line2d_18">
      <g>
       <use style="stroke:#000000;stroke-width:0.8;" x="57.6" xlink:href="#m79cdb09b3c" y="51.707486"/>
      </g>
     </g>
     <g id="text_18">
      <!-- 1.00 -->
      <g transform="translate(28.334375 55.506705)scale(0.1 -0.1)">
       <use xlink:href="#DejaVuSans-49"/>
       <use x="63.623047" xlink:href="#DejaVuSans-46"/>
       <use x="95.410156" xlink:href="#DejaVuSans-48"/>
       <use x="159.033203" xlink:href="#DejaVuSans-48"/>
      </g>
     </g>
    </g>
   </g>
   <g id="line2d_19">
    <defs>
     <path d="M 0 5 
C 1.326016 5 2.597899 4.473168 3.535534 3.535534 
C 4.473168 2.597899 5 1.326016 5 0 
C 5 -1.326016 4.473168 -2.597899 3.535534 -3.535534 
C 2.597899 -4.473168 1.326016 -5 0 -5 
C -1.326016 -5 -2.597899 -4.473168 -3.535534 -3.535534 
C -4.473168 -2.597899 -5 -1.326016 -5 0 
C -5 1.326016 -4.473168 2.597899 -3.535534 3.535534 
C -2.597899 4.473168 -1.326016 5 0 5 
z
" id="md879361355" style="stroke:#1f77b4;"/>
    </defs>
    <g clip-path="url(#p90eee745bb)">
     <use style="fill:#ff0000;stroke:#1f77b4;" x="83.974774" xlink:href="#md879361355" y="84.714105"/>
     <use style="fill:#ff0000;stroke:#1f77b4;" x="144.752623" xlink:href="#md879361355" y="65.308029"/>
     <use style="fill:#ff0000;stroke:#1f77b4;" x="219.738488" xlink:href="#md879361355" y="70.855254"/>
     <use style="fill:#ff0000;stroke:#1f77b4;" x="169.663549" xlink:href="#md879361355" y="108.904501"/>
     <use style="fill:#ff0000;stroke:#1f77b4;" x="348.536578" xlink:href="#md879361355" y="78.860742"/>
     <use style="fill:#ff0000;stroke:#1f77b4;" x="262.013602" xlink:href="#md879361355" y="94.673788"/>
     <use style="fill:#ff0000;stroke:#1f77b4;" x="392.575186" xlink:href="#md879361355" y="110.141829"/>
     <use style="fill:#ff0000;stroke:#1f77b4;" x="333.024381" xlink:href="#md879361355" y="85.584075"/>
     <use style="fill:#ff0000;stroke:#1f77b4;" x="374.731204" xlink:href="#md879361355" y="53.568"/>
     <use style="fill:#ff0000;stroke:#1f77b4;" x="281.265367" xlink:href="#md879361355" y="85.26638"/>
     <use style="fill:#ff0000;stroke:#1f77b4;" x="101.865431" xlink:href="#md879361355" y="55.311482"/>
     <use style="fill:#ff0000;stroke:#1f77b4;" x="335.648555" xlink:href="#md879361355" y="117.655166"/>
     <use style="fill:#ff0000;stroke:#1f77b4;" x="323.333312" xlink:href="#md879361355" y="64.738256"/>
     <use style="fill:#ff0000;stroke:#1f77b4;" x="279.490726" xlink:href="#md879361355" y="85.327293"/>
     <use style="fill:#ff0000;stroke:#1f77b4;" x="110.629917" xlink:href="#md879361355" y="85.277595"/>
     <use style="fill:#ff0000;stroke:#1f77b4;" x="94.923192" xlink:href="#md879361355" y="56.929452"/>
     <use style="fill:#ff0000;stroke:#1f77b4;" x="370.470212" xlink:href="#md879361355" y="59.887024"/>
     <use style="fill:#ff0000;stroke:#1f77b4;" x="389.181032" xlink:href="#md879361355" y="81.408294"/>
     <use style="fill:#ff0000;stroke:#1f77b4;" x="135.851331" xlink:href="#md879361355" y="105.364465"/>
     <use style="fill:#ff0000;stroke:#1f77b4;" x="324.820529" xlink:href="#md879361355" y="87.011285"/>
     <use style="fill:#ff0000;stroke:#1f77b4;" x="334.44567" xlink:href="#md879361355" y="93.730604"/>
     <use style="fill:#ff0000;stroke:#1f77b4;" x="182.157104" xlink:href="#md879361355" y="85.270947"/>
     <use style="fill:#ff0000;stroke:#1f77b4;" x="167.686698" xlink:href="#md879361355" y="60.27603"/>
     <use style="fill:#ff0000;stroke:#1f77b4;" x="270.35893" xlink:href="#md879361355" y="111.535474"/>
     <use style="fill:#ff0000;stroke:#1f77b4;" x="308.398972" xlink:href="#md879361355" y="97.461827"/>
     <use style="fill:#ff0000;stroke:#1f77b4;" x="390.067445" xlink:href="#md879361355" y="102.126329"/>
     <use style="fill:#ff0000;stroke:#1f77b4;" x="183.750409" xlink:href="#md879361355" y="83.663441"/>
     <use style="fill:#ff0000;stroke:#1f77b4;" x="140.355651" xlink:href="#md879361355" y="97.55767"/>
     <use style="fill:#ff0000;stroke:#1f77b4;" x="381.322324" xlink:href="#md879361355" y="77.493938"/>
     <use style="fill:#ff0000;stroke:#1f77b4;" x="364.522002" xlink:href="#md879361355" y="118.979755"/>
     <use style="fill:#ff0000;stroke:#1f77b4;" x="122.499138" xlink:href="#md879361355" y="79.469884"/>
     <use style="fill:#ff0000;stroke:#1f77b4;" x="123.378476" xlink:href="#md879361355" y="83.37537"/>
     <use style="fill:#ff0000;stroke:#1f77b4;" x="323.617027" xlink:href="#md879361355" y="104.118366"/>
     <use style="fill:#ff0000;stroke:#1f77b4;" x="257.114929" xlink:href="#md879361355" y="93.836258"/>
     <use style="fill:#ff0000;stroke:#1f77b4;" x="217.385659" xlink:href="#md879361355" y="80.977947"/>
     <use style="fill:#ff0000;stroke:#1f77b4;" x="136.440577" xlink:href="#md879361355" y="73.60707"/>
     <use style="fill:#ff0000;stroke:#1f77b4;" x="233.33814" xlink:href="#md879361355" y="113.398701"/>
     <use style="fill:#ff0000;stroke:#1f77b4;" x="166.215948" xlink:href="#md879361355" y="75.146979"/>
     <use style="fill:#ff0000;stroke:#1f77b4;" x="217.219476" xlink:href="#md879361355" y="57.74964"/>
     <use style="fill:#ff0000;stroke:#1f77b4;" x="211.150477" xlink:href="#md879361355" y="69.027761"/>
     <use style="fill:#ff0000;stroke:#1f77b4;" x="344.897053" xlink:href="#md879361355" y="117.859096"/>
     <use style="fill:#ff0000;stroke:#1f77b4;" x="335.711901" xlink:href="#md879361355" y="85.088803"/>
     <use style="fill:#ff0000;stroke:#1f77b4;" x="208.56432" xlink:href="#md879361355" y="74.273173"/>
     <use style="fill:#ff0000;stroke:#1f77b4;" x="244.007278" xlink:href="#md879361355" y="102.831861"/>
    </g>
   </g>
   <g id="line2d_20">
    <defs>
     <path d="M 0 5 
C 1.326016 5 2.597899 4.473168 3.535534 3.535534 
C 4.473168 2.597899 5 1.326016 5 0 
C 5 -1.326016 4.473168 -2.597899 3.535534 -3.535534 
C 2.597899 -4.473168 1.326016 -5 0 -5 
C -1.326016 -5 -2.597899 -4.473168 -3.535534 -3.535534 
C -4.473168 -2.597899 -5 -1.326016 -5 0 
C -5 1.326016 -4.473168 2.597899 -3.535534 3.535534 
C -2.597899 4.473168 -1.326016 5 0 5 
z
" id="ma2e711424c" style="stroke:#ff7f0e;"/>
    </defs>
    <g clip-path="url(#p90eee745bb)">
     <use style="fill:#008000;stroke:#ff7f0e;" x="121.524827" xlink:href="#ma2e711424c" y="245.5591"/>
     <use style="fill:#008000;stroke:#ff7f0e;" x="254.595637" xlink:href="#ma2e711424c" y="293.079447"/>
     <use style="fill:#008000;stroke:#ff7f0e;" x="140.376525" xlink:href="#ma2e711424c" y="136.229731"/>
     <use style="fill:#008000;stroke:#ff7f0e;" x="286.895966" xlink:href="#ma2e711424c" y="121.047743"/>
     <use style="fill:#008000;stroke:#ff7f0e;" x="241.911041" xlink:href="#ma2e711424c" y="217.955641"/>
     <use style="fill:#008000;stroke:#ff7f0e;" x="80.366062" xlink:href="#ma2e711424c" y="204.537089"/>
     <use style="fill:#008000;stroke:#ff7f0e;" x="133.069632" xlink:href="#ma2e711424c" y="174.015321"/>
     <use style="fill:#008000;stroke:#ff7f0e;" x="103.053135" xlink:href="#ma2e711424c" y="133.70053"/>
     <use style="fill:#008000;stroke:#ff7f0e;" x="290.961564" xlink:href="#ma2e711424c" y="244.707214"/>
     <use style="fill:#008000;stroke:#ff7f0e;" x="291.274848" xlink:href="#ma2e711424c" y="145.304253"/>
     <use style="fill:#008000;stroke:#ff7f0e;" x="355.770285" xlink:href="#ma2e711424c" y="208.863282"/>
     <use style="fill:#008000;stroke:#ff7f0e;" x="112.685353" xlink:href="#ma2e711424c" y="193.241808"/>
     <use style="fill:#008000;stroke:#ff7f0e;" x="156.256448" xlink:href="#ma2e711424c" y="227.778185"/>
     <use style="fill:#008000;stroke:#ff7f0e;" x="355.726803" xlink:href="#ma2e711424c" y="271.857132"/>
     <use style="fill:#008000;stroke:#ff7f0e;" x="254.20985" xlink:href="#ma2e711424c" y="149.465498"/>
     <use style="fill:#008000;stroke:#ff7f0e;" x="382.609108" xlink:href="#ma2e711424c" y="222.501147"/>
     <use style="fill:#008000;stroke:#ff7f0e;" x="343.25007" xlink:href="#ma2e711424c" y="271.042577"/>
     <use style="fill:#008000;stroke:#ff7f0e;" x="163.404371" xlink:href="#ma2e711424c" y="170.948693"/>
     <use style="fill:#008000;stroke:#ff7f0e;" x="355.728238" xlink:href="#ma2e711424c" y="201.353758"/>
     <use style="fill:#008000;stroke:#ff7f0e;" x="360.972327" xlink:href="#ma2e711424c" y="258.074898"/>
     <use style="fill:#008000;stroke:#ff7f0e;" x="352.314811" xlink:href="#ma2e711424c" y="213.561899"/>
     <use style="fill:#008000;stroke:#ff7f0e;" x="367.170762" xlink:href="#ma2e711424c" y="235.842926"/>
     <use style="fill:#008000;stroke:#ff7f0e;" x="184.751454" xlink:href="#ma2e711424c" y="118.210632"/>
     <use style="fill:#008000;stroke:#ff7f0e;" x="262.944739" xlink:href="#ma2e711424c" y="166.95103"/>
     <use style="fill:#008000;stroke:#ff7f0e;" x="310.779347" xlink:href="#ma2e711424c" y="163.9962"/>
     <use style="fill:#008000;stroke:#ff7f0e;" x="297.349632" xlink:href="#ma2e711424c" y="120.211955"/>
     <use style="fill:#008000;stroke:#ff7f0e;" x="338.230178" xlink:href="#ma2e711424c" y="285.390907"/>
     <use style="fill:#008000;stroke:#ff7f0e;" x="320.691224" xlink:href="#ma2e711424c" y="211.87794"/>
     <use style="fill:#008000;stroke:#ff7f0e;" x="361.892658" xlink:href="#ma2e711424c" y="271.483314"/>
     <use style="fill:#008000;stroke:#ff7f0e;" x="359.693059" xlink:href="#ma2e711424c" y="214.290321"/>
     <use style="fill:#008000;stroke:#ff7f0e;" x="378.481331" xlink:href="#ma2e711424c" y="124.640196"/>
     <use style="fill:#008000;stroke:#ff7f0e;" x="372.61392" xlink:href="#ma2e711424c" y="291.550446"/>
     <use style="fill:#008000;stroke:#ff7f0e;" x="214.301918" xlink:href="#ma2e711424c" y="253.226298"/>
     <use style="fill:#008000;stroke:#ff7f0e;" x="266.616849" xlink:href="#ma2e711424c" y="184.35643"/>
     <use style="fill:#008000;stroke:#ff7f0e;" x="164.94235" xlink:href="#ma2e711424c" y="141.181343"/>
     <use style="fill:#008000;stroke:#ff7f0e;" x="191.554698" xlink:href="#ma2e711424c" y="236.633707"/>
     <use style="fill:#008000;stroke:#ff7f0e;" x="164.685166" xlink:href="#ma2e711424c" y="181.506999"/>
     <use style="fill:#008000;stroke:#ff7f0e;" x="131.090616" xlink:href="#ma2e711424c" y="285.109064"/>
     <use style="fill:#008000;stroke:#ff7f0e;" x="292.660879" xlink:href="#ma2e711424c" y="142.446113"/>
     <use style="fill:#008000;stroke:#ff7f0e;" x="152.00729" xlink:href="#ma2e711424c" y="207.125898"/>
     <use style="fill:#008000;stroke:#ff7f0e;" x="102.785508" xlink:href="#ma2e711424c" y="177.169677"/>
     <use style="fill:#008000;stroke:#ff7f0e;" x="85.498392" xlink:href="#ma2e711424c" y="292.358643"/>
     <use style="fill:#008000;stroke:#ff7f0e;" x="209.850226" xlink:href="#ma2e711424c" y="213.291892"/>
     <use style="fill:#008000;stroke:#ff7f0e;" x="281.754091" xlink:href="#ma2e711424c" y="124.614613"/>
     <use style="fill:#008000;stroke:#ff7f0e;" x="291.785823" xlink:href="#ma2e711424c" y="218.278634"/>
     <use style="fill:#008000;stroke:#ff7f0e;" x="229.202302" xlink:href="#ma2e711424c" y="184.414962"/>
     <use style="fill:#008000;stroke:#ff7f0e;" x="209.536418" xlink:href="#ma2e711424c" y="234.250446"/>
     <use style="fill:#008000;stroke:#ff7f0e;" x="369.802207" xlink:href="#ma2e711424c" y="242.117645"/>
     <use style="fill:#008000;stroke:#ff7f0e;" x="306.021574" xlink:href="#ma2e711424c" y="158.269912"/>
     <use style="fill:#008000;stroke:#ff7f0e;" x="348.780407" xlink:href="#ma2e711424c" y="221.010742"/>
     <use style="fill:#008000;stroke:#ff7f0e;" x="187.238554" xlink:href="#ma2e711424c" y="149.413616"/>
     <use style="fill:#008000;stroke:#ff7f0e;" x="315.021542" xlink:href="#ma2e711424c" y="166.628027"/>
     <use style="fill:#008000;stroke:#ff7f0e;" x="296.516412" xlink:href="#ma2e711424c" y="262.519773"/>
     <use style="fill:#008000;stroke:#ff7f0e;" x="220.549608" xlink:href="#ma2e711424c" y="141.975494"/>
     <use style="fill:#008000;stroke:#ff7f0e;" x="369.585425" xlink:href="#ma2e711424c" y="209.865474"/>
     <use style="fill:#008000;stroke:#ff7f0e;" x="342.061423" xlink:href="#ma2e711424c" y="125.53906"/>
     <use style="fill:#008000;stroke:#ff7f0e;" x="372.512784" xlink:href="#ma2e711424c" y="183.422531"/>
     <use style="fill:#008000;stroke:#ff7f0e;" x="227.379986" xlink:href="#ma2e711424c" y="293.228907"/>
     <use style="fill:#008000;stroke:#ff7f0e;" x="216.439706" xlink:href="#ma2e711424c" y="148.383588"/>
     <use style="fill:#008000;stroke:#ff7f0e;" x="215.475219" xlink:href="#ma2e711424c" y="187.24636"/>
     <use style="fill:#008000;stroke:#ff7f0e;" x="89.535998" xlink:href="#ma2e711424c" y="156.498067"/>
     <use style="fill:#008000;stroke:#ff7f0e;" x="92.454163" xlink:href="#ma2e711424c" y="148.635552"/>
     <use style="fill:#008000;stroke:#ff7f0e;" x="166.906034" xlink:href="#ma2e711424c" y="268.309469"/>
     <use style="fill:#008000;stroke:#ff7f0e;" x="264.367723" xlink:href="#ma2e711424c" y="206.389096"/>
     <use style="fill:#008000;stroke:#ff7f0e;" x="176.906015" xlink:href="#ma2e711424c" y="140.782707"/>
     <use style="fill:#008000;stroke:#ff7f0e;" x="82.408032" xlink:href="#ma2e711424c" y="180.693302"/>
     <use style="fill:#008000;stroke:#ff7f0e;" x="90.82952" xlink:href="#ma2e711424c" y="196.522149"/>
     <use style="fill:#008000;stroke:#ff7f0e;" x="377.875233" xlink:href="#ma2e711424c" y="174.009007"/>
     <use style="fill:#008000;stroke:#ff7f0e;" x="186.973302" xlink:href="#ma2e711424c" y="157.835549"/>
     <use style="fill:#008000;stroke:#ff7f0e;" x="383.95375" xlink:href="#ma2e711424c" y="177.195316"/>
     <use style="fill:#008000;stroke:#ff7f0e;" x="351.901818" xlink:href="#ma2e711424c" y="237.576082"/>
     <use style="fill:#008000;stroke:#ff7f0e;" x="114.391655" xlink:href="#ma2e711424c" y="202.590677"/>
     <use style="fill:#008000;stroke:#ff7f0e;" x="373.884377" xlink:href="#ma2e711424c" y="161.916203"/>
     <use style="fill:#008000;stroke:#ff7f0e;" x="314.193378" xlink:href="#ma2e711424c" y="289.96898"/>
     <use style="fill:#008000;stroke:#ff7f0e;" x="254.984284" xlink:href="#ma2e711424c" y="159.63945"/>
     <use style="fill:#008000;stroke:#ff7f0e;" x="225.577644" xlink:href="#ma2e711424c" y="143.191009"/>
     <use style="fill:#008000;stroke:#ff7f0e;" x="319.890571" xlink:href="#ma2e711424c" y="250.170859"/>
     <use style="fill:#008000;stroke:#ff7f0e;" x="143.996035" xlink:href="#ma2e711424c" y="211.640023"/>
     <use style="fill:#008000;stroke:#ff7f0e;" x="287.011051" xlink:href="#ma2e711424c" y="187.261348"/>
     <use style="fill:#008000;stroke:#ff7f0e;" x="194.648325" xlink:href="#ma2e711424c" y="273.505041"/>
     <use style="fill:#008000;stroke:#ff7f0e;" x="88.481262" xlink:href="#ma2e711424c" y="150.844411"/>
     <use style="fill:#008000;stroke:#ff7f0e;" x="236.660269" xlink:href="#ma2e711424c" y="185.310193"/>
     <use style="fill:#008000;stroke:#ff7f0e;" x="204.379329" xlink:href="#ma2e711424c" y="209.312262"/>
     <use style="fill:#008000;stroke:#ff7f0e;" x="249.728628" xlink:href="#ma2e711424c" y="256.296111"/>
     <use style="fill:#008000;stroke:#ff7f0e;" x="217.015873" xlink:href="#ma2e711424c" y="142.233733"/>
     <use style="fill:#008000;stroke:#ff7f0e;" x="76.688315" xlink:href="#ma2e711424c" y="234.230478"/>
     <use style="fill:#008000;stroke:#ff7f0e;" x="342.211225" xlink:href="#ma2e711424c" y="159.796672"/>
     <use style="fill:#008000;stroke:#ff7f0e;" x="260.141515" xlink:href="#ma2e711424c" y="183.28962"/>
     <use style="fill:#008000;stroke:#ff7f0e;" x="284.125988" xlink:href="#ma2e711424c" y="200.620924"/>
     <use style="fill:#008000;stroke:#ff7f0e;" x="281.557916" xlink:href="#ma2e711424c" y="161.281869"/>
     <use style="fill:#008000;stroke:#ff7f0e;" x="86.140068" xlink:href="#ma2e711424c" y="262.337993"/>
     <use style="fill:#008000;stroke:#ff7f0e;" x="346.51126" xlink:href="#ma2e711424c" y="244.416951"/>
     <use style="fill:#008000;stroke:#ff7f0e;" x="141.57933" xlink:href="#ma2e711424c" y="277.986463"/>
     <use style="fill:#008000;stroke:#ff7f0e;" x="191.864893" xlink:href="#ma2e711424c" y="235.029923"/>
     <use style="fill:#008000;stroke:#ff7f0e;" x="317.128664" xlink:href="#ma2e711424c" y="248.164443"/>
     <use style="fill:#008000;stroke:#ff7f0e;" x="145.846407" xlink:href="#ma2e711424c" y="167.441959"/>
     <use style="fill:#008000;stroke:#ff7f0e;" x="341.514863" xlink:href="#ma2e711424c" y="197.009679"/>
     <use style="fill:#008000;stroke:#ff7f0e;" x="347.021278" xlink:href="#ma2e711424c" y="229.357618"/>
     <use style="fill:#008000;stroke:#ff7f0e;" x="287.854465" xlink:href="#ma2e711424c" y="197.593707"/>
     <use style="fill:#008000;stroke:#ff7f0e;" x="90.826921" xlink:href="#ma2e711424c" y="198.445131"/>
     <use style="fill:#008000;stroke:#ff7f0e;" x="206.036371" xlink:href="#ma2e711424c" y="283.242916"/>
     <use style="fill:#008000;stroke:#ff7f0e;" x="282.768913" xlink:href="#ma2e711424c" y="118.931365"/>
     <use style="fill:#008000;stroke:#ff7f0e;" x="85.387199" xlink:href="#ma2e711424c" y="222.935869"/>
     <use style="fill:#008000;stroke:#ff7f0e;" x="97.791249" xlink:href="#ma2e711424c" y="280.189819"/>
     <use style="fill:#008000;stroke:#ff7f0e;" x="251.531334" xlink:href="#ma2e711424c" y="189.303819"/>
     <use style="fill:#008000;stroke:#ff7f0e;" x="344.974884" xlink:href="#ma2e711424c" y="238.798383"/>
     <use style="fill:#008000;stroke:#ff7f0e;" x="249.665905" xlink:href="#ma2e711424c" y="225.75344"/>
     <use style="fill:#008000;stroke:#ff7f0e;" x="269.765992" xlink:href="#ma2e711424c" y="241.315997"/>
     <use style="fill:#008000;stroke:#ff7f0e;" x="190.825736" xlink:href="#ma2e711424c" y="224.607013"/>
     <use style="fill:#008000;stroke:#ff7f0e;" x="110.560832" xlink:href="#ma2e711424c" y="151.134162"/>
     <use style="fill:#008000;stroke:#ff7f0e;" x="210.854031" xlink:href="#ma2e711424c" y="147.356149"/>
     <use style="fill:#008000;stroke:#ff7f0e;" x="73.832727" xlink:href="#ma2e711424c" y="273.747608"/>
     <use style="fill:#008000;stroke:#ff7f0e;" x="210.655953" xlink:href="#ma2e711424c" y="184.964368"/>
     <use style="fill:#008000;stroke:#ff7f0e;" x="224.699048" xlink:href="#ma2e711424c" y="281.131828"/>
     <use style="fill:#008000;stroke:#ff7f0e;" x="191.849778" xlink:href="#ma2e711424c" y="129.52017"/>
     <use style="fill:#008000;stroke:#ff7f0e;" x="199.40431" xlink:href="#ma2e711424c" y="176.640174"/>
     <use style="fill:#008000;stroke:#ff7f0e;" x="162.718874" xlink:href="#ma2e711424c" y="130.648198"/>
     <use style="fill:#008000;stroke:#ff7f0e;" x="143.890834" xlink:href="#ma2e711424c" y="145.109137"/>
     <use style="fill:#008000;stroke:#ff7f0e;" x="282.181167" xlink:href="#ma2e711424c" y="184.885179"/>
     <use style="fill:#008000;stroke:#ff7f0e;" x="339.327388" xlink:href="#ma2e711424c" y="295.488"/>
     <use style="fill:#008000;stroke:#ff7f0e;" x="252.221765" xlink:href="#ma2e711424c" y="286.636108"/>
     <use style="fill:#008000;stroke:#ff7f0e;" x="351.168665" xlink:href="#ma2e711424c" y="239.983965"/>
     <use style="fill:#008000;stroke:#ff7f0e;" x="249.879887" xlink:href="#ma2e711424c" y="133.642284"/>
     <use style="fill:#008000;stroke:#ff7f0e;" x="250.229043" xlink:href="#ma2e711424c" y="257.340721"/>
     <use style="fill:#008000;stroke:#ff7f0e;" x="119.180735" xlink:href="#ma2e711424c" y="240.41441"/>
     <use style="fill:#008000;stroke:#ff7f0e;" x="385.578398" xlink:href="#ma2e711424c" y="197.057435"/>
     <use style="fill:#008000;stroke:#ff7f0e;" x="329.073625" xlink:href="#ma2e711424c" y="258.687698"/>
     <use style="fill:#008000;stroke:#ff7f0e;" x="226.698716" xlink:href="#ma2e711424c" y="174.443699"/>
     <use style="fill:#008000;stroke:#ff7f0e;" x="209.934544" xlink:href="#ma2e711424c" y="170.85642"/>
     <use style="fill:#008000;stroke:#ff7f0e;" x="235.231459" xlink:href="#ma2e711424c" y="229.007069"/>
     <use style="fill:#008000;stroke:#ff7f0e;" x="293.973629" xlink:href="#ma2e711424c" y="177.435084"/>
     <use style="fill:#008000;stroke:#ff7f0e;" x="387.333337" xlink:href="#ma2e711424c" y="150.803264"/>
     <use style="fill:#008000;stroke:#ff7f0e;" x="385.832983" xlink:href="#ma2e711424c" y="248.225796"/>
     <use style="fill:#008000;stroke:#ff7f0e;" x="206.639853" xlink:href="#ma2e711424c" y="279.970097"/>
     <use style="fill:#008000;stroke:#ff7f0e;" x="359.804614" xlink:href="#ma2e711424c" y="155.850196"/>
     <use style="fill:#008000;stroke:#ff7f0e;" x="97.523655" xlink:href="#ma2e711424c" y="213.081807"/>
     <use style="fill:#008000;stroke:#ff7f0e;" x="314.460002" xlink:href="#ma2e711424c" y="260.279007"/>
     <use style="fill:#008000;stroke:#ff7f0e;" x="205.657782" xlink:href="#ma2e711424c" y="229.404551"/>
     <use style="fill:#008000;stroke:#ff7f0e;" x="184.022992" xlink:href="#ma2e711424c" y="252.303611"/>
     <use style="fill:#008000;stroke:#ff7f0e;" x="211.587746" xlink:href="#ma2e711424c" y="159.619009"/>
     <use style="fill:#008000;stroke:#ff7f0e;" x="316.371345" xlink:href="#ma2e711424c" y="151.246079"/>
     <use style="fill:#008000;stroke:#ff7f0e;" x="304.04377" xlink:href="#ma2e711424c" y="125.383342"/>
     <use style="fill:#008000;stroke:#ff7f0e;" x="353.039566" xlink:href="#ma2e711424c" y="156.535625"/>
     <use style="fill:#008000;stroke:#ff7f0e;" x="165.962159" xlink:href="#ma2e711424c" y="267.124374"/>
     <use style="fill:#008000;stroke:#ff7f0e;" x="245.687214" xlink:href="#ma2e711424c" y="169.765114"/>
     <use style="fill:#008000;stroke:#ff7f0e;" x="206.718026" xlink:href="#ma2e711424c" y="233.955164"/>
     <use style="fill:#008000;stroke:#ff7f0e;" x="239.326449" xlink:href="#ma2e711424c" y="229.259125"/>
     <use style="fill:#008000;stroke:#ff7f0e;" x="188.987078" xlink:href="#ma2e711424c" y="198.097802"/>
     <use style="fill:#008000;stroke:#ff7f0e;" x="209.400597" xlink:href="#ma2e711424c" y="285.136475"/>
     <use style="fill:#008000;stroke:#ff7f0e;" x="126.077481" xlink:href="#ma2e711424c" y="219.560473"/>
     <use style="fill:#008000;stroke:#ff7f0e;" x="93.985424" xlink:href="#ma2e711424c" y="135.790855"/>
     <use style="fill:#008000;stroke:#ff7f0e;" x="237.551561" xlink:href="#ma2e711424c" y="264.312892"/>
     <use style="fill:#008000;stroke:#ff7f0e;" x="165.683755" xlink:href="#ma2e711424c" y="267.397593"/>
     <use style="fill:#008000;stroke:#ff7f0e;" x="381.721412" xlink:href="#ma2e711424c" y="177.15641"/>
     <use style="fill:#008000;stroke:#ff7f0e;" x="381.365446" xlink:href="#ma2e711424c" y="125.667605"/>
     <use style="fill:#008000;stroke:#ff7f0e;" x="151.866415" xlink:href="#ma2e711424c" y="128.671545"/>
    </g>
   </g>
   <g id="line2d_21">
    <path clip-path="url(#p90eee745bb)" d="M 398.487273 123.410682 
L 395.240353 123.223214 
L 391.993434 123.035746 
L 388.746515 122.848278 
L 385.499595 122.66081 
L 382.252676 122.473342 
L 379.005757 122.285874 
L 375.758837 122.098406 
L 372.511918 121.910938 
L 369.264999 121.72347 
L 366.01808 121.536002 
L 362.77116 121.348534 
L 359.524241 121.161066 
L 356.277322 120.973598 
L 353.030402 120.78613 
L 349.783483 120.598662 
L 346.536564 120.411194 
L 343.289644 120.223726 
L 340.042725 120.036258 
L 336.795806 119.84879 
L 333.548886 119.661323 
L 330.301967 119.473855 
L 327.055048 119.286387 
L 323.808128 119.098919 
L 320.561209 118.911451 
L 317.31429 118.723983 
L 314.06737 118.536515 
L 310.820451 118.349047 
L 307.573532 118.161579 
L 304.326612 117.974111 
L 301.079693 117.786643 
L 297.832774 117.599175 
L 294.585854 117.411707 
L 291.338935 117.224239 
L 288.092016 117.036771 
L 284.845097 116.849303 
L 281.598177 116.661835 
L 278.351258 116.474367 
L 275.104339 116.286899 
L 271.857419 116.099431 
L 268.6105 115.911963 
L 265.363581 115.724495 
L 262.116661 115.537027 
L 258.869742 115.349559 
L 255.622823 115.162091 
L 252.375903 114.974623 
L 249.128984 114.787155 
L 245.882065 114.599687 
L 242.635145 114.41222 
L 239.388226 114.224752 
L 236.141307 114.037284 
L 232.894387 113.849816 
L 229.647468 113.662348 
L 226.400549 113.47488 
L 223.153629 113.287412 
L 219.90671 113.099944 
L 216.659791 112.912476 
L 213.412871 112.725008 
L 210.165952 112.53754 
L 206.919033 112.350072 
L 203.672114 112.162604 
L 200.425194 111.975136 
L 197.178275 111.787668 
L 193.931356 111.6002 
L 190.684436 111.412732 
L 187.437517 111.225264 
L 184.190598 111.037796 
L 180.943678 110.850328 
L 177.696759 110.66286 
L 174.44984 110.475392 
L 171.20292 110.287924 
L 167.956001 110.100456 
L 164.709082 109.912988 
L 161.462162 109.72552 
L 158.215243 109.538052 
L 154.968324 109.350585 
L 151.721404 109.163117 
L 148.474485 108.975649 
L 145.227566 108.788181 
L 141.980646 108.600713 
L 138.733727 108.413245 
L 135.486808 108.225777 
L 132.239888 108.038309 
L 128.992969 107.850841 
L 125.74605 107.663373 
L 122.49913 107.475905 
L 119.252211 107.288437 
L 116.005292 107.100969 
L 112.758373 106.913501 
L 109.511453 106.726033 
L 106.264534 106.538565 
L 103.017615 106.351097 
L 99.770695 106.163629 
L 96.523776 105.976161 
L 93.276857 105.788693 
L 90.029937 105.601225 
L 86.783018 105.413757 
L 83.536099 105.226289 
L 80.289179 105.038821 
L 77.04226 104.851353 
" style="fill:none;stroke:#0000ff;stroke-linecap:square;stroke-width:2;"/>
   </g>
   <g id="line2d_22">
    <path clip-path="url(#p90eee745bb)" d="M 398.487273 113.674531 
L 395.240353 113.711578 
L 391.993434 113.748625 
L 388.746515 113.785671 
L 385.499595 113.822718 
L 382.252676 113.859764 
L 379.005757 113.896811 
L 375.758837 113.933858 
L 372.511918 113.970904 
L 369.264999 114.007951 
L 366.01808 114.044997 
L 362.77116 114.082044 
L 359.524241 114.119091 
L 356.277322 114.156137 
L 353.030402 114.193184 
L 349.783483 114.23023 
L 346.536564 114.267277 
L 343.289644 114.304324 
L 340.042725 114.34137 
L 336.795806 114.378417 
L 333.548886 114.415463 
L 330.301967 114.45251 
L 327.055048 114.489557 
L 323.808128 114.526603 
L 320.561209 114.56365 
L 317.31429 114.600697 
L 314.06737 114.637743 
L 310.820451 114.67479 
L 307.573532 114.711836 
L 304.326612 114.748883 
L 301.079693 114.78593 
L 297.832774 114.822976 
L 294.585854 114.860023 
L 291.338935 114.897069 
L 288.092016 114.934116 
L 284.845097 114.971163 
L 281.598177 115.008209 
L 278.351258 115.045256 
L 275.104339 115.082302 
L 271.857419 115.119349 
L 268.6105 115.156396 
L 265.363581 115.193442 
L 262.116661 115.230489 
L 258.869742 115.267535 
L 255.622823 115.304582 
L 252.375903 115.341629 
L 249.128984 115.378675 
L 245.882065 115.415722 
L 242.635145 115.452769 
L 239.388226 115.489815 
L 236.141307 115.526862 
L 232.894387 115.563908 
L 229.647468 115.600955 
L 226.400549 115.638002 
L 223.153629 115.675048 
L 219.90671 115.712095 
L 216.659791 115.749141 
L 213.412871 115.786188 
L 210.165952 115.823235 
L 206.919033 115.860281 
L 203.672114 115.897328 
L 200.425194 115.934374 
L 197.178275 115.971421 
L 193.931356 116.008468 
L 190.684436 116.045514 
L 187.437517 116.082561 
L 184.190598 116.119607 
L 180.943678 116.156654 
L 177.696759 116.193701 
L 174.44984 116.230747 
L 171.20292 116.267794 
L 167.956001 116.304841 
L 164.709082 116.341887 
L 161.462162 116.378934 
L 158.215243 116.41598 
L 154.968324 116.453027 
L 151.721404 116.490074 
L 148.474485 116.52712 
L 145.227566 116.564167 
L 141.980646 116.601213 
L 138.733727 116.63826 
L 135.486808 116.675307 
L 132.239888 116.712353 
L 128.992969 116.7494 
L 125.74605 116.786446 
L 122.49913 116.823493 
L 119.252211 116.86054 
L 116.005292 116.897586 
L 112.758373 116.934633 
L 109.511453 116.971679 
L 106.264534 117.008726 
L 103.017615 117.045773 
L 99.770695 117.082819 
L 96.523776 117.119866 
L 93.276857 117.156913 
L 90.029937 117.193959 
L 86.783018 117.231006 
L 83.536099 117.268052 
L 80.289179 117.305099 
L 77.04226 117.342146 
" style="fill:none;stroke:#0000ff;stroke-dasharray:7.4,3.2;stroke-dashoffset:0;stroke-width:2;"/>
   </g>
   <g id="patch_3">
    <path d="M 57.6 307.584 
L 57.6 41.472 
" style="fill:none;stroke:#000000;stroke-linecap:square;stroke-linejoin:miter;stroke-width:0.8;"/>
   </g>
   <g id="patch_4">
    <path d="M 414.72 307.584 
L 414.72 41.472 
" style="fill:none;stroke:#000000;stroke-linecap:square;stroke-linejoin:miter;stroke-width:0.8;"/>
   </g>
   <g id="patch_5">
    <path d="M 57.6 307.584 
L 414.72 307.584 
" style="fill:none;stroke:#000000;stroke-linecap:square;stroke-linejoin:miter;stroke-width:0.8;"/>
   </g>
   <g id="patch_6">
    <path d="M 57.6 41.472 
L 414.72 41.472 
" style="fill:none;stroke:#000000;stroke-linecap:square;stroke-linejoin:miter;stroke-width:0.8;"/>
   </g>
   <g id="text_19">
    <!-- Perceptron_100_100 -->
    <defs>
     <path d="M 19.671875 64.796875 
L 19.671875 37.40625 
L 32.078125 37.40625 
Q 38.96875 37.40625 42.71875 40.96875 
Q 46.484375 44.53125 46.484375 51.125 
Q 46.484375 57.671875 42.71875 61.234375 
Q 38.96875 64.796875 32.078125 64.796875 
z
M 9.8125 72.90625 
L 32.078125 72.90625 
Q 44.34375 72.90625 50.609375 67.359375 
Q 56.890625 61.8125 56.890625 51.125 
Q 56.890625 40.328125 50.609375 34.8125 
Q 44.34375 29.296875 32.078125 29.296875 
L 19.671875 29.296875 
L 19.671875 0 
L 9.8125 0 
z
" id="DejaVuSans-80"/>
     <path d="M 56.203125 29.59375 
L 56.203125 25.203125 
L 14.890625 25.203125 
Q 15.484375 15.921875 20.484375 11.0625 
Q 25.484375 6.203125 34.421875 6.203125 
Q 39.59375 6.203125 44.453125 7.46875 
Q 49.3125 8.734375 54.109375 11.28125 
L 54.109375 2.78125 
Q 49.265625 0.734375 44.1875 -0.34375 
Q 39.109375 -1.421875 33.890625 -1.421875 
Q 20.796875 -1.421875 13.15625 6.1875 
Q 5.515625 13.8125 5.515625 26.8125 
Q 5.515625 40.234375 12.765625 48.109375 
Q 20.015625 56 32.328125 56 
Q 43.359375 56 49.78125 48.890625 
Q 56.203125 41.796875 56.203125 29.59375 
z
M 47.21875 32.234375 
Q 47.125 39.59375 43.09375 43.984375 
Q 39.0625 48.390625 32.421875 48.390625 
Q 24.90625 48.390625 20.390625 44.140625 
Q 15.875 39.890625 15.1875 32.171875 
z
" id="DejaVuSans-101"/>
     <path d="M 41.109375 46.296875 
Q 39.59375 47.171875 37.8125 47.578125 
Q 36.03125 48 33.890625 48 
Q 26.265625 48 22.1875 43.046875 
Q 18.109375 38.09375 18.109375 28.8125 
L 18.109375 0 
L 9.078125 0 
L 9.078125 54.6875 
L 18.109375 54.6875 
L 18.109375 46.1875 
Q 20.953125 51.171875 25.484375 53.578125 
Q 30.03125 56 36.53125 56 
Q 37.453125 56 38.578125 55.875 
Q 39.703125 55.765625 41.0625 55.515625 
z
" id="DejaVuSans-114"/>
     <path d="M 48.78125 52.59375 
L 48.78125 44.1875 
Q 44.96875 46.296875 41.140625 47.34375 
Q 37.3125 48.390625 33.40625 48.390625 
Q 24.65625 48.390625 19.8125 42.84375 
Q 14.984375 37.3125 14.984375 27.296875 
Q 14.984375 17.28125 19.8125 11.734375 
Q 24.65625 6.203125 33.40625 6.203125 
Q 37.3125 6.203125 41.140625 7.25 
Q 44.96875 8.296875 48.78125 10.40625 
L 48.78125 2.09375 
Q 45.015625 0.34375 40.984375 -0.53125 
Q 36.96875 -1.421875 32.421875 -1.421875 
Q 20.0625 -1.421875 12.78125 6.34375 
Q 5.515625 14.109375 5.515625 27.296875 
Q 5.515625 40.671875 12.859375 48.328125 
Q 20.21875 56 33.015625 56 
Q 37.15625 56 41.109375 55.140625 
Q 45.0625 54.296875 48.78125 52.59375 
z
" id="DejaVuSans-99"/>
     <path d="M 18.109375 8.203125 
L 18.109375 -20.796875 
L 9.078125 -20.796875 
L 9.078125 54.6875 
L 18.109375 54.6875 
L 18.109375 46.390625 
Q 20.953125 51.265625 25.265625 53.625 
Q 29.59375 56 35.59375 56 
Q 45.5625 56 51.78125 48.09375 
Q 58.015625 40.1875 58.015625 27.296875 
Q 58.015625 14.40625 51.78125 6.484375 
Q 45.5625 -1.421875 35.59375 -1.421875 
Q 29.59375 -1.421875 25.265625 0.953125 
Q 20.953125 3.328125 18.109375 8.203125 
z
M 48.6875 27.296875 
Q 48.6875 37.203125 44.609375 42.84375 
Q 40.53125 48.484375 33.40625 48.484375 
Q 26.265625 48.484375 22.1875 42.84375 
Q 18.109375 37.203125 18.109375 27.296875 
Q 18.109375 17.390625 22.1875 11.75 
Q 26.265625 6.109375 33.40625 6.109375 
Q 40.53125 6.109375 44.609375 11.75 
Q 48.6875 17.390625 48.6875 27.296875 
z
" id="DejaVuSans-112"/>
     <path d="M 18.3125 70.21875 
L 18.3125 54.6875 
L 36.8125 54.6875 
L 36.8125 47.703125 
L 18.3125 47.703125 
L 18.3125 18.015625 
Q 18.3125 11.328125 20.140625 9.421875 
Q 21.96875 7.515625 27.59375 7.515625 
L 36.8125 7.515625 
L 36.8125 0 
L 27.59375 0 
Q 17.1875 0 13.234375 3.875 
Q 9.28125 7.765625 9.28125 18.015625 
L 9.28125 47.703125 
L 2.6875 47.703125 
L 2.6875 54.6875 
L 9.28125 54.6875 
L 9.28125 70.21875 
z
" id="DejaVuSans-116"/>
     <path d="M 30.609375 48.390625 
Q 23.390625 48.390625 19.1875 42.75 
Q 14.984375 37.109375 14.984375 27.296875 
Q 14.984375 17.484375 19.15625 11.84375 
Q 23.34375 6.203125 30.609375 6.203125 
Q 37.796875 6.203125 41.984375 11.859375 
Q 46.1875 17.53125 46.1875 27.296875 
Q 46.1875 37.015625 41.984375 42.703125 
Q 37.796875 48.390625 30.609375 48.390625 
z
M 30.609375 56 
Q 42.328125 56 49.015625 48.375 
Q 55.71875 40.765625 55.71875 27.296875 
Q 55.71875 13.875 49.015625 6.21875 
Q 42.328125 -1.421875 30.609375 -1.421875 
Q 18.84375 -1.421875 12.171875 6.21875 
Q 5.515625 13.875 5.515625 27.296875 
Q 5.515625 40.765625 12.171875 48.375 
Q 18.84375 56 30.609375 56 
z
" id="DejaVuSans-111"/>
     <path d="M 54.890625 33.015625 
L 54.890625 0 
L 45.90625 0 
L 45.90625 32.71875 
Q 45.90625 40.484375 42.875 44.328125 
Q 39.84375 48.1875 33.796875 48.1875 
Q 26.515625 48.1875 22.3125 43.546875 
Q 18.109375 38.921875 18.109375 30.90625 
L 18.109375 0 
L 9.078125 0 
L 9.078125 54.6875 
L 18.109375 54.6875 
L 18.109375 46.1875 
Q 21.34375 51.125 25.703125 53.5625 
Q 30.078125 56 35.796875 56 
Q 45.21875 56 50.046875 50.171875 
Q 54.890625 44.34375 54.890625 33.015625 
z
" id="DejaVuSans-110"/>
     <path d="M 50.984375 -16.609375 
L 50.984375 -23.578125 
L -0.984375 -23.578125 
L -0.984375 -16.609375 
z
" id="DejaVuSans-95"/>
    </defs>
    <g transform="translate(174.392812 35.472)scale(0.12 -0.12)">
     <use xlink:href="#DejaVuSans-80"/>
     <use x="60.255859" xlink:href="#DejaVuSans-101"/>
     <use x="121.779297" xlink:href="#DejaVuSans-114"/>
     <use x="162.861328" xlink:href="#DejaVuSans-99"/>
     <use x="217.841797" xlink:href="#DejaVuSans-101"/>
     <use x="279.365234" xlink:href="#DejaVuSans-112"/>
     <use x="342.841797" xlink:href="#DejaVuSans-116"/>
     <use x="382.050781" xlink:href="#DejaVuSans-114"/>
     <use x="423.132812" xlink:href="#DejaVuSans-111"/>
     <use x="484.314453" xlink:href="#DejaVuSans-110"/>
     <use x="547.693359" xlink:href="#DejaVuSans-95"/>
     <use x="597.693359" xlink:href="#DejaVuSans-49"/>
     <use x="661.316406" xlink:href="#DejaVuSans-48"/>
     <use x="724.939453" xlink:href="#DejaVuSans-48"/>
     <use x="788.5625" xlink:href="#DejaVuSans-95"/>
     <use x="838.5625" xlink:href="#DejaVuSans-49"/>
     <use x="902.185547" xlink:href="#DejaVuSans-48"/>
     <use x="965.808594" xlink:href="#DejaVuSans-48"/>
    </g>
   </g>
  </g>
 </g>
 <defs>
  <clipPath id="p90eee745bb">
   <rect height="266.112" width="357.12" x="57.6" y="41.472"/>
  </clipPath>
 </defs>
</svg>
